<?xml version="1.0" encoding="UTF-8"?>
<!DOCTYPE svg PUBLIC "-//W3C//DTD SVG 1.1//EN" "http://www.w3.org/Graphics/SVG/1.1/DTD/svg11.dtd">
<!-- Creator: CorelDRAW 2018 -->
<svg xmlns="http://www.w3.org/2000/svg" xml:space="preserve" width="297mm" height="210mm" version="1.1" style="shape-rendering:geometricPrecision; text-rendering:geometricPrecision; image-rendering:optimizeQuality; fill-rule:evenodd; clip-rule:evenodd"
viewBox="0 0 29700 21000"
 xmlns:xlink="http://www.w3.org/1999/xlink">
 <defs>
  <style type="text/css">
   <![CDATA[
    .str0 {stroke:#2A7E29;stroke-width:20;stroke-miterlimit:22.9256}
    .fil4 {fill:#2A7E29}
    .fil3 {fill:#616161}
    .fil0 {fill:#B3B3B3}
    .fil2 {fill:#616161;fill-rule:nonzero}
    .fil1 {fill:#B3B3B3;fill-rule:nonzero}
   ]]>
  </style>
 </defs>
 <g id="Layer_x0020_1">
  <metadata id="CorelCorpID_0Corel-Layer"/>
  <g id="_975591968">
   <path class="fil0" d="M15341.2 12262.36c-196.68,-119.39 -544.34,-795.12 -687.68,-1033.32 -452.49,-751.87 -716,-1527.34 -716,-2502.84 0,-2106.21 1733.67,-3877.48 3825.8,-3877.48 1160.32,0 1707.77,581.43 2647.58,868.62 124.39,40.65 231.5,59.12 328.25,59.12 234.94,0 433.42,-615.98 516.34,-985.48 76.01,0 152.03,0 228.04,0 14.15,1580.3 28.28,3160.59 42.43,4740.9 -217.81,14.2 -308.44,-162.42 -341.71,-425.04 -183.12,-687.28 -414.28,-1150.88 -547.49,-1517.23 -815.47,-2242.59 -4552.86,-2977.79 -4817.27,-242.95 0,1208.27 780.04,2103.42 1992.38,2731.27 475.66,246.34 951.31,492.68 1426.97,739.01 756.73,391.88 1255.65,1005.48 1722.16,1445.42 196.69,119.39 544.34,795.12 687.69,1033.32 452.48,751.87 716,1527.35 716,2502.84 0,2106.21 -1852.29,4458.2 -4537.49,4193.78 -1160.32,0 -1440.89,-502.34 -2380.7,-789.54 -124.4,-40.65 -231.51,-59.12 -328.25,-59.12 -676.29,-19.77 -1096.02,1356.36 -1131.72,689.15 -14.14,-1580.31 -26.44,-3259.64 -40.58,-4839.95 177.21,-519.52 981.04,1668.5 1077,1932.38 791.98,2665.59 5017.84,3523.59 5311.49,262.73 0,-1208.28 -631.77,-2113.31 -1844.11,-2741.16 -475.66,-246.33 -872.23,-621.17 -1347.89,-867.5 -756.72,-391.89 -1225.99,-876.99 -1801.24,-1316.93z"/>
   <path class="fil1" d="M11213.72 1285.98c-332.98,0 -193.18,-4.95 -567.93,-0.97 -819.31,8.69 -1216.39,14.25 -1617.05,235.45 -400.66,221.19 -659.87,500.39 -918.93,1039.77 -239.03,497.67 -471.73,904.33 -598.96,1752.84l-371.92 -12.42 141.74 -3800.66 5362.39 0 5362.4 0 141.74 3800.66 -371.92 12.42c-127.23,-848.51 -359.93,-1255.17 -598.96,-1752.84 -259.06,-539.38 -518.27,-818.58 -918.93,-1039.77 -400.66,-221.2 -797.75,-226.76 -1617.05,-235.45 -374.75,-3.98 -234.95,0.97 -567.93,0.97l0 10338.42c0,732.46 1.46,1348.63 -6.81,1698.18 -8.9,375.64 89.75,944.89 473.51,1131.1 186.76,90.64 346.88,168.44 652.8,190.19l19.77 367.82 -2568.62 0 -2568.61 0 19.77 -367.82c305.91,-21.75 466.04,-99.55 652.8,-190.19 383.76,-186.21 482.41,-755.46 473.51,-1131.1 -8.27,-349.55 -6.81,-965.72 -6.81,-1698.18l0 -10338.42z"/>
   <path class="fil2" d="M8264.63 6215.11c69.51,0 130.94,-8.45 185.26,-25.02 53.77,-16.2 99.45,-39.78 136.48,-69.98 37.57,-30.2 65.97,-67.02 85.77,-110.11 19.8,-43.09 29.4,-91.31 29.4,-144.34l0 -854.69 389.77 0 0 854.69c0,86.17 -19.28,165.71 -57.37,238.25 -38.03,72.55 -92.83,135.52 -164.37,188.18 -71.08,53.02 -157.86,94.25 -259.83,123.71 -102.03,29.49 -217.23,44.2 -345.11,44.2 -127.86,0 -243.06,-14.71 -345.6,-44.2 -102.49,-29.46 -189.77,-70.69 -260.8,-123.71 -71.6,-52.66 -126.4,-115.63 -164.43,-188.18 -38.09,-72.54 -57.37,-152.08 -57.37,-238.25l0 -854.69 391.26 0 0 854.69c0,53.03 9.65,101.25 29.45,144.34 19.8,43.09 48.2,79.91 85.75,110.11 37.05,30.2 82.74,53.78 136.51,69.98 54.31,16.57 115.71,25.02 185.23,25.02z"/>
   <path class="fil2" d="M7854.97 7998.49l0 527.74 -443.03 0 0 -1371.72 671.69 0c148.43,0 276.23,9.89 382.8,29.63 106.06,19.75 193.14,46.89 260.77,82.15 67.63,34.88 117.51,77.2 148.46,125.85 31.51,49 47,102.57 47,161.09 0,44.77 -9.77,87.43 -29.83,127.63 -20.06,40.17 -49.83,77.2 -88.26,110.68 -38.97,33.15 -85.97,62.77 -142.11,88.49 -55.6,26.08 -120.35,46.88 -193.15,62.77 28.12,9.51 54.46,21.14 79.12,34.54 24.6,13.4 47.54,29.6 68.74,49l498.6 499.89 -397.71 0c-70.52,0 -124.95,-18.34 -162.77,-54.63l-406.32 -427.63c-16.63,-16.57 -35.54,-28.2 -56.14,-35.26 -20.69,-6.71 -50.46,-10.22 -88.32,-10.22l-149.54 0zm0 -193.2l225.23 0c71.6,0 133.51,-5.98 185.09,-17.63 52.14,-11.63 95.17,-27.83 128.97,-48.29 33.23,-20.8 58.43,-45.48 74.51,-74.03 16.03,-28.54 24.06,-59.57 24.06,-93.43 0,-66.62 -33.26,-118.08 -100.29,-154.4 -67.05,-36.31 -170.23,-54.28 -308.91,-54.28l-228.66 0 0 442.06z"/>
   <path class="fil2" d="M9140.29 10053.09c0,121.51 -29.98,231.62 -89.86,330.68 -59.86,98.69 -144.12,181.17 -252.2,247.46l506.94 416.48 -320.68 0c-46.72,0 -88.32,-4.42 -124.35,-12.88 -36.03,-8.83 -70.03,-25.77 -102,-50.83l-273.51 -229.77c-94.89,21 -195.37,31.28 -301.46,31.28 -144.11,0 -274.54,-18.4 -392.8,-54.85 -117.71,-36.83 -219.23,-88 -303.43,-153.2 -84.28,-65.55 -149.2,-143.23 -195.37,-232.72 -46.2,-89.48 -69.03,-186.71 -69.03,-291.65 0,-104.2 22.83,-201.43 69.03,-290.92 46.17,-89.48 111.09,-166.8 195.37,-231.97 84.2,-64.83 185.72,-116 303.43,-153.2 118.26,-36.83 248.69,-55.6 392.8,-55.6 143.6,0 274.57,18.77 392.29,55.6 117.74,37.2 218.71,88.37 302.43,153.91 83.74,65.2 148.71,142.52 193.88,232 45.66,89.12 68.52,185.98 68.52,290.18zm-398.4 0c0,-76.23 -12.69,-144.72 -38.55,-205.12 -25.91,-60.37 -62.91,-111.94 -110.63,-154.28 -48.2,-42.35 -106.6,-74.75 -175.57,-97.58 -69.03,-22.48 -147.17,-33.88 -233.97,-33.88 -87.28,0 -165.94,11.4 -234.94,33.88 -69.52,22.83 -128.4,55.23 -176.63,97.58 -47.69,42.34 -84.74,93.91 -110.6,154.28 -25.91,60.4 -38.57,128.89 -38.57,205.12 0,76.97 12.66,145.82 38.57,206.6 25.86,60.74 62.91,111.94 110.6,154.28 48.23,41.97 107.11,74.03 176.63,96.49 69,22.08 147.66,33.51 234.94,33.51 86.8,0 164.94,-11.43 233.97,-33.51 68.97,-22.46 127.37,-54.52 175.57,-96.49 47.72,-42.34 84.72,-93.54 110.63,-154.28 25.86,-60.78 38.55,-129.63 38.55,-206.6z"/>
   <path class="fil2" d="M9132.69 15890.43l0 99.54c0,29.32 -15.55,56.23 -47.32,80.66l-1086.68 964.94 1103.51 0 0 213.74 -1707.17 0 0 -104.42c0,-27.23 14.28,-51.69 43.46,-73.69l1086.68 -966.69 -1046.48 0 0 -214.08 1654 0z"/>
   <path class="fil2" d="M9291.31 19482.97l-335.97 0c-38.57,0 -69.8,-5.74 -93.05,-17.26 -23.26,-11.85 -40.32,-26.22 -51.63,-43.82l-139.63 -274.95 -813.2 0 -137.89 273.86c-8.51,15.46 -25.51,29.83 -50.51,42.77 -24.94,12.94 -55.6,19.4 -92.49,19.4l-340.48 0 804.65 -1398.37 445.49 0 804.71 1398.37zm-1335.31 -529.74l615.2 0 -224.2 -442.03c-13.63,-21.94 -27.23,-47.09 -41.4,-76.54 -14.77,-29.12 -28.97,-60.75 -43.71,-95.26 -13.06,34.51 -27.2,66.49 -41.43,95.97 -14.17,29.46 -27.8,54.97 -39.69,76.89l-224.77 440.97z"/>
   <path class="fil2" d="M8264.63 12738.86c69.51,0 130.94,-8.46 185.26,-25.03 53.77,-16.2 99.45,-39.77 136.48,-69.97 37.57,-30.2 65.97,-67.03 85.77,-110.12 19.8,-43.08 29.4,-91.31 29.4,-144.34l0 -854.69 389.77 0 0 854.69c0,86.17 -19.28,165.71 -57.37,238.26 -38.03,72.54 -92.83,135.51 -164.37,188.17 -71.08,53.03 -157.86,94.26 -259.83,123.71 -102.03,29.49 -217.23,44.2 -345.11,44.2 -127.86,0 -243.06,-14.71 -345.6,-44.2 -102.49,-29.45 -189.77,-70.68 -260.8,-123.71 -71.6,-52.66 -126.4,-115.63 -164.43,-188.17 -38.09,-72.55 -57.37,-152.09 -57.37,-238.26l0 -854.69 391.26 0 0 854.69c0,53.03 9.65,101.26 29.45,144.34 19.8,43.09 48.2,79.92 85.75,110.12 37.05,30.2 82.74,53.77 136.51,69.97 54.31,16.57 115.71,25.03 185.23,25.03z"/>
   <polygon class="fil3" points="8004.43,13690.89 8523.37,13690.89 8523.37,15079.66 8004.43,15079.66 "/>
  </g>
  <g id="_975589640">
   <path class="fil4 str0" d="M14121.95 9368.02l-19.12 -1564.38 -10.64 -1932.36c0,0 0,0 1828.18,11.91l-11.35 9568.84 -1574.84 -12.56 -293.42 -12.24 -11.12 -872.19c-452.92,655.81 -1020.03,1069.17 -1837.51,1069 -306.98,-0.07 -581.5,-65.25 -836.15,-181.45 -522.88,-238.6 -899.74,-712.57 -1152.6,-1223.25 -621.76,-1255.67 -607.8,-3305.31 -2.01,-4503.79 885.78,-1752.41 2742.06,-1904.5 3920.58,-347.53zm-2140.28 4027.44c-237.71,-423.6 -288.56,-934.85 -288.17,-1426.38 0.63,-798.34 231.69,-2100.57 1296.02,-1967.59 892.41,111.48 1062.12,1205.49 1061.83,1967.59 -0.28,778.76 -198.7,1894.35 -1099.81,1980.17 -487.12,46.38 -748.46,-179.01 -969.87,-553.79z"/>
   <path class="fil4 str0" d="M20600.08 13009.43c139.78,93.79 176,126.15 216.37,338.58 15.19,261.66 40.75,446.44 -153.6,654.08 -121.61,129.91 -319.53,257.47 -556.97,255.25 -103.76,101.95 -124.02,68.85 -283.07,97.34 -359.48,64.37 -519.92,580.4 -893.76,681.69 -132.71,35.95 -489.19,25.66 -646.64,28.85 35.9,77.01 -31.12,-25.19 45.85,37.76l38.97 31.48c5.7,4.71 14.95,13.27 21,18.18 6.25,5.07 14.88,13.94 21.49,18.98 82.68,63.01 -11.01,30.17 101.6,60.5 50.84,13.69 105.19,7.71 157.27,8.17 -86.32,209.42 -153.27,23.41 -250.7,209.28 120.13,80.14 222.45,42.7 397.44,44.72l44.59 99.01c457.27,109.6 1223.06,106.05 1702.76,40.48 982.77,-134.34 1082.84,-445.16 1351.61,-500.76 8.24,-3.12 8.67,-2.27 22.37,-13.55 44.14,-29.64 36.6,-23.78 44.14,-29.64 3.97,-3.09 77.68,-67.62 83.66,-73.41 95.74,-92.42 77.63,-94.95 152.75,-181.82 245.67,-514.38 371.77,-798.63 338.64,-1485.69 -13.31,-276.08 -43.13,-558.46 -132.97,-810.99 -37.48,-105.34 -86.4,-205.37 -139.24,-304.55 -48.53,-91.05 -120.57,-229.04 -202.62,-251.59 -235.37,18.35 -219.53,-94.08 -417.79,-205.51 -179.99,-101.17 -1135.28,-465.96 -1327.93,-365.64 60.81,120.41 39.26,75.17 234.43,87.6 -133.99,66.41 -269.77,-25.44 -218.36,138.31 27.51,87.6 73.88,106.99 296.21,107.38 -42.73,72.89 -26.64,133.63 -21.69,196.35 15.38,195.3 -41.85,38.04 54.57,171.68 117.8,163.29 176.06,116.61 160.19,368.28 -0.05,0.87 -27.38,253.05 -29.38,258.53 -90.55,247.68 -98.52,-63.37 -223.33,52.18 -77.2,71.46 -10.87,15.83 2.43,90.75 0.98,5.5 4.98,17.92 5.9,23.48 0.95,5.77 3.48,19.37 4.2,24.77 0.1,0.81 0.24,73.96 -0.39,79.49z"/>
   <path class="fil4 str0" d="M17429.59 9818.16c126.68,22.87 68.38,4.94 153.54,99.69 218.18,242.75 661,489.54 925.22,675.34 9.36,284.42 -6.81,301.58 -51.83,519.67 -61.78,299.38 -0.39,226.07 87.66,380.49 121.85,213.7 -110.77,757.27 89.24,912.37 -8.11,7.42 -22.42,13.19 -28.54,16.38 -113.11,58.66 -85.46,6.93 -144.26,65 37.48,-17.47 670.4,209.5 1004.54,263.82l876.83 173.74c119.51,33.9 110.69,53.81 258.09,84.77 0.63,-5.53 0.49,-78.68 0.39,-79.49 -0.72,-5.4 -3.25,-19 -4.2,-24.77 -0.92,-5.56 -4.92,-17.98 -5.9,-23.48 -13.3,-74.92 -79.63,-19.29 -2.43,-90.75 124.81,-115.55 132.78,195.5 223.33,-52.18 2,-5.48 29.33,-257.66 29.38,-258.53 15.87,-251.67 -42.39,-204.99 -160.19,-368.28 -96.42,-133.64 -39.19,23.62 -54.57,-171.68 -4.95,-62.72 -21.04,-123.46 21.69,-196.35 -222.33,-0.39 -268.7,-19.78 -296.21,-107.38 -51.41,-163.75 84.37,-71.9 218.36,-138.31 -195.17,-12.43 -173.62,32.81 -234.43,-87.6 192.65,-100.32 1147.94,264.47 1327.93,365.64 198.26,111.43 182.42,223.86 417.79,205.51 -185.79,-373.35 -1164.87,-618.17 -1513.86,-691.61 -511.27,-107.57 -1510.24,-98.84 -1567.65,-645.6 -105.32,-1003.08 1743.04,-638.2 2374.68,-399.61 240.96,91.02 599.5,281.49 804.28,332.11l-2.14 -1739.48 -620.29 -176.88 -585.69 -113.81c72.38,162.09 -33.69,61.46 126.32,136.79 9.52,4.48 792.84,133.24 1031.19,263.12l-6.93 1534.65 -165.25 -117.66c-43.51,-23.97 -92.91,-38.69 -140.81,-59.66 -978.67,-428.28 -1326.07,-374.34 -2307.4,-495.26l386.34 -20.41c-271.92,-480.75 -242.57,-163.95 -515.09,-680.03l188.41 -110.47c-190.67,-58.01 -548.14,-141.2 -704.55,-214.11 31.56,-86.8 29.11,-80.5 99.79,-120.87 131.44,-75.07 360.17,-69.37 535.43,-91.41 97.82,-12.29 246.78,-31.95 399.03,-27.74 24.62,0.68 190.37,3.93 203.08,1.96l197.46 -83.58c-666.92,-31.14 -1315.9,-9.87 -1906.24,248.74 -510.9,223.81 -754.8,538.12 -961.54,1107.2z"/>
   <path class="fil4 str0" d="M20970.35 8546.9l1.56 0.31 -674.54 -84.99 -197.46 83.58c-12.71,1.97 -178.46,-1.28 -203.08,-1.96 -152.25,-4.21 -301.21,15.45 -399.03,27.74 -175.26,22.04 -403.99,16.34 -535.43,91.41 -70.68,40.37 -68.23,34.07 -99.79,120.87 156.41,72.91 513.88,156.1 704.55,214.11l-188.41 110.47c272.52,516.08 243.17,199.28 515.09,680.03l-386.34 20.41c981.33,120.92 1328.73,66.98 2307.4,495.26 47.9,20.97 97.3,35.69 140.81,59.66l165.25 117.66 6.93 -1534.65c-238.35,-129.88 -1021.67,-258.64 -1031.19,-263.12 -160.01,-75.33 -53.94,25.3 -126.32,-136.79z"/>
   <path class="fil4 str0" d="M20736.67 13360.93l79.78 -12.92c-40.37,-212.43 -76.59,-244.79 -216.37,-338.58 -147.4,-30.96 -138.58,-50.87 -258.09,-84.77l-876.83 -173.74c-334.14,-54.32 -967.06,-281.29 -1004.54,-263.82 58.8,-58.07 31.15,-6.34 144.26,-65 6.12,-3.19 20.43,-8.96 28.54,-16.38 -200.01,-155.1 32.61,-698.67 -89.24,-912.37 -88.05,-154.42 -149.44,-81.11 -87.66,-380.49 45.02,-218.09 61.19,-235.25 51.83,-519.67 -264.22,-185.8 -707.04,-432.59 -925.22,-675.34 -85.16,-94.75 -26.86,-76.82 -153.54,-99.69 -222.09,689.69 -149.54,1562.76 260.41,2208.6 343.79,541.64 1169.45,728.78 1775.7,835.3 281.34,49.42 821.3,108.98 1069.16,248.12 195.56,109.77 87.45,53.73 201.81,250.75z"/>
   <path class="fil4 str0" d="M18859.92 15593.3l-44.59 -99.01c-174.99,-2.02 -277.31,35.42 -397.44,-44.72 97.43,-185.87 164.38,0.14 250.7,-209.28 -52.08,-0.46 -106.43,5.52 -157.27,-8.17 -112.61,-30.33 -18.92,2.51 -101.6,-60.5 -6.61,-5.04 -15.24,-13.91 -21.49,-18.98 -6.05,-4.91 -15.3,-13.47 -21,-18.18l-38.97 -31.48c-76.97,-62.95 -9.95,39.25 -45.85,-37.76 157.45,-3.19 513.93,7.1 646.64,-28.85 373.84,-101.29 534.28,-617.32 893.76,-681.69 159.05,-28.49 179.31,4.61 283.07,-97.34 -527.44,72.88 -1000.26,16.25 -1508.71,-108.57 -330.39,-81.09 -885.26,-296.31 -1117.9,-446.54l-4.38 1545.39c195.43,132.65 1125.34,353.35 1385.03,345.68z"/>
   <path class="fil4 str0" d="M17436.71 15318.21c610.6,205.66 1375.77,395.56 2065.45,411.1 738.71,16.46 1726.4,-3.1 2345.89,-531.06 48.81,-41.61 31.45,-22.01 66.24,-65.23 -268.77,55.6 -368.84,366.42 -1351.61,500.76 -479.7,65.57 -1245.49,69.12 -1702.76,-40.48 -259.69,7.67 -1189.6,-213.03 -1385.03,-345.68l4.38 -1545.39c232.64,150.23 787.51,365.45 1117.9,446.54 508.45,124.82 981.27,181.45 1508.71,108.57 237.44,2.22 435.36,-125.34 556.97,-255.25 194.35,-207.64 168.79,-392.42 153.6,-654.08l-79.78 12.92c130.98,346.33 -96.97,654.99 -353.8,760.33 -290.53,119.16 -756.52,117.19 -1087.45,82.76 -1117.2,-116.22 -1282.62,-416.35 -1880.63,-618.62l21.92 1732.81z"/>
  </g>
 </g>
</svg>
