<?xml version="1.0" encoding="UTF-8"?>
<!DOCTYPE svg PUBLIC "-//W3C//DTD SVG 1.1//EN" "http://www.w3.org/Graphics/SVG/1.1/DTD/svg11.dtd">
<!-- Creator: CorelDRAW 2019 (64-Bit) -->
<svg xmlns="http://www.w3.org/2000/svg" xml:space="preserve" width="297mm" height="210mm" version="1.1" style="shape-rendering:geometricPrecision; text-rendering:geometricPrecision; image-rendering:optimizeQuality; fill-rule:evenodd; clip-rule:evenodd"
viewBox="0 0 29700 21000"
 xmlns:xlink="http://www.w3.org/1999/xlink"
 xmlns:xodm="http://www.corel.com/coreldraw/odm/2003">
 <defs>
  <style type="text/css">
   <![CDATA[
    .fil5 {fill:none}
    .fil2 {fill:#3323A8}
    .fil4 {fill:#616161}
    .fil0 {fill:#B3B3B3}
    .fil3 {fill:#616161;fill-rule:nonzero}
    .fil1 {fill:#B3B3B3;fill-rule:nonzero}
   ]]>
  </style>
 </defs>
 <g id="Layer_x0020_1">
  <metadata id="CorelCorpID_0Corel-Layer"/>
  <g id="_1357172128">
   <path class="fil0" d="M15056.29 11116.83c-68.84,-41.79 -190.52,-278.3 -240.69,-361.66 -158.37,-263.16 -250.6,-534.58 -250.6,-876 0,-737.17 606.78,-1357.12 1339.03,-1357.12 406.11,0 597.72,203.5 926.65,304.02 43.54,14.23 81.03,20.69 114.89,20.69 82.23,0 151.69,-215.59 180.72,-344.92 26.6,0 53.21,0 79.81,0 4.95,553.11 9.9,1106.21 14.85,1659.32 -76.23,4.97 -107.95,-56.85 -119.6,-148.77 -64.09,-240.54 -145,-402.8 -191.62,-531.02 -285.41,-784.91 -1593.5,-1042.23 -1686.04,-85.04 0,422.9 273.01,736.2 697.33,955.95 166.48,86.21 332.96,172.43 499.44,258.65 264.86,137.16 439.48,351.92 602.76,505.9 68.84,41.78 190.52,278.29 240.69,361.66 158.37,263.15 250.6,534.57 250.6,875.99 0,737.18 -648.31,1560.37 -1588.12,1467.82 -406.11,0 -504.31,-175.82 -833.25,-276.33 -43.54,-14.23 -81.02,-20.7 -114.88,-20.7 -236.71,-6.92 -383.61,474.73 -396.11,241.2 -4.95,-553.1 -9.25,-1140.87 -14.2,-1693.98 62.02,-181.83 343.37,583.98 376.95,676.34 277.19,932.95 1756.24,1233.25 1859.02,91.95 0,-422.9 -221.12,-739.66 -645.44,-959.41 -166.48,-86.21 -305.28,-217.4 -471.76,-303.62 -264.85,-137.16 -429.09,-306.94 -630.43,-460.92z"/>
   <path class="fil1" d="M13611.67 7275.1c-116.54,0 -67.61,-1.74 -198.77,-0.35 -286.76,3.05 -425.74,4.99 -565.97,82.41 -140.23,77.42 -230.96,175.14 -321.63,363.92 -83.66,174.19 -165.1,316.52 -209.63,613.5l-130.18 -4.35 49.61 -1330.23 1876.84 0 1876.84 0 49.61 1330.23 -130.18 4.35c-44.53,-296.98 -125.97,-439.31 -209.63,-613.5 -90.67,-188.78 -181.4,-286.5 -321.63,-363.92 -140.23,-77.42 -279.21,-79.36 -565.96,-82.41 -131.17,-1.39 -82.24,0.35 -198.78,0.35l0 3618.44c0,256.36 0.51,472.02 -2.38,594.36 -3.12,131.48 31.41,330.71 165.73,395.89 65.36,31.72 121.41,58.95 228.47,66.56l6.92 128.74 -899.01 0 -899.01 0 6.92 -128.74c107.07,-7.61 163.11,-34.84 228.48,-66.56 134.31,-65.18 168.84,-264.41 165.72,-395.89 -2.89,-122.34 -2.38,-338 -2.38,-594.36l0 -3618.44z"/>
   <path class="fil2" d="M13645.88 10502.2c206.16,-35.9 436.37,-61.46 638.09,-9.12 196.79,51.06 283.87,164.54 273.78,404.26 -194.41,7.21 -769.52,-16.68 -905.6,56.97l-26.41 0.61c-204.9,62.24 -370.8,147.75 -451.07,289.29 -88.18,38.36 -155.02,348.98 -161.37,484.16 -9.84,209.32 18.57,375.43 102.66,542.39 174.24,345.98 613.73,486.2 888.31,385.11 206.13,-33.09 325,-134.41 449.18,-270.27 32.72,-35.8 64.63,-92.79 105.02,-131.55l-3.7 346.88 3.03 2.7 737.06 0.03 0.19 -1019.93c-2.21,-178.24 5.68,-355.23 2.96,-533.19 -1.31,-85.43 -6.43,-169.07 -16.47,-251.1 -8.8,-71.93 -32.05,-155.96 -37.19,-218.06 -104.55,-295.54 -166.04,-409.11 -391.66,-548.4 -365.21,-167.11 -803.2,-193.82 -1236.62,-101.55l-165.33 25.64 -217.73 61.23c-22.9,27.22 -7.87,-2.99 -19.17,36.43 -4.89,17.04 -5.12,22.47 -6.34,40.29l0.81 588.54c153.33,-63 229.92,-122.68 420.93,-175.89l16.64 -5.47zm522.86 916.38l383.14 3.44c30.03,152.04 -13.77,328.41 -82.58,439.33 -70.13,113.03 -138.85,189.94 -305.43,230.04 -139.96,36.46 -295.49,-34.03 -346.44,-107.06 -63.81,-91.45 -91.69,-258.25 -33.25,-377.85 62.87,-128.7 213.59,-174.57 384.56,-187.9z"/>
   <path class="fil2" d="M16033.12 9951.02l-341.68 -0.95 -5.66 621.46 357.48 2.56 3.51 2028.37 730.04 -4.88 3.89 -1674.3 -5.26 -347.69 615.34 -0.07 5.46 -631.21 -159.21 -7.16 -150.52 2.6 -304.91 3.49 3.13 -256.08 5.93 -39.76 32.08 -88.27 19.87 -12.51c2.77,-1.57 15.47,-9.32 19.3,-11.18 30.55,-14.87 14.96,-11.22 51.11,-16.61 51.57,-41.86 181.65,-24.66 246.27,-25.47 88.88,-1.13 205.84,0.42 291.77,-8.34l-4 -566.05 -221.51 -0.89c-275.59,1.71 -518.64,-21.22 -759.04,72.18 -139.33,38.63 -270.54,167.37 -317.31,288.92 -46.35,33.61 -78.69,192.54 -86.97,264.63l-10.43 87.2c-0.2,65.64 11.05,281.97 -18.68,320.01z"/>
   <path class="fil3" d="M12579.49 9000.29c24.33,0 45.83,-2.96 64.84,-8.76 18.82,-5.67 34.81,-13.92 47.77,-24.49 13.15,-10.57 23.09,-23.46 30.02,-38.54 6.93,-15.08 10.29,-31.96 10.29,-50.52l0 -299.14 136.42 0 0 299.14c0,30.16 -6.75,58 -20.08,83.39 -13.31,25.39 -32.49,47.43 -57.53,65.86 -24.88,18.56 -55.25,32.99 -90.94,43.3 -35.71,10.32 -76.03,15.47 -120.79,15.47 -44.75,0 -85.07,-5.15 -120.96,-15.47 -35.87,-10.31 -66.42,-24.74 -91.28,-43.3 -25.05,-18.43 -44.24,-40.47 -57.55,-65.86 -13.33,-25.39 -20.08,-53.23 -20.08,-83.39l0 -299.14 136.94 0 0 299.14c0,18.56 3.38,35.44 10.31,50.52 6.93,15.08 16.87,27.97 30.01,38.54 12.97,10.57 28.96,18.82 47.78,24.49 19.01,5.8 40.5,8.76 64.83,8.76z"/>
   <path class="fil3" d="M12436.11 9624.47l0 184.71 -155.06 0 0 -480.1 235.09 0c51.95,0 96.68,3.46 133.99,10.37 37.11,6.91 67.59,16.41 91.26,28.75 23.67,12.21 41.13,27.02 51.96,44.05 11.03,17.15 16.45,35.9 16.45,56.38 0,15.67 -3.42,30.6 -10.44,44.67 -7.02,14.06 -17.44,27.02 -30.89,38.74 -13.64,11.6 -30.09,21.97 -49.74,30.97 -19.46,9.13 -42.12,16.41 -67.6,21.97 9.84,3.33 19.06,7.4 27.69,12.09 8.61,4.69 16.65,10.36 24.06,17.15l174.51 174.96 -139.2 0c-24.68,0 -43.73,-6.42 -56.97,-19.12l-142.21 -149.67c-5.82,-5.8 -12.43,-9.87 -19.65,-12.34 -7.24,-2.35 -17.66,-3.58 -30.91,-3.58l-52.34 0zm0 -67.62l78.83 0c25.06,0 46.73,-2.09 64.78,-6.17 18.25,-4.07 33.31,-9.74 45.14,-16.9 11.63,-7.28 20.45,-15.92 26.08,-25.91 5.61,-9.99 8.42,-20.85 8.42,-32.7 0,-23.32 -11.64,-41.33 -35.1,-54.04 -23.47,-12.71 -59.58,-19 -108.12,-19l-80.03 0 0 154.72z"/>
   <path class="fil3" d="M12885.97 10343.58c0,42.53 -10.49,81.07 -31.45,115.74 -20.95,34.54 -50.44,63.41 -88.27,86.61l177.43 145.77 -112.24 0c-16.35,0 -30.91,-1.55 -43.52,-4.51 -12.61,-3.09 -24.51,-9.02 -35.7,-17.79l-95.73 -80.42c-33.21,7.35 -68.38,10.95 -105.51,10.95 -50.43,0 -96.09,-6.44 -137.47,-19.2 -41.21,-12.89 -76.74,-30.8 -106.21,-53.62 -29.49,-22.94 -52.22,-50.13 -68.38,-81.45 -16.17,-31.32 -24.16,-65.35 -24.16,-102.08 0,-36.47 7.99,-70.5 24.16,-101.82 16.16,-31.32 38.89,-58.38 68.38,-81.19 29.47,-22.69 65,-40.6 106.21,-53.62 41.38,-12.89 87.04,-19.46 137.47,-19.46 50.26,0 96.1,6.57 137.3,19.46 41.21,13.02 76.55,30.93 105.85,53.87 29.31,22.82 52.05,49.88 67.86,81.2 15.98,31.19 23.98,65.09 23.98,101.56zm-139.44 0c0,-26.68 -4.43,-50.65 -13.49,-71.79 -9.07,-21.13 -22.02,-39.18 -38.72,-54 -16.87,-14.82 -37.31,-26.16 -61.45,-34.15 -24.16,-7.87 -51.51,-11.86 -81.89,-11.86 -30.55,0 -58.08,3.99 -82.23,11.86 -24.33,7.99 -44.94,19.33 -61.82,34.15 -16.69,14.82 -29.65,32.87 -38.71,54 -9.07,21.14 -13.5,45.11 -13.5,71.79 0,26.94 4.43,51.04 13.5,72.31 9.06,21.26 22.02,39.18 38.71,54 16.88,14.69 37.49,25.91 61.82,33.77 24.15,7.73 51.68,11.73 82.23,11.73 30.38,0 57.73,-4 81.89,-11.73 24.14,-7.86 44.58,-19.08 61.45,-33.77 16.7,-14.82 29.65,-32.74 38.72,-54 9.06,-21.27 13.49,-45.37 13.49,-72.31z"/>
   <path class="fil3" d="M12883.31 12386.65l0 34.84c0,10.26 -5.44,19.68 -16.56,28.23l-380.34 337.73 386.23 0 0 74.81 -597.5 0 0 -36.55c0,-9.53 4.99,-18.09 15.2,-25.79l380.35 -338.34 -366.28 0 0 -74.93 578.9 0z"/>
   <path class="fil3" d="M12938.83 13644.04l-117.59 0c-13.5,0 -24.43,-2.01 -32.57,-6.04 -8.14,-4.15 -14.1,-9.18 -18.07,-15.34l-48.87 -96.23 -284.62 0 -48.26 95.85c-2.98,5.41 -8.93,10.44 -17.68,14.97 -8.73,4.53 -19.46,6.79 -32.37,6.79l-119.17 0 281.63 -489.43 155.92 0 281.65 489.43zm-467.36 -185.41l215.32 0 -78.47 -154.71c-4.76,-7.68 -9.53,-16.48 -14.49,-26.79 -5.17,-10.19 -10.14,-21.26 -15.3,-33.34 -4.57,12.08 -9.52,23.27 -14.5,33.59 -4.96,10.31 -9.73,19.24 -13.89,26.91l-78.67 154.34z"/>
   <path class="fil3" d="M12579.49 11283.6c24.33,0 45.83,-2.96 64.84,-8.76 18.82,-5.67 34.81,-13.92 47.77,-24.49 13.15,-10.57 23.09,-23.46 30.02,-38.54 6.93,-15.08 10.29,-31.96 10.29,-50.52l0 -299.14 136.42 0 0 299.14c0,30.16 -6.75,58 -20.08,83.39 -13.31,25.39 -32.49,47.43 -57.53,65.86 -24.88,18.56 -55.25,32.99 -90.94,43.3 -35.71,10.32 -76.03,15.47 -120.79,15.47 -44.75,0 -85.07,-5.15 -120.96,-15.47 -35.87,-10.31 -66.42,-24.74 -91.28,-43.3 -25.05,-18.43 -44.24,-40.47 -57.55,-65.86 -13.33,-25.39 -20.08,-53.23 -20.08,-83.39l0 -299.14 136.94 0 0 299.14c0,18.56 3.38,35.44 10.31,50.52 6.93,15.08 16.87,27.97 30.01,38.54 12.97,10.57 28.96,18.82 47.78,24.49 19.01,5.8 40.5,8.76 64.83,8.76z"/>
   <polygon class="fil4" points="12488.42,11616.81 12670.05,11616.81 12670.05,12102.88 12488.42,12102.88 "/>
  </g>
  <rect class="fil5" x="11158.82" y="5852.11" width="7382.36" height="9126.22"/>
 </g>
</svg>
