<?xml version="1.0" encoding="UTF-8"?>
<!DOCTYPE svg PUBLIC "-//W3C//DTD SVG 1.1//EN" "http://www.w3.org/Graphics/SVG/1.1/DTD/svg11.dtd">
<!-- Creator: CorelDRAW 2019 (64-Bit) -->
<svg xmlns="http://www.w3.org/2000/svg" xml:space="preserve" width="297mm" height="210mm" version="1.1" style="shape-rendering:geometricPrecision; text-rendering:geometricPrecision; image-rendering:optimizeQuality; fill-rule:evenodd; clip-rule:evenodd"
viewBox="0 0 29700 21000"
 xmlns:xlink="http://www.w3.org/1999/xlink"
 xmlns:xodm="http://www.corel.com/coreldraw/odm/2003">
 <defs>
  <style type="text/css">
   <![CDATA[
    .str0 {stroke:#2A7E29;stroke-width:20;stroke-miterlimit:22.9256}
    .fil5 {fill:none}
    .fil4 {fill:#2A7E29}
    .fil3 {fill:#616161}
    .fil0 {fill:#B3B3B3}
    .fil2 {fill:#616161;fill-rule:nonzero}
    .fil1 {fill:#B3B3B3;fill-rule:nonzero}
   ]]>
  </style>
 </defs>
 <g id="Layer_x0020_1">
  <metadata id="CorelCorpID_0Corel-Layer"/>
  <g id="_1233196064">
   <g>
    <path class="fil0" d="M15021.92 11116.83c-68.84,-41.79 -190.52,-278.3 -240.69,-361.66 -158.37,-263.16 -250.6,-534.58 -250.6,-876 0,-737.17 606.79,-1357.12 1339.03,-1357.12 406.11,0 597.72,203.5 926.66,304.02 43.53,14.23 81.02,20.69 114.88,20.69 82.23,0 151.7,-215.59 180.72,-344.92 26.61,0 53.21,0 79.82,0 4.95,553.11 9.89,1106.21 14.84,1659.32 -76.23,4.97 -107.95,-56.85 -119.59,-148.77 -64.1,-240.54 -145,-402.81 -191.63,-531.03 -285.41,-784.9 -1593.5,-1042.22 -1686.04,-85.03 0,422.9 273.02,736.2 697.34,955.95 166.48,86.21 332.95,172.43 499.44,258.65 264.85,137.16 439.47,351.92 602.75,505.9 68.84,41.78 190.52,278.29 240.69,361.66 158.37,263.15 250.6,534.57 250.6,875.99 0,737.18 -648.3,1560.37 -1588.12,1467.83 -406.11,0 -504.31,-175.83 -833.25,-276.34 -43.53,-14.23 -81.02,-20.7 -114.88,-20.7 -236.7,-6.92 -383.61,474.73 -396.1,241.2 -4.96,-553.1 -9.26,-1140.87 -14.21,-1693.97 62.03,-181.84 343.37,583.97 376.95,676.33 277.19,932.95 1756.25,1233.25 1859.03,91.95 0,-422.89 -221.13,-739.66 -645.44,-959.4 -166.48,-86.22 -305.28,-217.41 -471.77,-303.63 -264.85,-137.16 -429.09,-306.94 -630.43,-460.92z"/>
    <path class="fil1" d="M13577.3 7275.09c-116.54,0 -67.61,-1.73 -198.77,-0.34 -286.76,3.05 -425.74,4.99 -565.97,82.41 -140.23,77.42 -230.96,175.14 -321.63,363.92 -83.66,174.19 -165.1,316.52 -209.63,613.5l-130.18 -4.35 49.61 -1330.23 1876.84 0 1876.84 0 49.61 1330.23 -130.17 4.35c-44.53,-296.98 -125.98,-439.31 -209.64,-613.5 -90.67,-188.78 -181.39,-286.5 -321.62,-363.92 -140.23,-77.42 -279.21,-79.36 -565.97,-82.41 -131.16,-1.39 -82.23,0.34 -198.78,0.34l0 3618.45c0,256.36 0.51,472.02 -2.38,594.36 -3.11,131.48 31.41,330.71 165.73,395.89 65.37,31.72 121.41,58.95 228.48,66.57l6.92 128.73 -899.02 0 -899.01 0 6.92 -128.73c107.07,-7.62 163.11,-34.85 228.48,-66.57 134.31,-65.18 168.84,-264.41 165.73,-395.89 -2.9,-122.34 -2.39,-338 -2.39,-594.36l0 -3618.45z"/>
    <path class="fil2" d="M12545.12 9000.29c24.33,0 45.83,-2.96 64.84,-8.76 18.82,-5.67 34.81,-13.92 47.77,-24.49 13.15,-10.57 23.09,-23.46 30.02,-38.54 6.93,-15.08 10.29,-31.96 10.29,-50.52l0 -299.14 136.42 0 0 299.14c0,30.16 -6.75,58 -20.08,83.39 -13.31,25.39 -32.49,47.43 -57.53,65.86 -24.88,18.56 -55.25,32.99 -90.94,43.3 -35.71,10.32 -76.03,15.47 -120.79,15.47 -44.75,0 -85.07,-5.15 -120.96,-15.47 -35.87,-10.31 -66.42,-24.74 -91.28,-43.3 -25.06,-18.43 -44.24,-40.47 -57.55,-65.86 -13.33,-25.39 -20.08,-53.23 -20.08,-83.39l0 -299.14 136.94 0 0 299.14c0,18.56 3.38,35.44 10.31,50.52 6.93,15.08 16.87,27.97 30.01,38.54 12.97,10.57 28.96,18.82 47.78,24.49 19.01,5.8 40.5,8.76 64.83,8.76z"/>
    <path class="fil2" d="M12401.74 9624.47l0 184.71 -155.06 0 0 -480.1 235.09 0c51.95,0 96.68,3.46 133.98,10.37 37.12,6.91 67.6,16.41 91.27,28.75 23.67,12.21 41.13,27.02 51.96,44.05 11.03,17.15 16.45,35.9 16.45,56.38 0,15.67 -3.42,30.6 -10.44,44.67 -7.02,14.06 -17.44,27.02 -30.89,38.74 -13.64,11.6 -30.09,21.97 -49.74,30.97 -19.46,9.13 -42.12,16.41 -67.6,21.97 9.84,3.33 19.06,7.4 27.69,12.09 8.61,4.69 16.64,10.36 24.06,17.15l174.51 174.96 -139.2 0c-24.68,0 -43.73,-6.42 -56.97,-19.12l-142.21 -149.67c-5.82,-5.8 -12.44,-9.87 -19.65,-12.34 -7.24,-2.35 -17.66,-3.58 -30.91,-3.58l-52.34 0zm0 -67.62l78.83 0c25.06,0 46.73,-2.09 64.78,-6.17 18.25,-4.07 33.31,-9.74 45.14,-16.9 11.63,-7.28 20.45,-15.92 26.08,-25.91 5.61,-9.99 8.42,-20.85 8.42,-32.7 0,-23.32 -11.64,-41.33 -35.1,-54.04 -23.47,-12.71 -59.58,-19 -108.12,-19l-80.03 0 0 154.72z"/>
    <path class="fil2" d="M12851.6 10343.58c0,42.53 -10.49,81.07 -31.45,115.74 -20.95,34.54 -50.44,63.41 -88.27,86.61l177.43 145.77 -112.24 0c-16.35,0 -30.91,-1.55 -43.52,-4.51 -12.61,-3.09 -24.51,-9.02 -35.7,-17.79l-95.73 -80.42c-33.21,7.35 -68.38,10.95 -105.51,10.95 -50.44,0 -96.09,-6.44 -137.48,-19.2 -41.2,-12.89 -76.73,-30.8 -106.2,-53.62 -29.5,-22.94 -52.22,-50.13 -68.38,-81.45 -16.17,-31.32 -24.16,-65.35 -24.16,-102.08 0,-36.47 7.99,-70.5 24.16,-101.82 16.16,-31.32 38.88,-58.38 68.38,-81.19 29.47,-22.69 65,-40.6 106.2,-53.62 41.39,-12.89 87.04,-19.46 137.48,-19.46 50.26,0 96.1,6.57 137.3,19.46 41.21,13.02 76.55,30.93 105.85,53.87 29.31,22.82 52.05,49.88 67.86,81.2 15.98,31.19 23.98,65.09 23.98,101.56zm-139.44 0c0,-26.68 -4.44,-50.65 -13.49,-71.79 -9.07,-21.13 -22.02,-39.18 -38.72,-54 -16.87,-14.82 -37.31,-26.16 -61.45,-34.15 -24.16,-7.87 -51.51,-11.86 -81.89,-11.86 -30.55,0 -58.08,3.99 -82.23,11.86 -24.33,7.99 -44.94,19.33 -61.82,34.15 -16.69,14.82 -29.66,32.87 -38.71,54 -9.07,21.14 -13.5,45.11 -13.5,71.79 0,26.94 4.43,51.04 13.5,72.31 9.05,21.26 22.02,39.18 38.71,54 16.88,14.69 37.49,25.91 61.82,33.77 24.15,7.73 51.68,11.73 82.23,11.73 30.38,0 57.73,-4 81.89,-11.73 24.14,-7.86 44.58,-19.08 61.45,-33.77 16.7,-14.82 29.65,-32.74 38.72,-54 9.05,-21.27 13.49,-45.37 13.49,-72.31z"/>
    <path class="fil2" d="M12848.94 12386.65l0 34.84c0,10.26 -5.44,19.68 -16.56,28.23l-380.34 337.73 386.23 0 0 74.81 -597.51 0 0 -36.55c0,-9.53 5,-18.09 15.21,-25.79l380.34 -338.34 -366.27 0 0 -74.93 578.9 0z"/>
    <path class="fil2" d="M12904.46 13644.04l-117.59 0c-13.5,0 -24.43,-2.01 -32.57,-6.04 -8.14,-4.15 -14.11,-9.18 -18.07,-15.34l-48.87 -96.23 -284.62 0 -48.26 95.85c-2.98,5.41 -8.93,10.44 -17.68,14.97 -8.73,4.53 -19.46,6.79 -32.37,6.79l-119.17 0 281.63 -489.43 155.92 0 281.65 489.43zm-467.36 -185.41l215.32 0 -78.47 -154.71c-4.77,-7.68 -9.53,-16.48 -14.49,-26.79 -5.17,-10.19 -10.14,-21.26 -15.3,-33.34 -4.57,12.08 -9.52,23.27 -14.5,33.59 -4.96,10.31 -9.73,19.24 -13.89,26.91l-78.67 154.34z"/>
    <path class="fil2" d="M12545.12 11283.6c24.33,0 45.83,-2.96 64.84,-8.76 18.82,-5.67 34.81,-13.92 47.77,-24.49 13.15,-10.57 23.09,-23.46 30.02,-38.54 6.93,-15.08 10.29,-31.96 10.29,-50.52l0 -299.14 136.42 0 0 299.14c0,30.16 -6.75,58 -20.08,83.39 -13.31,25.39 -32.49,47.43 -57.53,65.86 -24.88,18.56 -55.25,32.99 -90.94,43.3 -35.71,10.32 -76.03,15.47 -120.79,15.47 -44.75,0 -85.07,-5.15 -120.96,-15.47 -35.87,-10.31 -66.42,-24.74 -91.28,-43.3 -25.06,-18.43 -44.24,-40.47 -57.55,-65.86 -13.33,-25.39 -20.08,-53.23 -20.08,-83.39l0 -299.14 136.94 0 0 299.14c0,18.56 3.38,35.44 10.31,50.52 6.93,15.08 16.87,27.97 30.01,38.54 12.97,10.57 28.96,18.82 47.78,24.49 19.01,5.8 40.5,8.76 64.83,8.76z"/>
    <polygon class="fil3" points="12454.05,11616.81 12635.68,11616.81 12635.68,12102.88 12454.05,12102.88 "/>
   </g>
   <g>
    <path class="fil4 str0" d="M14595.18 10103.81l-6.69 -547.53 -3.72 -676.33c0,0 0,0 639.86,4.17l-3.97 3349.09 -551.2 -4.4 -102.69 -4.28 -3.89 -305.27c-158.53,229.54 -357.02,374.21 -643.14,374.15 -107.44,-0.02 -203.52,-22.83 -292.65,-63.5 -183.01,-83.52 -314.91,-249.4 -403.41,-428.14 -217.61,-439.49 -212.73,-1156.86 -0.7,-1576.33 310.02,-613.34 959.72,-666.57 1372.2,-121.63zm-749.1 1409.6c-83.19,-148.26 -100.99,-327.2 -100.86,-499.23 0.23,-279.42 81.1,-735.2 453.61,-688.66 312.34,39.02 371.74,421.92 371.64,688.66 -0.1,272.56 -69.54,663.02 -384.93,693.06 -170.49,16.23 -261.96,-62.65 -339.46,-193.83z"/>
    <path class="fil4 str0" d="M16862.53 11378.3c48.92,32.83 61.6,44.15 75.73,118.5 5.31,91.59 14.26,156.26 -53.76,228.93 -42.57,45.47 -111.84,90.12 -194.94,89.34 -36.32,35.68 -43.41,24.1 -99.08,34.07 -125.81,22.53 -181.97,203.14 -312.81,238.59 -46.45,12.58 -171.22,8.98 -226.33,10.1 12.57,26.95 -10.89,-8.82 16.05,13.21l13.64 11.02c1.99,1.65 5.23,4.64 7.35,6.36 2.19,1.78 5.21,4.88 7.52,6.65 28.94,22.05 -3.85,10.56 35.56,21.17 17.8,4.79 36.82,2.7 55.05,2.86 -30.21,73.3 -53.65,8.2 -87.75,73.25 42.05,28.05 77.86,14.94 139.11,15.65l15.6 34.65c160.05,38.36 428.07,37.12 595.97,14.17 343.97,-47.02 378.99,-155.8 473.06,-175.26 2.89,-1.1 3.04,-0.8 7.83,-4.75 15.45,-10.37 12.81,-8.32 15.45,-10.37 1.39,-1.08 27.19,-23.67 29.28,-25.69 33.51,-32.35 27.17,-33.24 53.46,-63.64 85.99,-180.03 130.12,-279.52 118.53,-519.99 -4.66,-96.63 -15.1,-195.46 -46.54,-283.85 -13.12,-36.87 -30.24,-71.88 -48.74,-106.59 -16.98,-31.87 -42.19,-80.16 -70.91,-88.06 -82.38,6.43 -76.84,-32.92 -146.23,-71.92 -63,-35.42 -397.35,-163.09 -464.78,-127.98 21.29,42.14 13.75,26.31 82.06,30.66 -46.9,23.24 -94.42,-8.9 -76.43,48.41 9.63,30.66 25.86,37.44 103.67,37.58 -14.95,25.51 -9.32,46.77 -7.59,68.72 5.39,68.36 -14.65,13.32 19.1,60.09 41.23,57.15 61.62,40.82 56.07,128.9 -0.02,0.31 -9.59,88.57 -10.29,90.49 -31.69,86.68 -34.48,-22.18 -78.16,18.26 -27.02,25.01 -3.8,5.54 0.85,31.76 0.34,1.93 1.74,6.27 2.06,8.22 0.34,2.02 1.22,6.78 1.47,8.67 0.04,0.28 0.09,25.88 -0.13,27.82z"/>
    <path class="fil4 str0" d="M15752.86 10261.35c44.34,8.01 23.93,1.74 53.74,34.9 76.36,84.96 231.35,171.34 323.82,236.37 3.28,99.54 -2.38,105.55 -18.14,181.88 -21.62,104.78 -0.13,79.13 30.68,133.17 42.65,74.8 -38.77,265.05 31.24,319.33 -2.84,2.6 -7.85,4.62 -9.99,5.73 -39.59,20.54 -29.91,2.43 -50.49,22.76 13.11,-6.12 234.64,73.32 351.59,92.33l306.89 60.81c41.83,11.87 38.74,18.83 90.33,29.67 0.22,-1.94 0.17,-27.54 0.13,-27.82 -0.25,-1.89 -1.13,-6.65 -1.47,-8.67 -0.32,-1.95 -1.72,-6.29 -2.06,-8.22 -4.65,-26.22 -27.87,-6.75 -0.85,-31.76 43.68,-40.44 46.47,68.42 78.16,-18.26 0.7,-1.92 10.27,-90.18 10.29,-90.49 5.55,-88.08 -14.84,-71.75 -56.07,-128.9 -33.75,-46.77 -13.71,8.27 -19.1,-60.09 -1.73,-21.95 -7.36,-43.21 7.59,-68.72 -77.81,-0.14 -94.04,-6.92 -103.67,-37.58 -17.99,-57.31 29.53,-25.17 76.43,-48.41 -68.31,-4.35 -60.77,11.48 -82.06,-30.66 67.43,-35.11 401.78,92.56 464.78,127.98 69.39,39 63.85,78.35 146.23,71.92 -65.03,-130.67 -407.71,-216.36 -529.85,-242.06 -178.95,-37.65 -528.59,-34.59 -548.68,-225.96 -36.86,-351.08 610.06,-223.37 831.14,-139.86 84.33,31.85 209.82,98.52 281.49,116.24l-0.75 -608.82 -217.1 -61.91 -204.99 -39.84c25.34,56.74 -11.79,21.52 44.22,47.88 3.33,1.57 277.49,46.64 360.91,92.09l-2.42 537.13 -57.84 -41.18c-15.23,-8.39 -32.52,-13.54 -49.29,-20.88 -342.53,-149.9 -464.12,-131.02 -807.58,-173.34l135.21 -7.15c-95.17,-168.26 -84.9,-57.38 -180.28,-238.01l65.95 -38.66c-66.74,-20.3 -191.85,-49.42 -246.6,-74.94 11.05,-30.38 10.19,-28.17 34.93,-42.3 46.01,-26.28 126.06,-24.28 187.4,-32 34.24,-4.3 86.37,-11.18 139.66,-9.71 8.62,0.24 66.63,1.38 71.08,0.69l69.11 -29.25c-233.42,-10.9 -460.57,-3.46 -667.19,87.06 -178.81,78.33 -264.18,188.34 -336.53,387.51z"/>
    <path class="fil4 str0" d="M16992.12 9816.41l0.55 0.11 -236.09 -29.74 -69.11 29.25c-4.45,0.69 -62.46,-0.45 -71.08,-0.69 -53.29,-1.47 -105.42,5.41 -139.66,9.71 -61.34,7.72 -141.39,5.72 -187.4,32 -24.74,14.13 -23.88,11.92 -34.93,42.3 54.75,25.52 179.86,54.64 246.6,74.94l-65.95 38.66c95.38,180.63 85.11,69.75 180.28,238.01l-135.21 7.15c343.46,42.32 465.05,23.44 807.58,173.34 16.77,7.34 34.06,12.49 49.29,20.88l57.84 41.18 2.42 -537.13c-83.42,-45.45 -357.58,-90.52 -360.91,-92.09 -56.01,-26.36 -18.88,8.86 -44.22,-47.88z"/>
    <path class="fil4 str0" d="M16910.33 11501.33l27.93 -4.53c-14.13,-74.35 -26.81,-85.67 -75.73,-118.5 -51.59,-10.84 -48.5,-17.8 -90.33,-29.67l-306.89 -60.81c-116.95,-19.01 -338.48,-98.45 -351.59,-92.33 20.58,-20.33 10.9,-2.22 50.49,-22.76 2.14,-1.11 7.15,-3.13 9.99,-5.73 -70.01,-54.28 11.41,-244.53 -31.24,-319.33 -30.81,-54.04 -52.3,-28.39 -30.68,-133.17 15.76,-76.33 21.42,-82.34 18.14,-181.88 -92.47,-65.03 -247.46,-151.41 -323.82,-236.37 -29.81,-33.16 -9.4,-26.89 -53.74,-34.9 -77.73,241.4 -52.34,546.97 91.14,773.02 120.33,189.57 409.31,255.07 621.49,292.35 98.47,17.3 287.46,38.14 374.21,86.84 68.45,38.42 30.61,18.81 70.63,87.77z"/>
    <path class="fil4 str0" d="M16253.47 12282.65l-15.6 -34.65c-61.25,-0.71 -97.06,12.4 -139.11,-15.65 34.1,-65.05 57.54,0.05 87.75,-73.25 -18.23,-0.16 -37.25,1.93 -55.05,-2.86 -39.41,-10.61 -6.62,0.88 -35.56,-21.17 -2.31,-1.77 -5.33,-4.87 -7.52,-6.65 -2.12,-1.72 -5.36,-4.71 -7.35,-6.36l-13.64 -11.02c-26.94,-22.03 -3.48,13.74 -16.05,-13.21 55.11,-1.12 179.88,2.48 226.33,-10.1 130.84,-35.45 187,-216.06 312.81,-238.59 55.67,-9.97 62.76,1.61 99.08,-34.07 -184.61,25.51 -350.09,5.69 -528.05,-38 -115.64,-28.38 -309.84,-103.71 -391.26,-156.29l-1.54 540.89c68.4,46.42 393.87,123.67 484.76,120.98z"/>
    <path class="fil4 str0" d="M15755.35 12186.37c213.71,71.98 481.52,138.45 722.91,143.89 258.54,5.76 604.24,-1.09 821.06,-185.87 17.08,-14.56 11,-7.7 23.18,-22.83 -94.07,19.46 -129.09,128.24 -473.06,175.26 -167.9,22.95 -435.92,24.19 -595.97,-14.17 -90.89,2.69 -416.36,-74.56 -484.76,-120.98l1.54 -540.89c81.42,52.58 275.62,127.91 391.26,156.29 177.96,43.69 343.44,63.51 528.05,38 83.1,0.78 152.37,-43.87 194.94,-89.34 68.02,-72.67 59.07,-137.34 53.76,-228.93l-27.93 4.53c45.85,121.21 -33.94,229.24 -123.83,266.11 -101.68,41.71 -264.78,41.02 -380.6,28.97 -391.02,-40.68 -448.92,-145.73 -658.22,-216.52l7.67 606.48z"/>
   </g>
  </g>
  <rect class="fil5" x="11158.82" y="5852.11" width="7382.36" height="9126.22"/>
 </g>
</svg>
