<?xml version="1.0" encoding="UTF-8"?>
<!DOCTYPE svg PUBLIC "-//W3C//DTD SVG 1.1//EN" "http://www.w3.org/Graphics/SVG/1.1/DTD/svg11.dtd">
<!-- Creator: CorelDRAW 2018 -->
<svg xmlns="http://www.w3.org/2000/svg" xml:space="preserve" width="297mm" height="210mm" version="1.1" style="shape-rendering:geometricPrecision; text-rendering:geometricPrecision; image-rendering:optimizeQuality; fill-rule:evenodd; clip-rule:evenodd"
viewBox="0 0 29700 21000"
 xmlns:xlink="http://www.w3.org/1999/xlink">
 <defs>
  <style type="text/css">
   <![CDATA[
    .str0 {stroke:#F31414;stroke-width:20;stroke-miterlimit:22.9256}
    .str1 {stroke:#F31414;stroke-width:7.62;stroke-miterlimit:22.9256}
    .fil3 {fill:#616161}
    .fil0 {fill:#B3B3B3}
    .fil5 {fill:#F31414}
    .fil4 {fill:#FEFEFE}
    .fil2 {fill:#616161;fill-rule:nonzero}
    .fil1 {fill:#B3B3B3;fill-rule:nonzero}
   ]]>
  </style>
 </defs>
 <g id="Layer_x0020_1">
  <metadata id="CorelCorpID_0Corel-Layer"/>
  <g id="_669086632">
   <g>
    <path class="fil0" d="M15727.72 12333.62c-201.56,-122.36 -557.85,-814.86 -704.75,-1058.97 -463.72,-770.54 -733.78,-1565.26 -733.78,-2564.98 0,-2158.49 1776.71,-3973.73 3920.78,-3973.73 1189.13,0 1750.17,595.86 2713.31,890.18 127.48,41.66 237.25,60.59 336.4,60.59 240.77,0 444.18,-631.27 529.16,-1009.95 77.9,0 155.8,0 233.7,0 14.5,1619.54 28.98,3239.06 43.47,4858.59 -223.21,14.56 -316.09,-166.45 -350.19,-435.58 -187.66,-704.35 -424.56,-1179.46 -561.08,-1554.9 -835.71,-2298.26 -4665.88,-3051.71 -4936.86,-248.99 0,1238.28 799.42,2155.65 2041.85,2799.09 487.47,252.44 974.93,504.9 1462.4,757.35 775.51,401.61 1286.81,1030.44 1764.91,1481.3 201.56,122.36 557.85,814.86 704.76,1058.97 463.71,770.54 733.77,1565.26 733.77,2564.98 0,2158.49 -1898.28,4568.87 -4650.13,4297.89 -1189.13,0 -1476.66,-514.82 -2439.81,-809.15 -127.48,-41.65 -237.25,-60.58 -336.39,-60.58 -693.08,-20.26 -1123.24,1390.02 -1159.82,706.25 -14.49,-1619.54 -27.09,-3340.56 -41.59,-4960.09 181.62,-532.43 1005.4,1709.91 1103.74,1980.35 811.64,2731.76 5142.41,3611.06 5443.35,269.25 0,-1238.28 -647.45,-2165.78 -1889.89,-2809.22 -487.47,-252.44 -893.88,-636.58 -1381.35,-889.03 -775.51,-401.61 -1256.42,-898.76 -1845.96,-1349.62z"/>
    <path class="fil1" d="M11497.77 1084.76c-341.24,0 -197.97,-5.08 -582.02,-1 -839.65,8.91 -1246.59,14.61 -1657.2,241.29 -410.6,226.69 -676.25,512.82 -941.74,1065.59 -244.96,510.03 -483.44,926.78 -613.83,1796.36l-381.15 -12.74 145.26 -3895 5495.51 0 5495.52 0 145.26 3895 -381.15 12.74c-130.39,-869.58 -368.87,-1286.33 -613.83,-1796.36 -265.49,-552.77 -531.14,-838.9 -941.74,-1065.59 -410.61,-226.68 -817.55,-232.38 -1657.2,-241.29 -384.05,-4.08 -240.78,1 -582.02,1l0 10595.07c0,750.64 1.49,1382.11 -6.99,1740.33 -9.12,384.97 91.98,968.34 485.27,1159.18 191.4,92.88 355.5,172.62 669,194.91l20.26 376.96 -2632.38 0 -2632.37 0 20.26 -376.96c313.5,-22.29 477.6,-102.03 669,-194.91 393.29,-190.84 494.39,-774.21 485.27,-1159.18 -8.48,-358.22 -6.99,-989.69 -6.99,-1740.33l0 -10595.07z"/>
    <path class="fil2" d="M8475.48 6136.26c71.25,0 134.18,-8.68 189.82,-25.66 55.13,-16.61 101.93,-40.76 139.91,-71.71 38.49,-30.94 67.6,-68.69 87.88,-112.84 20.3,-44.16 30.17,-93.59 30.17,-147.93l0 -875.91 399.42 0 0 875.91c0,88.31 -19.77,169.82 -58.79,244.17 -39,74.35 -95.17,138.88 -168.48,192.84 -72.81,54.34 -161.74,96.61 -266.29,126.8 -104.53,30.19 -222.58,45.29 -353.64,45.29 -131.06,0 -249.12,-15.1 -354.17,-45.29 -105.05,-30.19 -194.5,-72.46 -267.31,-126.8 -73.32,-53.96 -129.49,-118.49 -168.5,-192.84 -39.01,-74.35 -58.78,-155.86 -58.78,-244.17l0 -875.91 400.99 0 0 875.91c0,54.34 9.88,103.77 30.15,147.93 20.28,44.15 49.41,81.9 87.9,112.84 37.96,30.95 84.77,55.1 139.89,71.71 55.64,16.98 118.58,25.66 189.83,25.66z"/>
    <path class="fil2" d="M8055.63 7963.9l0 540.83 -453.99 0 0 -1405.75 688.32 0c152.14,0 283.1,10.11 392.35,30.35 108.67,20.23 197.94,48.05 267.24,84.18 69.3,35.77 120.39,79.11 152.11,128.97 32.29,50.23 48.16,105.14 48.16,165.11 0,45.89 -9.98,89.6 -30.54,130.78 -20.56,41.2 -51.1,79.13 -90.46,113.45 -39.94,33.96 -88.08,64.3 -145.64,90.69 -56.97,26.72 -123.35,48.04 -197.94,64.3 28.79,9.75 55.8,21.68 81.05,35.4 25.26,13.73 48.76,30.35 70.49,50.23l510.97 512.29 -407.6 0c-72.26,0 -128.05,-18.78 -166.81,-55.99l-416.41 -438.24c-17.03,-16.98 -36.42,-28.91 -57.57,-36.12 -21.12,-6.88 -51.66,-10.48 -90.43,-10.48l-153.3 0zm0 -197.99l230.83 0c73.41,0 136.84,-6.14 189.69,-18.07 53.44,-11.91 97.5,-28.54 132.14,-49.49 34.07,-21.31 59.92,-46.6 76.37,-75.87 16.45,-29.27 24.66,-61.05 24.66,-95.74 0,-68.28 -34.06,-121.03 -102.78,-158.24 -68.71,-37.21 -174.44,-55.64 -316.58,-55.64l-234.33 0 0 453.05z"/>
    <path class="fil2" d="M9372.85 10069.5c0,124.54 -30.69,237.38 -92.06,338.9 -61.37,101.13 -147.7,185.67 -258.47,253.6l519.54 426.82 -328.68 0c-47.83,0 -90.48,-4.53 -127.41,-13.21 -36.93,-9.06 -71.77,-26.41 -104.53,-52.09l-280.32 -235.48c-97.26,21.51 -200.24,32.09 -308.93,32.09 -147.69,0 -281.34,-18.88 -402.51,-56.24 -120.67,-37.74 -224.68,-90.19 -311.01,-156.99 -86.33,-67.17 -152.91,-146.81 -200.22,-238.51 -47.33,-91.7 -70.74,-191.34 -70.74,-298.89 0,-106.8 23.41,-206.42 70.74,-298.13 47.31,-91.71 113.89,-170.95 200.22,-237.75 86.33,-66.42 190.34,-118.88 311.01,-157 121.17,-37.73 254.82,-56.98 402.51,-56.98 147.2,0 281.36,19.25 402.02,56.98 120.66,38.12 224.14,90.58 309.95,157.75 85.82,66.8 152.39,146.05 198.68,237.76 46.8,91.33 70.21,190.57 70.21,297.37zm-408.25 0c0,-78.12 -13.01,-148.31 -39.53,-210.2 -26.52,-61.89 -64.49,-114.73 -113.38,-158.12 -49.41,-43.4 -109.22,-76.61 -179.93,-100.01 -70.74,-23.02 -150.83,-34.72 -239.77,-34.72 -89.43,0 -170.05,11.7 -240.79,34.72 -71.24,23.4 -131.57,56.61 -180.98,100.01 -48.88,43.39 -86.84,96.23 -113.37,158.12 -26.52,61.89 -39.52,132.08 -39.52,210.2 0,78.87 13,149.45 39.52,211.72 26.53,62.27 64.49,114.72 113.37,158.12 49.41,43.02 109.74,75.85 180.98,98.87 70.74,22.65 151.36,34.35 240.79,34.35 88.94,0 169.03,-11.7 239.77,-34.35 70.71,-23.02 130.52,-55.85 179.93,-98.87 48.89,-43.4 86.86,-95.85 113.38,-158.12 26.52,-62.27 39.53,-132.85 39.53,-211.72z"/>
    <path class="fil2" d="M9365.07 16051.75l0 102.01c0,30.07 -15.94,57.62 -48.52,82.67l-1113.61 988.9 1130.9 0 0 219.04 -1749.52 0 0 -107.01c0,-27.91 14.62,-52.97 44.53,-75.52l1113.62 -990.68 -1072.43 0 0 -219.41 1695.03 0z"/>
    <path class="fil2" d="M9527.64 19733.48l-344.29 0c-39.56,0 -71.54,-5.89 -95.38,-17.68 -23.85,-12.15 -41.3,-26.88 -52.93,-44.93l-143.06 -281.75 -833.38 0 -141.34 280.65c-8.72,15.83 -26.17,30.56 -51.77,43.82 -25.58,13.26 -56.98,19.89 -94.77,19.89l-348.95 0 824.67 -1433.08 456.54 0 824.66 1433.08zm-1368.44 -542.88l630.42 0 -229.71 -453.02c-13.98,-22.46 -27.93,-48.25 -42.46,-78.44 -15.11,-29.83 -29.67,-62.25 -44.78,-97.61 -13.38,35.36 -27.93,68.14 -42.46,98.34 -14.54,30.2 -28.49,56.35 -40.71,78.82l-230.3 451.91z"/>
    <path class="fil2" d="M8475.48 12821.96c71.25,0 134.18,-8.68 189.82,-25.66 55.13,-16.61 101.93,-40.76 139.91,-71.71 38.49,-30.94 67.6,-68.69 87.88,-112.84 20.3,-44.16 30.17,-93.59 30.17,-147.93l0 -875.91 399.42 0 0 875.91c0,88.31 -19.77,169.82 -58.79,244.17 -39,74.34 -95.17,138.88 -168.48,192.84 -72.81,54.34 -161.74,96.61 -266.29,126.8 -104.53,30.19 -222.58,45.28 -353.64,45.28 -131.06,0 -249.12,-15.09 -354.17,-45.28 -105.05,-30.19 -194.5,-72.46 -267.31,-126.8 -73.32,-53.96 -129.49,-118.5 -168.5,-192.84 -39.01,-74.35 -58.78,-155.86 -58.78,-244.17l0 -875.91 400.99 0 0 875.91c0,54.34 9.88,103.77 30.15,147.93 20.28,44.15 49.41,81.9 87.9,112.84 37.96,30.95 84.77,55.1 139.89,71.71 55.64,16.98 118.58,25.66 189.83,25.66z"/>
    <polygon class="fil3" points="8208.81,13797.62 8740.63,13797.62 8740.63,15220.86 8208.81,15220.86 "/>
   </g>
   <g>
    <path class="fil4" d="M16506.58 6484.53l259.16 -0.73 1.42 2280.6 13.55 149.89 2355.18 13.4c92.06,136.69 20.49,1400.19 40.01,1793.87 393.48,164.65 917.96,622.19 1316.17,847.06l42.06 -2641.97c162.27,-83.12 837.83,-23.64 1084.02,-33.48 -126.4,-561.46 -247.88,-710.19 -314.29,-962.08 -252.19,-10.55 -673.82,37.74 -785,-63.92l-31.36 -1218.31c-129.98,-89.06 -249.07,-266.86 -381.67,-389.45 -416.61,-385.11 -929.28,-704.43 -1561.33,-755.09 -738,-59.16 -1196.46,-35.02 -1739.75,507.29 -103.52,103.34 -314.85,307.69 -298.17,472.92z"/>
    <path class="fil5" d="M14382.11 11661.21l10.25 3225.53c85.95,-92.5 4.43,-461.04 81.9,-605.55 6.05,219.89 0.35,578.35 59.16,794.4 56.34,206.92 36.03,-23.59 74.32,210.87 6.12,-7.72 12.62,-31.95 15.51,-25.15 0.15,0.37 -9.89,-93.11 262.58,-87.43l1241.95 -29.7c36.58,-82.49 32.08,-127.09 59.46,-198.75 307.96,2.77 9.23,72.25 324.29,-17.35 55.55,110.51 116.37,236.65 215.46,292.43 -9.27,-204.56 -57.92,-224.31 -52.65,-460.45 3.28,-146.36 11.75,-334.84 23.66,-473.74l12.67 473.87c36.02,212.41 -36.13,79.61 70.72,148.84 -67.1,-614.95 -14.98,-1349.17 -10.01,-1974.55 5.26,-660.6 -9.25,-1323.19 0.28,-1983.44 -76.44,98.32 -47.28,27.28 -69.86,197.85 -2.56,19.28 -1.43,174.67 -1.81,207.09 -1.17,102.36 -0.37,237.39 -37.36,303.14l-12.19 -328.92c-234.75,30.78 -149.94,-27.26 -201.55,129.56l-70.79 -404.27c-141.6,62.88 -420.76,76.51 -587.88,43.32 -125.22,-24.85 -36.57,-8.66 -89.9,-30.52 -233.98,-95.92 -87.68,24.15 -425.36,98.47 -107.17,23.59 -179.82,2.42 -268.4,100.83 -36.08,40.09 -15.59,10.97 -42.91,79.83 -85.14,-153.99 38.73,-111.25 -120.96,-85.62 -190.53,30.56 -313.05,237.08 -320.96,413.53l-139.62 -14.12z"/>
    <path class="fil5 str0" d="M14382.11 11661.21l139.62 14.12c7.91,-176.45 130.43,-382.97 320.96,-413.53 159.69,-25.63 35.82,-68.37 120.96,85.62 27.32,-68.86 6.83,-39.74 42.91,-79.83 88.58,-98.41 161.23,-77.24 268.4,-100.83 337.68,-74.32 191.38,-194.39 425.36,-98.47 53.33,21.86 -35.32,5.67 89.9,30.52 167.12,33.19 446.28,19.56 587.88,-43.32l70.79 404.27c51.61,-156.82 -33.2,-98.78 201.55,-129.56l12.19 328.92c36.99,-65.75 36.19,-200.78 37.36,-303.14 0.38,-32.42 -0.75,-187.81 1.81,-207.09 22.58,-170.57 -6.58,-99.53 69.86,-197.85l2378.89 9.55 -8.8 -288.22 -327.26 -161.58c-76.61,-51.65 -186.44,-131.54 -259.64,-186.54l-818.59 -557.72c-176.77,-127.77 -781.82,-343.01 -975.84,-364.26 -394.13,-43.17 -1387.39,-100.66 -1755.94,-1.74l-723.34 168.66c-208.7,88.62 -51.26,124.63 -283.14,162.04 -83.67,13.5 -323.58,13.65 -424.72,18.34 -2.46,41.43 -2.67,106.22 -10.6,144.28 -2.42,11.63 -6.02,23.82 -8.75,34.22l-42.15 95.04c-52.45,-79.99 -47.59,-212.32 -81.07,-283.36 -60.02,113.68 -50.27,534.96 -80.27,811.43 -8.51,78.37 -9.39,175.82 -4.46,206.98 -31.42,-162.65 13.54,-121.49 -57.49,-329.85l-40.13 -101.97c-43.24,-155.18 -20.13,-1195.96 -20.13,-1403.64l10.2 2025.33 1142.26 16.34 1.42 696.84z"/>
    <path class="fil5 str0" d="M14385.12 8926.67l-1156.89 -3.97c0,207.68 -23.11,1248.46 20.13,1403.64l40.13 101.97c71.03,208.36 26.07,167.2 57.49,329.85 -4.93,-31.16 -4.05,-128.61 4.46,-206.98 30,-276.47 20.25,-697.75 80.27,-811.43 33.48,71.04 28.62,203.37 81.07,283.36l42.15 -95.04c2.73,-10.4 6.33,-22.59 8.75,-34.22 7.93,-38.06 8.14,-102.85 10.6,-144.28 101.14,-4.69 341.05,-4.84 424.72,-18.34 231.88,-37.41 74.44,-73.42 283.14,-162.04l723.34 -168.66c368.55,-98.92 1361.81,-41.43 1755.94,1.74 194.02,21.25 799.07,236.49 975.84,364.26l818.59 557.72c73.2,55 183.03,134.89 259.64,186.54l327.26 161.58 -5.86 -1744.68 -2355.18 -13.4 -13.55 -149.89c-104.78,15.01 -43.37,32.16 -98.38,-5.25l1.99 -296.43c-85.66,-133.73 -46.63,-200.4 -81.49,-355.68 -32.03,115.48 -27.91,148.32 -26,287.46 1.31,94.7 15.2,51.14 -1.81,160.16 -20.35,130.42 3.55,49.96 -48.7,126.55 -70.78,-229.56 -183.84,-438.57 -325.53,-620.81l-1165.2 0.28c67.9,-102.36 52.7,75.95 -125.36,-26.3l-73.39 -56.63 -82.1 146.95c-138.99,155.69 6.91,-112.09 -65.99,86.7 -0.97,-0.87 -158.75,29.93 -81.28,-195.09 -107.55,227.67 -52.3,156.41 -71.01,462.25 -3.52,57.69 -19.95,199.03 -32.12,251.83 -39.46,171.18 10.21,149.88 -105.67,196.28z"/>
    <path class="fil5 str1" d="M14392.36 14886.74c20.28,425.58 123.76,1323.67 317.73,1560.88 158.49,-34.31 124.51,56.74 256.52,262.69 211.65,330.17 362.56,254.32 531.49,432.61 101.52,-81.86 154.78,-183.71 307.85,-145.41 10.17,2.55 20.51,9.02 30.53,12.41 10.11,3.41 19.93,11.04 29.84,14.69 98.18,36.16 -3.99,129 204.95,-28.41 179.21,-135.02 151.81,-59.57 316.33,-78.82l1174.76 -377.58c9.12,-3.62 19.68,-8.11 28.56,-11.99 131.4,-57.35 360.22,-135.38 389.73,-266.59 18.01,-80.06 -199.88,-59.79 227.84,-98 184.34,-16.47 -24.45,-81.87 167.74,3.62 61.97,-84.88 38.32,-32.71 43.19,-186.77 144.29,-17.73 137.57,13.77 229.16,-45.83 -43.13,-113.67 16.57,-14.29 -79.35,-68.33 -10.02,-5.64 -47.75,-21.91 -58.1,-26.72 -8.84,-4.09 -24.45,-10 -31.91,-13.27 -7.63,-3.34 -23.2,-6.43 -32.79,-13.29l216.35 -81.08c-134.13,-107.37 -697.38,-55.42 -894.45,-85.13l-135.29 -36.48c92.7,-98.91 -5.15,-28.06 136.42,-64.36l1161.1 -16.47c-1.58,86.77 -1070.69,24.26 -1325.71,12.61 -463.15,-21.15 -844.88,-155.44 -823.46,-632.69l0 0c-106.85,-69.23 -34.7,63.57 -70.72,-148.84l-12.67 -473.87c-11.91,138.9 -20.38,327.38 -23.66,473.74 -5.27,236.14 43.38,255.89 52.65,460.45 -99.09,-55.78 -159.91,-181.92 -215.46,-292.43 -315.06,89.6 -16.33,20.12 -324.29,17.35 -27.38,71.66 -22.88,116.26 -59.46,198.75l-1241.95 29.7c-272.47,-5.68 -262.43,87.8 -262.58,87.43 -2.89,-6.8 -9.39,17.43 -15.51,25.15 -38.29,-234.46 -17.98,-3.95 -74.32,-210.87 -58.81,-216.05 -53.11,-574.51 -59.16,-794.4 -77.47,144.51 4.05,513.05 -81.9,605.55z"/>
    <path class="fil5" d="M14710.09 16447.62c68.14,206.42 212.21,414.29 317.9,523.66 497.28,514.69 1383.36,613.54 2051.05,614.08 618.36,0.51 1241.16,-8.03 1858.91,0.92l7.18 -2057.21 -1175.67 16.51c-132.71,13.5 -43.72,-34.55 -136.42,64.36l135.29 36.48c197.07,29.71 760.32,-22.24 894.45,85.13l-216.35 81.08c9.59,6.86 25.16,9.95 32.79,13.29 7.46,3.27 23.07,9.18 31.91,13.27 10.35,4.81 48.08,21.08 58.1,26.72 95.92,54.04 36.22,-45.34 79.35,68.33 -91.59,59.6 -84.87,28.1 -229.16,45.83 -4.87,154.06 18.78,101.89 -43.19,186.77 -192.19,-85.49 16.6,-20.09 -167.74,-3.62 -427.72,38.21 -209.83,17.94 -227.84,98 -29.51,131.21 -258.33,209.24 -389.73,266.59 -8.88,3.88 -19.44,8.37 -28.56,11.99l-1174.76 377.58c-164.52,19.25 -137.12,-56.2 -316.33,78.82 -208.94,157.41 -106.77,64.57 -204.95,28.41 -9.91,-3.65 -19.73,-11.28 -29.84,-14.69 -10.02,-3.39 -20.36,-9.86 -30.53,-12.41 -153.07,-38.3 -206.33,63.55 -307.85,145.41 -168.93,-178.29 -319.84,-102.44 -531.49,-432.61 -132.01,-205.95 -98.03,-297 -256.52,-262.69z"/>
    <path class="fil5 str0" d="M14387.94 7826.61l-2.82 1100.06c115.88,-46.4 66.21,-25.1 105.67,-196.28 12.17,-52.8 28.6,-194.14 32.12,-251.83 18.71,-305.84 -36.54,-234.58 71.01,-462.25 -77.47,225.02 80.31,194.22 81.28,195.09 72.9,-198.79 -73,68.99 65.99,-86.7l82.1 -146.95 73.39 56.63c178.06,102.25 193.26,-76.06 125.36,26.3l1165.2 -0.28c141.69,182.24 254.75,391.25 325.53,620.81 52.25,-76.59 28.35,3.87 48.7,-126.55 17.01,-109.02 3.12,-65.46 1.81,-160.16 -1.91,-139.14 -6.03,-171.98 26,-287.46 34.86,155.28 -4.17,221.95 81.49,355.68l-84.1 -1754.57 -163.39 22.26c-0.79,9.6 -3.73,122.3 -5.94,128.02 -63.67,164.55 39.54,33.01 -105.88,157.44 -7.14,-146.61 -11.57,-93.27 -10.84,-201.22 0.38,-54.84 13.18,-82.65 8.42,-163.95 -337.58,1.61 -1144.45,-48.59 -1378.46,36.45 71.94,-155.02 100.09,54.09 115.78,85.7 -271.72,220.36 149.11,-44.86 -116.44,55.53 -295.06,111.54 -99.72,68.21 -242.56,257.54l-121.81 -198.3 -81.08 614.9c-38.03,126.64 71.07,154.67 -96.53,324.09z"/>
    <path class="fil5 str0" d="M14387.94 7826.61c167.6,-169.42 58.5,-197.45 96.53,-324.09l81.08 -614.9 121.81 198.3c142.84,-189.33 -52.5,-146 242.56,-257.54 265.55,-100.39 -155.28,164.83 116.44,-55.53 -15.69,-31.61 -43.84,-240.72 -115.78,-85.7 234.01,-85.04 1040.88,-34.84 1378.46,-36.45 4.76,81.3 -8.04,109.11 -8.42,163.95 -0.73,107.95 3.7,54.61 10.84,201.22 145.42,-124.43 42.21,7.11 105.88,-157.44 2.21,-5.72 5.15,-118.42 5.94,-128.02l163.39 -22.26 84.1 1754.57 -1.99 296.43c55.01,37.41 -6.4,20.26 98.38,5.25l-1.42 -2280.6 -259.16 0.73 -2119.45 6.06 0.81 1336.02z"/>
    <polygon class="fil5" points="9627.4,8933.26 11994.62,8933.26 11994.62,17556.61 9627.4,17556.61 "/>
    <polygon class="fil5" points="9627.4,5568.68 11994.62,5568.68 11994.62,7895.77 9627.4,7895.77 "/>
    <polygon class="fil5" points="20488.13,8933.26 22855.35,8933.26 22855.35,17556.61 20488.13,17556.61 "/>
    <polygon class="fil5" points="20488.13,5568.68 22855.35,5568.68 22855.35,7895.77 20488.13,7895.77 "/>
   </g>
  </g>
 </g>
</svg>
