<?xml version="1.0" encoding="UTF-8"?>
<!DOCTYPE svg PUBLIC "-//W3C//DTD SVG 1.1//EN" "http://www.w3.org/Graphics/SVG/1.1/DTD/svg11.dtd">
<!-- Creator: CorelDRAW 2019 (64-Bit) -->
<svg xmlns="http://www.w3.org/2000/svg" xml:space="preserve" width="297mm" height="210mm" version="1.1" style="shape-rendering:geometricPrecision; text-rendering:geometricPrecision; image-rendering:optimizeQuality; fill-rule:evenodd; clip-rule:evenodd"
viewBox="0 0 29700 21000"
 xmlns:xlink="http://www.w3.org/1999/xlink"
 xmlns:xodm="http://www.corel.com/coreldraw/odm/2003">
 <defs>
  <style type="text/css">
   <![CDATA[
    .str0 {stroke:#F31414;stroke-width:20;stroke-miterlimit:22.9256}
    .str1 {stroke:#F31414;stroke-width:7.62;stroke-miterlimit:22.9256}
    .fil6 {fill:none}
    .fil3 {fill:#616161}
    .fil0 {fill:#B3B3B3}
    .fil5 {fill:#F31414}
    .fil4 {fill:#FEFEFE}
    .fil2 {fill:#616161;fill-rule:nonzero}
    .fil1 {fill:#B3B3B3;fill-rule:nonzero}
   ]]>
  </style>
 </defs>
 <g id="Layer_x0020_1">
  <metadata id="CorelCorpID_0Corel-Layer"/>
  <g id="_1380174064">
   <path class="fil0" d="M15329.98 10980.88c-68.84,-41.79 -190.52,-278.3 -240.69,-361.67 -158.37,-263.15 -250.6,-534.57 -250.6,-875.99 0,-737.18 606.79,-1357.12 1339.03,-1357.12 406.12,0 597.72,203.5 926.66,304.02 43.53,14.23 81.02,20.69 114.88,20.69 82.23,0 151.7,-215.59 180.72,-344.92 26.61,0 53.22,0 79.82,0 4.95,553.11 9.9,1106.21 14.85,1659.32 -76.24,4.97 -107.96,-56.85 -119.6,-148.77 -64.09,-240.55 -145,-402.81 -191.62,-531.03 -285.42,-784.9 -1593.51,-1042.22 -1686.05,-85.03 0,422.9 273.02,736.2 697.34,955.95 166.48,86.21 332.96,172.43 499.44,258.65 264.85,137.16 439.47,351.92 602.75,505.9 68.84,41.78 190.52,278.29 240.69,361.66 158.37,263.15 250.6,534.57 250.6,875.99 0,737.18 -648.3,1560.37 -1588.12,1467.83 -406.11,0 -504.31,-175.82 -833.25,-276.34 -43.53,-14.23 -81.02,-20.69 -114.88,-20.69 -236.7,-6.92 -383.61,474.72 -396.1,241.2 -4.96,-553.11 -9.26,-1140.88 -14.21,-1693.98 62.03,-181.84 343.37,583.97 376.95,676.33 277.19,932.96 1756.25,1233.25 1859.03,91.95 0,-422.89 -221.12,-739.66 -645.44,-959.4 -166.48,-86.22 -305.28,-217.41 -471.76,-303.63 -264.86,-137.16 -429.1,-306.94 -630.44,-460.92z"/>
   <path class="fil1" d="M13885.36 7139.14c-116.54,0 -67.61,-1.73 -198.77,-0.34 -286.76,3.04 -425.74,4.99 -565.97,82.41 -140.23,77.42 -230.96,175.14 -321.63,363.92 -83.66,174.18 -165.1,316.51 -209.63,613.49l-130.18 -4.35 49.61 -1330.22 1876.84 0 1876.84 0 49.61 1330.22 -130.17 4.35c-44.53,-296.98 -125.98,-439.31 -209.64,-613.49 -90.67,-188.78 -181.39,-286.5 -321.62,-363.92 -140.23,-77.42 -279.21,-79.37 -565.97,-82.41 -131.16,-1.39 -82.23,0.34 -198.78,0.34l0 3618.45c0,256.36 0.51,472.02 -2.38,594.36 -3.12,131.48 31.41,330.71 165.73,395.89 65.37,31.72 121.41,58.95 228.48,66.57l6.92 128.73 -899.02 0 -899.01 0 6.92 -128.73c107.07,-7.62 163.11,-34.85 228.48,-66.57 134.31,-65.18 168.84,-264.41 165.72,-395.89 -2.89,-122.34 -2.38,-338 -2.38,-594.36l0 -3618.45z"/>
   <path class="fil2" d="M12853.18 8864.34c24.33,0 45.83,-2.96 64.83,-8.76 18.83,-5.67 34.81,-13.92 47.78,-24.49 13.14,-10.57 23.09,-23.46 30.01,-38.54 6.94,-15.08 10.31,-31.96 10.31,-50.52l0 -299.14 136.41 0 0 299.14c0,30.16 -6.75,58 -20.08,83.39 -13.32,25.39 -32.5,47.43 -57.54,65.86 -24.87,18.55 -55.24,32.99 -90.94,43.3 -35.7,10.31 -76.02,15.47 -120.78,15.47 -44.76,0 -85.08,-5.16 -120.96,-15.47 -35.87,-10.31 -66.42,-24.75 -91.29,-43.3 -25.04,-18.43 -44.22,-40.47 -57.55,-65.86 -13.32,-25.39 -20.07,-53.23 -20.07,-83.39l0 -299.14 136.95 0 0 299.14c0,18.56 3.37,35.44 10.29,50.52 6.93,15.08 16.88,27.97 30.03,38.54 12.96,10.57 28.95,18.82 47.77,24.49 19,5.8 40.5,8.76 64.83,8.76z"/>
   <path class="fil2" d="M12709.79 9488.52l0 184.71 -155.05 0 0 -480.1 235.08 0c51.96,0 96.69,3.45 134,10.37 37.11,6.91 67.6,16.41 91.27,28.75 23.66,12.21 41.11,27.01 51.95,44.04 11.02,17.16 16.44,35.91 16.44,56.39 0,15.67 -3.41,30.6 -10.43,44.67 -7.02,14.06 -17.45,27.02 -30.89,38.74 -13.64,11.6 -30.08,21.96 -49.74,30.97 -19.46,9.13 -42.13,16.41 -67.6,21.96 9.83,3.33 19.05,7.41 27.68,12.09 8.62,4.69 16.65,10.37 24.07,17.16l174.51 174.96 -139.21 0c-24.67,0 -43.73,-6.42 -56.97,-19.13l-142.21 -149.66c-5.81,-5.8 -12.44,-9.88 -19.66,-12.34 -7.21,-2.35 -17.64,-3.58 -30.88,-3.58l-52.36 0zm0 -67.62l78.84 0c25.07,0 46.73,-2.09 64.78,-6.17 18.25,-4.07 33.3,-9.75 45.13,-16.9 11.63,-7.28 20.46,-15.92 26.08,-25.91 5.62,-10 8.42,-20.85 8.42,-32.7 0,-23.32 -11.63,-41.34 -35.1,-54.04 -23.47,-12.71 -59.57,-19 -108.12,-19l-80.03 0 0 154.72z"/>
   <path class="fil2" d="M13159.65 10207.63c0,42.53 -10.48,81.07 -31.44,115.74 -20.96,34.54 -50.44,63.41 -88.27,86.61l177.43 145.77 -112.25 0c-16.34,0 -30.9,-1.55 -43.51,-4.51 -12.61,-3.1 -24.51,-9.02 -35.7,-17.79l-95.74 -80.42c-33.21,7.34 -68.38,10.95 -105.5,10.95 -50.44,0 -96.09,-6.44 -137.47,-19.2 -41.21,-12.89 -76.73,-30.8 -106.22,-53.62 -29.48,-22.94 -52.22,-50.13 -68.38,-81.45 -16.16,-31.32 -24.15,-65.35 -24.15,-102.08 0,-36.47 7.99,-70.5 24.15,-101.82 16.16,-31.32 38.9,-58.38 68.38,-81.19 29.49,-22.69 65.01,-40.61 106.22,-53.62 41.38,-12.89 87.03,-19.46 137.47,-19.46 50.27,0 96.09,6.57 137.29,19.46 41.21,13.01 76.55,30.93 105.86,53.87 29.31,22.81 52.05,49.88 67.85,81.2 15.99,31.19 23.98,65.09 23.98,101.56zm-139.42 0c0,-26.68 -4.45,-50.65 -13.5,-71.79 -9.06,-21.14 -22.03,-39.18 -38.73,-54 -16.87,-14.82 -37.3,-26.16 -61.45,-34.16 -24.16,-7.86 -51.51,-11.85 -81.88,-11.85 -30.55,0 -58.08,3.99 -82.24,11.85 -24.33,8 -44.93,19.34 -61.81,34.16 -16.69,14.82 -29.65,32.86 -38.72,54 -9.05,21.14 -13.49,45.11 -13.49,71.79 0,26.94 4.44,51.04 13.49,72.31 9.07,21.26 22.03,39.18 38.72,54 16.88,14.69 37.48,25.9 61.81,33.76 24.16,7.74 51.69,11.73 82.24,11.73 30.37,0 57.72,-3.99 81.88,-11.73 24.15,-7.86 44.58,-19.07 61.45,-33.76 16.7,-14.82 29.67,-32.74 38.73,-54 9.05,-21.27 13.5,-45.37 13.5,-72.31z"/>
   <path class="fil2" d="M13156.99 12250.7l0 34.84c0,10.27 -5.44,19.68 -16.56,28.23l-380.33 337.73 386.23 0 0 74.81 -597.5 0 0 -36.55c0,-9.53 4.99,-18.09 15.21,-25.79l380.32 -338.34 -366.25 0 0 -74.93 578.88 0z"/>
   <path class="fil2" d="M13212.52 13508.09l-117.59 0c-13.51,0 -24.43,-2.01 -32.57,-6.04 -8.14,-4.15 -14.11,-9.18 -18.08,-15.34l-48.86 -96.23 -284.62 0 -48.26 95.85c-2.98,5.41 -8.94,10.44 -17.68,14.97 -8.74,4.53 -19.47,6.79 -32.37,6.79l-119.17 0 281.64 -489.43 155.92 0 281.64 489.43zm-467.36 -185.41l215.31 0 -78.46 -154.71c-4.77,-7.67 -9.53,-16.48 -14.5,-26.79 -5.16,-10.19 -10.13,-21.26 -15.29,-33.33 -4.57,12.07 -9.54,23.27 -14.5,33.58 -4.97,10.31 -9.73,19.25 -13.9,26.92l-78.66 154.33z"/>
   <path class="fil2" d="M12853.18 11147.65c24.33,0 45.83,-2.96 64.83,-8.76 18.83,-5.67 34.81,-13.92 47.78,-24.49 13.14,-10.57 23.09,-23.46 30.01,-38.54 6.94,-15.08 10.31,-31.96 10.31,-50.52l0 -299.14 136.41 0 0 299.14c0,30.16 -6.75,58 -20.08,83.39 -13.32,25.39 -32.5,47.43 -57.54,65.86 -24.87,18.56 -55.24,33 -90.94,43.31 -35.7,10.3 -76.02,15.46 -120.78,15.46 -44.76,0 -85.08,-5.16 -120.96,-15.46 -35.87,-10.31 -66.42,-24.75 -91.29,-43.31 -25.04,-18.43 -44.22,-40.47 -57.55,-65.86 -13.32,-25.39 -20.07,-53.23 -20.07,-83.39l0 -299.14 136.95 0 0 299.14c0,18.56 3.37,35.44 10.29,50.52 6.93,15.08 16.88,27.97 30.03,38.54 12.96,10.57 28.95,18.82 47.77,24.49 19,5.8 40.5,8.76 64.83,8.76z"/>
   <polygon class="fil3" points="12762.11,11480.86 12943.74,11480.86 12943.74,11966.93 12762.11,11966.93 "/>
   <path class="fil4" d="M15595.98 8983.28l88.51 -0.25 0.48 778.88 4.63 51.19 804.34 4.58c31.45,46.68 7,478.19 13.67,612.64 134.38,56.23 313.5,212.49 449.5,289.29l14.36 -902.29c55.42,-28.39 286.14,-8.07 370.22,-11.43 -43.17,-191.76 -84.66,-242.55 -107.33,-328.58 -86.13,-3.6 -230.13,12.89 -268.1,-21.83l-10.71 -416.07c-44.39,-30.42 -85.06,-91.14 -130.35,-133.01 -142.28,-131.52 -317.37,-240.58 -533.23,-257.88 -252.04,-20.2 -408.62,-11.96 -594.16,173.25 -35.35,35.29 -107.53,105.08 -101.83,161.51z"/>
   <path class="fil5" d="M14870.42 10751.23l3.5 1101.59c29.36,-31.59 1.52,-157.45 27.98,-206.81 2.06,75.1 0.11,197.52 20.2,271.31 19.24,70.67 12.31,-8.06 25.38,72.02 2.09,-2.64 4.31,-10.92 5.3,-8.59 0.05,0.12 -3.38,-31.8 89.68,-29.86l424.15 -10.15c12.49,-28.17 10.96,-43.4 20.3,-67.87 105.18,0.94 3.16,24.67 110.76,-5.93 18.97,37.74 39.74,80.82 73.58,99.87 -3.16,-69.86 -19.78,-76.6 -17.98,-157.25 1.12,-49.99 4.01,-114.36 8.08,-161.79l4.33 161.83c12.3,72.55 -12.34,27.19 24.15,50.84 -22.92,-210.02 -5.12,-460.78 -3.42,-674.36 1.8,-225.61 -3.16,-451.9 0.1,-677.39 -26.11,33.58 -16.15,9.32 -23.86,67.57 -0.87,6.59 -0.49,59.66 -0.62,70.73 -0.4,34.96 -0.12,81.07 -12.76,103.53l-4.16 -112.33c-80.18,10.51 -51.21,-9.32 -68.83,44.24l-24.18 -138.06c-48.36,21.47 -143.7,26.13 -200.78,14.79 -42.76,-8.49 -12.48,-2.96 -30.7,-10.42 -79.91,-32.76 -29.94,8.24 -145.27,33.63 -36.6,8.05 -61.41,0.82 -91.66,34.43 -12.32,13.7 -5.33,3.75 -14.66,27.27 -29.07,-52.59 13.23,-38 -41.31,-29.24 -65.07,10.43 -106.91,80.96 -109.61,141.23l-47.69 -4.83z"/>
   <path class="fil5 str0" d="M14870.42 10751.23l47.69 4.83c2.7,-60.27 44.54,-130.8 109.61,-141.23 54.54,-8.76 12.24,-23.35 41.31,29.24 9.33,-23.52 2.34,-13.57 14.66,-27.27 30.25,-33.61 55.06,-26.38 91.66,-34.43 115.33,-25.39 65.36,-66.39 145.27,-33.63 18.22,7.46 -12.06,1.93 30.7,10.42 57.08,11.34 152.42,6.68 200.78,-14.79l24.18 138.06c17.62,-53.56 -11.35,-33.73 68.83,-44.24l4.16 112.33c12.64,-22.46 12.36,-68.57 12.76,-103.53 0.13,-11.07 -0.25,-64.14 0.62,-70.73 7.71,-58.25 -2.25,-33.99 23.86,-67.57l812.44 3.27 -3 -98.44 -111.77 -55.18c-26.16,-17.64 -63.67,-44.93 -88.67,-63.71l-279.57 -190.47c-60.37,-43.64 -267.01,-117.15 -333.27,-124.4 -134.61,-14.75 -473.83,-34.38 -599.69,-0.6l-247.04 57.6c-71.28,30.27 -17.51,42.57 -96.7,55.34 -28.57,4.61 -110.51,4.66 -145.05,6.27 -0.84,14.14 -0.91,36.27 -3.62,49.27 -0.83,3.97 -2.05,8.14 -2.99,11.69l-14.39 32.46c-17.91,-27.32 -16.25,-72.51 -27.69,-96.78 -20.5,38.82 -17.17,182.7 -27.42,277.12 -2.9,26.77 -3.2,60.05 -1.52,70.69 -10.73,-55.55 4.63,-41.49 -19.63,-112.65l-13.71 -34.82c-14.76,-53 -6.87,-408.45 -6.87,-479.38l3.48 691.7 390.11 5.58 0.48 237.98z"/>
   <path class="fil5 str0" d="M14871.45 9817.33l-395.1 -1.36c0,70.93 -7.89,426.38 6.87,479.38l13.71 34.82c24.26,71.16 8.9,57.1 19.63,112.65 -1.68,-10.64 -1.38,-43.92 1.52,-70.69 10.25,-94.42 6.92,-238.3 27.42,-277.12 11.44,24.27 9.78,69.46 27.69,96.78l14.39 -32.46c0.94,-3.55 2.16,-7.72 2.99,-11.69 2.71,-13 2.78,-35.13 3.62,-49.27 34.54,-1.61 116.48,-1.66 145.05,-6.27 79.19,-12.77 25.42,-25.07 96.7,-55.34l247.04 -57.6c125.86,-33.78 465.08,-14.15 599.69,0.6 66.26,7.25 272.9,80.76 333.27,124.4l279.57 190.47c25,18.78 62.51,46.07 88.67,63.71l111.77 55.18 -2.01 -595.84 -804.34 -4.58 -4.63 -51.19c-35.78,5.13 -14.81,10.98 -33.6,-1.79l0.68 -101.24c-29.25,-45.67 -15.92,-68.44 -27.83,-121.48 -10.94,39.44 -9.53,50.66 -8.88,98.18 0.45,32.34 5.19,17.46 -0.62,54.7 -6.95,44.54 1.22,17.06 -16.63,43.22 -24.17,-78.4 -62.78,-149.78 -111.18,-212.02l-397.94 0.09c23.19,-34.95 18,25.94 -42.81,-8.98l-25.06 -19.34 -28.04 50.19c-47.47,53.17 2.36,-38.29 -22.54,29.61 -0.33,-0.3 -54.22,10.22 -27.76,-66.63 -36.73,77.76 -17.86,53.42 -24.25,157.87 -1.2,19.7 -6.81,67.97 -10.97,86 -13.48,58.47 3.49,51.19 -36.09,67.04z"/>
   <path class="fil5 str1" d="M14873.92 11852.82c6.93,145.35 42.27,452.06 108.52,533.08 54.12,-11.72 42.52,19.38 87.6,89.71 72.29,112.76 123.83,86.86 181.52,147.75 34.67,-27.96 52.86,-62.74 105.14,-49.66 3.47,0.87 7,3.08 10.42,4.23 3.46,1.17 6.81,3.77 10.19,5.02 33.53,12.35 -1.36,44.06 70,-9.7 61.2,-46.11 51.84,-20.35 108.03,-26.92l401.21 -128.95c3.11,-1.24 6.72,-2.77 9.75,-4.1 44.88,-19.58 123.03,-46.23 133.1,-91.04 6.16,-27.34 -68.26,-20.42 77.82,-33.47 62.95,-5.63 -8.35,-27.96 57.28,1.24 21.17,-28.99 13.09,-11.18 14.76,-63.79 49.27,-6.06 46.98,4.7 78.26,-15.65 -14.73,-38.82 5.66,-4.88 -27.1,-23.34 -3.42,-1.93 -16.31,-7.48 -19.84,-9.12 -3.02,-1.4 -8.36,-3.42 -10.9,-4.54 -2.61,-1.14 -7.93,-2.19 -11.2,-4.54l73.89 -27.69c-45.81,-36.67 -238.17,-18.92 -305.48,-29.07l-46.2 -12.46c31.66,-33.78 -1.76,-9.58 46.59,-21.98l396.54 -5.62c-0.54,29.63 -365.67,8.28 -452.76,4.3 -158.18,-7.22 -288.54,-53.08 -281.23,-216.07l0 0c-36.49,-23.65 -11.85,21.71 -24.15,-50.84l-4.33 -161.83c-4.07,47.43 -6.96,111.8 -8.08,161.79 -1.8,80.65 14.82,87.39 17.98,157.25 -33.84,-19.05 -54.61,-62.13 -73.58,-99.87 -107.6,30.6 -5.58,6.87 -110.76,5.93 -9.34,24.47 -7.81,39.7 -20.3,67.87l-424.15 10.15c-93.06,-1.94 -89.63,29.98 -89.68,29.86 -0.99,-2.33 -3.21,5.95 -5.3,8.59 -13.07,-80.08 -6.14,-1.35 -25.38,-72.02 -20.09,-73.79 -18.14,-196.21 -20.2,-271.31 -26.46,49.36 1.38,175.22 -27.98,206.81z"/>
   <path class="fil5" d="M14982.44 12385.9c23.27,70.5 72.47,141.49 108.57,178.84 169.83,175.78 472.45,209.54 700.47,209.72 211.19,0.17 423.89,-2.74 634.86,0.32l2.46 -702.59 -401.52 5.64c-45.33,4.61 -14.93,-11.8 -46.59,21.98l46.2 12.46c67.31,10.15 259.67,-7.6 305.48,29.07l-73.89 27.69c3.27,2.35 8.59,3.4 11.2,4.54 2.54,1.12 7.88,3.14 10.9,4.54 3.53,1.64 16.42,7.19 19.84,9.12 32.76,18.46 12.37,-15.48 27.1,23.34 -31.28,20.35 -28.99,9.59 -78.26,15.65 -1.67,52.61 6.41,34.8 -14.76,63.79 -65.63,-29.2 5.67,-6.87 -57.28,-1.24 -146.08,13.05 -71.66,6.13 -77.82,33.47 -10.07,44.81 -88.22,71.46 -133.1,91.04 -3.03,1.33 -6.64,2.86 -9.75,4.1l-401.21 128.95c-56.19,6.57 -46.83,-19.19 -108.03,26.92 -71.36,53.76 -36.47,22.05 -70,9.7 -3.38,-1.25 -6.73,-3.85 -10.19,-5.02 -3.42,-1.15 -6.95,-3.36 -10.42,-4.23 -52.28,-13.08 -70.47,21.7 -105.14,49.66 -57.69,-60.89 -109.23,-34.99 -181.52,-147.75 -45.08,-70.33 -33.48,-101.43 -87.6,-89.71z"/>
   <path class="fil5 str0" d="M14872.42 9441.63l-0.97 375.7c39.58,-15.85 22.61,-8.57 36.09,-67.04 4.16,-18.03 9.77,-66.3 10.97,-86 6.39,-104.45 -12.48,-80.11 24.25,-157.87 -26.46,76.85 27.43,66.33 27.76,66.63 24.9,-67.9 -24.93,23.56 22.54,-29.61l28.04 -50.19 25.06 19.34c60.81,34.92 66,-25.97 42.81,8.98l397.94 -0.09c48.4,62.24 87.01,133.62 111.18,212.02 17.85,-26.16 9.68,1.32 16.63,-43.22 5.81,-37.24 1.07,-22.36 0.62,-54.7 -0.65,-47.52 -2.06,-58.74 8.88,-98.18 11.91,53.04 -1.42,75.81 27.83,121.48l-28.72 -599.22 -55.8 7.6c-0.27,3.27 -1.28,41.76 -2.03,43.72 -21.75,56.2 13.5,11.27 -36.16,53.77 -2.44,-50.07 -3.95,-31.86 -3.7,-68.72 0.13,-18.73 4.5,-28.23 2.87,-56 -115.29,0.55 -390.85,-16.59 -470.77,12.45 24.57,-52.94 34.18,18.47 39.54,29.27 -92.8,75.26 50.93,-15.32 -39.77,18.97 -100.77,38.09 -34.05,23.29 -82.84,87.95l-41.6 -67.72 -27.69 210c-12.98,43.25 24.27,52.82 -32.96,110.68z"/>
   <path class="fil5 str0" d="M14872.42 9441.63c57.23,-57.86 19.98,-67.43 32.96,-110.68l27.69 -210 41.6 67.72c48.79,-64.66 -17.93,-49.86 82.84,-87.95 90.7,-34.29 -53.03,56.29 39.77,-18.97 -5.36,-10.8 -14.97,-82.21 -39.54,-29.27 79.92,-29.04 355.48,-11.9 470.77,-12.45 1.63,27.77 -2.74,37.27 -2.87,56 -0.25,36.86 1.26,18.65 3.7,68.72 49.66,-42.5 14.41,2.43 36.16,-53.77 0.75,-1.96 1.76,-40.45 2.03,-43.72l55.8 -7.6 28.72 599.22 -0.68 101.24c18.79,12.77 -2.18,6.92 33.6,1.79l-0.48 -778.88 -88.51 0.25 -723.84 2.07 0.28 456.28z"/>
   <polygon class="fil5" points="13246.59,9819.58 14055.04,9819.58 14055.04,12764.64 13246.59,12764.64 "/>
   <polygon class="fil5" points="13246.59,8670.5 14055.04,8670.5 14055.04,9465.25 13246.59,9465.25 "/>
   <polygon class="fil5" points="16955.76,9819.58 17764.22,9819.58 17764.22,12764.64 16955.76,12764.64 "/>
   <polygon class="fil5" points="16955.76,8670.5 17764.22,8670.5 17764.22,9465.25 16955.76,9465.25 "/>
  </g>
  <rect class="fil6" x="11432.51" y="5716.16" width="7382.36" height="9126.22"/>
 </g>
</svg>
