<?xml version="1.0" encoding="UTF-8"?>
<!DOCTYPE svg PUBLIC "-//W3C//DTD SVG 1.1//EN" "http://www.w3.org/Graphics/SVG/1.1/DTD/svg11.dtd">
<!-- Creator: CorelDRAW 2018 -->
<svg xmlns="http://www.w3.org/2000/svg" xml:space="preserve" width="297mm" height="210mm" version="1.1" style="shape-rendering:geometricPrecision; text-rendering:geometricPrecision; image-rendering:optimizeQuality; fill-rule:evenodd; clip-rule:evenodd"
viewBox="0 0 29700 21000"
 xmlns:xlink="http://www.w3.org/1999/xlink">
 <defs>
  <style type="text/css">
   <![CDATA[
    .str0 {stroke:#2A7E29;stroke-width:20;stroke-miterlimit:22.9256}
    .fil7 {fill:#2A7E29}
    .fil6 {fill:#616161}
    .fil3 {fill:#B3B3B3}
    .fil0 {fill:#1C1B17;fill-rule:nonzero}
    .fil1 {fill:green;fill-rule:nonzero}
    .fil2 {fill:green;fill-rule:nonzero}
    .fil5 {fill:#616161;fill-rule:nonzero}
    .fil4 {fill:#B3B3B3;fill-rule:nonzero}
   ]]>
  </style>
 </defs>
 <g id="Layer_x0020_1">
  <metadata id="CorelCorpID_0Corel-Layer"/>
  <g id="_966139312">
   <path class="fil0" d="M11584.27 3872.57l0 260.9 -292.95 0 0 1057.46 -280.52 0 0 -1057.46 -294.73 0 0 -260.9 868.2 0zm964.68 251.02l-562.82 0 0 270.79 442.08 0 0 247.08 -442.08 0 0 288.56 562.82 0 0 260.91 -845.13 0 0 -1318.36 845.13 0 0 251.02zm-200.62 -699.69l65.69 161.74 -381.14 180.2 -43.21 -107.72 358.66 -234.22zm1320.63 940.17l-291.18 20.42c-4.14,-187.11 -68.94,-280.66 -195.01,-280.66 -144.68,0 -216.9,143.31 -216.9,430.23 0,165.71 19.53,278.03 58.9,337.01 39.36,58.95 94.09,88.61 164.53,88.61 114.51,0 184.34,-83.01 209.79,-249.06l269.87 18.46c-17.45,157.13 -70.12,277.04 -158.02,358.74 -88.17,82.02 -196.17,122.88 -323.71,122.88 -156.56,0 -283.79,-60.29 -381.72,-180.52 -97.96,-120.25 -146.78,-286.6 -146.78,-499.09 0,-198.64 47.35,-361.37 142.03,-488.21 94.69,-126.83 224.31,-190.07 388.25,-190.07 284.06,0 444.16,170.32 479.95,511.26zm1069.72 -491.5l0 1318.36 -240.26 0 -457.48 -890.44c0.58,22.4 1.17,37.24 1.78,44.48 2.34,22.4 3.53,41.51 3.53,56.99l0 788.97 -216.61 0 0 -1318.36 300.05 0 399.5 777.44c-3.56,-38.53 -5.34,-67.85 -5.34,-87.95l0 -689.49 214.83 0zm515.77 0l0 1318.36 -276.98 0 0 -1318.36 276.98 0zm1190.47 491.5l-291.18 20.42c-4.14,-187.11 -68.94,-280.66 -195.01,-280.66 -144.7,0 -216.9,143.31 -216.9,430.23 0,165.71 19.53,278.03 58.88,337.01 39.38,58.95 94.11,88.61 164.53,88.61 114.53,0 184.36,-83.01 209.79,-249.06l269.89 18.46c-17.47,157.13 -70.14,277.04 -158.02,358.74 -88.17,82.02 -196.17,122.88 -323.73,122.88 -156.54,0 -283.77,-60.29 -381.72,-180.52 -97.96,-120.25 -146.78,-286.6 -146.78,-499.09 0,-198.64 47.35,-361.37 142.05,-488.21 94.68,-126.83 224.29,-190.07 388.23,-190.07 284.08,0 444.16,170.32 479.97,511.26zm604.54 846.63c-159.19,0 -282.6,-66.55 -369.88,-199.65 -87.3,-133.41 -130.79,-294.48 -130.79,-483.58 0,-192.39 44.1,-352.81 132.55,-481.62 88.49,-128.8 214.24,-193.04 377.89,-193.04 165.11,0 289.71,68.52 373.74,205.9 84.04,137.36 126.05,294.83 126.05,471.73 0,191.06 -43.18,352.15 -129.9,483.26 -86.71,131.44 -213.05,197 -379.66,197zm7.99 -1106.87c-144.98,0 -217.48,142.32 -217.48,427.26 0,285.61 72.5,428.59 217.48,428.59 140.26,0 210.4,-142.65 210.4,-427.6 0,-285.61 -70.14,-428.25 -210.4,-428.25zm1945.32 58.64l-236.14 87.62c-31.96,-104.1 -99.43,-156.14 -202.4,-156.14 -110.08,0 -165.11,39.52 -165.11,118.59 0,31.62 10.35,58.31 30.77,80.05 20.72,21.75 66.88,40.85 139.38,57.66 120.74,27.65 209.21,55.33 265.41,83.01 56.23,27.33 103.58,71.81 142.36,133.41 38.45,61.28 57.7,129.8 57.7,205.55 0,118.92 -41.15,221.71 -123.71,308.36 -82.55,86.63 -204.77,130.12 -366.63,130.12 -121.63,0 -224.88,-30.65 -310.4,-92.25 -85.23,-61.6 -141.46,-152.85 -168.67,-274.07l257.45 -64.57c28.99,122.53 109.17,183.81 240.85,183.81 63.62,0 110.97,-13.5 142.05,-40.84 31.07,-27.35 46.76,-59.96 46.76,-97.85 0,-38.86 -14.21,-68.52 -42.62,-89.93 -28.12,-21.08 -82.85,-40.84 -163.64,-59.62 -150.9,-34.59 -258.34,-81.7 -322.55,-141.98 -64.21,-59.95 -96.15,-147.92 -96.15,-263.86 0,-116.96 38.17,-215.78 114.81,-296.17 76.63,-80.36 180.79,-120.56 311.88,-120.56 232.6,0 382.03,103.11 448.6,309.66zm1144.29 -289.9l0 820.6c0,132.75 -13.6,231.25 -40.82,295.83 -26.95,64.89 -77.25,117.93 -150.33,159.43 -73.09,41.51 -166.31,62.27 -280.24,62.27 -113.92,0 -204.46,-18.78 -271.64,-56 -67.47,-37.24 -117.77,-90.27 -151.21,-159.46 -33.44,-68.84 -50.3,-169.32 -50.3,-302.07l0 -820.6 300.05 0 0 821.25c0,70.84 5.32,123.21 15.97,156.48 10.65,33.61 32.27,60.29 64.23,80.05 31.94,19.44 71.61,29.33 118.35,29.33 52.08,0 94.4,-9.56 126.95,-28.99 32.55,-19.45 54.45,-44.8 65.1,-76.77 10.65,-31.94 15.99,-85.31 15.99,-160.1l0 -821.25 237.9 0zm503.05 828.19l0 490.17 -282.31 0 0 -1318.36 466.37 0c103.86,0 183.46,12.53 238.79,37.24 55.03,24.7 104.47,68.84 147.65,132.75 43.53,63.58 65.12,141.66 65.12,234.54 0,64.9 -11.54,128.16 -34.61,190.08 -23.09,61.61 -55.64,110.37 -97.98,145.61 -41.99,35.58 -82.85,58.97 -122.49,70.5 -39.35,11.52 -101.5,17.47 -185.84,17.47l-194.7 0zm-8.87 -239.18l179.91 0c68.64,0 116.58,-17.79 144.4,-53.03 27.51,-35.58 41.42,-76.1 41.42,-121.89 0,-53.37 -15.38,-95.87 -46.15,-127.49 -31.08,-31.62 -77.82,-47.43 -140.56,-47.43l-179.02 0 0 349.84zm1643.19 -337.99l-562.81 0 0 270.79 442.09 0 0 247.08 -442.09 0 0 288.56 562.81 0 0 260.91 -845.13 0 0 -1318.36 845.13 0 0 251.02zm445.35 547.51l0 519.83 -278.75 0 0 -1318.36 520.49 0c95.9,0 173.13,12.53 231.13,37.24 58.29,25.03 106.53,70.5 144.7,137.03 38.17,66.54 57.09,140.65 57.09,222.03 0,158.79 -68.64,272.77 -205.93,341.94l218.39 580.12 -305.69 0 -182.28 -519.83 -199.15 0zm0 -561.34l0 336.01 170.44 0c55.64,0 96.17,-4.28 121.32,-13.18 25.46,-8.55 47.64,-28 67.47,-57.64 19.83,-29.98 29.6,-64.25 29.6,-103.11 0,-36.57 -9.77,-69.51 -29.6,-98.5 -19.83,-28.67 -41.12,-46.78 -64.21,-53.37 -23.37,-6.92 -66.86,-10.21 -130.49,-10.21l-164.53 0zm1165 -237.19l0 1318.36 -276.98 0 0 -1318.36 276.98 0zm680.9 1338.13c-159.19,0 -282.6,-66.55 -369.88,-199.65 -87.3,-133.41 -130.81,-294.48 -130.81,-483.58 0,-192.39 44.1,-352.81 132.57,-481.62 88.47,-128.8 214.25,-193.04 377.89,-193.04 165.11,0 289.69,68.52 373.74,205.9 84.04,137.36 126.05,294.83 126.05,471.73 0,191.06 -43.2,352.15 -129.92,483.26 -86.69,131.44 -213.03,197 -379.64,197zm7.99 -1106.87c-145,0 -217.5,142.32 -217.5,427.26 0,285.61 72.5,428.59 217.5,428.59 140.25,0 210.4,-142.65 210.4,-427.6 0,-285.61 -70.15,-428.25 -210.4,-428.25zm961.7 567.27l0 519.83 -278.76 0 0 -1318.36 520.52 0c95.89,0 173.1,12.53 231.11,37.24 58.31,25.03 106.54,70.5 144.72,137.03 38.17,66.54 57.09,140.65 57.09,222.03 0,158.79 -68.66,272.77 -205.96,341.94l218.39 580.12 -305.68 0 -182.27 -519.83 -199.16 0zm0 -561.34l0 336.01 170.44 0c55.65,0 96.19,-4.28 121.34,-13.18 25.43,-8.55 47.63,-28 67.47,-57.64 19.83,-29.98 29.57,-64.25 29.57,-103.11 0,-36.57 -9.74,-69.51 -29.57,-98.5 -19.84,-28.67 -41.15,-46.78 -64.23,-53.37 -23.38,-6.92 -66.86,-10.21 -130.49,-10.21l-164.53 0zm2177.02 13.83l-562.81 0 0 270.79 442.09 0 0 247.08 -442.09 0 0 288.56 562.81 0 0 260.91 -845.13 0 0 -1318.36 845.13 0 0 251.02zm1075.63 -251.02l0 1318.36 -240.26 0 -457.48 -890.44c0.58,22.4 1.17,37.24 1.77,44.48 2.37,22.4 3.54,41.51 3.54,56.99l0 788.97 -216.61 0 0 -1318.36 300.05 0 399.5 777.44c-3.54,-38.53 -5.32,-67.85 -5.32,-87.95l0 -689.49 214.81 0z"/>
   <path class="fil1" d="M14407.14 7263.71l496.19 0c202.12,0 352.62,29.55 451.86,88.69 99.23,59.12 187.91,152.1 266.39,280.19 78.48,127.66 117.95,288.75 117.95,484.11 0,245.06 -68.74,450.29 -205.82,614.8 -137.05,164.51 -326.16,246.77 -567.34,246.77l-559.23 0 0 -1714.56zm373.37 316.18l0 1077.06 156.57 0c138.69,0 241.6,-54.85 308.7,-164.08 67.12,-109.26 100.86,-237.78 100.86,-385.16 0,-103.68 -19.1,-200.08 -57.76,-288.33 -38.21,-88.27 -85.8,-150.37 -142.75,-185.94 -56.94,-35.56 -125.68,-53.55 -205.39,-53.55l-160.23 0zm2370.72 10.29l-773.56 0 0 352.17 607.62 0 0 321.31 -607.62 0 0 375.3 773.56 0 0 339.31 -1161.57 0 0 -1714.56 1161.57 0 0 326.47zm1353.95 50.54l-324.57 113.97c-43.91,-135.38 -136.65,-203.07 -278.19,-203.07 -151.29,0 -226.95,51.4 -226.95,154.22 0,41.15 14.24,75.84 42.3,104.12 28.47,28.27 91.91,53.11 191.56,74.97 165.94,35.99 287.55,71.97 364.82,107.96 77.28,35.56 142.36,93.41 195.63,173.51 52.87,79.69 79.31,168.81 79.31,267.33 0,154.67 -56.53,288.34 -170.01,401.02 -113.48,112.67 -281.44,169.22 -503.92,169.22 -167.14,0 -309.08,-39.83 -426.63,-119.95 -117.14,-80.13 -194.41,-198.8 -231.83,-356.46l353.85 -83.96c39.84,159.37 150.05,239.05 331.06,239.05 87.44,0 152.52,-17.55 195.22,-53.11 42.7,-35.56 64.25,-77.98 64.25,-127.25 0,-50.56 -19.51,-89.12 -58.55,-116.96 -38.64,-27.41 -113.89,-53.13 -224.92,-77.55 -207.41,-44.99 -355.06,-106.25 -443.31,-184.65 -88.25,-77.98 -132.18,-192.37 -132.18,-343.17 0,-152.1 52.46,-280.62 157.8,-385.14 105.35,-104.55 248.51,-156.81 428.67,-156.81 319.68,0 525.06,134.1 616.59,402.71zm1071.69 -377.01l506.32 1714.56 -409.54 0 -100.46 -354.74 -524.65 0 -102.9 354.74 -333.91 0 520.98 -1714.56 444.16 0zm-437.23 1043.64l344.09 0 -170.42 -600.64 -173.67 600.64zm1501.98 -5.13l0 676.05 -383.1 0 0 -1714.56 715.38 0c131.77,0 237.94,16.29 317.65,48.42 80.12,32.55 146.42,91.68 198.88,178.21 52.47,86.56 78.51,182.95 78.51,288.77 0,206.5 -94.38,354.74 -283.07,444.7l300.15 754.46 -420.16 0 -250.51 -676.05 -273.73 0zm0 -730.04l0 436.99 234.26 0c76.46,0 132.18,-5.56 166.78,-17.13 34.95,-11.14 65.46,-36.43 92.71,-74.99 27.26,-38.97 40.68,-83.53 40.68,-134.08 0,-47.57 -13.42,-90.41 -40.68,-128.1 -27.25,-37.28 -56.53,-60.85 -88.25,-69.4 -32.12,-9 -91.91,-13.29 -179.35,-13.29l-226.15 0zm1603.65 730.04l0 676.05 -383.1 0 0 -1714.56 715.4 0c131.77,0 237.92,16.29 317.63,48.42 80.13,32.55 146.42,91.68 198.9,178.21 52.45,86.56 78.49,182.95 78.49,288.77 0,206.5 -94.38,354.74 -283.07,444.7l300.15 754.46 -420.14 0 -250.53 -676.05 -273.73 0zm0 -730.04l0 436.99 234.26 0c76.46,0 132.18,-5.56 166.78,-17.13 34.97,-11.14 65.46,-36.43 92.71,-74.99 27.26,-38.97 40.68,-83.53 40.68,-134.08 0,-47.57 -13.42,-90.41 -40.68,-128.1 -27.25,-37.28 -56.52,-60.85 -88.25,-69.4 -32.12,-9 -91.9,-13.29 -179.34,-13.29l-226.16 0zm1798.49 1431.79c-218.81,0 -388.42,-86.53 -508.41,-259.62 -119.97,-173.5 -179.75,-383.02 -179.75,-628.92 0,-250.21 60.61,-458.86 182.22,-626.36 121.6,-167.52 294.44,-251.06 519.34,-251.06 226.96,0 398.19,89.12 513.69,267.76 115.5,178.66 173.26,383.45 173.26,613.5 0,248.49 -59.38,457.99 -178.54,628.5 -119.18,170.94 -292.85,256.2 -521.81,256.2zm10.98 -1439.51c-199.29,0 -298.94,185.09 -298.94,555.68 0,371.43 99.65,557.37 298.94,557.37 192.79,0 289.17,-185.51 289.17,-556.1 0,-371.43 -96.38,-556.95 -289.17,-556.95zm1324.26 1074.5l646.66 0 0 339.31 -1032.23 0 0 -1714.56 385.57 0 0 1375.25zm1228.68 0l646.66 0 0 339.31 -1032.23 0 0 -1714.56 385.57 0 0 1375.25zm1429.19 365.01c-218.81,0 -388.39,-86.53 -508.41,-259.62 -119.97,-173.5 -179.75,-383.02 -179.75,-628.92 0,-250.21 60.61,-458.86 182.22,-626.36 121.61,-167.52 294.45,-251.06 519.35,-251.06 226.96,0 398.18,89.12 513.68,267.76 115.51,178.66 173.27,383.45 173.27,613.5 0,248.49 -59.38,457.99 -178.54,628.5 -119.17,170.94 -292.85,256.2 -521.82,256.2zm10.98 -1439.51c-199.28,0 -298.93,185.09 -298.93,555.68 0,371.43 99.65,557.37 298.93,557.37 192.8,0 289.17,-185.51 289.17,-556.1 0,-371.43 -96.37,-556.95 -289.17,-556.95z"/>
   <path class="fil2" d="M27371.62 10178.3l0 1714.56 -344.47 0 0 -198.8c-85.68,149.53 -202.64,224.5 -350.45,224.5 -140.53,0 -251.48,-56.97 -332.45,-170.94 -80.98,-114.39 -121.67,-272.47 -121.67,-474.69 0,-210.36 40.69,-375.29 121.67,-494.39 80.97,-119.1 198.35,-178.67 352.16,-178.67 135.38,0 239.5,53.56 312.75,160.23l0 -581.8 362.46 0zm-362.46 978.95c0,-198.35 -60.84,-297.74 -182.93,-297.74 -145.24,0 -218.07,140.08 -218.07,420.28 0,249.34 68.12,374.02 204.36,374.02 52.27,0 98.1,-22.72 137.52,-67.71 39.41,-44.98 59.12,-109.23 59.12,-192.35l0 -236.5zm1808.39 162.39l-816.16 0c-0.85,22.7 -1.27,42.41 -1.27,59.11 0,90.82 24,159.38 72.4,205.66 47.97,46.25 105.82,69.4 173.08,69.4 124.68,0 199.65,-66.84 224.92,-200.52l339.33 25.28c-94.7,293.47 -286.62,439.99 -576.24,439.99 -126.38,0 -233.92,-25.27 -322.19,-75.82 -88.25,-50.56 -161.07,-124.25 -218.49,-221.07 -57.41,-97.25 -86.1,-213.36 -86.1,-348.74 0,-201.36 57.39,-363.73 172.65,-487.54 114.82,-123.81 262.63,-185.52 443.41,-185.52 163.24,0 302.9,57.42 419.44,171.81 116.95,114.39 175.22,297.32 175.22,547.96zm-817.43 -215.95l449.84 0c-11.57,-173.08 -83.12,-259.61 -214.21,-259.61 -140.53,0 -218.93,86.53 -235.63,259.61z"/>
   <path class="fil2" d="M18061.1 13501.04l-324.87 113.97c-43.96,-135.38 -136.77,-203.07 -278.44,-203.07 -151.43,0 -227.16,51.4 -227.16,154.22 0,41.15 14.25,75.84 42.35,104.12 28.49,28.27 91.99,53.12 191.73,74.97 166.1,35.99 287.81,71.97 365.14,107.96 77.36,35.56 142.5,93.41 195.83,173.51 52.91,79.7 79.38,168.81 79.38,267.33 0,154.67 -56.59,288.35 -170.18,401.02 -113.56,112.67 -281.69,169.22 -504.36,169.22 -167.3,0 -309.39,-39.83 -427.03,-119.95 -117.25,-80.12 -194.58,-198.8 -232.04,-356.46l354.17 -83.96c39.89,159.37 150.19,239.05 331.34,239.05 87.53,0 152.69,-17.55 195.43,-53.11 42.74,-35.56 64.31,-77.98 64.31,-127.25 0,-50.56 -19.53,-89.12 -58.61,-116.96 -38.68,-27.41 -114.01,-53.13 -225.12,-77.55 -207.62,-44.99 -355.39,-106.24 -443.74,-184.65 -88.33,-77.98 -132.3,-192.37 -132.3,-343.17 0,-152.1 52.52,-280.62 157.96,-385.14 105.43,-104.55 248.73,-156.81 429.05,-156.81 319.97,0 525.56,134.1 617.16,402.71zm902.49 1363.25c-219.02,0 -388.76,-86.53 -508.85,-259.61 -120.1,-173.51 -179.92,-383.03 -179.92,-628.93 0,-250.21 60.65,-458.86 182.38,-626.36 121.71,-167.52 294.71,-251.06 519.82,-251.06 227.16,0 398.54,89.12 514.15,267.76 115.6,178.66 173.42,383.45 173.42,613.5 0,248.49 -59.42,457.99 -178.7,628.5 -119.28,170.94 -293.11,256.2 -522.3,256.2zm11 -1439.51c-199.47,0 -299.2,185.09 -299.2,555.68 0,371.44 99.73,557.38 299.2,557.38 192.95,0 289.43,-185.52 289.43,-556.11 0,-371.43 -96.48,-556.95 -289.43,-556.95zm2097.28 38.56l-762.06 0 0 383.02 603.31 0 0 321.31 -603.31 0 0 670.92 -395.67 0 0 -1714.56 1157.73 0 0 339.31zm1226.55 -339.31l0 339.31 -403.01 0 0 1375.25 -385.91 0 0 -1375.25 -405.46 0 0 -339.31 1194.38 0zm2191.32 0l-407.89 1714.56 -373.72 0 -269.88 -1134.46 -260.12 1134.46 -373.3 0 -415.63 -1714.56 389.15 0 223.5 1046.21c0.83,5.16 4.89,23.58 13.02,55.28 3.28,11.99 7.34,29.55 13.02,52.68l267.07 -1154.17 352.54 0 274.37 1154.17c5.68,-21.41 13.42,-57.39 23.61,-107.96l230.8 -1046.21 313.46 0zm910.25 0l506.81 1714.56 -409.93 0 -100.56 -354.73 -525.13 0 -102.99 354.73 -334.21 0 521.47 -1714.56 444.54 0zm-437.61 1043.64l344.39 0 -170.58 -600.64 -173.81 600.64zm1503.33 -5.13l0 676.05 -383.46 0 0 -1714.56 716.06 0c131.9,0 238.14,16.29 317.92,48.42 80.2,32.55 146.56,91.68 199.08,178.22 52.51,86.55 78.57,182.94 78.57,288.76 0,206.5 -94.46,354.74 -283.33,444.71l300.43 754.45 -420.54 0 -250.74 -676.05 -273.99 0zm0 -730.03l0 436.98 234.48 0c76.55,0 132.31,-5.56 166.92,-17.13 35,-11.14 65.53,-36.43 92.8,-74.98 27.29,-38.98 40.72,-83.54 40.72,-134.09 0,-47.57 -13.43,-90.41 -40.72,-128.09 -27.27,-37.29 -56.57,-60.86 -88.31,-69.41 -32.17,-9 -92.01,-13.28 -179.53,-13.28l-226.36 0zm2384.29 17.99l-774.27 0 0 352.17 608.18 0 0 321.31 -608.18 0 0 375.3 774.27 0 0 339.31 -1162.63 0 0 -1714.56 1162.63 0 0 326.47z"/>
   <path class="fil3" d="M6582.61 11818.78c-137.46,-83.44 -380.45,-555.71 -480.63,-722.19 -316.24,-525.48 -500.41,-1067.47 -500.41,-1749.25 0,-1472.04 1211.67,-2709.99 2673.87,-2709.99 810.95,0 1193.56,406.37 1850.4,607.09 86.94,28.41 161.8,41.32 229.42,41.32 164.2,0 302.92,-430.51 360.87,-688.76 53.13,0 106.26,0 159.38,0 9.89,1104.48 19.76,2208.95 29.65,3313.44 -152.23,9.92 -215.57,-113.52 -238.82,-297.06 -127.99,-480.35 -289.54,-804.36 -382.65,-1060.4 -569.93,-1567.36 -3182.01,-2081.19 -3366.81,-169.81 0,844.48 545.18,1470.1 1392.49,1908.91 332.44,172.16 664.87,344.33 997.32,516.49 528.88,273.89 877.57,702.74 1203.62,1010.21 137.46,83.45 380.44,555.72 480.63,722.19 316.24,525.49 500.41,1067.48 500.41,1749.26 0,1472.03 -1294.57,3115.85 -3171.27,2931.05 -810.95,0 -1007.04,-351.09 -1663.88,-551.82 -86.94,-28.41 -161.8,-41.32 -229.42,-41.32 -472.66,-13.81 -766.01,947.97 -790.96,481.65 -9.89,-1104.48 -18.48,-2278.18 -28.36,-3382.66 123.85,-363.1 685.65,1166.12 752.72,1350.55 553.51,1862.99 3506.99,2462.65 3712.23,183.62 0,-844.47 -441.55,-1477 -1288.86,-1915.81 -332.44,-172.16 -609.61,-434.14 -942.05,-606.3 -528.88,-273.89 -856.85,-612.93 -1258.89,-920.41z"/>
   <path class="fil4" d="M3697.89 4147.34c-232.72,0 -135.01,-3.46 -396.93,-0.68 -572.61,6.08 -850.14,9.96 -1130.16,164.56 -280.03,154.59 -461.19,349.73 -642.25,726.7 -167.05,347.82 -329.69,632.04 -418.61,1225.07l-259.94 -8.69 99.06 -2656.29 3747.81 0 3747.8 0 99.06 2656.29 -259.94 8.69c-88.92,-593.03 -251.55,-877.25 -418.61,-1225.07 -181.06,-376.97 -362.22,-572.11 -642.25,-726.7 -280.02,-154.6 -557.54,-158.48 -1130.16,-164.56 -261.92,-2.78 -164.21,0.68 -396.93,0.68l0 7225.57c0,511.92 1.02,942.57 -4.76,1186.86 -6.22,262.54 62.73,660.39 330.94,790.54 130.53,63.34 242.44,117.72 456.24,132.92l13.82 257.08 -1795.21 0 -1795.22 0 13.82 -257.08c213.8,-15.2 325.71,-69.58 456.24,-132.92 268.21,-130.15 337.16,-528 330.94,-790.54 -5.78,-244.29 -4.76,-674.94 -4.76,-1186.86l0 -7225.57z"/>
   <path class="fil5" d="M1636.74 7592.34c48.61,0 91.53,-5.92 129.48,-17.51 37.58,-11.32 69.5,-27.8 95.4,-48.9 26.24,-21.09 46.1,-46.83 59.95,-76.95 13.83,-30.1 20.56,-63.83 20.56,-100.89l0 -597.34 272.37 0 0 597.34c0,60.23 -13.45,115.83 -40.05,166.52 -26.61,50.7 -64.92,94.71 -114.94,131.51 -49.65,37.06 -110.31,65.89 -181.57,86.49 -71.29,20.58 -151.82,30.87 -241.2,30.87 -89.34,0 -169.86,-10.29 -241.52,-30.87 -71.63,-20.6 -132.64,-49.43 -182.3,-86.49 -50.01,-36.8 -88.29,-80.81 -114.89,-131.51 -26.61,-50.69 -40.09,-106.29 -40.09,-166.52l0 -597.34 273.44 0 0 597.34c0,37.06 6.75,70.79 20.56,100.89 13.85,30.12 33.72,55.86 59.96,76.95 25.88,21.1 57.83,37.58 95.41,48.9 37.95,11.59 80.85,17.51 129.43,17.51z"/>
   <path class="fil5" d="M1350.44 8838.73l0 368.85 -309.61 0 0 -958.7 469.43 0c103.74,0 193.06,6.9 267.54,20.71 74.12,13.79 134.99,32.77 182.24,57.39 47.27,24.41 82.14,53.96 103.78,87.97 22.01,34.25 32.83,71.69 32.83,112.59 0,31.3 -6.81,61.12 -20.84,89.2 -14.01,28.08 -34.84,53.96 -61.67,77.37 -27.23,23.15 -60.06,43.86 -99.35,61.85 -38.85,18.21 -84.1,32.75 -134.99,43.85 19.65,6.65 38.07,14.78 55.3,24.14 17.22,9.36 33.25,20.7 48.07,34.25l348.45 349.38 -277.99 0c-49.25,0 -87.28,-12.82 -113.74,-38.19l-283.98 -298.88c-11.62,-11.56 -24.84,-19.71 -39.24,-24.62 -14.41,-4.69 -35.26,-7.16 -61.68,-7.16l-104.55 0zm0 -135.01l157.4 0c50.09,0 93.34,-4.19 129.39,-12.32 36.45,-8.14 66.49,-19.47 90.13,-33.76 23.23,-14.54 40.84,-31.78 52.06,-51.74 11.2,-19.95 16.82,-41.64 16.82,-65.3 0,-46.56 -23.23,-82.53 -70.1,-107.92 -46.88,-25.37 -118.96,-37.93 -215.88,-37.93l-159.82 0 0 308.97z"/>
   <path class="fil5" d="M2248.73 10274.72c0,84.93 -20.93,161.88 -62.76,231.12 -41.85,68.96 -100.72,126.62 -176.3,172.94l354.32 291.09 -224.14 0c-32.63,0 -61.72,-3.09 -86.89,-9.01 -25.19,-6.17 -48.93,-18.02 -71.29,-35.52l-191.17 -160.59c-66.32,14.66 -136.55,21.87 -210.67,21.87 -100.74,0 -191.88,-12.88 -274.51,-38.35 -82.31,-25.74 -153.23,-61.5 -212.1,-107.05 -58.88,-45.81 -104.27,-100.12 -136.55,-162.67 -32.27,-62.53 -48.24,-130.48 -48.24,-203.83 0,-72.83 15.97,-140.78 48.24,-203.31 32.28,-62.55 77.67,-116.59 136.55,-162.14 58.87,-45.31 129.79,-81.08 212.1,-107.08 82.63,-25.73 173.77,-38.85 274.51,-38.85 100.36,0 191.86,13.12 274.17,38.85 82.26,26 152.84,61.77 211.37,107.58 58.51,45.57 103.92,99.61 135.5,162.14 31.9,62.3 47.86,129.98 47.86,202.81zm-278.42 0c0,-53.28 -8.85,-101.15 -26.93,-143.35 -18.09,-42.21 -43.99,-78.24 -77.33,-107.84 -33.7,-29.59 -74.5,-52.24 -122.72,-68.19 -48.24,-15.71 -102.87,-23.69 -163.5,-23.69 -61.02,0 -115.99,7.98 -164.21,23.69 -48.58,15.95 -89.74,38.6 -123.42,68.19 -33.36,29.6 -59.24,65.63 -77.32,107.84 -18.11,42.2 -26.97,90.07 -26.97,143.35 0,53.8 8.86,101.91 26.97,144.39 18.08,42.46 43.96,78.24 77.32,107.84 33.68,29.34 74.84,51.72 123.42,67.43 48.22,15.44 103.19,23.41 164.21,23.41 60.63,0 115.26,-7.97 163.5,-23.41 48.22,-15.71 89.02,-38.09 122.72,-67.43 33.34,-29.6 59.24,-65.38 77.33,-107.84 18.08,-42.48 26.93,-90.59 26.93,-144.39z"/>
   <path class="fil5" d="M2243.41 14354.46l0 69.55c0,20.5 -10.84,39.3 -33.06,56.39l-759.47 674.39 771.26 0 0 149.39 -1193.13 0 0 -72.99c0,-19.02 9.98,-36.12 30.36,-51.49l759.47 -675.63 -731.37 0 0 -149.61 1155.94 0z"/>
   <path class="fil5" d="M2354.3 16865.29l-234.8 0c-26.95,0 -48.79,-4.02 -65.04,-12.05 -16.24,-8.29 -28.15,-18.33 -36.11,-30.65l-97.55 -192.14 -568.36 0 -96.37 191.4c-5.95,10.79 -17.85,20.84 -35.3,29.88 -17.43,9.03 -38.86,13.56 -64.66,13.56l-237.96 0 562.41 -977.31 311.33 0 562.41 977.31zm-933.24 -370.22l429.95 0 -156.69 -308.96c-9.5,-15.31 -19.02,-32.9 -28.95,-53.5 -10.31,-20.34 -20.22,-42.43 -30.53,-66.55 -9.12,24.12 -19.04,46.46 -28.95,67.06 -9.93,20.6 -19.43,38.43 -27.76,53.76l-157.07 308.19z"/>
   <path class="fil5" d="M1636.74 12151.83c48.61,0 91.53,-5.92 129.48,-17.51 37.58,-11.32 69.5,-27.8 95.4,-48.91 26.24,-21.08 46.1,-46.82 59.95,-76.94 13.83,-30.11 20.56,-63.83 20.56,-100.89l0 -597.34 272.37 0 0 597.34c0,60.23 -13.45,115.83 -40.05,166.51 -26.61,50.71 -64.92,94.72 -114.94,131.52 -49.65,37.06 -110.31,65.89 -181.57,86.49 -71.29,20.58 -151.82,30.87 -241.2,30.87 -89.34,0 -169.86,-10.29 -241.52,-30.87 -71.63,-20.6 -132.64,-49.43 -182.3,-86.49 -50.01,-36.8 -88.29,-80.81 -114.89,-131.52 -26.61,-50.68 -40.09,-106.28 -40.09,-166.51l0 -597.34 273.44 0 0 597.34c0,37.06 6.75,70.78 20.56,100.89 13.85,30.12 33.72,55.86 59.96,76.94 25.88,21.11 57.83,37.59 95.41,48.91 37.95,11.59 80.85,17.51 129.43,17.51z"/>
   <polygon class="fil6" points="1454.91,12817.19 1817.59,12817.19 1817.59,13787.81 1454.91,13787.81 "/>
   <g>
    <path class="fil7 str0" d="M5541.02 10480.89l-13.52 -1106.97 -7.53 -1367.37c0,0 0,0 1293.64,8.43l-8.03 6771.02 -1114.38 -8.88 -207.62 -8.66 -7.87 -617.18c-320.49,464.07 -721.79,756.56 -1300.25,756.44 -217.22,-0.05 -411.48,-46.17 -591.67,-128.39 -369.99,-168.84 -636.67,-504.22 -815.59,-865.59 -439.96,-888.53 -430.09,-2338.88 -1.42,-3186.93 626.79,-1240.03 1940.31,-1347.65 2774.24,-245.92zm-1514.48 2849.87c-168.21,-299.75 -204.19,-661.52 -203.91,-1009.33 0.44,-564.92 163.94,-1486.39 917.07,-1392.29 631.48,78.88 751.57,853.02 751.37,1392.29 -0.2,551.06 -140.61,1340.46 -778.24,1401.19 -344.69,32.82 -529.62,-126.66 -686.29,-391.86z"/>
    <path class="fil7 str0" d="M10125.03 13057.59c98.91,66.37 124.54,89.27 153.1,239.58 10.75,185.16 28.84,315.91 -108.69,462.84 -86.05,91.93 -226.09,182.19 -394.11,180.62 -73.43,72.14 -87.76,48.72 -200.31,68.88 -254.37,45.54 -367.9,410.7 -632.43,482.37 -93.91,25.44 -346.16,18.16 -457.57,20.42 25.4,54.49 -22.03,-17.83 32.44,26.72l27.58 22.27c4.03,3.34 10.58,9.39 14.86,12.86 4.42,3.59 10.53,9.87 15.21,13.43 58.5,44.6 -7.8,21.35 71.89,42.81 35.97,9.69 74.43,5.46 111.28,5.79 -61.07,148.19 -108.45,16.56 -177.39,148.08 85,56.71 157.4,30.22 281.23,31.65l31.55 70.06c323.57,77.55 865.45,75.04 1204.89,28.64 695.43,-95.06 766.24,-314.99 956.42,-354.34 5.83,-2.21 6.13,-1.61 15.83,-9.59 31.23,-20.97 25.9,-16.82 31.23,-20.97 2.81,-2.19 54.97,-47.85 59.21,-51.95 67.74,-65.39 54.92,-67.18 108.08,-128.66 173.84,-363.98 263.07,-565.11 239.62,-1051.29 -9.42,-195.35 -30.51,-395.17 -94.09,-573.86 -26.52,-74.54 -61.13,-145.32 -98.53,-215.5 -34.33,-64.44 -85.31,-162.07 -143.37,-178.03 -166.55,12.98 -155.34,-66.57 -295.63,-145.42 -127.37,-71.6 -803.34,-329.72 -939.66,-258.74 43.03,85.2 27.78,53.2 165.88,61.99 -94.81,46.99 -190.89,-18 -154.51,97.87 19.46,61.99 52.28,75.71 209.6,75.98 -30.24,51.58 -18.85,94.56 -15.35,138.94 10.89,138.2 -29.61,26.92 38.62,121.49 83.35,115.54 124.58,82.51 113.35,260.6 -0.03,0.61 -19.38,179.06 -20.79,182.94 -64.08,175.25 -69.71,-44.85 -158.03,36.91 -54.63,50.57 -7.69,11.21 1.72,64.22 0.69,3.89 3.52,12.68 4.17,16.62 0.68,4.08 2.46,13.71 2.97,17.52 0.08,0.58 0.17,52.34 -0.27,56.25z"/>
    <path class="fil7 str0" d="M7881.56 10799.41c89.63,16.19 48.38,3.5 108.64,70.55 154.38,171.76 467.73,346.4 654.7,477.88 6.62,201.25 -4.82,213.4 -36.68,367.72 -43.72,211.84 -0.28,159.97 62.03,269.23 86.22,151.22 -78.38,535.86 63.15,645.61 -5.74,5.25 -15.87,9.34 -20.2,11.59 -80.04,41.51 -60.47,4.91 -102.08,46 26.52,-12.36 474.38,148.24 710.83,186.68l620.45 122.94c84.57,23.99 78.33,38.08 182.63,59.98 0.44,-3.91 0.35,-55.67 0.27,-56.25 -0.51,-3.81 -2.29,-13.44 -2.97,-17.52 -0.65,-3.94 -3.48,-12.73 -4.17,-16.62 -9.41,-53.01 -56.35,-13.65 -1.72,-64.22 88.32,-81.76 93.95,138.34 158.03,-36.91 1.41,-3.88 20.76,-182.33 20.79,-182.94 11.23,-178.09 -30,-145.06 -113.35,-260.6 -68.23,-94.57 -27.73,16.71 -38.62,-121.49 -3.5,-44.38 -14.89,-87.36 15.35,-138.94 -157.32,-0.27 -190.14,-13.99 -209.6,-75.98 -36.38,-115.87 59.7,-50.88 154.51,-97.87 -138.1,-8.79 -122.85,23.21 -165.88,-61.99 136.32,-70.98 812.29,187.14 939.66,258.74 140.29,78.85 129.08,158.4 295.63,145.42 -131.47,-264.19 -824.27,-437.43 -1071.23,-489.39 -361.78,-76.12 -1068.66,-69.94 -1109.28,-456.84 -74.53,-709.79 1233.39,-451.6 1680.35,-282.77 170.51,64.41 424.21,199.18 569.11,235.01l-1.51 -1230.88 -438.92 -125.16 -414.45 -80.54c51.22,114.7 -23.83,43.49 89.39,96.8 6.74,3.17 561.03,94.28 729.68,186.19l-4.9 1085.93 -116.93 -83.25c-30.79,-16.97 -65.75,-27.39 -99.64,-42.22 -692.52,-303.06 -938.34,-264.89 -1632.74,-350.45l273.37 -14.45c-192.41,-340.18 -171.64,-116.01 -364.48,-481.2l133.32 -78.17c-134.92,-41.04 -387.87,-99.91 -498.55,-151.5 22.34,-61.42 20.6,-56.96 70.62,-85.53 93.01,-53.12 254.86,-49.08 378.87,-64.68 69.22,-8.7 174.63,-22.61 282.36,-19.63 17.42,0.48 134.71,2.78 143.7,1.39l139.73 -59.14c-471.92,-22.04 -931.15,-6.99 -1348.88,176.01 -361.52,158.36 -534.11,380.77 -680.39,783.46z"/>
    <path class="fil7 str0" d="M10387.03 9899.85l1.11 0.22 -477.31 -60.13 -139.73 59.14c-8.99,1.39 -126.28,-0.91 -143.7,-1.39 -107.73,-2.98 -213.14,10.93 -282.36,19.63 -124.01,15.6 -285.86,11.56 -378.87,64.68 -50.02,28.57 -48.28,24.11 -70.62,85.53 110.68,51.59 363.63,110.46 498.55,151.5l-133.32 78.17c192.84,365.19 172.07,141.02 364.48,481.2l-273.37 14.45c694.4,85.56 940.22,47.39 1632.74,350.45 33.89,14.83 68.85,25.25 99.64,42.22l116.93 83.25 4.9 -1085.93c-168.65,-91.91 -722.94,-183.02 -729.68,-186.19 -113.22,-53.31 -38.17,17.9 -89.39,-96.8z"/>
    <path class="fil7 str0" d="M10221.68 13306.32l56.45 -9.15c-28.56,-150.31 -54.19,-173.21 -153.1,-239.58 -104.3,-21.9 -98.06,-35.99 -182.63,-59.98l-620.45 -122.94c-236.45,-38.44 -684.31,-199.04 -710.83,-186.68 41.61,-41.09 22.04,-4.49 102.08,-46 4.33,-2.25 14.46,-6.34 20.2,-11.59 -141.53,-109.75 23.07,-494.39 -63.15,-645.61 -62.31,-109.26 -105.75,-57.39 -62.03,-269.23 31.86,-154.32 43.3,-166.47 36.68,-367.72 -186.97,-131.48 -500.32,-306.12 -654.7,-477.88 -60.26,-67.05 -19.01,-54.36 -108.64,-70.55 -157.16,488.04 -105.82,1105.83 184.26,1562.84 243.27,383.27 827.52,515.68 1256.51,591.06 199.08,34.97 581.16,77.12 756.55,175.57 138.38,77.68 61.88,38.02 142.8,177.44z"/>
    <path class="fil7 str0" d="M8893.67 14885.97l-31.55 -70.06c-123.83,-1.43 -196.23,25.06 -281.23,-31.65 68.94,-131.52 116.32,0.11 177.39,-148.08 -36.85,-0.33 -75.31,3.9 -111.28,-5.79 -79.69,-21.46 -13.39,1.79 -71.89,-42.81 -4.68,-3.56 -10.79,-9.84 -15.21,-13.43 -4.28,-3.47 -10.83,-9.52 -14.86,-12.86l-27.58 -22.27c-54.47,-44.55 -7.04,27.77 -32.44,-26.72 111.41,-2.26 363.66,5.02 457.57,-20.42 264.53,-71.67 378.06,-436.83 632.43,-482.37 112.55,-20.16 126.88,3.26 200.31,-68.88 -373.23,51.57 -707.8,11.5 -1067.58,-76.83 -233.79,-57.38 -626.42,-209.67 -791.04,-315.98l-3.1 1093.54c138.28,93.87 796.3,250.04 980.06,244.61z"/>
    <path class="fil7 str0" d="M7886.59 14691.32c432.07,145.52 973.51,279.9 1461.54,290.89 522.72,11.65 1221.62,-2.19 1659.98,-375.78 34.54,-29.44 22.25,-15.57 46.87,-46.16 -190.18,39.35 -260.99,259.28 -956.42,354.34 -339.44,46.4 -881.32,48.91 -1204.89,-28.64 -183.76,5.43 -841.78,-150.74 -980.06,-244.61l3.1 -1093.54c164.62,106.31 557.25,258.6 791.04,315.98 359.78,88.33 694.35,128.4 1067.58,76.83 168.02,1.57 308.06,-88.69 394.11,-180.62 137.53,-146.93 119.44,-277.68 108.69,-462.84l-56.45 9.15c92.69,245.07 -68.62,463.48 -250.35,538.02 -205.59,84.32 -535.32,82.92 -769.49,58.56 -790.54,-82.24 -907.6,-294.61 -1330.76,-437.74l15.51 1226.16z"/>
   </g>
  </g>
 </g>
</svg>
