<?xml version="1.0" encoding="UTF-8"?>
<!DOCTYPE svg PUBLIC "-//W3C//DTD SVG 1.1//EN" "http://www.w3.org/Graphics/SVG/1.1/DTD/svg11.dtd">
<!-- Creator: CorelDRAW 2019 (64-Bit) -->
<svg xmlns="http://www.w3.org/2000/svg" xml:space="preserve" width="297mm" height="210mm" version="1.1" style="shape-rendering:geometricPrecision; text-rendering:geometricPrecision; image-rendering:optimizeQuality; fill-rule:evenodd; clip-rule:evenodd"
viewBox="0 0 29700 21000"
 xmlns:xlink="http://www.w3.org/1999/xlink"
 xmlns:xodm="http://www.corel.com/coreldraw/odm/2003">
 <defs>
  <style type="text/css">
   <![CDATA[
    .str0 {stroke:#F31414;stroke-width:20;stroke-miterlimit:22.9256}
    .str1 {stroke:#F31414;stroke-width:7.62;stroke-miterlimit:22.9256}
    .fil5 {fill:#616161}
    .fil2 {fill:#B3B3B3}
    .fil6 {fill:#F31414}
    .fil0 {fill:#1C1B17;fill-rule:nonzero}
    .fil4 {fill:#616161;fill-rule:nonzero}
    .fil3 {fill:#B3B3B3;fill-rule:nonzero}
    .fil1 {fill:#E80303;fill-rule:nonzero}
   ]]>
  </style>
 </defs>
 <g id="Layer_x0020_1">
  <metadata id="CorelCorpID_0Corel-Layer"/>
  <path class="fil0" d="M13339.46 6515.48l0 129.25 -145.13 0 0 523.88 -138.98 0 0 -523.88 -146.01 0 0 -129.25 430.12 0zm477.92 124.36l-278.84 0 0 134.15 219.02 0 0 122.4 -219.02 0 0 142.96 278.84 0 0 129.26 -418.69 0 0 -653.13 418.69 0 0 124.36zm-99.4 -346.64l32.55 80.13 -188.82 89.27 -21.41 -53.37 177.68 -116.03zm654.28 465.77l-144.26 10.12c-2.04,-92.7 -34.15,-139.05 -96.61,-139.05 -71.68,0 -107.45,71 -107.45,213.15 0,82.09 9.68,137.74 29.17,166.95 19.5,29.21 46.62,43.9 81.51,43.9 56.73,0 91.34,-41.12 103.94,-123.38l133.7 9.14c-8.65,77.85 -34.75,137.25 -78.29,177.73 -43.68,40.64 -97.19,60.87 -160.37,60.87 -77.55,0 -140.59,-29.86 -189.12,-89.43 -48.52,-59.57 -72.71,-141.99 -72.71,-247.25 0,-98.41 23.45,-179.04 70.37,-241.87 46.91,-62.83 111.12,-94.17 192.34,-94.17 140.73,0 220.05,84.38 237.78,253.29zm529.95 -243.49l0 653.13 -119.04 0 -226.64 -441.13c0.3,11.09 0.59,18.44 0.88,22.03 1.18,11.1 1.76,20.56 1.76,28.23l0 390.87 -107.31 0 0 -653.13 148.65 0 197.91 385.15c-1.76,-19.09 -2.64,-33.62 -2.64,-43.57l0 -341.58 106.43 0zm255.52 0l0 653.13 -137.21 0 0 -653.13 137.21 0zm589.77 243.49l-144.25 10.12c-2.05,-92.7 -34.15,-139.05 -96.61,-139.05 -71.68,0 -107.45,71 -107.45,213.15 0,82.09 9.67,137.74 29.17,166.95 19.5,29.21 46.62,43.9 81.5,43.9 56.74,0 91.34,-41.12 103.94,-123.38l133.7 9.14c-8.65,77.85 -34.74,137.25 -78.28,177.73 -43.68,40.64 -97.19,60.87 -160.38,60.87 -77.55,0 -140.59,-29.86 -189.11,-89.43 -48.53,-59.57 -72.72,-141.99 -72.72,-247.25 0,-98.41 23.46,-179.04 70.37,-241.87 46.91,-62.83 111.13,-94.17 192.34,-94.17 140.73,0 220.05,84.38 237.78,253.29zm299.5 419.43c-78.86,0 -140,-32.96 -183.24,-98.9 -43.25,-66.09 -64.8,-145.9 -64.8,-239.58 0,-95.31 21.84,-174.79 65.68,-238.6 43.82,-63.81 106.13,-95.64 187.21,-95.64 81.79,0 143.51,33.95 185.15,102.01 41.63,68.05 62.45,146.06 62.45,233.7 0,94.66 -21.4,174.46 -64.36,239.42 -42.95,65.11 -105.55,97.59 -188.09,97.59zm3.97 -548.36c-71.84,0 -107.76,70.51 -107.76,211.68 0,141.49 35.92,212.32 107.76,212.32 69.48,0 104.22,-70.66 104.22,-211.83 0,-141.5 -34.74,-212.17 -104.22,-212.17zm963.73 29.05l-116.98 43.42c-15.83,-51.58 -49.26,-77.36 -100.27,-77.36 -54.54,0 -81.81,19.58 -81.81,58.75 0,15.67 5.13,28.89 15.25,39.66 10.26,10.77 33.13,20.24 69.05,28.56 59.81,13.71 103.65,27.42 131.49,41.13 27.86,13.54 51.31,35.57 70.52,66.09 19.06,30.36 28.59,64.3 28.59,101.84 0,58.92 -20.38,109.84 -61.28,152.76 -40.9,42.92 -101.45,64.46 -181.64,64.46 -60.25,0 -111.41,-15.18 -153.78,-45.69 -42.22,-30.52 -70.08,-75.73 -83.56,-135.79l127.55 -31.99c14.36,60.72 54.09,91.07 119.32,91.07 31.52,0 54.98,-6.69 70.37,-20.24 15.39,-13.54 23.16,-29.7 23.16,-48.47 0,-19.25 -7.03,-33.94 -21.11,-44.55 -13.92,-10.45 -41.04,-20.24 -81.07,-29.54 -74.76,-17.14 -127.98,-40.47 -159.79,-70.34 -31.81,-29.7 -47.65,-73.28 -47.65,-130.73 0,-57.93 18.92,-106.89 56.88,-146.71 37.97,-39.82 89.58,-59.74 154.52,-59.74 115.23,0 189.26,51.09 222.24,153.41zm566.9 -143.61l0 406.53c0,65.77 -6.73,114.57 -20.23,146.56 -13.33,32.15 -38.26,58.42 -74.47,78.99 -36.21,20.56 -82.39,30.84 -138.83,30.84 -56.44,0 -101.3,-9.3 -134.58,-27.74 -33.42,-18.44 -58.34,-44.72 -74.91,-78.99 -16.56,-34.11 -24.92,-83.89 -24.92,-149.66l0 -406.53 148.65 0 0 406.86c0,35.09 2.64,61.04 7.92,77.52 5.28,16.65 15.98,29.87 31.81,39.66 15.83,9.63 35.48,14.52 58.64,14.52 25.8,0 46.77,-4.73 62.89,-14.36 16.12,-9.63 26.98,-22.19 32.26,-38.03 5.27,-15.83 7.91,-42.26 7.91,-79.31l0 -406.86 117.86 0zm249.22 410.29l0 242.84 -139.85 0 0 -653.13 231.03 0c51.47,0 90.9,6.2 118.32,18.44 27.26,12.24 51.74,34.11 73.14,65.77 21.55,31.5 32.26,70.18 32.26,116.2 0,32.15 -5.72,63.48 -17.16,94.17 -11.43,30.51 -27.56,54.67 -48.52,72.13 -20.82,17.63 -41.05,29.21 -60.69,34.93 -19.5,5.71 -50.29,8.65 -92.06,8.65l-96.47 0zm-4.39 -118.49l89.12 0c34.01,0 57.76,-8.81 71.54,-26.27 13.64,-17.63 20.53,-37.7 20.53,-60.39 0,-26.44 -7.62,-47.49 -22.87,-63.16 -15.39,-15.66 -38.56,-23.5 -69.64,-23.5l-88.68 0 0 173.32zm814.06 -167.44l-278.84 0 0 134.15 219.02 0 0 122.4 -219.02 0 0 142.96 278.84 0 0 129.26 -418.69 0 0 -653.13 418.69 0 0 124.36zm220.63 271.24l0 257.53 -138.09 0 0 -653.13 257.87 0c47.5,0 85.75,6.2 114.49,18.44 28.88,12.4 52.77,34.92 71.68,67.89 18.92,32.97 28.3,69.69 28.3,110 0,78.66 -34.01,135.13 -102.04,169.4l108.2 287.4 -151.44 0 -90.3 -257.53 -98.67 0zm0 -278.1l0 166.47 84.45 0c27.56,0 47.64,-2.12 60.1,-6.53 12.61,-4.24 23.61,-13.87 33.42,-28.56 9.82,-14.85 14.66,-31.82 14.66,-51.08 0,-18.12 -4.84,-34.44 -14.66,-48.8 -9.81,-14.2 -20.38,-23.17 -31.8,-26.44 -11.59,-3.43 -33.14,-5.06 -64.66,-5.06l-81.51 0zm577.16 -117.5l0 653.13 -137.21 0 0 -653.13 137.21 0zm337.33 662.92c-78.87,0 -140.01,-32.96 -183.25,-98.9 -43.25,-66.09 -64.8,-145.9 -64.8,-239.58 0,-95.31 21.84,-174.79 65.68,-238.6 43.83,-63.81 106.13,-95.64 187.21,-95.64 81.79,0 143.51,33.95 185.15,102.01 41.63,68.05 62.45,146.06 62.45,233.7 0,94.66 -21.4,174.46 -64.35,239.42 -42.96,65.11 -105.56,97.59 -188.09,97.59zm3.96 -548.36c-71.84,0 -107.76,70.51 -107.76,211.68 0,141.49 35.92,212.32 107.76,212.32 69.48,0 104.22,-70.66 104.22,-211.83 0,-141.5 -34.74,-212.17 -104.22,-212.17zm476.44 281.04l0 257.53 -138.09 0 0 -653.13 257.87 0c47.5,0 85.75,6.2 114.49,18.44 28.88,12.4 52.77,34.92 71.68,67.89 18.92,32.97 28.3,69.69 28.3,110 0,78.66 -34.01,135.13 -102.04,169.4l108.2 287.4 -151.44 0 -90.3 -257.53 -98.67 0zm0 -278.1l0 166.47 84.45 0c27.56,0 47.64,-2.12 60.1,-6.53 12.61,-4.24 23.61,-13.87 33.43,-28.56 9.81,-14.85 14.66,-31.82 14.66,-51.08 0,-18.12 -4.85,-34.44 -14.66,-48.8 -9.82,-14.2 -20.39,-23.17 -31.81,-26.44 -11.59,-3.43 -33.14,-5.06 -64.66,-5.06l-81.51 0zm1078.53 6.86l-278.83 0 0 134.15 219.01 0 0 122.4 -219.01 0 0 142.96 278.83 0 0 129.26 -418.69 0 0 -653.13 418.69 0 0 124.36zm532.89 -124.36l0 653.13 -119.04 0 -226.64 -441.13c0.29,11.09 0.59,18.44 0.88,22.03 1.18,11.1 1.76,20.56 1.76,28.23l0 390.87 -107.31 0 0 -653.13 148.65 0 197.91 385.15c-1.76,-19.09 -2.64,-33.62 -2.64,-43.57l0 -341.58 106.43 0z"/>
  <path class="fil1" d="M17583.2 7604.62l-123.24 62.65c-16.68,-74.42 -51.88,-111.63 -105.63,-111.63 -57.44,0 -86.17,28.26 -86.17,84.78 0,22.61 5.4,41.69 16.06,57.23 10.81,15.54 34.9,29.2 72.74,41.22 63,19.78 109.18,39.56 138.52,59.35 29.35,19.54 54.05,51.34 74.28,95.38 20.08,43.8 30.12,92.79 30.12,146.96 0,85.02 -21.47,158.5 -64.56,220.44 -43.08,61.94 -106.86,93.03 -191.33,93.03 -63.48,0 -117.37,-21.9 -162,-65.94 -44.47,-44.04 -73.82,-109.28 -88.03,-195.95l134.36 -46.16c15.13,87.61 56.98,131.41 125.71,131.41 33.19,0 57.91,-9.65 74.12,-29.2 16.21,-19.55 24.4,-42.86 24.4,-69.95 0,-27.79 -7.41,-48.98 -22.24,-64.29 -14.67,-15.08 -43.24,-29.21 -85.4,-42.63 -78.76,-24.73 -134.81,-58.41 -168.33,-101.51 -33.51,-42.86 -50.18,-105.74 -50.18,-188.65 0,-83.6 19.92,-154.26 59.92,-211.72 39.99,-57.47 94.35,-86.2 162.76,-86.2 121.39,0 199.37,73.71 234.12,221.38zm342.37 749.41c-83.09,0 -147.48,-47.57 -193.03,-142.72 -45.56,-95.38 -68.26,-210.55 -68.26,-345.74 0,-137.54 23,-252.23 69.18,-344.32 46.17,-92.09 111.8,-138.01 197.2,-138.01 86.18,0 151.19,48.99 195.05,147.19 43.86,98.21 65.79,210.79 65.79,337.26 0,136.6 -22.55,251.77 -67.79,345.5 -45.25,93.97 -111.2,140.84 -198.14,140.84zm4.17 -791.33c-75.67,0 -113.51,101.74 -113.51,305.46 0,204.19 37.84,306.41 113.51,306.41 73.2,0 109.8,-101.98 109.8,-305.7 0,-204.19 -36.6,-306.17 -109.8,-306.17zm503.75 426.75l0 350.45 -147.33 0 0 -942.53 243.38 0c54.21,0 95.75,8.95 124.63,26.61 28.73,17.67 54.51,49.22 77.06,94.91 22.7,45.46 33.97,101.28 33.97,167.69 0,46.4 -6.02,91.62 -18.06,135.89 -12.05,44.04 -29.04,78.9 -51.12,104.1 -21.93,25.44 -43.24,42.16 -63.94,50.4 -20.53,8.24 -52.96,12.48 -96.97,12.48l-101.62 0zm-4.64 -170.98l93.9 0c35.83,0 60.84,-12.72 75.36,-37.92 14.36,-25.43 21.62,-54.4 21.62,-87.14 0,-38.15 -8.03,-68.53 -24.09,-91.14 -16.22,-22.61 -40.61,-33.92 -73.35,-33.92l-93.44 0 0 250.12zm648.15 535.56c-83.09,0 -147.49,-47.57 -193.04,-142.72 -45.56,-95.38 -68.26,-210.55 -68.26,-345.74 0,-137.54 23.01,-252.23 69.19,-344.32 46.17,-92.09 111.8,-138.01 197.2,-138.01 86.18,0 151.19,48.99 195.05,147.19 43.85,98.21 65.79,210.79 65.79,337.26 0,136.6 -22.55,251.77 -67.8,345.5 -45.25,93.97 -111.19,140.84 -198.13,140.84zm4.17 -791.33c-75.67,0 -113.51,101.74 -113.51,305.46 0,204.19 37.84,306.41 113.51,306.41 73.19,0 109.8,-101.98 109.8,-305.7 0,-204.19 -36.61,-306.17 -109.8,-306.17zm501.89 405.56l0 371.64 -145.47 0 0 -942.53 271.64 0c50.03,0 90.34,8.95 120.61,26.61 30.42,17.9 55.6,50.4 75.52,97.98 19.92,47.57 29.81,100.56 29.81,158.73 0,113.52 -35.83,195.01 -107.49,244.47l113.97 414.74 -159.53 0 -95.13 -371.64 -103.93 0zm0 -401.32l0 240.23 88.96 0c29.03,0 50.18,-3.07 63.31,-9.43 13.28,-6.12 24.87,-20.01 35.21,-41.21 10.35,-21.43 15.44,-45.93 15.44,-73.72 0,-26.14 -5.09,-49.69 -15.44,-70.42 -10.34,-20.49 -21.47,-33.44 -33.51,-38.15 -12.2,-4.95 -34.9,-7.3 -68.1,-7.3l-85.87 0zm854.46 -169.57l0 186.53 -152.88 0 0 756 -146.4 0 0 -756 -153.81 0 0 -186.53 453.09 0zm503.45 179.46l-293.73 0 0 193.59 230.72 0 0 176.64 -230.72 0 0 206.31 293.73 0 0 186.53 -441.05 0 0 -942.53 441.05 0 0 179.46zm701.26 -179.46l0 942.53 -124.16 0 0 -109.28c-30.88,82.2 -73.05,123.41 -126.32,123.41 -50.66,0 -90.65,-31.32 -119.84,-93.97 -29.19,-62.88 -43.86,-149.79 -43.86,-260.95 0,-115.64 14.67,-206.31 43.86,-271.78 29.19,-65.48 71.5,-98.21 126.94,-98.21 48.8,0 86.32,29.44 112.73,88.08l0 -319.83 130.65 0zm-130.65 538.15c0,-109.04 -21.93,-163.68 -65.94,-163.68 -52.35,0 -78.6,77.01 -78.6,231.04 0,137.07 24.55,205.6 73.66,205.6 18.84,0 35.37,-12.48 49.57,-37.21 14.21,-24.73 21.31,-60.06 21.31,-105.74l0 -130.01zm651.85 89.26l-294.19 0c-0.31,12.48 -0.46,23.32 -0.46,32.5 0,49.93 8.65,87.61 26.09,113.05 17.3,25.43 38.15,38.15 62.39,38.15 44.95,0 71.97,-36.74 81.08,-110.22l122.31 13.9c-34.13,161.32 -103.31,241.87 -207.71,241.87 -45.56,0 -84.31,-13.89 -116.13,-41.69 -31.81,-27.79 -58.06,-68.29 -78.76,-121.52 -20.69,-53.46 -31.04,-117.29 -31.04,-191.71 0,-110.69 20.7,-199.95 62.24,-268.02 41.38,-68.06 94.66,-101.97 159.83,-101.97 58.84,0 109.18,31.55 151.19,94.44 42.15,62.88 63.16,163.44 63.16,301.22zm-294.65 -118.7l162.15 0c-4.17,-95.15 -29.96,-142.72 -77.22,-142.72 -50.65,0 -78.91,47.57 -84.93,142.72zm-7556.1 1093.5l0 942.53 -144.54 0 0 -942.53 144.54 0zm598.11 0l0 942.53 -125.4 0 -238.75 -636.6c0.32,16.02 0.62,26.62 0.93,31.8 1.23,16.01 1.85,29.67 1.85,40.74l0 564.06 -113.04 0 0 -942.53 156.59 0 208.48 555.81c-1.85,-27.55 -2.77,-48.51 -2.77,-62.88l0 -492.93 112.11 0zm563.82 186.53l-289.09 0 0 210.55 228.86 0 0 176.63 -228.86 0 0 368.82 -150.11 0 0 -942.53 439.2 0 0 186.53zm219.75 384.36l0 371.64 -145.47 0 0 -942.53 271.65 0c50.03,0 90.33,8.95 120.61,26.61 30.42,17.9 55.59,50.4 75.51,97.98 19.92,47.57 29.81,100.56 29.81,158.73 0,113.52 -35.83,195.01 -107.49,244.47l113.97 414.74 -159.53 0 -95.13 -371.64 -103.93 0zm0 -401.32l0 240.23 88.96 0c29.03,0 50.19,-3.07 63.31,-9.43 13.28,-6.12 24.87,-20.01 35.21,-41.21 10.35,-21.43 15.45,-45.93 15.45,-73.72 0,-26.14 -5.1,-49.69 -15.45,-70.42 -10.34,-20.49 -21.46,-33.44 -33.51,-38.15 -12.2,-4.95 -34.9,-7.3 -68.1,-7.3l-85.87 0zm767.83 -169.57l192.27 942.53 -155.51 0 -38.15 -195.01 -199.21 0 -39.07 195.01 -126.79 0 197.82 -942.53 168.64 0zm-166.01 573.71l130.65 0 -64.71 -330.19 -65.94 330.19zm865.89 -394.25l-293.73 0 0 193.59 230.72 0 0 176.64 -230.72 0 0 206.31 293.73 0 0 186.53 -441.05 0 0 -942.53 441.05 0 0 179.46zm514.09 27.79l-123.23 62.65c-16.68,-74.42 -51.89,-111.63 -105.63,-111.63 -57.45,0 -86.17,28.26 -86.17,84.78 0,22.61 5.4,41.69 16.06,57.23 10.81,15.54 34.9,29.2 72.73,41.22 63.01,19.78 109.19,39.56 138.53,59.35 29.34,19.54 54.05,51.34 74.28,95.38 20.08,43.8 30.11,92.79 30.11,146.96 0,85.02 -21.46,158.5 -64.55,220.44 -43.09,61.94 -106.86,93.03 -191.34,93.03 -63.47,0 -117.36,-21.9 -162,-65.94 -44.47,-44.04 -73.81,-109.28 -88.02,-195.95l134.36 -46.16c15.13,87.61 56.98,131.41 125.7,131.41 33.2,0 57.92,-9.65 74.12,-29.2 16.22,-19.55 24.41,-42.86 24.41,-69.95 0,-27.79 -7.42,-48.98 -22.24,-64.29 -14.67,-15.08 -43.24,-29.21 -85.4,-42.63 -78.76,-24.73 -134.82,-58.41 -168.33,-101.51 -33.51,-42.86 -50.19,-105.74 -50.19,-188.65 0,-83.6 19.92,-154.26 59.92,-211.72 40,-57.47 94.36,-86.2 162.77,-86.2 121.38,0 199.37,73.71 234.11,221.38zm506.23 -207.25l0 186.53 -152.89 0 0 756 -146.4 0 0 -756 -153.81 0 0 -186.53 453.1 0zm207.86 570.89l0 371.64 -145.47 0 0 -942.53 271.64 0c50.03,0 90.33,8.95 120.61,26.61 30.42,17.9 55.59,50.4 75.51,97.98 19.92,47.57 29.81,100.56 29.81,158.73 0,113.52 -35.83,195.01 -107.49,244.47l113.97 414.74 -159.52 0 -95.13 -371.64 -103.93 0zm0 -401.32l0 240.23 88.95 0c29.03,0 50.19,-3.07 63.31,-9.43 13.28,-6.12 24.87,-20.01 35.22,-41.21 10.34,-21.43 15.44,-45.93 15.44,-73.72 0,-26.14 -5.1,-49.69 -15.44,-70.42 -10.35,-20.49 -21.47,-33.44 -33.52,-38.15 -12.2,-4.95 -34.9,-7.3 -68.1,-7.3l-85.86 0zm940.78 -169.57l0 586.67c0,94.91 -7.1,165.33 -21.31,211.49 -14.05,46.4 -40.3,84.31 -78.45,113.99 -38.15,29.67 -86.79,44.51 -146.25,44.51 -59.45,0 -106.71,-13.42 -141.76,-40.04 -35.21,-26.61 -61.46,-64.53 -78.92,-113.99 -17.44,-49.22 -26.24,-121.05 -26.24,-215.96l0 -586.67 156.59 0 0 587.14c0,50.63 2.78,88.08 8.34,111.87 5.55,24.02 16.83,43.1 33.5,57.23 16.68,13.89 37.38,20.96 61.78,20.96 27.18,0 49.26,-6.83 66.24,-20.73 16.99,-13.89 28.42,-32.03 33.98,-54.87 5.56,-22.85 8.34,-61 8.34,-114.46l0 -587.14 124.16 0zm612.78 351.39l-151.96 14.6c-2.16,-133.77 -35.98,-200.66 -101.76,-200.66 -75.52,0 -113.21,102.45 -113.21,307.58 0,118.47 10.2,198.78 30.74,240.93 20.53,42.16 49.1,63.36 85.86,63.36 59.76,0 96.21,-59.35 109.49,-178.05l140.84 13.19c-9.11,112.34 -36.6,198.07 -82.46,256.47 -46.02,58.65 -102.39,87.85 -168.95,87.85 -81.69,0 -148.1,-43.1 -199.22,-129.06 -51.11,-85.96 -76.59,-204.9 -76.59,-356.81 0,-142.01 24.71,-258.36 74.13,-349.03 49.41,-90.67 117.06,-135.89 202.61,-135.89 148.25,0 231.8,121.76 250.48,365.52zm474.87 -351.39l0 186.53 -152.89 0 0 756 -146.4 0 0 -756 -153.81 0 0 -186.53 453.1 0zm548.84 0l0 586.67c0,94.91 -7.1,165.33 -21.31,211.49 -14.05,46.4 -40.3,84.31 -78.45,113.99 -38.15,29.67 -86.79,44.51 -146.25,44.51 -59.45,0 -106.71,-13.42 -141.76,-40.04 -35.21,-26.61 -61.46,-64.53 -78.92,-113.99 -17.45,-49.22 -26.24,-121.05 -26.24,-215.96l0 -586.67 156.59 0 0 587.14c0,50.63 2.78,88.08 8.34,111.87 5.55,24.02 16.83,43.1 33.5,57.23 16.68,13.89 37.38,20.96 61.78,20.96 27.18,0 49.26,-6.83 66.24,-20.73 16.99,-13.89 28.42,-32.03 33.98,-54.87 5.56,-22.85 8.34,-61 8.34,-114.46l0 -587.14 124.16 0zm260.68 570.89l0 371.64 -145.47 0 0 -942.53 271.64 0c50.03,0 90.34,8.95 120.61,26.61 30.42,17.9 55.59,50.4 75.51,97.98 19.93,47.57 29.81,100.56 29.81,158.73 0,113.52 -35.82,195.01 -107.48,244.47l113.97 414.74 -159.53 0 -95.13 -371.64 -103.93 0zm0 -401.32l0 240.23 88.95 0c29.04,0 50.19,-3.07 63.32,-9.43 13.28,-6.12 24.86,-20.01 35.21,-41.21 10.35,-21.43 15.44,-45.93 15.44,-73.72 0,-26.14 -5.09,-49.69 -15.44,-70.42 -10.35,-20.49 -21.47,-33.44 -33.51,-38.15 -12.21,-4.95 -34.91,-7.3 -68.1,-7.3l-85.87 0zm767.83 -169.57l192.26 942.53 -155.51 0 -38.14 -195.01 -199.22 0 -39.06 195.01 -126.79 0 197.82 -942.53 168.64 0zm-166.01 573.71l130.64 0 -64.7 -330.19 -65.94 330.19zm-5649.65 1028.5l0 942.53 -124.16 0 0 -109.28c-30.88,82.2 -73.04,123.41 -126.32,123.41 -50.66,0 -90.65,-31.32 -119.84,-93.97 -29.18,-62.88 -43.86,-149.79 -43.86,-260.95 0,-115.64 14.68,-206.31 43.86,-271.78 29.19,-65.48 71.5,-98.21 126.94,-98.21 48.8,0 86.32,29.44 112.74,88.08l0 -319.83 130.64 0zm-130.64 538.15c0,-109.04 -21.94,-163.68 -65.95,-163.68 -52.35,0 -78.6,77.01 -78.6,231.04 0,137.07 24.55,205.6 73.66,205.6 18.84,0 35.37,-12.48 49.58,-37.21 14.2,-24.73 21.31,-60.06 21.31,-105.74l0 -130.01zm651.84 89.26l-294.19 0c-0.3,12.48 -0.46,23.32 -0.46,32.5 0,49.93 8.65,87.61 26.1,113.05 17.29,25.43 38.14,38.15 62.39,38.15 44.94,0 71.96,-36.74 81.07,-110.22l122.31 13.9c-34.13,161.32 -103.31,241.87 -207.71,241.87 -45.55,0 -84.31,-13.89 -116.13,-41.69 -31.81,-27.79 -58.06,-68.29 -78.76,-121.52 -20.69,-53.46 -31.04,-117.29 -31.04,-191.71 0,-110.69 20.7,-199.95 62.24,-268.02 41.39,-68.06 94.66,-101.97 159.83,-101.97 58.84,0 109.19,31.55 151.19,94.44 42.16,62.88 63.16,163.44 63.16,301.22zm-294.65 -118.7l162.15 0c-4.17,-95.15 -29.96,-142.72 -77.22,-142.72 -50.64,0 -78.91,47.57 -84.93,142.72zm1008.73 -508.71l0 186.53 -152.89 0 0 756 -146.4 0 0 -756 -153.81 0 0 -186.53 453.1 0zm503.44 179.46l-293.72 0 0 193.59 230.71 0 0 176.64 -230.71 0 0 206.31 293.72 0 0 186.53 -441.05 0 0 -942.53 441.05 0 0 179.46zm584.52 171.93l-151.96 14.6c-2.16,-133.77 -35.99,-200.66 -101.77,-200.66 -75.51,0 -113.2,102.45 -113.2,307.58 0,118.47 10.2,198.78 30.74,240.93 20.53,42.16 49.1,63.36 85.86,63.36 59.76,0 96.21,-59.35 109.49,-178.05l140.84 13.19c-9.11,112.34 -36.6,198.07 -82.47,256.47 -46.02,58.65 -102.39,87.85 -168.94,87.85 -81.7,0 -148.1,-43.1 -199.22,-129.06 -51.11,-85.96 -76.59,-204.9 -76.59,-356.81 0,-142.01 24.7,-258.36 74.13,-349.03 49.41,-90.67 117.05,-135.89 202.6,-135.89 148.26,0 231.8,121.76 250.49,365.52zm558.26 -351.39l0 942.53 -125.4 0 -238.75 -636.6c0.32,16.02 0.62,26.62 0.93,31.8 1.24,16.01 1.85,29.67 1.85,40.74l0 564.06 -113.04 0 0 -942.53 156.59 0 208.48 555.81c-1.85,-27.55 -2.77,-48.51 -2.77,-62.88l0 -492.93 112.11 0zm356.27 956.66c-83.09,0 -147.49,-47.57 -193.04,-142.72 -45.56,-95.38 -68.26,-210.55 -68.26,-345.74 0,-137.54 23.01,-252.23 69.19,-344.32 46.17,-92.09 111.8,-138.01 197.2,-138.01 86.18,0 151.19,48.99 195.05,147.19 43.85,98.21 65.79,210.79 65.79,337.26 0,136.6 -22.55,251.77 -67.8,345.5 -45.25,93.97 -111.19,140.84 -198.13,140.84zm4.17 -791.33c-75.67,0 -113.51,101.74 -113.51,305.46 0,204.19 37.84,306.41 113.51,306.41 73.19,0 109.8,-101.98 109.8,-305.7 0,-204.19 -36.61,-306.17 -109.8,-306.17zm502.82 590.67l245.54 0 0 186.53 -391.94 0 0 -942.53 146.4 0 0 756zm542.66 200.66c-83.08,0 -147.48,-47.57 -193.03,-142.72 -45.56,-95.38 -68.26,-210.55 -68.26,-345.74 0,-137.54 23.01,-252.23 69.18,-344.32 46.18,-92.09 111.81,-138.01 197.21,-138.01 86.17,0 151.18,48.99 195.04,147.19 43.86,98.21 65.79,210.79 65.79,337.26 0,136.6 -22.55,251.77 -67.79,345.5 -45.25,93.97 -111.2,140.84 -198.14,140.84zm4.17 -791.33c-75.67,0 -113.51,101.74 -113.51,305.46 0,204.19 37.84,306.41 113.51,306.41 73.2,0 109.8,-101.98 109.8,-305.7 0,-204.19 -36.6,-306.17 -109.8,-306.17zm837.32 272.73l0 504.47 -65.79 0c-4.79,-35.33 -11.74,-71.6 -20.84,-108.34 -44.02,81.73 -100.23,122.47 -168.49,122.47 -80.61,0 -143.31,-44.04 -188.1,-131.89 -44.93,-87.84 -67.32,-201.36 -67.32,-340.79 0,-150.02 23.93,-270.37 71.8,-361.51 47.73,-91.15 112.74,-136.6 194.74,-136.6 68.88,0 124.32,29.44 166.63,88.08 42.16,58.88 67.95,137.07 77.37,234.81l-137.14 27.55c-11.11,-113.98 -46.79,-170.98 -106.71,-170.98 -39.37,0 -69.02,27.08 -89.1,81.25 -20.23,54.17 -30.27,131.42 -30.27,231.99 0,96.79 10.96,170.74 32.74,221.85 21.78,51.11 52.81,76.78 92.97,76.78 26.09,0 49.26,-12.95 69.8,-38.63 20.38,-25.9 30.57,-67.12 30.57,-123.88l-116.75 0 0 -176.63 253.89 0zm258.67 -438.06l0 942.53 -144.55 0 0 -942.53 144.55 0zm37.99 -323.6l34.28 115.64 -198.9 128.83 -22.55 -77.02 187.17 -167.45zm390.09 323.6l192.26 942.53 -155.51 0 -38.14 -195.01 -199.22 0 -39.06 195.01 -126.79 0 197.82 -942.53 168.64 0zm-166.01 573.71l130.64 0 -64.7 -330.19 -65.94 330.19zm-7352.7 1028.5l0 942.53 -124.16 0 0 -109.28c-30.88,82.2 -73.05,123.41 -126.32,123.41 -50.66,0 -90.65,-31.32 -119.84,-93.97 -29.19,-62.88 -43.86,-149.79 -43.86,-260.95 0,-115.64 14.67,-206.31 43.86,-271.78 29.19,-65.48 71.5,-98.21 126.94,-98.21 48.8,0 86.32,29.44 112.74,88.08l0 -319.83 130.64 0zm-130.64 538.15c0,-109.04 -21.94,-163.68 -65.95,-163.68 -52.35,0 -78.6,77.01 -78.6,231.04 0,137.07 24.55,205.6 73.66,205.6 18.84,0 35.37,-12.48 49.57,-37.21 14.21,-24.73 21.32,-60.06 21.32,-105.74l0 -130.01zm651.84 89.26l-294.19 0c-0.31,12.48 -0.46,23.32 -0.46,32.5 0,49.93 8.65,87.61 26.09,113.05 17.3,25.43 38.15,38.15 62.4,38.15 44.94,0 71.96,-36.74 81.07,-110.22l122.31 13.9c-34.13,161.32 -103.31,241.87 -207.71,241.87 -45.55,0 -84.31,-13.89 -116.13,-41.69 -31.81,-27.79 -58.06,-68.29 -78.76,-121.52 -20.69,-53.46 -31.04,-117.29 -31.04,-191.71 0,-110.69 20.7,-199.95 62.24,-268.02 41.38,-68.06 94.66,-101.97 159.83,-101.97 58.84,0 109.18,31.55 151.19,94.44 42.15,62.88 63.16,163.44 63.16,301.22zm-294.65 -118.7l162.15 0c-4.17,-95.15 -29.96,-142.72 -77.22,-142.72 -50.65,0 -78.91,47.57 -84.93,142.72zm611.23 433.82l0 -942.53 135.28 0 0 942.53 -135.28 0zm644.12 0l-130.65 0c-4.32,-27.79 -6.48,-64.3 -6.48,-109.51 -22.86,49.69 -45.72,82.66 -68.42,99.15 -22.7,16.25 -48.64,24.49 -77.52,24.49 -42.77,0 -77.21,-17.66 -103.62,-52.99 -26.41,-35.56 -39.54,-82.9 -39.54,-142.72 0,-43.57 7.73,-83.85 23.01,-120.59 15.45,-36.74 40.16,-65.7 74.29,-86.43 33.97,-20.96 96.05,-36.5 186.24,-46.63l0 -40.04c0,-67.59 -22.09,-101.27 -66.4,-101.27 -47.26,0 -73.67,33.91 -79.08,101.74l-124.16 -17.9c8.19,-79.13 32.74,-135.18 73.82,-168.39 41.08,-33.21 87.56,-49.69 139.45,-49.69 31.2,0 60.38,5.41 87.87,16.48 27.49,11.07 48.95,27.56 64.4,49.7 15.44,22.13 25.79,45.45 31.2,69.94 5.4,24.73 8.18,67.36 8.18,128.59l0 315.83c0,60.53 2.47,104.1 7.41,130.24zm-142.69 -333.49c-94.51,14.13 -141.77,57.47 -141.77,129.77 0,24.26 4.94,45.22 14.98,62.88 9.88,17.67 24.09,26.38 42.47,26.38 23.93,0 44.01,-15.07 60.07,-44.98 16.22,-29.91 24.25,-66.89 24.25,-110.93l0 -63.12zm628.68 -609.04l0 942.53 -144.54 0 0 -942.53 144.54 0zm598.11 0l0 942.53 -125.4 0 -238.75 -636.6c0.31,16.02 0.62,26.62 0.93,31.8 1.23,16.01 1.85,29.67 1.85,40.74l0 564.06 -113.04 0 0 -942.53 156.59 0 208.48 555.81c-1.85,-27.55 -2.78,-48.51 -2.78,-62.88l0 -492.93 112.12 0zm563.82 186.53l-289.09 0 0 210.55 228.86 0 0 176.63 -228.86 0 0 368.82 -150.11 0 0 -942.53 439.2 0 0 186.53zm297.74 770.13c-83.08,0 -147.48,-47.57 -193.03,-142.72 -45.56,-95.38 -68.26,-210.55 -68.26,-345.74 0,-137.54 23.01,-252.23 69.18,-344.32 46.18,-92.09 111.81,-138.01 197.21,-138.01 86.17,0 151.18,48.99 195.04,147.19 43.86,98.21 65.79,210.79 65.79,337.26 0,136.6 -22.55,251.77 -67.79,345.5 -45.25,93.97 -111.2,140.84 -198.14,140.84zm4.17 -791.33c-75.67,0 -113.51,101.74 -113.51,305.46 0,204.19 37.84,306.41 113.51,306.41 73.2,0 109.8,-101.98 109.8,-305.7 0,-204.19 -36.6,-306.17 -109.8,-306.17zm501.9 405.56l0 371.64 -145.47 0 0 -942.53 271.64 0c50.03,0 90.34,8.95 120.61,26.61 30.42,17.9 55.59,50.4 75.51,97.98 19.92,47.57 29.81,100.56 29.81,158.73 0,113.52 -35.83,195.01 -107.48,244.47l113.96 414.74 -159.52 0 -95.13 -371.64 -103.93 0zm0 -401.32l0 240.23 88.95 0c29.03,0 50.19,-3.07 63.32,-9.43 13.27,-6.12 24.86,-20.01 35.21,-41.21 10.34,-21.43 15.44,-45.93 15.44,-73.72 0,-26.14 -5.1,-49.69 -15.44,-70.42 -10.35,-20.49 -21.47,-33.44 -33.52,-38.15 -12.2,-4.95 -34.9,-7.3 -68.1,-7.3l-85.86 0zm735.4 772.96l-150.58 -768.72 0 768.72 -121.37 0 0 -942.53 225.46 0 107.64 564.06 113.82 -564.06 225.77 0 0 942.53 -145.47 0 0 -768.72 -155.05 768.72 -100.22 0zm829.13 -942.53l192.26 942.53 -155.51 0 -38.14 -195.01 -199.22 0 -39.07 195.01 -126.79 0 197.83 -942.53 168.64 0zm-166.01 573.71l130.64 0 -64.71 -330.19 -65.93 330.19zm902.02 -222.32l-151.96 14.6c-2.17,-133.77 -35.99,-200.66 -101.77,-200.66 -75.52,0 -113.2,102.45 -113.2,307.58 0,118.47 10.19,198.78 30.73,240.93 20.54,42.16 49.11,63.36 85.87,63.36 59.76,0 96.2,-59.35 109.49,-178.05l140.84 13.19c-9.12,112.34 -36.6,198.07 -82.47,256.47 -46.02,58.65 -102.39,87.85 -168.95,87.85 -81.69,0 -148.09,-43.1 -199.21,-129.06 -51.12,-85.96 -76.6,-204.9 -76.6,-356.81 0,-142.01 24.71,-258.36 74.13,-349.03 49.42,-90.67 117.06,-135.89 202.61,-135.89 148.26,0 231.8,121.76 250.49,365.52zm228.39 -351.39l0 942.53 -144.54 0 0 -942.53 144.54 0zm355.35 956.66c-83.09,0 -147.49,-47.57 -193.04,-142.72 -45.56,-95.38 -68.26,-210.55 -68.26,-345.74 0,-137.54 23.01,-252.23 69.19,-344.32 46.17,-92.09 111.8,-138.01 197.2,-138.01 86.18,0 151.19,48.99 195.05,147.19 43.85,98.21 65.79,210.79 65.79,337.26 0,136.6 -22.55,251.77 -67.8,345.5 -45.25,93.97 -111.19,140.84 -198.13,140.84zm4.17 -791.33c-75.67,0 -113.51,101.74 -113.51,305.46 0,204.19 37.84,306.41 113.51,306.41 73.19,0 109.8,-101.98 109.8,-305.7 0,-204.19 -36.61,-306.17 -109.8,-306.17zm113.5 -488.93l34.29 115.64 -198.91 128.83 -22.55 -77.02 187.17 -167.45zm717.33 323.6l0 942.53 -125.4 0 -238.75 -636.6c0.31,16.02 0.62,26.62 0.93,31.8 1.23,16.01 1.85,29.67 1.85,40.74l0 564.06 -113.04 0 0 -942.53 156.59 0 208.48 555.81c-1.85,-27.55 -2.78,-48.51 -2.78,-62.88l0 -492.93 112.12 0z"/>
  <path class="fil2" d="M10984.26 10445.12c-68,-41.28 -188.2,-274.9 -237.76,-357.26 -156.44,-259.95 -247.55,-528.06 -247.55,-865.33 0,-728.19 599.4,-1340.59 1322.73,-1340.59 401.17,0 590.44,201.02 915.37,300.32 43.01,14.05 80.04,20.44 113.49,20.44 81.23,0 149.85,-212.97 178.52,-340.72 26.28,0 52.56,0 78.84,0 4.89,546.37 9.78,1092.74 14.67,1639.11 -75.31,4.91 -106.64,-56.16 -118.15,-146.95 -63.31,-237.62 -143.23,-397.91 -189.28,-524.57 -281.94,-775.35 -1574.1,-1029.53 -1665.52,-84 0,417.75 269.69,727.24 688.85,944.31 164.45,85.17 328.9,170.34 493.35,255.5 261.63,135.49 434.13,347.63 595.42,499.74 68,41.28 188.2,274.9 237.76,357.26 156.44,259.95 247.55,528.06 247.55,865.33 0,728.19 -640.41,1541.36 -1568.78,1449.94 -401.17,0 -498.18,-173.68 -823.1,-272.97 -43.01,-14.05 -80.04,-20.44 -113.49,-20.44 -233.82,-6.84 -378.94,468.94 -391.28,238.26 -4.89,-546.37 -9.14,-1126.98 -14.03,-1673.35 61.27,-179.62 339.18,576.86 372.36,668.1 273.81,921.59 1734.86,1218.24 1836.38,90.83 0,-417.74 -218.42,-730.65 -637.57,-947.72 -164.46,-85.17 -301.57,-214.76 -466.02,-299.93 -261.63,-135.49 -423.87,-303.21 -622.76,-455.31z"/>
  <path class="fil3" d="M9557.23 6650.17c-115.12,0 -66.79,-1.71 -196.35,-0.34 -283.27,3.01 -420.55,4.93 -559.08,81.41 -138.52,76.47 -228.14,173 -317.71,359.48 -82.64,172.07 -163.09,312.67 -207.08,606.03l-128.59 -4.3 49.01 -1314.03 1853.98 0 1853.99 0 49 1314.03 -128.59 4.3c-43.98,-293.36 -124.44,-433.96 -207.08,-606.03 -89.57,-186.48 -179.19,-283.01 -317.71,-359.48 -138.52,-76.48 -275.81,-78.4 -559.08,-81.41 -129.56,-1.37 -81.22,0.34 -196.35,0.34l0 3574.38c0,253.24 0.51,466.28 -2.35,587.13 -3.08,129.87 31.03,326.68 163.71,391.06 64.57,31.34 119.93,58.24 225.69,65.76l6.84 127.17 -888.07 0 -888.07 0 6.84 -127.17c105.77,-7.52 161.13,-34.42 225.7,-65.76 132.68,-64.38 166.78,-261.19 163.71,-391.06 -2.86,-120.85 -2.36,-333.89 -2.36,-587.13l0 -3574.38z"/>
  <path class="fil4" d="M8537.61 8354.36c24.03,0 45.27,-2.93 64.04,-8.66 18.59,-5.6 34.38,-13.75 47.2,-24.19 12.98,-10.44 22.81,-23.17 29.64,-38.06 6.85,-14.9 10.19,-31.58 10.19,-49.91l0 -295.49 134.73 0 0 295.49c0,29.79 -6.67,57.29 -19.82,82.37 -13.16,25.08 -32.1,46.85 -56.84,65.06 -24.57,18.33 -54.57,32.59 -89.84,42.77 -35.26,10.19 -75.09,15.28 -119.3,15.28 -44.21,0 -84.03,-5.09 -119.48,-15.28 -35.44,-10.18 -65.61,-24.44 -90.18,-42.77 -24.74,-18.21 -43.69,-39.98 -56.85,-65.06 -13.14,-25.08 -19.81,-52.58 -19.81,-82.37l0 -295.49 135.27 0 0 295.49c0,18.33 3.32,35.01 10.17,49.91 6.83,14.89 16.66,27.62 29.66,38.06 12.8,10.44 28.59,18.59 47.18,24.19 18.77,5.73 40.01,8.66 64.04,8.66z"/>
  <path class="fil4" d="M8395.97 8970.95l0 182.45 -153.15 0 0 -474.24 232.2 0c51.33,0 95.51,3.42 132.37,10.24 36.65,6.83 66.76,16.21 90.15,28.4 23.38,12.07 40.61,26.69 51.31,43.51 10.91,16.94 16.26,35.47 16.26,55.7 0,15.48 -3.38,30.23 -10.31,44.12 -6.94,13.9 -17.25,26.69 -30.51,38.27 -13.48,11.46 -29.72,21.7 -49.15,30.59 -19.21,9.02 -41.6,16.21 -66.76,21.7 9.7,3.29 18.82,7.31 27.34,11.94 8.52,4.63 16.44,10.24 23.77,16.94l172.38 172.83 -137.51 0c-24.37,0 -43.18,-6.34 -56.27,-18.89l-140.47 -147.84c-5.75,-5.73 -12.29,-9.75 -19.43,-12.19 -7.12,-2.32 -17.42,-3.53 -30.51,-3.53l-51.71 0zm0 -66.79l77.87 0c24.77,0 46.17,-2.08 64,-6.1 18.03,-4.02 32.89,-9.63 44.58,-16.7 11.49,-7.19 20.2,-15.72 25.76,-25.59 5.55,-9.87 8.33,-20.6 8.33,-32.3 0,-23.03 -11.5,-40.83 -34.68,-53.38 -23.18,-12.56 -58.85,-18.77 -106.81,-18.77l-79.05 0 0 152.84z"/>
  <path class="fil4" d="M8840.33 9681.3c0,42.01 -10.35,80.08 -31.04,114.32 -20.7,34.12 -49.84,62.64 -87.2,85.56l175.27 143.99 -110.88 0c-16.14,0 -30.53,-1.53 -42.98,-4.46 -12.46,-3.06 -24.22,-8.91 -35.27,-17.57l-94.56 -79.44c-32.82,7.26 -67.56,10.82 -104.23,10.82 -49.82,0 -94.91,-6.37 -135.79,-18.97 -40.7,-12.73 -75.78,-30.43 -104.92,-52.96 -29.12,-22.66 -51.58,-49.53 -67.54,-80.46 -15.97,-30.94 -23.87,-64.55 -23.87,-100.83 0,-36.03 7.9,-69.64 23.87,-100.58 15.96,-30.94 38.42,-57.67 67.54,-80.21 29.14,-22.4 64.22,-40.1 104.92,-52.96 40.88,-12.73 85.97,-19.22 135.79,-19.22 49.65,0 94.92,6.49 135.63,19.22 40.7,12.86 75.62,30.56 104.56,53.22 28.95,22.53 51.41,49.27 67.03,80.21 15.78,30.8 23.67,64.29 23.67,100.32zm-137.72 0c0,-26.36 -4.38,-50.04 -13.33,-70.92 -8.94,-20.87 -21.76,-38.7 -38.25,-53.34 -16.66,-14.64 -36.84,-25.84 -60.71,-33.74 -23.85,-7.76 -50.88,-11.71 -80.88,-11.71 -30.16,0 -57.37,3.95 -81.22,11.71 -24.04,7.9 -44.39,19.1 -61.06,33.74 -16.49,14.64 -29.3,32.47 -38.25,53.34 -8.94,20.88 -13.34,44.56 -13.34,70.92 0,26.61 4.4,50.41 13.34,71.42 8.95,21.01 21.76,38.7 38.25,53.34 16.67,14.52 37.02,25.59 61.06,33.36 23.85,7.64 51.06,11.58 81.22,11.58 30,0 57.03,-3.94 80.88,-11.58 23.87,-7.77 44.05,-18.84 60.71,-33.36 16.49,-14.64 29.31,-32.33 38.25,-53.34 8.95,-21.01 13.33,-44.81 13.33,-71.42z"/>
  <path class="fil4" d="M8837.72 11699.49l0 34.42c0,10.14 -5.38,19.43 -16.36,27.89l-375.7 333.61 381.53 0 0 73.89 -590.22 0 0 -36.1c0,-9.42 4.94,-17.87 15.02,-25.48l375.7 -334.21 -361.8 0 0 -74.02 571.83 0z"/>
  <path class="fil4" d="M8892.55 12941.56l-116.14 0c-13.35,0 -24.13,-1.99 -32.18,-5.96 -8.04,-4.1 -13.93,-9.07 -17.85,-15.16l-48.27 -95.05 -281.15 0 -47.67 94.68c-2.93,5.34 -8.82,10.31 -17.46,14.78 -8.62,4.47 -19.22,6.71 -31.98,6.71l-117.71 0 278.21 -483.45 154 0 278.2 483.45zm-461.64 -183.14l212.67 0 -77.5 -152.83c-4.71,-7.58 -9.41,-16.27 -14.32,-26.46 -5.1,-10.07 -10,-21 -15.1,-32.93 -4.51,11.93 -9.42,22.99 -14.32,33.18 -4.91,10.18 -9.62,19.01 -13.74,26.59l-77.69 152.45z"/>
  <path class="fil4" d="M8537.61 10609.87c24.03,0 45.27,-2.93 64.04,-8.66 18.59,-5.6 34.38,-13.75 47.2,-24.19 12.98,-10.44 22.81,-23.17 29.64,-38.06 6.85,-14.9 10.19,-31.58 10.19,-49.91l0 -295.49 134.73 0 0 295.49c0,29.79 -6.67,57.29 -19.82,82.37 -13.16,25.08 -32.1,46.85 -56.84,65.06 -24.57,18.33 -54.57,32.59 -89.84,42.77 -35.26,10.19 -75.09,15.28 -119.3,15.28 -44.21,0 -84.03,-5.09 -119.48,-15.28 -35.44,-10.18 -65.61,-24.44 -90.18,-42.77 -24.74,-18.21 -43.69,-39.98 -56.85,-65.06 -13.14,-25.08 -19.81,-52.58 -19.81,-82.37l0 -295.49 135.27 0 0 295.49c0,18.33 3.32,35.01 10.17,49.91 6.83,14.89 16.66,27.62 29.66,38.06 12.8,10.44 28.59,18.59 47.18,24.19 18.77,5.73 40.01,8.66 64.04,8.66z"/>
  <polygon class="fil5" points="8447.66,10939.02 8627.08,10939.02 8627.08,11419.17 8447.66,11419.17 "/>
  <path class="fil6" d="M10530.3 10218.27l3.46 1088.18c28.99,-31.21 1.49,-155.54 27.63,-204.29 2.04,74.18 0.12,195.11 19.96,268 19,69.81 12.15,-7.96 25.07,71.14 2.07,-2.61 4.26,-10.78 5.23,-8.49 0.05,0.13 -3.34,-31.41 88.59,-29.49l418.99 -10.02c12.33,-27.83 10.82,-42.88 20.05,-67.05 103.9,0.93 3.12,24.37 109.41,-5.86 18.74,37.29 39.26,79.84 72.69,98.66 -3.13,-69.01 -19.54,-75.67 -17.76,-155.34 1.1,-49.38 3.96,-112.96 7.98,-159.82l4.27 159.87c12.15,71.65 -12.19,26.85 23.86,50.21 -22.64,-207.46 -5.06,-455.16 -3.38,-666.14 1.77,-222.87 -3.12,-446.4 0.1,-669.14 -25.79,33.17 -15.96,9.2 -23.57,66.75 -0.86,6.5 -0.48,58.92 -0.61,69.86 -0.4,34.53 -0.13,80.09 -12.61,102.27l-4.11 -110.97c-79.2,10.39 -50.58,-9.2 -67.99,43.71l-23.89 -136.38c-47.77,21.21 -141.95,25.81 -198.33,14.61 -42.24,-8.38 -12.33,-2.92 -30.32,-10.29 -78.94,-32.37 -29.59,8.14 -143.51,33.21 -36.15,7.96 -60.66,0.82 -90.54,34.02 -12.17,13.53 -5.26,3.7 -14.48,26.93 -28.72,-51.95 13.07,-37.53 -40.81,-28.88 -64.27,10.31 -105.61,79.98 -108.28,139.51l-47.1 -4.77z"/>
  <path class="fil6 str0" d="M10530.3 10218.27l47.1 4.77c2.67,-59.53 44.01,-129.2 108.28,-139.51 53.88,-8.65 12.09,-23.07 40.81,28.88 9.22,-23.23 2.31,-13.4 14.48,-26.93 29.88,-33.2 54.39,-26.06 90.54,-34.02 113.92,-25.07 64.57,-65.58 143.51,-33.21 17.99,7.37 -11.92,1.91 30.32,10.29 56.38,11.2 150.56,6.6 198.33,-14.61l23.89 136.38c17.41,-52.91 -11.21,-33.32 67.99,-43.71l4.11 110.97c12.48,-22.18 12.21,-67.74 12.61,-102.27 0.13,-10.94 -0.25,-63.36 0.61,-69.86 7.61,-57.55 -2.22,-33.58 23.57,-66.75l802.55 3.22 -2.97 -97.24 -110.41 -54.5c-25.84,-17.43 -62.9,-44.38 -87.59,-62.94l-276.16 -188.15c-59.64,-43.1 -263.76,-115.72 -329.22,-122.89 -132.96,-14.56 -468.05,-33.96 -592.38,-0.59l-244.03 56.9c-70.41,29.9 -17.3,42.05 -95.52,54.67 -28.23,4.55 -109.17,4.61 -143.29,6.19 -0.83,13.97 -0.9,35.83 -3.57,48.67 -0.82,3.92 -2.04,8.04 -2.96,11.55l-14.22 32.06c-17.69,-26.99 -16.05,-71.63 -27.35,-95.6 -20.24,38.35 -16.96,180.48 -27.08,273.75 -2.87,26.44 -3.17,59.32 -1.5,69.83 -10.6,-54.87 4.57,-40.99 -19.4,-111.28l-13.53 -34.4c-14.59,-52.36 -6.8,-403.48 -6.8,-473.54l3.45 683.27 385.35 5.52 0.48 235.08z"/>
  <path class="fil6 str0" d="M10531.31 9295.74l-390.29 -1.34c0,70.06 -7.79,421.18 6.8,473.54l13.53 34.4c23.97,70.29 8.8,56.41 19.4,111.28 -1.67,-10.51 -1.37,-43.39 1.5,-69.83 10.12,-93.27 6.84,-235.4 27.08,-273.75 11.3,23.97 9.66,68.61 27.35,95.6l14.22 -32.06c0.92,-3.51 2.14,-7.63 2.96,-11.55 2.67,-12.84 2.74,-34.7 3.57,-48.67 34.12,-1.58 115.06,-1.64 143.29,-6.19 78.22,-12.62 25.11,-24.77 95.52,-54.67l244.03 -56.9c124.33,-33.37 459.42,-13.97 592.38,0.59 65.46,7.17 269.58,79.79 329.22,122.89l276.16 188.15c24.69,18.56 61.75,45.51 87.59,62.94l110.41 54.5 -1.98 -588.59 -794.55 -4.52 -4.57 -50.56c-35.35,5.06 -14.63,10.84 -33.19,-1.77l0.67 -100.01c-28.9,-45.11 -15.73,-67.61 -27.49,-119.99 -10.81,38.96 -9.42,50.04 -8.77,96.98 0.44,31.94 5.12,17.25 -0.61,54.03 -6.87,44 1.19,16.85 -16.43,42.69 -23.88,-77.44 -62.03,-147.96 -109.83,-209.44l-393.09 0.1c22.91,-34.53 17.78,25.62 -42.29,-8.87l-24.76 -19.11 -27.7 49.57c-46.89,52.53 2.33,-37.81 -22.26,29.25 -0.33,-0.29 -53.56,10.1 -27.42,-65.81 -36.29,76.81 -17.65,52.77 -23.96,155.94 -1.19,19.47 -6.73,67.15 -10.84,84.96 -13.31,57.75 3.45,50.57 -35.65,66.22z"/>
  <path class="fil6 str1" d="M10533.76 11306.45c6.84,143.57 41.75,446.55 107.19,526.58 53.47,-11.57 42,19.14 86.54,88.62 71.4,111.39 122.31,85.8 179.3,145.95 34.25,-27.62 52.22,-61.98 103.86,-49.06 3.43,0.86 6.92,3.05 10.3,4.19 3.41,1.15 6.73,3.72 10.07,4.96 33.12,12.2 -1.35,43.52 69.14,-9.59 60.46,-45.55 51.21,-20.1 106.72,-26.59l396.32 -127.38c3.08,-1.22 6.64,-2.74 9.63,-4.05 44.33,-19.35 121.53,-45.67 131.48,-89.93 6.08,-27.01 -67.43,-20.17 76.87,-33.06 62.19,-5.56 -8.25,-27.62 56.59,1.22 20.9,-28.64 12.93,-11.04 14.57,-63.01 48.68,-5.98 46.41,4.64 77.31,-15.47 -14.55,-38.34 5.59,-4.81 -26.77,-23.05 -3.38,-1.9 -16.11,-7.39 -19.6,-9.01 -2.98,-1.38 -8.25,-3.38 -10.77,-4.48 -2.57,-1.12 -7.82,-2.17 -11.06,-4.48l72.99 -27.35c-45.25,-36.23 -235.27,-18.7 -301.75,-28.72l-45.65 -12.31c31.28,-33.37 -1.73,-9.47 46.03,-21.71l391.71 -5.56c-0.53,29.27 -361.21,8.18 -447.25,4.25 -156.25,-7.13 -285.03,-52.43 -277.8,-213.44l0 0c-36.05,-23.36 -11.71,21.44 -23.86,-50.21l-4.27 -159.87c-4.02,46.86 -6.88,110.44 -7.98,159.82 -1.78,79.67 14.63,86.33 17.76,155.34 -33.43,-18.82 -53.95,-61.37 -72.69,-98.66 -106.29,30.23 -5.51,6.79 -109.41,5.86 -9.23,24.17 -7.72,39.22 -20.05,67.05l-418.99 10.02c-91.93,-1.92 -88.54,29.62 -88.59,29.49 -0.97,-2.29 -3.16,5.88 -5.23,8.49 -12.92,-79.1 -6.07,-1.33 -25.07,-71.14 -19.84,-72.89 -17.92,-193.82 -19.96,-268 -26.14,48.75 1.36,173.08 -27.63,204.29z"/>
  <path class="fil6" d="M10640.95 11833.03c22.99,69.64 71.59,139.77 107.25,176.67 167.76,173.63 466.69,206.98 691.94,207.16 208.62,0.17 418.73,-2.71 627.13,0.31l2.42 -694.02 -396.62 5.57c-44.78,4.55 -14.75,-11.66 -46.03,21.71l45.65 12.31c66.48,10.02 256.5,-7.51 301.75,28.72l-72.99 27.35c3.24,2.31 8.49,3.36 11.06,4.48 2.52,1.1 7.79,3.1 10.77,4.48 3.49,1.62 16.22,7.11 19.6,9.01 32.36,18.24 12.22,-15.29 26.77,23.05 -30.9,20.11 -28.63,9.49 -77.31,15.47 -1.64,51.97 6.33,34.37 -14.57,63.01 -64.84,-28.84 5.6,-6.78 -56.59,-1.22 -144.3,12.89 -70.79,6.05 -76.87,33.06 -9.95,44.26 -87.15,70.58 -131.48,89.93 -2.99,1.31 -6.55,2.83 -9.63,4.05l-396.32 127.38c-55.51,6.49 -46.26,-18.96 -106.72,26.59 -70.49,53.11 -36.02,21.79 -69.14,9.59 -3.34,-1.24 -6.66,-3.81 -10.07,-4.96 -3.38,-1.14 -6.87,-3.33 -10.3,-4.19 -51.64,-12.92 -69.61,21.44 -103.86,49.06 -56.99,-60.15 -107.9,-34.56 -179.3,-145.95 -44.54,-69.48 -33.07,-100.19 -86.54,-88.62z"/>
  <path class="fil6 str0" d="M10532.27 8924.62l-0.96 371.12c39.1,-15.65 22.34,-8.47 35.65,-66.22 4.11,-17.81 9.65,-65.49 10.84,-84.96 6.31,-103.17 -12.33,-79.13 23.96,-155.94 -26.14,75.91 27.09,65.52 27.42,65.81 24.59,-67.06 -24.63,23.28 22.26,-29.25l27.7 -49.57 24.76 19.11c60.07,34.49 65.2,-25.66 42.29,8.87l393.09 -0.1c47.8,61.48 85.95,132 109.83,209.44 17.62,-25.84 9.56,1.31 16.43,-42.69 5.73,-36.78 1.05,-22.09 0.61,-54.03 -0.65,-46.94 -2.04,-58.02 8.77,-96.98 11.76,52.38 -1.41,74.88 27.49,119.99l-28.37 -591.92 -55.12 7.5c-0.27,3.24 -1.26,41.26 -2.01,43.19 -21.48,55.52 13.34,11.14 -35.72,53.12 -2.41,-49.46 -3.9,-31.47 -3.66,-67.89 0.13,-18.5 4.45,-27.88 2.84,-55.31 -113.88,0.55 -386.09,-16.39 -465.04,12.3 24.27,-52.3 33.77,18.25 39.06,28.91 -91.66,74.34 50.31,-15.13 -39.28,18.74 -99.54,37.63 -33.64,23.01 -81.83,86.88l-41.1 -66.9 -27.35 207.44c-12.83,42.73 23.98,52.19 -32.56,109.34z"/>
  <path class="fil6 str0" d="M10532.27 8924.62c56.54,-57.15 19.73,-66.61 32.56,-109.34l27.35 -207.44 41.1 66.9c48.19,-63.87 -17.71,-49.25 81.83,-86.88 89.59,-33.87 -52.38,55.6 39.28,-18.74 -5.29,-10.66 -14.79,-81.21 -39.06,-28.91 78.95,-28.69 351.16,-11.75 465.04,-12.3 1.61,27.43 -2.71,36.81 -2.84,55.31 -0.24,36.42 1.25,18.43 3.66,67.89 49.06,-41.98 14.24,2.4 35.72,-53.12 0.75,-1.93 1.74,-39.95 2.01,-43.19l55.12 -7.5 28.37 591.92 -0.67 100.01c18.56,12.61 -2.16,6.83 33.19,1.77l-0.48 -769.39 -87.43 0.24 -715.03 2.05 0.28 450.72z"/>
  <polygon class="fil6" points="8926.24,9297.96 9724.85,9297.96 9724.85,12207.17 8926.24,12207.17 "/>
  <polygon class="fil6" points="8926.24,8162.88 9724.85,8162.88 9724.85,8947.95 8926.24,8947.95 "/>
  <polygon class="fil6" points="12590.25,9297.96 13388.86,9297.96 13388.86,12207.17 12590.25,12207.17 "/>
  <polygon class="fil6" points="12590.25,8162.88 13388.86,8162.88 13388.86,8947.95 12590.25,8947.95 "/>
 </g>
</svg>
