<?xml version="1.0" encoding="UTF-8"?>
<!DOCTYPE svg PUBLIC "-//W3C//DTD SVG 1.1//EN" "http://www.w3.org/Graphics/SVG/1.1/DTD/svg11.dtd">
<!-- Creator: CorelDRAW 2019 (64-Bit) -->
<svg xmlns="http://www.w3.org/2000/svg" xml:space="preserve" width="297mm" height="210mm" version="1.1" style="shape-rendering:geometricPrecision; text-rendering:geometricPrecision; image-rendering:optimizeQuality; fill-rule:evenodd; clip-rule:evenodd"
viewBox="0 0 29700 21000"
 xmlns:xlink="http://www.w3.org/1999/xlink"
 xmlns:xodm="http://www.corel.com/coreldraw/odm/2003">
 <defs>
  <style type="text/css">
   <![CDATA[
    .str0 {stroke:#2A7E29;stroke-width:20;stroke-miterlimit:22.9256}
    .fil8 {fill:none}
    .fil7 {fill:#2A7E29}
    .fil6 {fill:#616161}
    .fil3 {fill:#B3B3B3}
    .fil0 {fill:#1C1B17;fill-rule:nonzero}
    .fil1 {fill:green;fill-rule:nonzero}
    .fil2 {fill:green;fill-rule:nonzero}
    .fil5 {fill:#616161;fill-rule:nonzero}
    .fil4 {fill:#B3B3B3;fill-rule:nonzero}
   ]]>
  </style>
 </defs>
 <g id="Layer_x0020_1">
  <metadata id="CorelCorpID_0Corel-Layer"/>
  <g id="_1244555904">
   <path class="fil0" d="M13234.7 7221.93l0 129.05 -144.9 0 0 523.04 -138.75 0 0 -523.04 -145.78 0 0 -129.05 429.43 0zm477.15 124.16l-278.38 0 0 133.94 218.66 0 0 122.21 -218.66 0 0 142.73 278.38 0 0 129.05 -418.02 0 0 -652.09 418.02 0 0 124.16zm-99.23 -346.08l32.49 80 -188.52 89.13 -21.37 -53.28 177.4 -115.85zm653.21 465.03l-144.02 10.1c-2.05,-92.55 -34.1,-138.82 -96.46,-138.82 -71.56,0 -107.28,70.88 -107.28,212.8 0,81.96 9.66,137.52 29.13,166.69 19.47,29.16 46.54,43.83 81.38,43.83 56.64,0 91.18,-41.06 103.77,-123.19l133.48 9.13c-8.63,77.72 -34.68,137.03 -78.16,177.44 -43.61,40.57 -97.03,60.78 -160.11,60.78 -77.44,0 -140.37,-29.82 -188.81,-89.29 -48.45,-59.48 -72.6,-141.76 -72.6,-246.86 0,-98.25 23.42,-178.74 70.25,-241.48 46.84,-62.73 110.95,-94.01 192.04,-94.01 140.5,0 219.69,84.24 237.39,252.88zm529.11 -243.11l0 652.09 -118.84 0 -226.28 -440.43c0.29,11.08 0.58,18.42 0.88,22 1.16,11.08 1.75,20.53 1.75,28.19l0 390.24 -107.14 0 0 -652.09 148.41 0 197.6 384.54c-1.76,-19.06 -2.64,-33.56 -2.64,-43.5l0 -341.04 106.26 0zm255.11 0l0 652.09 -137 0 0 -652.09 137 0zm588.83 243.11l-144.02 10.1c-2.05,-92.55 -34.1,-138.82 -96.46,-138.82 -71.57,0 -107.28,70.88 -107.28,212.8 0,81.96 9.66,137.52 29.12,166.69 19.48,29.16 46.55,43.83 81.38,43.83 56.65,0 91.19,-41.06 103.77,-123.19l133.49 9.13c-8.64,77.72 -34.69,137.03 -78.16,177.44 -43.61,40.57 -97.03,60.78 -160.12,60.78 -77.43,0 -140.36,-29.82 -188.81,-89.29 -48.45,-59.48 -72.6,-141.76 -72.6,-246.86 0,-98.25 23.42,-178.74 70.26,-241.48 46.83,-62.73 110.94,-94.01 192.03,-94.01 140.51,0 219.69,84.24 237.4,252.88zm299.02 418.76c-78.74,0 -139.78,-32.92 -182.95,-98.75 -43.18,-65.99 -64.69,-145.66 -64.69,-239.19 0,-95.16 21.81,-174.51 65.56,-238.22 43.77,-63.71 105.97,-95.48 186.91,-95.48 81.67,0 143.3,33.89 184.86,101.84 41.57,67.94 62.35,145.83 62.35,233.33 0,94.5 -21.36,174.18 -64.25,239.03 -42.89,65.01 -105.38,97.44 -187.79,97.44zm3.95 -547.48c-71.71,0 -107.57,70.39 -107.57,211.33 0,141.27 35.86,211.99 107.57,211.99 69.38,0 104.07,-70.56 104.07,-211.5 0,-141.27 -34.69,-211.82 -104.07,-211.82zm962.2 29l-116.8 43.34c-15.81,-51.49 -49.18,-77.23 -100.11,-77.23 -54.45,0 -81.67,19.55 -81.67,58.66 0,15.64 5.12,28.84 15.22,39.59 10.25,10.76 33.08,20.21 68.94,28.52 59.72,13.68 103.48,27.37 131.28,41.06 27.81,13.52 51.23,35.52 70.41,65.99 19.02,30.31 28.54,64.2 28.54,101.67 0,58.82 -20.35,109.66 -61.19,152.52 -40.83,42.85 -101.28,64.36 -181.34,64.36 -60.16,0 -111.23,-15.16 -153.53,-45.63 -42.16,-30.47 -69.97,-75.6 -83.43,-135.56l127.34 -31.94c14.34,60.61 54,90.92 119.13,90.92 31.47,0 54.89,-6.68 70.26,-20.2 15.37,-13.53 23.13,-29.66 23.13,-48.4 0,-19.22 -7.03,-33.89 -21.08,-44.48 -13.91,-10.43 -40.98,-20.2 -80.94,-29.49 -74.64,-17.11 -127.78,-40.41 -159.54,-70.23 -31.76,-29.65 -47.56,-73.16 -47.56,-130.51 0,-57.85 18.88,-106.73 56.79,-146.49 37.9,-39.75 89.42,-59.63 154.26,-59.63 115.05,0 188.96,51 221.89,153.16zm565.99 -143.39l0 405.89c0,65.66 -6.73,114.38 -20.19,146.32 -13.33,32.1 -38.21,58.33 -74.36,78.86 -36.15,20.53 -82.26,30.8 -138.61,30.8 -56.35,0 -101.13,-9.29 -134.36,-27.7 -33.37,-18.42 -58.25,-44.65 -74.79,-78.87 -16.54,-34.05 -24.88,-83.75 -24.88,-149.41l0 -405.89 148.41 0 0 406.21c0,35.04 2.63,60.94 7.9,77.4 5.27,16.62 15.96,29.82 31.77,39.59 15.8,9.62 35.42,14.51 58.54,14.51 25.76,0 46.69,-4.73 62.79,-14.34 16.1,-9.62 26.93,-22.16 32.2,-37.97 5.27,-15.8 7.91,-42.2 7.91,-79.19l0 -406.21 117.67 0zm248.82 409.64l0 242.45 -139.64 0 0 -652.09 230.68 0c51.37,0 90.74,6.2 118.11,18.42 27.22,12.22 51.67,34.05 73.03,65.66 21.53,31.45 32.21,70.07 32.21,116.01 0,32.1 -5.71,63.39 -17.12,94.02 -11.42,30.47 -27.52,54.59 -48.46,72.02 -20.77,17.6 -40.98,29.17 -60.59,34.87 -19.46,5.7 -50.2,8.64 -91.92,8.64l-96.3 0zm-4.39 -118.3l88.99 0c33.95,0 57.66,-8.8 71.42,-26.23 13.61,-17.6 20.49,-37.64 20.49,-60.29 0,-26.4 -7.61,-47.42 -22.83,-63.06 -15.37,-15.64 -38.49,-23.46 -69.52,-23.46l-88.55 0 0 173.04zm812.76 -167.18l-278.38 0 0 133.94 218.67 0 0 122.21 -218.67 0 0 142.73 278.38 0 0 129.05 -418.02 0 0 -652.09 418.02 0 0 124.16zm220.28 270.81l0 257.12 -137.88 0 0 -652.09 257.45 0c47.43,0 85.63,6.2 114.32,18.42 28.83,12.38 52.69,34.87 71.57,67.78 18.88,32.91 28.24,69.57 28.24,109.82 0,78.54 -33.95,134.92 -101.86,169.13l108.02 286.94 -151.2 0 -90.16 -257.12 -98.5 0zm0 -277.65l0 166.2 84.3 0c27.52,0 47.57,-2.12 60.01,-6.52 12.59,-4.23 23.56,-13.85 33.37,-28.51 9.81,-14.83 14.64,-31.78 14.64,-51 0,-18.09 -4.83,-34.38 -14.64,-48.72 -9.81,-14.18 -20.34,-23.14 -31.76,-26.4 -11.56,-3.42 -33.07,-5.05 -64.54,-5.05l-81.38 0zm576.23 -117.32l0 652.09 -137 0 0 -652.09 137 0zm336.79 661.87c-78.74,0 -139.78,-32.92 -182.95,-98.75 -43.18,-65.99 -64.7,-145.66 -64.7,-239.19 0,-95.16 21.81,-174.51 65.57,-238.22 43.76,-63.71 105.97,-95.48 186.91,-95.48 81.67,0 143.29,33.89 184.86,101.84 41.57,67.94 62.35,145.83 62.35,233.33 0,94.5 -21.37,174.18 -64.26,239.03 -42.88,65.01 -105.37,97.44 -187.78,97.44zm3.95 -547.48c-71.72,0 -107.58,70.39 -107.58,211.33 0,141.27 35.86,211.99 107.58,211.99 69.37,0 104.07,-70.56 104.07,-211.5 0,-141.27 -34.7,-211.82 -104.07,-211.82zm475.68 280.58l0 257.12 -137.88 0 0 -652.09 257.46 0c47.43,0 85.62,6.2 114.31,18.42 28.84,12.38 52.7,34.87 71.58,67.78 18.88,32.91 28.24,69.57 28.24,109.82 0,78.54 -33.96,134.92 -101.87,169.13l108.02 286.94 -151.2 0 -90.15 -257.12 -98.51 0zm0 -277.65l0 166.2 84.3 0c27.53,0 47.58,-2.12 60.02,-6.52 12.58,-4.23 23.56,-13.85 33.37,-28.51 9.81,-14.83 14.63,-31.78 14.63,-51 0,-18.09 -4.82,-34.38 -14.63,-48.72 -9.81,-14.18 -20.35,-23.14 -31.77,-26.4 -11.56,-3.42 -33.07,-5.05 -64.54,-5.05l-81.38 0zm1076.8 6.84l-278.38 0 0 133.94 218.67 0 0 122.21 -218.67 0 0 142.73 278.38 0 0 129.05 -418.02 0 0 -652.09 418.02 0 0 124.16zm532.03 -124.16l0 652.09 -118.84 0 -226.28 -440.43c0.29,11.08 0.58,18.42 0.88,22 1.17,11.08 1.75,20.53 1.75,28.19l0 390.24 -107.14 0 0 -652.09 148.41 0 197.6 384.54c-1.75,-19.06 -2.63,-33.56 -2.63,-43.5l0 -341.04 106.25 0z"/>
   <path class="fil1" d="M14630.95 8899.26l245.43 0c99.97,0 174.41,14.62 223.5,43.87 49.08,29.24 92.94,75.23 131.76,138.59 38.82,63.14 58.34,142.82 58.34,239.45 0,121.21 -34,222.72 -101.8,304.09 -67.79,81.37 -161.33,122.06 -280.62,122.06l-276.61 0 0 -848.06zm184.68 156.39l0 532.74 77.44 0c68.6,0 119.5,-27.13 152.69,-81.16 33.2,-54.04 49.89,-117.61 49.89,-190.51 0,-51.28 -9.45,-98.96 -28.57,-142.61 -18.9,-43.66 -42.44,-74.38 -70.61,-91.97 -28.16,-17.59 -62.16,-26.49 -101.59,-26.49l-79.25 0zm1172.61 5.09l-382.62 0 0 174.19 300.54 0 0 158.93 -300.54 0 0 185.63 382.62 0 0 167.83 -574.54 0 0 -848.06 574.54 0 0 161.48zm669.69 25l-160.54 56.37c-21.72,-66.96 -67.59,-100.44 -137.6,-100.44 -74.83,0 -112.25,25.42 -112.25,76.28 0,20.35 7.04,37.51 20.92,51.5 14.08,13.98 45.46,26.27 94.75,37.08 82.08,17.8 142.23,35.6 180.45,53.4 38.22,17.59 70.41,46.2 96.76,85.82 26.15,39.42 39.23,83.5 39.23,132.23 0,76.5 -27.96,142.62 -84.09,198.35 -56.13,55.73 -139.21,83.7 -249.25,83.7 -82.67,0 -152.88,-19.7 -211.02,-59.33 -57.94,-39.63 -96.16,-98.33 -114.67,-176.31l175.02 -41.53c19.71,78.83 74.22,118.24 163.75,118.24 43.25,0 75.44,-8.68 96.56,-26.27 21.12,-17.59 31.78,-38.57 31.78,-62.94 0,-25.01 -9.65,-44.08 -28.96,-57.85 -19.11,-13.56 -56.33,-26.28 -111.25,-38.36 -102.59,-22.25 -175.62,-52.55 -219.27,-91.33 -43.65,-38.57 -65.38,-95.15 -65.38,-169.74 0,-75.23 25.95,-138.8 78.05,-190.5 52.11,-51.71 122.92,-77.56 212.03,-77.56 158.12,0 259.71,66.33 304.98,199.19zm530.08 -186.48l250.44 848.06 -202.57 0 -49.69 -175.46 -259.5 0 -50.9 175.46 -165.16 0 257.69 -848.06 219.69 0zm-216.26 516.21l170.19 0 -84.29 -297.09 -85.9 297.09zm742.91 -2.54l0 334.39 -189.49 0 0 -848.06 353.84 0c65.18,0 117.69,8.06 157.12,23.95 39.63,16.1 72.42,45.35 98.37,88.15 25.95,42.81 38.83,90.49 38.83,142.83 0,102.14 -46.68,175.46 -140.01,219.96l148.46 373.17 -207.82 0 -123.91 -334.39 -135.39 0zm0 -361.09l0 216.14 115.87 0c37.82,0 65.38,-2.75 82.49,-8.47 17.29,-5.51 32.38,-18.02 45.86,-37.09 13.48,-19.28 20.12,-41.32 20.12,-66.32 0,-23.53 -6.64,-44.72 -20.12,-63.36 -13.48,-18.44 -27.96,-30.1 -43.65,-34.33 -15.89,-4.45 -45.46,-6.57 -88.71,-6.57l-111.86 0zm793.2 361.09l0 334.39 -189.49 0 0 -848.06 353.85 0c65.18,0 117.68,8.06 157.11,23.95 39.63,16.1 72.42,45.35 98.38,88.15 25.94,42.81 38.82,90.49 38.82,142.83 0,102.14 -46.68,175.46 -140.01,219.96l148.46 373.17 -207.81 0 -123.92 -334.39 -135.39 0zm0 -361.09l0 216.14 115.87 0c37.82,0 65.38,-2.75 82.49,-8.47 17.3,-5.51 32.38,-18.02 45.86,-37.09 13.48,-19.28 20.12,-41.32 20.12,-66.32 0,-23.53 -6.64,-44.72 -20.12,-63.36 -13.48,-18.44 -27.96,-30.1 -43.65,-34.33 -15.89,-4.45 -45.46,-6.57 -88.71,-6.57l-111.86 0zm889.57 708.19c-108.23,0 -192.12,-42.8 -251.47,-128.41 -59.34,-85.82 -88.91,-189.45 -88.91,-311.08 0,-123.76 29.98,-226.96 90.13,-309.81 60.15,-82.86 145.64,-124.18 256.88,-124.18 112.26,0 196.95,44.08 254.08,132.44 57.13,88.37 85.7,189.66 85.7,303.45 0,122.91 -29.37,226.53 -88.31,310.87 -58.95,84.55 -144.85,126.72 -258.1,126.72zm5.43 -712.01c-98.57,0 -147.86,91.55 -147.86,274.85 0,183.72 49.29,275.69 147.86,275.69 95.36,0 143.03,-91.76 143.03,-275.06 0,-183.72 -47.67,-275.48 -143.03,-275.48zm655.01 531.47l319.85 0 0 167.83 -510.56 0 0 -848.06 190.71 0 0 680.23zm607.73 0l319.85 0 0 167.83 -510.56 0 0 -848.06 190.71 0 0 680.23zm706.91 180.54c-108.23,0 -192.11,-42.8 -251.47,-128.41 -59.34,-85.82 -88.91,-189.45 -88.91,-311.08 0,-123.76 29.98,-226.96 90.13,-309.81 60.15,-82.86 145.64,-124.18 256.88,-124.18 112.26,0 196.95,44.08 254.08,132.44 57.13,88.37 85.7,189.66 85.7,303.45 0,122.91 -29.37,226.53 -88.31,310.87 -58.94,84.55 -144.85,126.72 -258.1,126.72zm5.43 -712.01c-98.57,0 -147.86,91.55 -147.86,274.85 0,183.72 49.29,275.69 147.86,275.69 95.36,0 143.03,-91.76 143.03,-275.06 0,-183.72 -47.67,-275.48 -143.03,-275.48z"/>
   <path class="fil2" d="M21043.46 10340.88l0 848.06 -170.38 0 0 -98.33c-42.38,73.96 -100.23,111.04 -173.34,111.04 -69.51,0 -124.39,-28.18 -164.44,-84.55 -40.05,-56.58 -60.18,-134.77 -60.18,-234.79 0,-104.05 20.13,-185.63 60.18,-244.54 40.05,-58.91 98.11,-88.37 174.19,-88.37 66.96,0 118.46,26.49 154.69,79.25l0 -287.77 179.28 0zm-179.28 484.21c0,-98.11 -30.09,-147.27 -90.48,-147.27 -71.84,0 -107.86,69.29 -107.86,207.88 0,123.33 33.69,185 101.08,185 25.85,0 48.52,-11.24 68.02,-33.49 19.49,-22.25 29.24,-54.03 29.24,-95.14l0 -116.98zm894.47 80.32l-403.69 0c-0.42,11.23 -0.63,20.98 -0.63,29.24 0,44.92 11.87,78.83 35.81,101.72 23.73,22.88 52.34,34.33 85.61,34.33 61.67,0 98.75,-33.06 111.25,-99.18l167.84 12.5c-46.84,145.16 -141.77,217.63 -285.02,217.63 -62.51,0 -115.7,-12.5 -159.36,-37.5 -43.65,-25.01 -79.67,-61.46 -108.07,-109.35 -28.4,-48.1 -42.59,-105.53 -42.59,-172.49 0,-99.6 28.39,-179.91 85.4,-241.15 56.79,-61.24 129.9,-91.76 219.32,-91.76 80.74,0 149.82,28.4 207.46,84.98 57.85,56.58 86.67,147.06 86.67,271.03zm-404.32 -106.81l222.5 0c-5.72,-85.61 -41.11,-128.41 -105.95,-128.41 -69.51,0 -108.29,42.8 -116.55,128.41z"/>
   <path class="fil2" d="M16438.28 11984.38l-160.69 56.37c-21.74,-66.96 -67.65,-100.44 -137.72,-100.44 -74.9,0 -112.36,25.42 -112.36,76.28 0,20.35 7.05,37.51 20.95,51.5 14.09,13.98 45.5,26.27 94.83,37.08 82.16,17.8 142.36,35.6 180.61,53.4 38.26,17.59 70.48,46.2 96.86,85.82 26.17,39.42 39.26,83.5 39.26,132.23 0,76.5 -27.99,142.62 -84.17,198.35 -56.17,55.73 -139.33,83.7 -249.47,83.7 -82.75,0 -153.03,-19.7 -211.22,-59.33 -57.99,-39.63 -96.24,-98.33 -114.77,-176.31l175.18 -41.53c19.73,78.83 74.29,118.24 163.89,118.24 43.29,0 75.52,-8.68 96.66,-26.27 21.14,-17.59 31.81,-38.57 31.81,-62.94 0,-25.01 -9.66,-44.08 -28.99,-57.85 -19.13,-13.56 -56.39,-26.28 -111.35,-38.36 -102.69,-22.25 -175.78,-52.55 -219.48,-91.33 -43.69,-38.57 -65.44,-95.15 -65.44,-169.74 0,-75.23 25.98,-138.8 78.13,-190.5 52.15,-51.71 123.03,-77.56 212.22,-77.56 158.26,0 259.95,66.33 305.26,199.19zm446.39 674.29c-108.33,0 -192.29,-42.8 -251.69,-128.41 -59.4,-85.82 -88.99,-189.45 -88.99,-311.08 0,-123.76 30,-226.96 90.21,-309.81 60.2,-82.86 145.77,-124.18 257.11,-124.18 112.36,0 197.13,44.08 254.31,132.44 57.18,88.37 85.78,189.66 85.78,303.45 0,122.91 -29.39,226.53 -88.39,310.87 -59,84.55 -144.98,126.72 -258.34,126.72zm5.44 -712.01c-98.66,0 -147.99,91.55 -147.99,274.85 0,183.72 49.33,275.69 147.99,275.69 95.44,0 143.16,-91.76 143.16,-275.06 0,-183.72 -47.72,-275.48 -143.16,-275.48zm1037.36 19.07l-376.93 0 0 189.45 298.41 0 0 158.93 -298.41 0 0 331.85 -195.71 0 0 -848.06 572.64 0 0 167.83zm606.68 -167.83l0 167.83 -199.34 0 0 680.23 -190.88 0 0 -680.23 -200.55 0 0 -167.83 590.77 0zm1083.87 0l-201.75 848.06 -184.85 0 -133.49 -561.13 -128.66 561.13 -184.64 0 -205.58 -848.06 192.48 0 110.55 517.48c0.41,2.55 2.42,11.66 6.44,27.34 1.62,5.93 3.63,14.62 6.44,26.06l132.1 -570.88 174.37 0 135.71 570.88c2.81,-10.59 6.64,-28.39 11.68,-53.4l114.16 -517.48 155.04 0zm450.23 0l250.68 848.06 -202.76 0 -49.74 -175.46 -259.74 0 -50.94 175.46 -165.31 0 257.93 -848.06 219.88 0zm-216.45 516.21l170.34 0 -84.37 -297.09 -85.97 297.09zm743.58 -2.54l0 334.39 -189.67 0 0 -848.06 354.18 0c65.24,0 117.79,8.06 157.25,23.95 39.67,16.1 72.49,45.35 98.47,88.15 25.97,42.81 38.86,90.49 38.86,142.83 0,102.14 -46.72,175.46 -140.14,219.96l148.6 373.17 -208.01 0 -124.02 -334.39 -135.52 0zm0 -361.09l0 216.14 115.98 0c37.86,0 65.44,-2.75 82.56,-8.47 17.31,-5.51 32.41,-18.02 45.9,-37.09 13.5,-19.28 20.14,-41.32 20.14,-66.32 0,-23.53 -6.64,-44.72 -20.14,-63.36 -13.49,-18.44 -27.98,-30.1 -43.68,-34.33 -15.91,-4.45 -45.51,-6.57 -88.8,-6.57l-111.96 0zm1179.32 8.9l-382.97 0 0 174.19 300.82 0 0 158.93 -300.82 0 0 185.63 382.97 0 0 167.83 -575.06 0 0 -848.06 575.06 0 0 161.48z"/>
   <path class="fil3" d="M10760.77 11152.3c-67.99,-41.28 -188.17,-274.87 -237.73,-357.21 -156.42,-259.92 -247.51,-528 -247.51,-865.22 0,-728.1 599.31,-1340.42 1322.55,-1340.42 401.12,0 590.36,201 915.25,300.28 43,14.05 80.03,20.44 113.47,20.44 81.22,0 149.83,-212.94 178.5,-340.68 26.28,0 52.56,0 78.83,0 4.89,546.3 9.78,1092.6 14.67,1638.9 -75.3,4.91 -106.63,-56.15 -118.13,-146.93 -63.3,-237.59 -143.21,-397.86 -189.26,-524.5 -281.9,-775.25 -1573.9,-1029.4 -1665.3,-83.99 0,417.7 269.66,727.14 688.75,944.19 164.44,85.15 328.87,170.31 493.3,255.47 261.59,135.47 434.07,347.58 595.34,499.67 67.99,41.27 188.17,274.87 237.73,357.21 156.42,259.92 247.51,527.99 247.51,865.22 0,728.1 -640.32,1541.17 -1568.58,1449.76 -401.11,0 -498.1,-173.66 -822.99,-272.94 -43,-14.05 -80.03,-20.44 -113.47,-20.44 -233.79,-6.83 -378.89,468.88 -391.23,238.23 -4.89,-546.3 -9.14,-1126.83 -14.03,-1673.13 61.26,-179.6 339.14,576.79 372.31,668.01 273.78,921.48 1734.64,1218.08 1836.15,90.82 0,-417.69 -218.4,-730.56 -637.5,-947.6 -164.43,-85.15 -301.52,-214.73 -465.95,-299.89 -261.6,-135.47 -423.82,-303.17 -622.68,-455.25z"/>
   <path class="fil4" d="M9333.93 7357.84c-115.11,0 -66.78,-1.71 -196.33,-0.34 -283.23,3.01 -420.5,4.93 -559,81.4 -138.51,76.46 -228.12,172.98 -317.67,359.44 -82.63,172.04 -163.08,312.62 -207.06,605.94l-128.57 -4.29 49 -1313.86 1853.74 0 1853.75 0 49 1313.86 -128.58 4.29c-43.98,-293.32 -124.42,-433.9 -207.05,-605.94 -89.56,-186.46 -179.16,-282.98 -317.67,-359.44 -138.51,-76.47 -275.78,-78.39 -559,-81.4 -129.55,-1.37 -81.22,0.34 -196.33,0.34l0 3573.92c0,253.21 0.5,466.21 -2.36,587.05 -3.07,129.86 31.03,326.64 163.69,391.01 64.56,31.34 119.92,58.23 225.67,65.75l6.83 127.15 -887.95 0 -887.95 0 6.84 -127.15c105.75,-7.52 161.1,-34.41 225.66,-65.75 132.67,-64.37 166.77,-261.15 163.69,-391.01 -2.86,-120.84 -2.35,-333.84 -2.35,-587.05l0 -3573.92z"/>
   <path class="fil5" d="M8314.44 9061.81c24.04,0 45.27,-2.93 64.04,-8.66 18.59,-5.6 34.38,-13.75 47.19,-24.19 12.98,-10.43 22.8,-23.16 29.65,-38.06 6.84,-14.89 10.17,-31.57 10.17,-49.9l0 -295.46 134.72 0 0 295.46c0,29.79 -6.65,57.29 -19.81,82.36 -13.16,25.08 -32.11,46.85 -56.85,65.05 -24.56,18.33 -54.56,32.59 -89.81,42.78 -35.26,10.18 -75.09,15.27 -119.3,15.27 -44.19,0 -84.02,-5.09 -119.46,-15.27 -35.43,-10.19 -65.61,-24.45 -90.17,-42.78 -24.74,-18.2 -43.67,-39.97 -56.83,-65.05 -13.16,-25.07 -19.83,-52.57 -19.83,-82.36l0 -295.46 135.25 0 0 295.46c0,18.33 3.34,35.01 10.17,49.9 6.85,14.9 16.68,27.63 29.66,38.06 12.8,10.44 28.6,18.59 47.19,24.19 18.77,5.73 39.99,8.66 64.02,8.66z"/>
   <path class="fil5" d="M8172.83 9678.3l0 182.44 -153.14 0 0 -474.19 232.19 0c51.31,0 95.49,3.41 132.33,10.24 36.66,6.82 66.77,16.21 90.14,28.39 23.38,12.07 40.63,26.69 51.33,43.51 10.89,16.94 16.24,35.46 16.24,55.69 0,15.48 -3.37,30.23 -10.31,44.12 -6.93,13.89 -17.23,26.69 -30.5,38.27 -13.47,11.45 -29.71,21.69 -49.14,30.59 -19.22,9.01 -41.6,16.2 -66.77,21.69 9.72,3.29 18.83,7.31 27.35,11.94 8.52,4.63 16.45,10.24 23.78,16.94l172.35 172.81 -137.5 0c-24.36,0 -43.17,-6.34 -56.26,-18.89l-140.46 -147.83c-5.75,-5.72 -12.29,-9.75 -19.41,-12.18 -7.13,-2.32 -17.44,-3.54 -30.51,-3.54l-51.71 0zm0 -66.78l77.85 0c24.78,0 46.17,-2.07 64,-6.09 18.03,-4.03 32.89,-9.63 44.58,-16.7 11.49,-7.19 20.2,-15.72 25.75,-25.59 5.54,-9.87 8.32,-20.6 8.32,-32.3 0,-23.03 -11.49,-40.82 -34.67,-53.38 -23.19,-12.55 -58.84,-18.76 -106.78,-18.76l-79.05 0 0 152.82z"/>
   <path class="fil5" d="M8617.14 10388.57c0,42.01 -10.35,80.07 -31.04,114.32 -20.7,34.11 -49.82,62.63 -87.2,85.54l175.25 143.98 -110.86 0c-16.14,0 -30.53,-1.53 -42.98,-4.46 -12.46,-3.05 -24.2,-8.91 -35.26,-17.57l-94.56 -79.43c-32.8,7.25 -67.54,10.82 -104.2,10.82 -49.83,0 -94.91,-6.37 -135.78,-18.97 -40.71,-12.73 -75.79,-30.42 -104.91,-52.95 -29.12,-22.66 -51.57,-49.52 -67.54,-80.46 -15.96,-30.93 -23.86,-64.54 -23.86,-100.82 0,-36.02 7.9,-69.63 23.86,-100.56 15.97,-30.94 38.42,-57.67 67.54,-80.2 29.12,-22.41 64.2,-40.1 104.91,-52.96 40.87,-12.73 85.95,-19.22 135.78,-19.22 49.64,0 94.9,6.49 135.61,19.22 40.69,12.86 75.6,30.55 104.55,53.21 28.94,22.54 51.4,49.27 67.02,80.2 15.78,30.81 23.67,64.29 23.67,100.31zm-137.71 0c0,-26.35 -4.38,-50.03 -13.32,-70.9 -8.95,-20.88 -21.76,-38.7 -38.25,-53.34 -16.67,-14.64 -36.85,-25.84 -60.7,-33.73 -23.86,-7.77 -50.88,-11.72 -80.87,-11.72 -30.18,0 -57.37,3.95 -81.22,11.72 -24.03,7.89 -44.39,19.09 -61.05,33.73 -16.5,14.64 -29.3,32.46 -38.24,53.34 -8.96,20.87 -13.34,44.55 -13.34,70.9 0,26.61 4.38,50.41 13.34,71.42 8.94,21 21.74,38.7 38.24,53.34 16.66,14.51 37.02,25.58 61.05,33.35 23.85,7.64 51.04,11.58 81.22,11.58 29.99,0 57.01,-3.94 80.87,-11.58 23.85,-7.77 44.03,-18.84 60.7,-33.35 16.49,-14.64 29.3,-32.34 38.25,-53.34 8.94,-21.01 13.32,-44.81 13.32,-71.42z"/>
   <path class="fil5" d="M8614.51 12406.5l0 34.4c0,10.14 -5.36,19.44 -16.35,27.89l-375.65 333.57 381.48 0 0 73.89 -590.15 0 0 -36.1c0,-9.41 4.94,-17.87 15.02,-25.47l375.65 -334.18 -361.75 0 0 -74 571.75 0z"/>
   <path class="fil5" d="M8669.36 13648.41l-116.14 0c-13.33,0 -24.13,-1.99 -32.17,-5.96 -8.03,-4.1 -13.92,-9.07 -17.86,-15.16l-48.25 -95.04 -281.12 0 -47.67 94.67c-2.94,5.34 -8.83,10.31 -17.46,14.78 -8.62,4.47 -19.22,6.71 -31.98,6.71l-117.7 0 278.18 -483.4 153.99 0 278.18 483.4zm-461.6 -183.12l212.66 0 -77.5 -152.82c-4.7,-7.57 -9.41,-16.27 -14.32,-26.46 -5.1,-10.06 -10,-20.99 -15.1,-32.92 -4.51,11.93 -9.42,22.98 -14.32,33.17 -4.91,10.19 -9.61,19.01 -13.73,26.59l-77.69 152.44z"/>
   <path class="fil5" d="M8314.44 11317.03c24.04,0 45.27,-2.93 64.04,-8.66 18.59,-5.6 34.38,-13.75 47.19,-24.19 12.98,-10.43 22.8,-23.16 29.65,-38.06 6.84,-14.89 10.17,-31.57 10.17,-49.9l0 -295.46 134.72 0 0 295.46c0,29.79 -6.65,57.29 -19.81,82.36 -13.16,25.08 -32.11,46.85 -56.85,65.05 -24.56,18.33 -54.56,32.59 -89.81,42.78 -35.26,10.18 -75.09,15.27 -119.3,15.27 -44.19,0 -84.02,-5.09 -119.46,-15.27 -35.43,-10.19 -65.61,-24.45 -90.17,-42.78 -24.74,-18.2 -43.67,-39.97 -56.83,-65.05 -13.16,-25.07 -19.83,-52.57 -19.83,-82.36l0 -295.46 135.25 0 0 295.46c0,18.33 3.34,35.01 10.17,49.9 6.85,14.9 16.68,27.63 29.66,38.06 12.8,10.44 28.6,18.59 47.19,24.19 18.77,5.73 39.99,8.66 64.02,8.66z"/>
   <polygon class="fil6" points="8224.5,11646.13 8403.89,11646.13 8403.89,12126.22 8224.5,12126.22 "/>
   <g>
    <path class="fil7 str0" d="M10245.58 10490.55l-6.69 -547.53 -3.72 -676.33c0,0 0,0 639.86,4.17l-3.97 3349.09 -551.2 -4.4 -102.69 -4.28 -3.89 -305.27c-158.53,229.54 -357.02,374.21 -643.14,374.15 -107.44,-0.02 -203.52,-22.83 -292.65,-63.5 -183.01,-83.52 -314.91,-249.4 -403.41,-428.14 -217.61,-439.49 -212.73,-1156.86 -0.7,-1576.33 310.02,-613.34 959.72,-666.57 1372.2,-121.63zm-749.1 1409.6c-83.19,-148.26 -100.99,-327.2 -100.86,-499.23 0.23,-279.42 81.1,-735.2 453.61,-688.66 312.34,39.02 371.74,421.92 371.64,688.66 -0.1,272.56 -69.54,663.02 -384.93,693.06 -170.49,16.23 -261.96,-62.65 -339.46,-193.83z"/>
    <path class="fil7 str0" d="M12512.93 11765.04c48.92,32.83 61.6,44.15 75.73,118.5 5.31,91.59 14.26,156.26 -53.76,228.93 -42.57,45.47 -111.84,90.12 -194.94,89.34 -36.32,35.68 -43.41,24.1 -99.08,34.07 -125.81,22.53 -181.97,203.14 -312.81,238.59 -46.45,12.58 -171.22,8.98 -226.33,10.1 12.57,26.95 -10.89,-8.82 16.05,13.21l13.64 11.02c1.99,1.65 5.23,4.64 7.35,6.36 2.19,1.78 5.21,4.88 7.52,6.65 28.94,22.05 -3.85,10.56 35.56,21.17 17.8,4.79 36.82,2.7 55.05,2.86 -30.21,73.3 -53.65,8.2 -87.75,73.25 42.05,28.05 77.86,14.94 139.11,15.65l15.6 34.65c160.05,38.36 428.07,37.12 595.97,14.17 343.97,-47.02 378.99,-155.8 473.06,-175.26 2.89,-1.1 3.04,-0.8 7.83,-4.75 15.45,-10.37 12.81,-8.32 15.45,-10.37 1.39,-1.08 27.19,-23.67 29.28,-25.69 33.51,-32.35 27.17,-33.24 53.46,-63.64 85.99,-180.03 130.12,-279.52 118.53,-519.99 -4.66,-96.63 -15.1,-195.46 -46.54,-283.85 -13.12,-36.87 -30.24,-71.88 -48.74,-106.59 -16.98,-31.87 -42.19,-80.16 -70.91,-88.06 -82.38,6.43 -76.84,-32.92 -146.23,-71.92 -63,-35.42 -397.35,-163.09 -464.78,-127.98 21.29,42.14 13.75,26.31 82.06,30.66 -46.9,23.24 -94.42,-8.9 -76.43,48.41 9.63,30.66 25.86,37.44 103.67,37.58 -14.95,25.51 -9.32,46.77 -7.59,68.72 5.39,68.36 -14.65,13.32 19.1,60.09 41.23,57.15 61.62,40.82 56.07,128.9 -0.02,0.31 -9.59,88.57 -10.29,90.49 -31.69,86.68 -34.48,-22.18 -78.16,18.26 -27.02,25.01 -3.8,5.54 0.85,31.76 0.34,1.93 1.74,6.27 2.06,8.22 0.34,2.02 1.22,6.78 1.47,8.67 0.04,0.28 0.09,25.88 -0.13,27.82z"/>
    <path class="fil7 str0" d="M11403.26 10648.09c44.34,8.01 23.93,1.74 53.74,34.9 76.36,84.96 231.35,171.34 323.82,236.37 3.28,99.54 -2.38,105.55 -18.14,181.88 -21.62,104.78 -0.13,79.13 30.68,133.17 42.65,74.8 -38.77,265.05 31.24,319.33 -2.84,2.6 -7.85,4.62 -9.99,5.73 -39.59,20.54 -29.91,2.43 -50.49,22.76 13.11,-6.12 234.64,73.32 351.59,92.33l306.89 60.81c41.83,11.87 38.74,18.83 90.33,29.67 0.22,-1.94 0.17,-27.54 0.13,-27.82 -0.25,-1.89 -1.13,-6.65 -1.47,-8.67 -0.32,-1.95 -1.72,-6.29 -2.06,-8.22 -4.65,-26.22 -27.87,-6.75 -0.85,-31.76 43.68,-40.44 46.47,68.42 78.16,-18.26 0.7,-1.92 10.27,-90.18 10.29,-90.49 5.55,-88.08 -14.84,-71.75 -56.07,-128.9 -33.75,-46.77 -13.71,8.27 -19.1,-60.09 -1.73,-21.95 -7.36,-43.21 7.59,-68.72 -77.81,-0.14 -94.04,-6.92 -103.67,-37.58 -17.99,-57.31 29.53,-25.17 76.43,-48.41 -68.31,-4.35 -60.77,11.48 -82.06,-30.66 67.43,-35.11 401.78,92.56 464.78,127.98 69.39,39 63.85,78.35 146.23,71.92 -65.03,-130.67 -407.71,-216.36 -529.85,-242.06 -178.95,-37.65 -528.59,-34.59 -548.68,-225.96 -36.86,-351.08 610.06,-223.37 831.14,-139.86 84.33,31.85 209.82,98.52 281.49,116.24l-0.75 -608.82 -217.1 -61.91 -204.99 -39.84c25.34,56.74 -11.79,21.52 44.22,47.88 3.33,1.57 277.49,46.64 360.91,92.09l-2.42 537.13 -57.84 -41.18c-15.23,-8.39 -32.52,-13.54 -49.29,-20.88 -342.53,-149.9 -464.12,-131.02 -807.58,-173.34l135.21 -7.15c-95.17,-168.26 -84.9,-57.38 -180.28,-238.01l65.95 -38.66c-66.74,-20.3 -191.85,-49.42 -246.6,-74.94 11.05,-30.38 10.19,-28.17 34.93,-42.3 46.01,-26.28 126.06,-24.28 187.4,-32 34.24,-4.3 86.37,-11.18 139.66,-9.71 8.62,0.24 66.63,1.38 71.08,0.69l69.11 -29.25c-233.42,-10.9 -460.57,-3.46 -667.19,87.06 -178.81,78.33 -264.18,188.34 -336.53,387.51z"/>
    <path class="fil7 str0" d="M12642.52 10203.15l0.55 0.11 -236.09 -29.74 -69.11 29.25c-4.45,0.69 -62.46,-0.45 -71.08,-0.69 -53.29,-1.47 -105.42,5.41 -139.66,9.71 -61.34,7.72 -141.39,5.72 -187.4,32 -24.74,14.13 -23.88,11.92 -34.93,42.3 54.75,25.52 179.86,54.64 246.6,74.94l-65.95 38.66c95.38,180.63 85.11,69.75 180.28,238.01l-135.21 7.15c343.46,42.32 465.05,23.44 807.58,173.34 16.77,7.34 34.06,12.49 49.29,20.88l57.84 41.18 2.42 -537.13c-83.42,-45.45 -357.58,-90.52 -360.91,-92.09 -56.01,-26.36 -18.88,8.86 -44.22,-47.88z"/>
    <path class="fil7 str0" d="M12560.73 11888.07l27.93 -4.53c-14.13,-74.35 -26.81,-85.67 -75.73,-118.5 -51.59,-10.84 -48.5,-17.8 -90.33,-29.67l-306.89 -60.81c-116.95,-19.01 -338.48,-98.45 -351.59,-92.33 20.58,-20.33 10.9,-2.22 50.49,-22.76 2.14,-1.11 7.15,-3.13 9.99,-5.73 -70.01,-54.28 11.41,-244.53 -31.24,-319.33 -30.81,-54.04 -52.3,-28.39 -30.68,-133.17 15.76,-76.33 21.42,-82.34 18.14,-181.88 -92.47,-65.03 -247.46,-151.41 -323.82,-236.37 -29.81,-33.16 -9.4,-26.89 -53.74,-34.9 -77.73,241.4 -52.34,546.97 91.14,773.02 120.33,189.57 409.31,255.07 621.49,292.35 98.47,17.3 287.46,38.14 374.21,86.84 68.45,38.42 30.61,18.81 70.63,87.77z"/>
    <path class="fil7 str0" d="M11903.87 12669.39l-15.6 -34.65c-61.25,-0.71 -97.06,12.4 -139.11,-15.65 34.1,-65.05 57.54,0.05 87.75,-73.25 -18.23,-0.16 -37.25,1.93 -55.05,-2.86 -39.41,-10.61 -6.62,0.88 -35.56,-21.17 -2.31,-1.77 -5.33,-4.87 -7.52,-6.65 -2.12,-1.72 -5.36,-4.71 -7.35,-6.36l-13.64 -11.02c-26.94,-22.03 -3.48,13.74 -16.05,-13.21 55.11,-1.12 179.88,2.48 226.33,-10.1 130.84,-35.45 187,-216.06 312.81,-238.59 55.67,-9.97 62.76,1.61 99.08,-34.07 -184.61,25.51 -350.09,5.69 -528.05,-38 -115.64,-28.38 -309.84,-103.71 -391.26,-156.29l-1.54 540.89c68.4,46.42 393.87,123.67 484.76,120.98z"/>
    <path class="fil7 str0" d="M11405.75 12573.11c213.71,71.98 481.52,138.45 722.91,143.89 258.54,5.76 604.24,-1.09 821.06,-185.87 17.08,-14.56 11,-7.7 23.18,-22.83 -94.07,19.46 -129.09,128.24 -473.06,175.26 -167.9,22.95 -435.92,24.19 -595.97,-14.17 -90.89,2.69 -416.36,-74.56 -484.76,-120.98l1.54 -540.89c81.42,52.58 275.62,127.91 391.26,156.29 177.96,43.69 343.44,63.51 528.05,38 83.1,0.78 152.37,-43.87 194.94,-89.34 68.02,-72.67 59.07,-137.34 53.76,-228.93l-27.93 4.53c45.85,121.21 -33.94,229.24 -123.83,266.11 -101.68,41.71 -264.78,41.02 -380.6,28.97 -391.02,-40.68 -448.92,-145.73 -658.22,-216.52l7.67 606.48z"/>
   </g>
  </g>
  <rect class="fil8" x="6973.55" y="5853.15" width="15752.9" height="9126.22"/>
 </g>
</svg>
