<?xml version="1.0" encoding="UTF-8"?>
<!DOCTYPE svg PUBLIC "-//W3C//DTD SVG 1.1//EN" "http://www.w3.org/Graphics/SVG/1.1/DTD/svg11.dtd">
<!-- Creator: CorelDRAW 2019 (64-Bit) -->
<svg xmlns="http://www.w3.org/2000/svg" xml:space="preserve" width="297mm" height="210mm" version="1.1" style="shape-rendering:geometricPrecision; text-rendering:geometricPrecision; image-rendering:optimizeQuality; fill-rule:evenodd; clip-rule:evenodd"
viewBox="0 0 29700 21000"
 xmlns:xlink="http://www.w3.org/1999/xlink"
 xmlns:xodm="http://www.corel.com/coreldraw/odm/2003">
 <defs>
  <style type="text/css">
   <![CDATA[
    .fil7 {fill:none}
    .fil4 {fill:#3323A8}
    .fil6 {fill:#616161}
    .fil2 {fill:#B3B3B3}
    .fil0 {fill:#1C1B17;fill-rule:nonzero}
    .fil1 {fill:#02018B;fill-rule:nonzero}
    .fil5 {fill:#616161;fill-rule:nonzero}
    .fil3 {fill:#B3B3B3;fill-rule:nonzero}
   ]]>
  </style>
 </defs>
 <g id="Layer_x0020_1">
  <metadata id="CorelCorpID_0Corel-Layer"/>
  <g id="_1373654992">
   <path class="fil0" d="M13116.53 7221.93l0 129.05 -144.9 0 0 523.04 -138.75 0 0 -523.04 -145.78 0 0 -129.05 429.43 0zm477.15 124.16l-278.38 0 0 133.94 218.66 0 0 122.21 -218.66 0 0 142.73 278.38 0 0 129.05 -418.02 0 0 -652.09 418.02 0 0 124.16zm-99.23 -346.08l32.49 80 -188.52 89.13 -21.37 -53.28 177.4 -115.85zm653.21 465.03l-144.02 10.1c-2.05,-92.55 -34.1,-138.82 -96.46,-138.82 -71.56,0 -107.28,70.88 -107.28,212.8 0,81.96 9.66,137.52 29.13,166.69 19.47,29.16 46.54,43.83 81.38,43.83 56.64,0 91.18,-41.06 103.77,-123.19l133.48 9.13c-8.63,77.72 -34.68,137.03 -78.16,177.44 -43.61,40.57 -97.03,60.78 -160.11,60.78 -77.44,0 -140.37,-29.82 -188.81,-89.29 -48.45,-59.48 -72.6,-141.76 -72.6,-246.86 0,-98.25 23.42,-178.74 70.25,-241.48 46.84,-62.73 110.95,-94.01 192.04,-94.01 140.5,0 219.69,84.24 237.39,252.88zm529.11 -243.11l0 652.09 -118.84 0 -226.28 -440.43c0.29,11.08 0.58,18.42 0.88,22 1.16,11.08 1.75,20.53 1.75,28.19l0 390.24 -107.14 0 0 -652.09 148.41 0 197.6 384.54c-1.76,-19.06 -2.64,-33.56 -2.64,-43.5l0 -341.04 106.26 0zm255.11 0l0 652.09 -137 0 0 -652.09 137 0zm588.83 243.11l-144.02 10.1c-2.05,-92.55 -34.1,-138.82 -96.46,-138.82 -71.57,0 -107.28,70.88 -107.28,212.8 0,81.96 9.66,137.52 29.12,166.69 19.48,29.16 46.55,43.83 81.38,43.83 56.65,0 91.19,-41.06 103.77,-123.19l133.49 9.13c-8.64,77.72 -34.69,137.03 -78.16,177.44 -43.61,40.57 -97.03,60.78 -160.12,60.78 -77.43,0 -140.36,-29.82 -188.81,-89.29 -48.45,-59.48 -72.6,-141.76 -72.6,-246.86 0,-98.25 23.42,-178.74 70.26,-241.48 46.83,-62.73 110.94,-94.01 192.03,-94.01 140.51,0 219.69,84.24 237.4,252.88zm299.02 418.76c-78.74,0 -139.78,-32.92 -182.95,-98.75 -43.18,-65.99 -64.69,-145.66 -64.69,-239.19 0,-95.16 21.81,-174.51 65.56,-238.22 43.77,-63.71 105.97,-95.48 186.91,-95.48 81.67,0 143.3,33.89 184.86,101.84 41.57,67.94 62.35,145.83 62.35,233.33 0,94.5 -21.36,174.18 -64.25,239.03 -42.89,65.01 -105.38,97.44 -187.79,97.44zm3.95 -547.48c-71.71,0 -107.57,70.39 -107.57,211.33 0,141.27 35.86,211.99 107.57,211.99 69.38,0 104.07,-70.56 104.07,-211.5 0,-141.27 -34.69,-211.82 -104.07,-211.82zm962.2 29l-116.8 43.34c-15.81,-51.49 -49.18,-77.23 -100.11,-77.23 -54.45,0 -81.67,19.55 -81.67,58.66 0,15.64 5.12,28.84 15.22,39.59 10.25,10.76 33.08,20.21 68.94,28.52 59.72,13.68 103.48,27.37 131.28,41.06 27.81,13.52 51.23,35.52 70.41,65.99 19.02,30.31 28.54,64.2 28.54,101.67 0,58.82 -20.35,109.66 -61.19,152.52 -40.83,42.85 -101.28,64.36 -181.34,64.36 -60.16,0 -111.23,-15.16 -153.53,-45.63 -42.16,-30.47 -69.97,-75.6 -83.43,-135.56l127.34 -31.94c14.34,60.61 54,90.92 119.13,90.92 31.47,0 54.89,-6.68 70.26,-20.2 15.37,-13.53 23.13,-29.66 23.13,-48.4 0,-19.22 -7.03,-33.89 -21.08,-44.48 -13.91,-10.43 -40.98,-20.2 -80.94,-29.49 -74.64,-17.11 -127.78,-40.41 -159.54,-70.23 -31.76,-29.65 -47.56,-73.16 -47.56,-130.51 0,-57.85 18.88,-106.73 56.79,-146.49 37.9,-39.75 89.42,-59.63 154.26,-59.63 115.05,0 188.96,51 221.89,153.16zm565.99 -143.39l0 405.89c0,65.66 -6.73,114.38 -20.19,146.32 -13.33,32.1 -38.21,58.33 -74.36,78.86 -36.15,20.53 -82.26,30.8 -138.61,30.8 -56.35,0 -101.13,-9.29 -134.36,-27.7 -33.37,-18.42 -58.25,-44.65 -74.79,-78.87 -16.54,-34.05 -24.88,-83.75 -24.88,-149.41l0 -405.89 148.41 0 0 406.21c0,35.04 2.63,60.94 7.9,77.4 5.27,16.62 15.96,29.82 31.77,39.59 15.8,9.62 35.42,14.51 58.54,14.51 25.76,0 46.69,-4.73 62.79,-14.34 16.1,-9.62 26.93,-22.16 32.2,-37.97 5.27,-15.8 7.91,-42.2 7.91,-79.19l0 -406.21 117.67 0zm248.82 409.64l0 242.45 -139.64 0 0 -652.09 230.68 0c51.37,0 90.74,6.2 118.11,18.42 27.22,12.22 51.67,34.05 73.03,65.66 21.53,31.45 32.21,70.07 32.21,116.01 0,32.1 -5.71,63.39 -17.12,94.02 -11.42,30.47 -27.52,54.59 -48.46,72.02 -20.77,17.6 -40.98,29.17 -60.59,34.87 -19.46,5.7 -50.2,8.64 -91.92,8.64l-96.3 0zm-4.39 -118.3l88.99 0c33.95,0 57.66,-8.8 71.42,-26.23 13.61,-17.6 20.49,-37.64 20.49,-60.29 0,-26.4 -7.61,-47.42 -22.83,-63.06 -15.37,-15.64 -38.49,-23.46 -69.52,-23.46l-88.55 0 0 173.04zm812.76 -167.18l-278.38 0 0 133.94 218.67 0 0 122.21 -218.67 0 0 142.73 278.38 0 0 129.05 -418.02 0 0 -652.09 418.02 0 0 124.16zm220.28 270.81l0 257.12 -137.88 0 0 -652.09 257.45 0c47.43,0 85.63,6.2 114.32,18.42 28.83,12.38 52.69,34.87 71.57,67.78 18.88,32.91 28.24,69.57 28.24,109.82 0,78.54 -33.95,134.92 -101.86,169.13l108.02 286.94 -151.2 0 -90.16 -257.12 -98.5 0zm0 -277.65l0 166.2 84.3 0c27.52,0 47.57,-2.12 60.01,-6.52 12.59,-4.23 23.56,-13.85 33.37,-28.51 9.81,-14.83 14.64,-31.78 14.64,-51 0,-18.09 -4.83,-34.38 -14.64,-48.72 -9.81,-14.18 -20.34,-23.14 -31.76,-26.4 -11.56,-3.42 -33.07,-5.05 -64.54,-5.05l-81.38 0zm576.23 -117.32l0 652.09 -137 0 0 -652.09 137 0zm336.79 661.87c-78.74,0 -139.78,-32.92 -182.95,-98.75 -43.18,-65.99 -64.7,-145.66 -64.7,-239.19 0,-95.16 21.81,-174.51 65.57,-238.22 43.76,-63.71 105.97,-95.48 186.91,-95.48 81.67,0 143.29,33.89 184.86,101.84 41.57,67.94 62.35,145.83 62.35,233.33 0,94.5 -21.37,174.18 -64.26,239.03 -42.88,65.01 -105.37,97.44 -187.78,97.44zm3.95 -547.48c-71.72,0 -107.58,70.39 -107.58,211.33 0,141.27 35.86,211.99 107.58,211.99 69.37,0 104.07,-70.56 104.07,-211.5 0,-141.27 -34.7,-211.82 -104.07,-211.82zm475.68 280.58l0 257.12 -137.88 0 0 -652.09 257.46 0c47.43,0 85.62,6.2 114.31,18.42 28.84,12.38 52.7,34.87 71.58,67.78 18.88,32.91 28.24,69.57 28.24,109.82 0,78.54 -33.96,134.92 -101.87,169.13l108.02 286.94 -151.2 0 -90.15 -257.12 -98.51 0zm0 -277.65l0 166.2 84.3 0c27.53,0 47.58,-2.12 60.02,-6.52 12.58,-4.23 23.56,-13.85 33.37,-28.51 9.81,-14.83 14.63,-31.78 14.63,-51 0,-18.09 -4.82,-34.38 -14.63,-48.72 -9.81,-14.18 -20.35,-23.14 -31.77,-26.4 -11.56,-3.42 -33.07,-5.05 -64.54,-5.05l-81.38 0zm1076.8 6.84l-278.38 0 0 133.94 218.67 0 0 122.21 -218.67 0 0 142.73 278.38 0 0 129.05 -418.02 0 0 -652.09 418.02 0 0 124.16zm532.03 -124.16l0 652.09 -118.84 0 -226.28 -440.43c0.29,11.08 0.58,18.42 0.88,22 1.17,11.08 1.75,20.53 1.75,28.19l0 390.24 -107.14 0 0 -652.09 148.41 0 197.6 384.54c-1.75,-19.06 -2.63,-33.56 -2.63,-43.5l0 -341.04 106.25 0z"/>
   <path class="fil1" d="M17192.76 8564.12l263.82 848.06 -213.39 0 -52.34 -175.46 -273.36 0 -53.61 175.46 -173.98 0 271.45 -848.06 231.41 0zm-227.8 516.21l179.27 0 -88.79 -297.09 -90.48 297.09zm1233.94 -516.21l0 848.06 -172.07 0 -327.61 -572.79c0.42,14.41 0.85,23.95 1.27,28.61 1.7,14.41 2.54,26.7 2.54,36.66l0 507.52 -155.11 0 0 -848.06 214.87 0 286.08 500.11c-2.54,-24.8 -3.82,-43.66 -3.82,-56.58l0 -443.53 153.85 0zm588.68 0l263.82 848.06 -213.39 0 -52.34 -175.46 -273.36 0 -53.61 175.46 -173.98 0 271.45 -848.06 231.41 0zm-227.8 516.21l179.27 0 -88.79 -297.09 -90.48 297.09zm266.58 -807.37l47.04 104.05 -272.94 115.91 -30.94 -69.29 256.84 -150.67zm517.27 971.39l336.93 0 0 167.83 -537.82 0 0 -848.06 200.89 0 0 680.23zm637.63 -680.23l0 848.06 -198.34 0 0 -848.06 198.34 0zm755.88 186.48l-169.11 56.37c-22.88,-66.96 -71.2,-100.44 -144.94,-100.44 -78.83,0 -118.25,25.42 -118.25,76.28 0,20.35 7.42,37.51 22.04,51.5 14.83,13.98 47.89,26.27 99.81,37.08 86.46,17.8 149.82,35.6 190.08,53.4 40.26,17.59 74.17,46.2 101.93,85.82 27.55,39.42 41.32,83.5 41.32,132.23 0,76.5 -29.45,142.62 -88.58,198.35 -59.12,55.73 -146.64,83.7 -262.55,83.7 -87.09,0 -161.05,-19.7 -222.29,-59.33 -61.03,-39.63 -101.29,-98.33 -120.79,-176.31l184.36 -41.53c20.77,78.83 78.19,118.24 172.49,118.24 45.56,0 79.47,-8.68 101.72,-26.27 22.25,-17.59 33.48,-38.57 33.48,-62.94 0,-25.01 -10.17,-44.08 -30.51,-57.85 -20.13,-13.56 -59.34,-26.28 -117.19,-38.36 -108.07,-22.25 -184.99,-52.55 -230.98,-91.33 -45.98,-38.57 -68.87,-95.15 -68.87,-169.74 0,-75.23 27.34,-138.8 82.22,-190.5 54.89,-51.71 129.48,-77.56 223.35,-77.56 166.56,0 273.58,66.33 321.26,199.19zm350.28 -186.48l0 848.06 -198.34 0 0 -848.06 198.34 0zm755.88 186.48l-169.11 56.37c-22.88,-66.96 -71.2,-100.44 -144.94,-100.44 -78.83,0 -118.25,25.42 -118.25,76.28 0,20.35 7.42,37.51 22.04,51.5 14.83,13.98 47.89,26.27 99.81,37.08 86.46,17.8 149.82,35.6 190.08,53.4 40.26,17.59 74.17,46.2 101.93,85.82 27.55,39.42 41.32,83.5 41.32,132.23 0,76.5 -29.45,142.62 -88.58,198.35 -59.12,55.73 -146.64,83.7 -262.55,83.7 -87.09,0 -161.05,-19.7 -222.29,-59.33 -61.03,-39.63 -101.29,-98.33 -120.79,-176.31l184.36 -41.53c20.77,78.83 78.19,118.24 172.49,118.24 45.56,0 79.47,-8.68 101.72,-26.27 22.25,-17.59 33.48,-38.57 33.48,-62.94 0,-25.01 -10.17,-44.08 -30.51,-57.85 -20.13,-13.56 -59.34,-26.28 -117.19,-38.36 -108.07,-22.25 -184.99,-52.55 -230.98,-91.33 -45.98,-38.57 -68.87,-95.15 -68.87,-169.74 0,-75.23 27.34,-138.8 82.22,-190.5 54.89,-51.71 129.48,-77.56 223.35,-77.56 166.56,0 273.58,66.33 321.26,199.19z"/>
   <path class="fil1" d="M16032.14 10173.57l-396.69 0 0 189.45 314.05 0 0 158.93 -314.05 0 0 331.85 -205.97 0 0 -848.06 602.66 0 0 167.83zm769.45 -167.83l0 527.87c0,85.4 -9.75,148.76 -29.24,190.29 -19.29,41.75 -55.31,75.86 -107.65,102.56 -52.35,26.7 -119.1,40.05 -200.68,40.05 -81.59,0 -146.43,-12.07 -194.53,-36.02 -48.32,-23.95 -84.34,-58.06 -108.29,-102.56 -23.94,-44.29 -36.02,-108.92 -36.02,-194.32l0 -527.87 214.87 0 0 528.29c0,45.56 3.82,79.25 11.45,100.66 7.62,21.61 23.09,38.78 45.98,51.49 22.89,12.5 51.28,18.86 84.76,18.86 37.3,0 67.6,-6.14 90.91,-18.65 23.31,-12.5 38.99,-28.82 46.62,-49.37 7.63,-20.56 11.44,-54.89 11.44,-102.99l0 -528.29 170.38 0zm809.06 0l0 848.06 -172.07 0 -327.61 -572.79c0.42,14.41 0.85,23.95 1.27,28.61 1.7,14.41 2.54,26.7 2.54,36.66l0 507.52 -155.11 0 0 -848.06 214.87 0 286.08 500.11c-2.54,-24.8 -3.82,-43.66 -3.82,-56.58l0 -443.53 153.85 0zm853.78 316.17l-208.52 13.14c-2.97,-120.37 -49.38,-180.55 -139.65,-180.55 -103.62,0 -155.33,92.18 -155.33,276.75 0,106.59 13.99,178.86 42.17,216.79 28.19,37.93 67.39,57 117.82,57 82.01,0 132.02,-53.4 150.25,-160.2l193.26 11.86c-12.51,101.08 -50.23,178.22 -113.16,230.77 -63.15,52.77 -140.5,79.04 -231.83,79.04 -112.1,0 -203.22,-38.77 -273.36,-116.12 -70.14,-77.35 -105.11,-184.36 -105.11,-321.04 0,-127.78 33.91,-232.47 101.72,-314.05 67.81,-81.59 160.62,-122.27 278.02,-122.27 203.43,0 318.07,109.55 343.72,328.88zm313.4 -316.17l0 848.06 -198.34 0 0 -848.06 198.34 0zm487.6 860.77c-114.01,0 -202.37,-42.8 -264.89,-128.41 -62.51,-85.82 -93.66,-189.45 -93.66,-311.08 0,-123.76 31.58,-226.96 94.94,-309.81 63.36,-82.86 153.42,-124.18 270.6,-124.18 118.25,0 207.46,44.08 267.64,132.44 60.18,88.37 90.28,189.66 90.28,303.45 0,122.91 -30.94,226.53 -93.03,310.87 -62.09,84.55 -152.58,126.72 -271.88,126.72zm5.72 -712.01c-103.83,0 -155.75,91.55 -155.75,274.85 0,183.72 51.92,275.69 155.75,275.69 100.45,0 150.67,-91.76 150.67,-275.06 0,-183.72 -50.22,-275.48 -150.67,-275.48zm1140.07 -148.76l0 848.06 -172.07 0 -327.61 -572.79c0.42,14.41 0.85,23.95 1.27,28.61 1.7,14.41 2.54,26.7 2.54,36.66l0 507.52 -155.11 0 0 -848.06 214.87 0 286.08 500.11c-2.54,-24.8 -3.82,-43.66 -3.82,-56.58l0 -443.53 153.85 0zm588.68 0l263.82 848.06 -213.39 0 -52.34 -175.46 -273.36 0 -53.61 175.46 -173.98 0 271.45 -848.06 231.41 0zm-227.8 516.21l179.27 0 -88.79 -297.09 -90.48 297.09zm783.85 164.02l336.93 0 0 167.83 -537.82 0 0 -848.06 200.89 0 0 680.23z"/>
   <path class="fil1" d="M15137.61 11447.36l0 848.06 -167.83 0 0 -98.33c-41.75,73.96 -98.73,111.04 -170.75,111.04 -68.47,0 -122.53,-28.18 -161.98,-84.55 -39.45,-56.58 -59.28,-134.77 -59.28,-234.79 0,-104.05 19.83,-185.63 59.28,-244.54 39.45,-58.91 96.64,-88.37 171.58,-88.37 65.96,0 116.69,26.49 152.38,79.25l0 -287.77 176.6 0zm-176.6 484.21c0,-98.11 -29.64,-147.27 -89.12,-147.27 -70.77,0 -106.25,69.29 -106.25,207.88 0,123.33 33.18,185 99.57,185 25.46,0 47.79,-11.24 67,-33.49 19.2,-22.25 28.8,-54.03 28.8,-95.14l0 -116.98zm881.11 80.32l-397.66 0c-0.41,11.23 -0.62,20.98 -0.62,29.24 0,44.92 11.69,78.83 35.27,101.72 23.38,22.88 51.56,34.33 84.33,34.33 60.75,0 97.28,-33.06 109.59,-99.18l165.33 12.5c-46.14,145.16 -139.65,217.63 -280.76,217.63 -61.57,0 -113.97,-12.5 -156.98,-37.5 -42.99,-25.01 -78.48,-61.46 -106.45,-109.35 -27.98,-48.1 -41.95,-105.53 -41.95,-172.49 0,-99.6 27.96,-179.91 84.12,-241.15 55.94,-61.24 127.96,-91.76 216.04,-91.76 79.53,0 147.58,28.4 204.36,84.98 56.99,56.58 85.38,147.06 85.38,271.03zm-398.28 -106.81l219.17 0c-5.63,-85.61 -40.49,-128.41 -104.36,-128.41 -68.47,0 -106.68,42.8 -114.81,128.41zm1412.34 -271.24l-166.58 56.37c-22.54,-66.96 -70.14,-100.44 -142.78,-100.44 -77.65,0 -116.48,25.42 -116.48,76.28 0,20.35 7.31,37.51 21.71,51.5 14.61,13.98 47.18,26.27 98.32,37.08 85.17,17.8 147.58,35.6 187.24,53.4 39.66,17.59 73.06,46.2 100.41,85.82 27.14,39.42 40.7,83.5 40.7,132.23 0,76.5 -29.01,142.62 -87.26,198.35 -58.23,55.73 -144.45,83.7 -258.62,83.7 -85.79,0 -158.65,-19.7 -218.97,-59.33 -60.12,-39.63 -99.78,-98.33 -118.99,-176.31l181.61 -41.53c20.46,78.83 77.02,118.24 169.91,118.24 44.88,0 78.28,-8.68 100.2,-26.27 21.92,-17.59 32.98,-38.57 32.98,-62.94 0,-25.01 -10.02,-44.08 -30.05,-57.85 -19.83,-13.56 -58.46,-26.28 -115.44,-38.36 -106.46,-22.25 -182.23,-52.55 -227.53,-91.33 -45.29,-38.57 -67.84,-95.15 -67.84,-169.74 0,-75.23 26.93,-138.8 80.99,-190.5 54.07,-51.71 127.55,-77.56 220.01,-77.56 164.07,0 269.49,66.33 316.46,199.19zm345.05 -186.48l0 848.06 -195.38 0 0 -848.06 195.38 0zm744.58 186.48l-166.58 56.37c-22.54,-66.96 -70.14,-100.44 -142.78,-100.44 -77.65,0 -116.48,25.42 -116.48,76.28 0,20.35 7.31,37.51 21.71,51.5 14.61,13.98 47.18,26.27 98.32,37.08 85.17,17.8 147.58,35.6 187.24,53.4 39.66,17.59 73.06,46.2 100.41,85.82 27.13,39.42 40.7,83.5 40.7,132.23 0,76.5 -29.01,142.62 -87.26,198.35 -58.23,55.73 -144.45,83.7 -258.62,83.7 -85.79,0 -158.65,-19.7 -218.97,-59.33 -60.12,-39.63 -99.78,-98.33 -118.99,-176.31l181.61 -41.53c20.46,78.83 77.02,118.24 169.91,118.24 44.88,0 78.28,-8.68 100.2,-26.27 21.92,-17.59 32.98,-38.57 32.98,-62.94 0,-25.01 -10.02,-44.08 -30.05,-57.85 -19.83,-13.56 -58.46,-26.28 -115.44,-38.36 -106.46,-22.25 -182.23,-52.55 -227.53,-91.33 -45.29,-38.57 -67.84,-95.15 -67.84,-169.74 0,-75.23 26.93,-138.8 80.99,-190.5 54.07,-51.71 127.54,-77.56 220.01,-77.56 164.07,0 269.49,66.33 316.46,199.19zm684.26 -186.48l0 167.83 -206.65 0 0 680.23 -197.89 0 0 -680.23 -207.91 0 0 -167.83 612.45 0zm680.5 161.48l-397.03 0 0 174.19 311.86 0 0 158.93 -311.86 0 0 185.63 397.03 0 0 167.83 -596.17 0 0 -848.06 596.17 0 0 161.48zm485.11 686.58l-203.53 -691.67 0 691.67 -164.07 0 0 -848.06 304.76 0 145.49 507.52 153.85 -507.52 305.18 0 0 848.06 -196.64 0 0 -691.67 -209.57 691.67 -135.47 0zm1120.73 -848.06l259.88 848.06 -210.2 0 -51.56 -175.46 -269.27 0 -52.81 175.46 -171.38 0 267.39 -848.06 227.95 0zm-224.39 516.21l176.59 0 -87.46 -297.09 -89.13 297.09zm1151.63 -329.73l-166.59 56.37c-22.53,-66.96 -70.13,-100.44 -142.77,-100.44 -77.65,0 -116.48,25.42 -116.48,76.28 0,20.35 7.31,37.51 21.71,51.5 14.61,13.98 47.17,26.27 98.32,37.08 85.16,17.8 147.58,35.6 187.24,53.4 39.65,17.59 73.06,46.2 100.4,85.82 27.14,39.42 40.7,83.5 40.7,132.23 0,76.5 -29.01,142.62 -87.25,198.35 -58.24,55.73 -144.45,83.7 -258.63,83.7 -85.79,0 -158.64,-19.7 -218.97,-59.33 -60.11,-39.63 -99.77,-98.33 -118.98,-176.31l181.6 -41.53c20.46,78.83 77.03,118.24 169.92,118.24 44.88,0 78.28,-8.68 100.2,-26.27 21.91,-17.59 32.98,-38.57 32.98,-62.94 0,-25.01 -10.02,-44.08 -30.06,-57.85 -19.83,-13.56 -58.45,-26.28 -115.44,-38.36 -106.45,-22.25 -182.22,-52.55 -227.53,-91.33 -45.29,-38.57 -67.84,-95.15 -67.84,-169.74 0,-75.23 26.94,-138.8 81,-190.5 54.07,-51.71 127.54,-77.56 220.01,-77.56 164.07,0 269.49,66.33 316.46,199.19z"/>
   <path class="fil1" d="M13582.7 12888.98l0 848.06 -195.37 0 0 -848.06 195.37 0zm808.46 0l0 848.06 -169.5 0 -322.71 -572.79c0.41,14.41 0.83,23.95 1.25,28.61 1.67,14.41 2.5,26.7 2.5,36.66l0 507.52 -152.79 0 0 -848.06 211.66 0 281.8 500.11c-2.5,-24.8 -3.76,-43.66 -3.76,-56.58l0 -443.53 151.55 0zm762.11 167.83l-390.77 0 0 189.45 309.36 0 0 158.93 -309.36 0 0 331.85 -202.89 0 0 -848.06 593.66 0 0 167.83zm402.46 692.94c-112.31,0 -199.34,-42.8 -260.93,-128.41 -61.58,-85.82 -92.26,-189.45 -92.26,-311.08 0,-123.76 31.11,-226.96 93.52,-309.81 62.41,-82.86 151.13,-124.18 266.56,-124.18 116.48,0 204.36,44.08 263.64,132.44 59.28,88.37 88.93,189.66 88.93,303.45 0,122.91 -30.48,226.53 -91.64,310.87 -61.16,84.55 -150.3,126.72 -267.82,126.72zm5.64 -712.01c-102.28,0 -153.43,91.55 -153.43,274.85 0,183.72 51.15,275.69 153.43,275.69 98.94,0 148.41,-91.76 148.41,-275.06 0,-183.72 -49.47,-275.48 -148.41,-275.48zm678.4 364.91l0 334.39 -196.62 0 0 -848.06 367.17 0c67.63,0 122.11,8.06 163.02,23.95 41.13,16.1 75.15,45.35 102.08,88.15 26.93,42.81 40.29,90.49 40.29,142.83 0,102.14 -48.43,175.46 -145.28,219.96l154.05 373.17 -215.64 0 -128.58 -334.39 -140.49 0zm0 -361.09l0 216.14 120.24 0c39.24,0 67.84,-2.75 85.59,-8.47 17.95,-5.51 33.6,-18.02 47.59,-37.09 13.99,-19.28 20.87,-41.32 20.87,-66.32 0,-23.53 -6.88,-44.72 -20.87,-63.36 -13.99,-18.44 -29.01,-30.1 -45.29,-34.33 -16.49,-4.45 -47.18,-6.57 -92.06,-6.57l-116.07 0zm994.03 695.48l-203.52 -691.67 0 691.67 -164.07 0 0 -848.06 304.76 0 145.49 507.52 153.84 -507.52 305.18 0 0 848.06 -196.63 0 0 -691.67 -209.57 691.67 -135.48 0zm1120.74 -848.06l259.88 848.06 -210.2 0 -51.56 -175.46 -269.28 0 -52.81 175.46 -171.38 0 267.4 -848.06 227.95 0zm-224.4 516.21l176.6 0 -87.47 -297.09 -89.13 297.09zm262.6 -807.37l46.34 104.05 -268.86 115.91 -30.48 -69.29 253 -150.67zm840.18 291.16l0 167.83 -206.65 0 0 680.23 -197.89 0 0 -680.23 -207.9 0 0 -167.83 612.44 0zm279.71 0l0 848.06 -195.38 0 0 -848.06 195.38 0zm839.77 316.17l-205.4 13.14c-2.93,-120.37 -48.65,-180.55 -137.57,-180.55 -102.07,0 -153.01,92.18 -153.01,276.75 0,106.59 13.79,178.86 41.54,216.79 27.77,37.93 66.39,57 116.06,57 80.79,0 130.05,-53.4 148.01,-160.2l190.37 11.86c-12.32,101.08 -49.48,178.22 -111.47,230.77 -62.2,52.77 -138.4,79.04 -228.36,79.04 -110.43,0 -200.19,-38.77 -269.28,-116.12 -69.09,-77.35 -103.54,-184.36 -103.54,-321.04 0,-127.78 33.41,-232.47 100.2,-314.05 66.8,-81.59 158.22,-122.27 273.87,-122.27 200.39,0 313.31,109.55 338.58,328.88zm426.45 544.6c-112.31,0 -199.35,-42.8 -260.93,-128.41 -61.58,-85.82 -92.26,-189.45 -92.26,-311.08 0,-123.76 31.11,-226.96 93.52,-309.81 62.41,-82.86 151.13,-124.18 266.56,-124.18 116.48,0 204.36,44.08 263.64,132.44 59.28,88.37 88.93,189.66 88.93,303.45 0,122.91 -30.48,226.53 -91.64,310.87 -61.16,84.55 -150.3,126.72 -267.82,126.72zm5.64 -712.01c-102.28,0 -153.43,91.55 -153.43,274.85 0,183.72 51.15,275.69 153.43,275.69 98.94,0 148.41,-91.76 148.41,-275.06 0,-183.72 -49.47,-275.48 -148.41,-275.48zm1059.16 37.72l-166.59 56.37c-22.53,-66.96 -70.13,-100.44 -142.77,-100.44 -77.65,0 -116.48,25.42 -116.48,76.28 0,20.35 7.31,37.51 21.71,51.5 14.61,13.98 47.17,26.27 98.32,37.08 85.16,17.8 147.58,35.6 187.24,53.4 39.65,17.59 73.06,46.2 100.4,85.82 27.14,39.42 40.7,83.5 40.7,132.23 0,76.5 -29.01,142.62 -87.25,198.35 -58.24,55.73 -144.45,83.7 -258.63,83.7 -85.79,0 -158.64,-19.7 -218.97,-59.33 -60.11,-39.63 -99.77,-98.33 -118.98,-176.31l181.6 -41.53c20.46,78.83 77.03,118.24 169.92,118.24 44.88,0 78.28,-8.68 100.2,-26.27 21.91,-17.59 32.98,-38.57 32.98,-62.94 0,-25.01 -10.02,-44.08 -30.06,-57.85 -19.83,-13.56 -58.45,-26.28 -115.44,-38.36 -106.45,-22.25 -182.22,-52.55 -227.53,-91.33 -45.29,-38.57 -67.84,-95.15 -67.84,-169.74 0,-75.23 26.94,-138.8 81,-190.5 54.07,-51.71 127.54,-77.56 220.01,-77.56 164.07,0 269.49,66.33 316.46,199.19z"/>
   <path class="fil2" d="M10642.6 11152.3c-67.99,-41.28 -188.17,-274.87 -237.73,-357.21 -156.42,-259.92 -247.51,-528 -247.51,-865.22 0,-728.1 599.31,-1340.42 1322.55,-1340.42 401.12,0 590.36,201 915.25,300.28 43,14.05 80.03,20.44 113.47,20.44 81.22,0 149.83,-212.94 178.5,-340.68 26.28,0 52.56,0 78.83,0 4.89,546.3 9.78,1092.6 14.67,1638.9 -75.3,4.91 -106.63,-56.15 -118.13,-146.93 -63.3,-237.59 -143.21,-397.86 -189.26,-524.5 -281.9,-775.25 -1573.9,-1029.4 -1665.3,-83.99 0,417.7 269.66,727.14 688.75,944.19 164.44,85.15 328.87,170.31 493.3,255.47 261.59,135.47 434.07,347.58 595.34,499.67 67.99,41.27 188.17,274.87 237.73,357.21 156.42,259.92 247.51,527.99 247.51,865.22 0,728.1 -640.32,1541.17 -1568.58,1449.76 -401.11,0 -498.1,-173.66 -822.99,-272.94 -43,-14.05 -80.03,-20.44 -113.47,-20.44 -233.79,-6.83 -378.89,468.88 -391.23,238.23 -4.89,-546.3 -9.14,-1126.83 -14.03,-1673.13 61.26,-179.6 339.14,576.79 372.31,668.01 273.78,921.48 1734.64,1218.08 1836.15,90.82 0,-417.69 -218.4,-730.56 -637.5,-947.6 -164.43,-85.15 -301.52,-214.73 -465.95,-299.89 -261.6,-135.47 -423.82,-303.17 -622.68,-455.25z"/>
   <path class="fil3" d="M9215.76 7357.84c-115.11,0 -66.78,-1.71 -196.33,-0.34 -283.23,3.01 -420.5,4.93 -559,81.4 -138.51,76.46 -228.12,172.98 -317.67,359.44 -82.63,172.04 -163.08,312.62 -207.06,605.94l-128.57 -4.29 49 -1313.86 1853.74 0 1853.75 0 49 1313.86 -128.58 4.29c-43.98,-293.32 -124.42,-433.9 -207.05,-605.94 -89.56,-186.46 -179.16,-282.98 -317.67,-359.44 -138.51,-76.47 -275.78,-78.39 -559,-81.4 -129.55,-1.37 -81.22,0.34 -196.33,0.34l0 3573.92c0,253.21 0.5,466.21 -2.36,587.05 -3.07,129.86 31.03,326.64 163.69,391.01 64.56,31.34 119.92,58.23 225.67,65.75l6.83 127.15 -887.95 0 -887.95 0 6.84 -127.15c105.75,-7.52 161.1,-34.41 225.66,-65.75 132.67,-64.37 166.77,-261.15 163.69,-391.01 -2.86,-120.84 -2.35,-333.84 -2.35,-587.05l0 -3573.92z"/>
   <path class="fil4" d="M9249.54 10545.24c203.63,-35.47 431.01,-60.71 630.24,-9.01 194.38,50.43 280.38,162.51 270.42,399.29 -192.02,7.11 -760.06,-16.48 -894.46,56.26l-26.09 0.61c-202.38,61.47 -366.23,145.93 -445.52,285.73 -87.1,37.88 -153.11,344.68 -159.38,478.2 -9.72,206.74 18.34,370.81 101.39,535.72 172.1,341.72 606.19,480.21 877.39,380.37 203.59,-32.69 321,-132.76 443.65,-266.95 32.32,-35.36 63.84,-91.64 103.73,-129.93l-3.65 342.61 2.99 2.67 727.99 0.03 0.19 -1007.38c-2.19,-176.05 5.61,-350.86 2.91,-526.63 -1.29,-84.38 -6.35,-166.99 -16.26,-248.01 -8.69,-71.05 -31.65,-154.04 -36.73,-215.38 -103.27,-291.9 -164,-404.08 -386.84,-541.65 -360.72,-165.05 -793.32,-191.44 -1221.41,-100.3l-163.29 25.33 -215.05 60.47c-22.62,26.88 -7.77,-2.95 -18.94,35.98 -4.82,16.83 -5.05,22.2 -6.26,39.8l0.8 581.3c151.45,-62.24 227.09,-121.18 415.75,-173.73l16.43 -5.4zm516.43 905.1l378.43 3.4c29.66,150.17 -13.6,324.37 -81.57,433.92 -69.26,111.64 -137.14,187.6 -301.67,227.21 -138.24,36.01 -291.85,-33.61 -342.18,-105.74 -63.02,-90.32 -90.56,-255.07 -32.84,-373.21 62.1,-127.1 210.96,-172.42 379.83,-185.58z"/>
   <path class="fil4" d="M11607.42 10000.84l-337.48 -0.94 -5.6 613.81 353.09 2.53 3.47 2003.42 721.05 -4.83 3.85 -1653.69 -5.2 -343.41 607.76 -0.08 5.4 -623.44 -157.25 -7.07 -148.67 2.57 -301.16 3.44 3.09 -252.92 5.86 -39.27 31.69 -87.19 19.62 -12.36c2.74,-1.55 15.28,-9.2 19.06,-11.04 30.18,-14.68 14.78,-11.08 50.48,-16.4 50.94,-41.35 179.42,-24.36 243.25,-25.16 87.78,-1.12 203.31,0.41 288.18,-8.24l-3.96 -559.09 -218.78 -0.87c-272.2,1.68 -512.26,-20.96 -749.7,71.29 -137.61,38.16 -267.21,165.31 -313.41,285.36 -45.78,33.2 -77.71,190.17 -85.9,261.38l-10.3 86.13c-0.2,64.83 10.92,278.49 -18.44,316.07z"/>
   <path class="fil5" d="M8196.27 9061.81c24.04,0 45.27,-2.93 64.04,-8.66 18.59,-5.6 34.38,-13.75 47.19,-24.19 12.98,-10.43 22.8,-23.16 29.65,-38.06 6.84,-14.89 10.17,-31.57 10.17,-49.9l0 -295.46 134.72 0 0 295.46c0,29.79 -6.65,57.29 -19.81,82.36 -13.16,25.08 -32.11,46.85 -56.85,65.05 -24.56,18.33 -54.56,32.59 -89.81,42.78 -35.26,10.18 -75.09,15.27 -119.3,15.27 -44.19,0 -84.02,-5.09 -119.46,-15.27 -35.43,-10.19 -65.61,-24.45 -90.17,-42.78 -24.74,-18.2 -43.67,-39.97 -56.83,-65.05 -13.16,-25.07 -19.83,-52.57 -19.83,-82.36l0 -295.46 135.25 0 0 295.46c0,18.33 3.34,35.01 10.17,49.9 6.85,14.9 16.68,27.63 29.66,38.06 12.8,10.44 28.6,18.59 47.19,24.19 18.77,5.73 39.99,8.66 64.02,8.66z"/>
   <path class="fil5" d="M8054.66 9678.3l0 182.44 -153.14 0 0 -474.19 232.19 0c51.31,0 95.49,3.41 132.33,10.24 36.66,6.82 66.77,16.21 90.14,28.39 23.38,12.07 40.63,26.69 51.33,43.51 10.89,16.94 16.24,35.46 16.24,55.69 0,15.48 -3.37,30.23 -10.31,44.12 -6.93,13.89 -17.23,26.69 -30.5,38.27 -13.47,11.45 -29.71,21.69 -49.14,30.59 -19.22,9.01 -41.6,16.2 -66.77,21.69 9.72,3.29 18.83,7.31 27.35,11.94 8.52,4.63 16.45,10.24 23.78,16.94l172.35 172.81 -137.5 0c-24.36,0 -43.17,-6.34 -56.26,-18.89l-140.46 -147.83c-5.75,-5.72 -12.29,-9.75 -19.41,-12.18 -7.13,-2.32 -17.44,-3.54 -30.51,-3.54l-51.71 0zm0 -66.78l77.85 0c24.78,0 46.17,-2.07 64,-6.09 18.03,-4.03 32.89,-9.63 44.58,-16.7 11.49,-7.19 20.2,-15.72 25.75,-25.59 5.54,-9.87 8.32,-20.6 8.32,-32.3 0,-23.03 -11.49,-40.82 -34.67,-53.38 -23.19,-12.55 -58.84,-18.76 -106.78,-18.76l-79.05 0 0 152.82z"/>
   <path class="fil5" d="M8498.97 10388.57c0,42.01 -10.35,80.07 -31.04,114.32 -20.7,34.11 -49.82,62.63 -87.2,85.54l175.25 143.98 -110.86 0c-16.14,0 -30.53,-1.53 -42.98,-4.46 -12.46,-3.05 -24.2,-8.91 -35.26,-17.57l-94.56 -79.43c-32.8,7.25 -67.54,10.82 -104.2,10.82 -49.83,0 -94.91,-6.37 -135.78,-18.97 -40.71,-12.73 -75.79,-30.42 -104.91,-52.95 -29.12,-22.66 -51.57,-49.52 -67.54,-80.46 -15.96,-30.93 -23.86,-64.54 -23.86,-100.82 0,-36.02 7.9,-69.63 23.86,-100.56 15.97,-30.94 38.42,-57.67 67.54,-80.2 29.12,-22.41 64.2,-40.1 104.91,-52.96 40.87,-12.73 85.95,-19.22 135.78,-19.22 49.64,0 94.9,6.49 135.61,19.22 40.69,12.86 75.6,30.55 104.55,53.21 28.94,22.54 51.4,49.27 67.02,80.2 15.78,30.81 23.67,64.29 23.67,100.31zm-137.71 0c0,-26.35 -4.38,-50.03 -13.32,-70.9 -8.95,-20.88 -21.76,-38.7 -38.25,-53.34 -16.67,-14.64 -36.85,-25.84 -60.7,-33.73 -23.86,-7.77 -50.88,-11.72 -80.87,-11.72 -30.18,0 -57.37,3.95 -81.22,11.72 -24.03,7.89 -44.39,19.09 -61.05,33.73 -16.5,14.64 -29.3,32.46 -38.24,53.34 -8.96,20.87 -13.34,44.55 -13.34,70.9 0,26.61 4.38,50.41 13.34,71.42 8.94,21 21.74,38.7 38.24,53.34 16.66,14.51 37.02,25.58 61.05,33.35 23.85,7.64 51.04,11.58 81.22,11.58 29.99,0 57.01,-3.94 80.87,-11.58 23.85,-7.77 44.03,-18.84 60.7,-33.35 16.49,-14.64 29.3,-32.34 38.25,-53.34 8.94,-21.01 13.32,-44.81 13.32,-71.42z"/>
   <path class="fil5" d="M8496.34 12406.5l0 34.4c0,10.14 -5.36,19.44 -16.35,27.89l-375.65 333.57 381.48 0 0 73.89 -590.15 0 0 -36.1c0,-9.41 4.94,-17.87 15.02,-25.47l375.65 -334.18 -361.75 0 0 -74 571.75 0z"/>
   <path class="fil5" d="M8551.19 13648.41l-116.14 0c-13.33,0 -24.13,-1.99 -32.17,-5.96 -8.03,-4.1 -13.92,-9.07 -17.86,-15.16l-48.25 -95.04 -281.12 0 -47.67 94.67c-2.94,5.34 -8.83,10.31 -17.46,14.78 -8.62,4.47 -19.22,6.71 -31.98,6.71l-117.7 0 278.18 -483.4 153.99 0 278.18 483.4zm-461.6 -183.12l212.66 0 -77.5 -152.82c-4.7,-7.57 -9.41,-16.27 -14.32,-26.46 -5.1,-10.06 -10,-20.99 -15.1,-32.92 -4.51,11.93 -9.42,22.98 -14.32,33.17 -4.91,10.19 -9.61,19.01 -13.73,26.59l-77.69 152.44z"/>
   <path class="fil5" d="M8196.27 11317.03c24.04,0 45.27,-2.93 64.04,-8.66 18.59,-5.6 34.38,-13.75 47.19,-24.19 12.98,-10.43 22.8,-23.16 29.65,-38.06 6.84,-14.89 10.17,-31.57 10.17,-49.9l0 -295.46 134.72 0 0 295.46c0,29.79 -6.65,57.29 -19.81,82.36 -13.16,25.08 -32.11,46.85 -56.85,65.05 -24.56,18.33 -54.56,32.59 -89.81,42.78 -35.26,10.18 -75.09,15.27 -119.3,15.27 -44.19,0 -84.02,-5.09 -119.46,-15.27 -35.43,-10.19 -65.61,-24.45 -90.17,-42.78 -24.74,-18.2 -43.67,-39.97 -56.83,-65.05 -13.16,-25.07 -19.83,-52.57 -19.83,-82.36l0 -295.46 135.25 0 0 295.46c0,18.33 3.34,35.01 10.17,49.9 6.85,14.9 16.68,27.63 29.66,38.06 12.8,10.44 28.6,18.59 47.19,24.19 18.77,5.73 39.99,8.66 64.02,8.66z"/>
   <polygon class="fil6" points="8106.33,11646.13 8285.72,11646.13 8285.72,12126.22 8106.33,12126.22 "/>
  </g>
  <rect class="fil7" x="6973.55" y="5853.15" width="15752.9" height="9126.22"/>
 </g>
</svg>
