<?xml version="1.0" encoding="UTF-8"?>
<!DOCTYPE svg PUBLIC "-//W3C//DTD SVG 1.1//EN" "http://www.w3.org/Graphics/SVG/1.1/DTD/svg11.dtd">
<!-- Creator: CorelDRAW 2018 -->
<svg xmlns="http://www.w3.org/2000/svg" xml:space="preserve" width="297mm" height="210mm" version="1.1" style="shape-rendering:geometricPrecision; text-rendering:geometricPrecision; image-rendering:optimizeQuality; fill-rule:evenodd; clip-rule:evenodd"
viewBox="0 0 29700 21000"
 xmlns:xlink="http://www.w3.org/1999/xlink">
 <defs>
  <style type="text/css">
   <![CDATA[
    .fil4 {fill:#3323A8}
    .fil6 {fill:#616161}
    .fil2 {fill:#B3B3B3}
    .fil0 {fill:#1C1B17;fill-rule:nonzero}
    .fil1 {fill:#02018B;fill-rule:nonzero}
    .fil5 {fill:#616161;fill-rule:nonzero}
    .fil3 {fill:#B3B3B3;fill-rule:nonzero}
   ]]>
  </style>
 </defs>
 <g id="Layer_x0020_1">
  <metadata id="CorelCorpID_0Corel-Layer"/>
  <g id="_969434400">
   <path class="fil0" d="M11404.17 3983.77l0 256.53 -288.04 0 0 1039.71 -275.81 0 0 -1039.71 -289.78 0 0 -256.53 853.63 0zm948.49 246.81l-553.37 0 0 266.25 434.66 0 0 242.93 -434.66 0 0 283.72 553.37 0 0 256.53 -830.95 0 0 -1296.24 830.95 0 0 246.81zm-197.25 -687.95l64.58 159.03 -374.74 177.17 -42.48 -105.91 352.64 -230.29zm1298.46 924.4l-286.28 20.08c-4.08,-183.97 -67.79,-275.95 -191.75,-275.95 -142.25,0 -213.25,140.9 -213.25,423.01 0,162.92 19.2,273.36 57.9,331.35 38.71,57.96 92.52,87.12 161.77,87.12 112.59,0 181.25,-81.62 206.28,-244.88l265.33 18.15c-17.15,154.5 -68.93,272.4 -155.36,352.72 -86.69,80.65 -192.88,120.82 -318.27,120.82 -153.94,0 -279.04,-59.27 -375.33,-177.49 -96.31,-118.24 -144.31,-281.79 -144.31,-490.71 0,-195.31 46.55,-355.31 139.64,-480.02 93.11,-124.7 220.55,-186.88 381.74,-186.88 279.29,0 436.71,167.45 471.89,502.68zm1051.78 -483.26l0 1296.24 -236.23 0 -449.81 -875.5c0.58,22.03 1.16,36.62 1.75,43.74 2.31,22.02 3.48,40.81 3.48,56.03l0 775.73 -212.97 0 0 -1296.24 295.01 0 392.79 764.4c-3.49,-37.89 -5.24,-66.71 -5.24,-86.47l0 -677.93 211.22 0zm507.12 0l0 1296.24 -272.34 0 0 -1296.24 272.34 0zm1170.49 483.26l-286.29 20.08c-4.07,-183.97 -67.78,-275.95 -191.75,-275.95 -142.26,0 -213.25,140.9 -213.25,423.01 0,162.92 19.2,273.36 57.89,331.35 38.72,57.96 92.53,87.12 161.77,87.12 112.61,0 181.27,-81.62 206.27,-244.88l265.36 18.15c-17.18,154.5 -68.96,272.4 -155.37,352.72 -86.69,80.65 -192.88,120.82 -318.29,120.82 -153.92,0 -279.01,-59.27 -375.32,-177.49 -96.31,-118.24 -144.32,-281.79 -144.32,-490.71 0,-195.31 46.56,-355.31 139.67,-480.02 93.09,-124.7 220.52,-186.88 381.72,-186.88 279.31,0 436.7,167.45 471.91,502.68zm594.4 832.42c-156.53,0 -277.86,-65.44 -363.68,-196.29 -85.83,-131.18 -128.59,-289.55 -128.59,-475.47 0,-189.16 43.36,-346.9 130.32,-473.54 87.01,-126.65 210.65,-189.8 371.55,-189.8 162.34,0 284.85,67.37 367.47,202.44 82.63,135.05 123.94,289.89 123.94,463.82 0,187.85 -42.46,346.24 -127.72,475.15 -85.26,129.23 -209.48,193.69 -373.29,193.69zm7.85 -1088.29c-142.55,0 -213.83,139.92 -213.83,420.09 0,280.82 71.28,421.39 213.83,421.39 137.91,0 206.87,-140.26 206.87,-420.42 0,-280.82 -68.96,-421.06 -206.87,-421.06zm1912.68 57.65l-232.18 86.15c-31.42,-102.36 -97.76,-153.52 -199,-153.52 -108.23,0 -162.34,38.86 -162.34,116.6 0,31.09 10.18,57.33 30.25,78.7 20.38,21.39 65.76,40.18 137.04,56.69 118.72,27.2 205.7,54.41 260.97,81.62 55.28,26.88 101.83,70.61 139.96,131.18 37.81,60.25 56.73,127.62 56.73,202.1 0,116.93 -40.45,217.99 -121.63,303.19 -81.17,85.17 -201.33,127.93 -360.48,127.93 -119.58,0 -221.1,-30.13 -305.19,-90.7 -83.8,-60.57 -139.09,-150.28 -165.84,-269.47l253.13 -63.49c28.5,120.48 107.34,180.73 236.81,180.73 62.55,0 109.11,-13.28 139.66,-40.15 30.55,-26.9 45.98,-58.96 45.98,-96.21 0,-38.21 -13.97,-67.37 -41.9,-88.42 -27.65,-20.74 -81.46,-40.16 -160.9,-58.62 -148.37,-34.01 -254,-80.33 -317.14,-139.61 -63.13,-58.94 -94.54,-145.43 -94.54,-259.43 0,-114.99 37.53,-212.16 112.89,-291.2 75.34,-79.01 177.75,-118.53 306.64,-118.53 228.7,0 375.62,101.38 441.08,304.46zm1125.09 -285.04l0 806.84c0,130.52 -13.38,227.37 -40.13,290.86 -26.5,63.81 -75.96,115.95 -147.82,156.76 -71.86,40.81 -163.52,61.22 -275.53,61.22 -112.01,0 -201.03,-18.46 -267.08,-55.06 -66.34,-36.62 -115.79,-88.76 -148.67,-156.78 -32.88,-67.68 -49.46,-166.48 -49.46,-297l0 -806.84 295.01 0 0 807.48c0,69.65 5.23,121.13 15.71,153.85 10.47,33.04 31.72,59.28 63.15,78.7 31.41,19.12 70.41,28.84 116.37,28.84 51.2,0 92.81,-9.4 124.81,-28.5 32.01,-19.12 53.53,-44.05 64.01,-75.48 10.48,-31.41 15.72,-83.88 15.72,-157.41l0 -807.48 233.91 0zm494.61 814.29l0 481.95 -277.58 0 0 -1296.24 458.55 0c102.12,0 180.38,12.33 234.79,36.62 54.1,24.29 102.71,67.68 145.17,130.52 42.79,62.51 64.02,139.28 64.02,230.61 0,63.8 -11.35,126 -34.03,186.89 -22.7,60.57 -54.7,108.52 -96.33,143.16 -41.28,34.99 -81.46,57.99 -120.44,69.32 -38.68,11.33 -99.79,17.17 -182.72,17.17l-191.43 0zm-8.72 -235.16l176.89 0c67.49,0 114.62,-17.49 141.97,-52.14 27.06,-34.98 40.73,-74.82 40.73,-119.84 0,-52.48 -15.12,-94.26 -45.38,-125.35 -30.55,-31.09 -76.51,-46.64 -138.19,-46.64l-176.02 0 0 343.97zm1615.62 -332.32l-553.37 0 0 266.25 434.68 0 0 242.93 -434.68 0 0 283.72 553.37 0 0 256.53 -830.95 0 0 -1296.24 830.95 0 0 246.81zm437.88 538.32l0 511.11 -274.08 0 0 -1296.24 511.76 0c94.28,0 170.22,12.33 227.25,36.62 57.31,24.61 104.74,69.31 142.27,134.73 37.53,65.42 56.13,138.3 56.13,218.3 0,156.13 -67.48,268.2 -202.48,336.21l214.73 570.38 -300.56 0 -179.22 -511.11 -195.8 0zm0 -551.92l0 330.38 167.57 0c54.71,0 94.56,-4.21 119.29,-12.96 25.03,-8.41 46.83,-27.53 66.33,-56.67 19.5,-29.48 29.11,-63.18 29.11,-101.38 0,-35.96 -9.61,-68.34 -29.11,-96.85 -19.5,-28.19 -40.43,-46 -63.13,-52.48 -22.98,-6.8 -65.74,-10.04 -128.29,-10.04l-161.77 0zm1145.44 -233.21l0 1296.24 -272.33 0 0 -1296.24 272.33 0zm669.48 1315.68c-156.52,0 -277.86,-65.44 -363.67,-196.29 -85.84,-131.18 -128.61,-289.55 -128.61,-475.47 0,-189.16 43.35,-346.9 130.34,-473.54 86.99,-126.65 210.65,-189.8 371.54,-189.8 162.35,0 284.84,67.37 367.47,202.44 82.64,135.05 123.94,289.89 123.94,463.82 0,187.85 -42.48,346.24 -127.74,475.15 -85.23,129.23 -209.45,193.69 -373.27,193.69zm7.85 -1088.29c-142.56,0 -213.85,139.92 -213.85,420.09 0,280.82 71.29,421.39 213.85,421.39 137.9,0 206.88,-140.26 206.88,-420.42 0,-280.82 -68.98,-421.06 -206.88,-421.06zm945.57 557.74l0 511.11 -274.08 0 0 -1296.24 511.79 0c94.28,0 170.19,12.33 227.22,36.62 57.33,24.61 104.76,69.31 142.29,134.73 37.53,65.42 56.14,138.3 56.14,218.3 0,156.13 -67.51,268.2 -202.5,336.21l214.72 570.38 -300.56 0 -179.2 -511.11 -195.82 0zm0 -551.92l0 330.38 167.58 0c54.72,0 94.58,-4.21 119.3,-12.96 25.01,-8.41 46.84,-27.53 66.34,-56.67 19.5,-29.48 29.08,-63.18 29.08,-101.38 0,-35.96 -9.58,-68.34 -29.08,-96.85 -19.5,-28.19 -40.45,-46 -63.16,-52.48 -22.97,-6.8 -65.73,-10.04 -128.29,-10.04l-161.77 0zm2140.49 13.6l-553.37 0 0 266.25 434.68 0 0 242.93 -434.68 0 0 283.72 553.37 0 0 256.53 -830.95 0 0 -1296.24 830.95 0 0 246.81zm1057.58 -246.81l0 1296.24 -236.23 0 -449.8 -875.5c0.57,22.03 1.15,36.62 1.74,43.74 2.33,22.02 3.48,40.81 3.48,56.03l0 775.73 -212.97 0 0 -1296.24 295.01 0 392.79 764.4c-3.47,-37.89 -5.22,-66.71 -5.22,-86.47l0 -677.93 211.2 0z"/>
   <path class="fil1" d="M19507 6651.81l524.43 1685.79 -424.19 0 -104.04 -348.78 -543.39 0 -106.57 348.78 -345.84 0 539.6 -1685.79 460 0zm-452.83 1026.13l356.36 0 -176.5 -590.56 -179.86 590.56zm2452.86 -1026.13l0 1685.79 -342.05 0 -651.23 -1138.6c0.84,28.64 1.69,47.61 2.53,56.87 3.38,28.64 5.05,53.08 5.05,72.87l0 1008.86 -308.34 0 0 -1685.79 427.13 0 568.68 994.13c-5.05,-49.3 -7.6,-86.79 -7.6,-112.47l0 -881.66 305.83 0zm1170.19 0l524.43 1685.79 -424.18 0 -104.05 -348.78 -543.39 0 -106.56 348.78 -345.85 0 539.6 -1685.79 460 0zm-452.83 1026.13l356.36 0 -176.5 -590.56 -179.86 590.56zm529.92 -1604.91l93.51 206.84 -542.56 230.41 -61.5 -137.74 510.55 -299.51zm1028.24 1930.96l669.76 0 0 333.61 -1069.09 0 0 -1685.79 399.33 0 0 1352.18zm1267.5 -1352.18l0 1685.79 -394.27 0 0 -1685.79 394.27 0zm1502.55 370.69l-336.16 112.05c-45.48,-133.1 -141.53,-199.65 -288.11,-199.65 -156.7,0 -235.06,50.53 -235.06,151.63 0,40.45 14.75,74.56 43.81,102.37 29.48,27.79 95.2,52.22 198.4,73.71 171.87,35.38 297.82,70.77 377.85,106.15 80.03,34.96 147.44,91.84 202.62,170.59 54.76,78.36 82.14,165.99 82.14,262.85 0,152.07 -58.55,283.51 -176.09,394.29 -117.52,110.78 -291.49,166.38 -521.9,166.38 -173.12,0 -320.14,-39.16 -441.87,-117.94 -121.32,-78.78 -201.35,-195.46 -240.11,-350.47l366.47 -82.56c41.29,156.7 155.43,235.04 342.88,235.04 90.57,0 157.98,-17.25 202.2,-52.22 44.23,-34.96 66.56,-76.67 66.56,-125.11 0,-49.71 -20.22,-87.62 -60.65,-114.99 -40.02,-26.96 -117.96,-52.24 -232.95,-76.26 -214.83,-44.23 -367.73,-104.46 -459.15,-181.55 -91.4,-76.67 -136.9,-189.14 -136.9,-337.41 0,-149.54 54.34,-275.91 163.44,-378.68 109.11,-102.79 257.38,-154.18 443.98,-154.18 331.09,0 543.82,131.86 638.6,395.96zm696.3 -370.69l0 1685.79 -394.27 0 0 -1685.79 394.27 0zm1502.56 370.69l-336.16 112.05c-45.49,-133.1 -141.54,-199.65 -288.12,-199.65 -156.7,0 -235.06,50.53 -235.06,151.63 0,40.45 14.75,74.56 43.81,102.37 29.48,27.79 95.2,52.22 198.41,73.71 171.86,35.38 297.81,70.77 377.84,106.15 80.03,34.96 147.44,91.84 202.62,170.59 54.77,78.36 82.14,165.99 82.14,262.85 0,152.07 -58.54,283.51 -176.08,394.29 -117.52,110.78 -291.5,166.38 -521.91,166.38 -173.12,0 -320.14,-39.16 -441.87,-117.94 -121.32,-78.78 -201.35,-195.46 -240.11,-350.47l366.48 -82.56c41.28,156.7 155.42,235.04 342.88,235.04 90.56,0 157.97,-17.25 202.2,-52.22 44.23,-34.96 66.55,-76.67 66.55,-125.11 0,-49.71 -20.22,-87.62 -60.65,-114.99 -40.01,-26.96 -117.96,-52.24 -232.95,-76.26 -214.83,-44.23 -367.73,-104.46 -459.15,-181.55 -91.4,-76.67 -136.9,-189.14 -136.9,-337.41 0,-149.54 54.35,-275.91 163.44,-378.68 109.11,-102.79 257.38,-154.18 443.98,-154.18 331.09,0 543.83,131.86 638.61,395.96z"/>
   <path class="fil1" d="M17199.89 9851.11l-788.55 0 0 376.6 624.28 0 0 315.92 -624.28 0 0 659.66 -409.43 0 0 -1685.79 1197.98 0 0 333.61zm1529.53 -333.61l0 1049.31c0,169.76 -19.38,295.71 -58.12,378.26 -38.35,83 -109.95,150.8 -213.99,203.88 -104.06,53.07 -236.75,79.61 -398.92,79.61 -162.19,0 -291.08,-24 -386.69,-71.6 -96.05,-47.61 -167.65,-115.42 -215.26,-203.88 -47.59,-88.04 -71.6,-216.51 -71.6,-386.27l0 -1049.31 427.12 0 0 1050.15c0,90.56 7.59,157.53 22.76,200.09 15.15,42.96 45.9,77.09 91.4,102.35 45.5,24.85 101.94,37.49 168.49,37.49 74.15,0 134.38,-12.2 180.71,-37.07 46.34,-24.85 77.51,-57.29 92.68,-98.14 15.16,-40.87 22.74,-109.11 22.74,-204.72l0 -1050.15 338.68 0zm1608.27 0l0 1685.79 -342.04 0 -651.24 -1138.6c0.84,28.64 1.69,47.6 2.53,56.87 3.38,28.64 5.05,53.07 5.05,72.87l0 1008.86 -308.33 0 0 -1685.79 427.12 0 568.68 994.13c-5.05,-49.3 -7.6,-86.79 -7.6,-112.47l0 -881.66 305.83 0zm1697.17 628.49l-414.51 26.12c-5.9,-239.28 -98.15,-358.9 -277.6,-358.9 -205.97,0 -308.76,183.23 -308.76,550.13 0,211.88 27.81,355.54 83.82,430.94 56.04,75.4 133.96,113.3 234.21,113.3 163.02,0 262.43,-106.15 298.67,-318.45l384.17 23.58c-24.87,200.93 -99.85,354.27 -224.95,458.73 -125.53,104.9 -279.29,157.12 -460.83,157.12 -222.84,0 -403.97,-77.07 -543.4,-230.83 -139.42,-153.76 -208.94,-366.47 -208.94,-638.17 0,-254 67.41,-462.11 202.21,-624.28 134.79,-162.18 319.28,-243.05 552.65,-243.05 404.38,0 632.27,217.77 683.26,653.76zm622.98 -628.49l0 1685.79 -394.27 0 0 -1685.79 394.27 0zm969.26 1711.06c-226.63,0 -402.27,-85.08 -526.55,-255.26 -124.26,-170.59 -186.18,-376.59 -186.18,-618.37 0,-246.01 62.77,-451.16 188.72,-615.85 125.95,-164.71 304.97,-246.85 537.91,-246.85 235.06,0 412.39,87.63 532.02,263.27 119.63,175.66 179.46,377.01 179.46,603.21 0,244.32 -61.5,450.3 -184.93,617.95 -123.42,168.07 -303.3,251.9 -540.45,251.9zm11.37 -1415.35c-206.39,0 -309.6,181.98 -309.6,546.35 0,365.2 103.21,548.02 309.6,548.02 199.68,0 299.51,-182.4 299.51,-546.77 0,-365.2 -99.83,-547.6 -299.51,-547.6zm2266.26 -295.71l0 1685.79 -342.04 0 -651.23 -1138.6c0.83,28.64 1.69,47.6 2.52,56.87 3.38,28.64 5.05,53.07 5.05,72.87l0 1008.86 -308.33 0 0 -1685.79 427.12 0 568.68 994.13c-5.05,-49.3 -7.59,-86.79 -7.59,-112.47l0 -881.66 305.82 0zm1170.2 0l524.42 1685.79 -424.18 0 -104.04 -348.78 -543.39 0 -106.57 348.78 -345.84 0 539.59 -1685.79 460.01 0zm-452.83 1026.13l356.36 0 -176.5 -590.56 -179.86 590.56zm1558.15 326.05l669.76 0 0 333.61 -1069.09 0 0 -1685.79 399.33 0 0 1352.18z"/>
   <path class="fil1" d="M15421.72 12383.19l0 1685.79 -333.62 0 0 -195.46c-82.99,147.02 -196.25,220.73 -339.42,220.73 -136.1,0 -243.56,-56.02 -321.98,-168.08 -78.42,-112.47 -117.84,-267.89 -117.84,-466.72 0,-206.83 39.42,-369 117.84,-486.1 78.42,-117.1 192.1,-175.66 341.07,-175.66 131.11,0 231.96,52.65 302.9,157.53l0 -572.03 351.05 0zm-351.05 962.52c0,-195.03 -58.92,-292.75 -177.15,-292.75 -140.68,0 -211.21,137.74 -211.21,413.23 0,245.16 65.96,367.75 197.93,367.75 50.61,0 95,-22.34 133.18,-66.57 38.17,-44.23 57.25,-107.4 57.25,-189.12l0 -232.54zm1751.49 159.66l-790.47 0c-0.82,22.33 -1.24,41.71 -1.24,58.13 0,89.29 23.24,156.7 70.11,202.2 46.48,45.48 102.5,68.24 167.64,68.24 120.76,0 193.37,-65.72 217.84,-197.15l328.65 24.85c-91.72,288.55 -277.6,432.61 -558.1,432.61 -122.39,0 -226.55,-24.85 -312.05,-74.55 -85.46,-49.71 -156.01,-122.17 -211.6,-217.37 -55.62,-95.61 -83.39,-209.77 -83.39,-342.88 0,-197.98 55.58,-357.63 167.21,-479.36 111.2,-121.73 254.36,-182.4 429.45,-182.4 158.09,0 293.36,56.45 406.23,168.92 113.29,112.47 169.72,292.33 169.72,538.76zm-791.71 -212.32l435.67 0c-11.19,-170.17 -80.48,-255.25 -207.45,-255.25 -136.1,0 -212.06,85.08 -228.22,255.25zm2807.49 -539.17l-331.13 112.05c-44.81,-133.11 -139.43,-199.66 -283.83,-199.66 -154.35,0 -231.54,50.53 -231.54,151.63 0,40.46 14.53,74.57 43.16,102.38 29.04,27.79 93.78,52.22 195.44,73.7 169.3,35.39 293.36,70.77 372.2,106.15 78.84,34.97 145.23,91.84 199.6,170.6 53.95,78.36 80.9,165.98 80.9,262.85 0,152.07 -57.66,283.5 -173.46,394.28 -115.75,110.79 -287.14,166.39 -514.09,166.39 -170.53,0 -315.36,-39.16 -435.27,-117.94 -119.51,-78.78 -198.35,-195.47 -236.53,-350.48l361.01 -82.55c40.67,156.7 153.1,235.04 337.75,235.04 89.21,0 155.61,-17.25 199.18,-52.22 43.57,-34.97 65.56,-76.67 65.56,-125.11 0,-49.72 -19.92,-87.63 -59.74,-115 -39.42,-26.95 -116.21,-52.24 -229.47,-76.25 -211.63,-44.23 -362.24,-104.46 -452.29,-181.55 -90.03,-76.67 -134.86,-189.14 -134.86,-337.41 0,-149.55 53.54,-275.91 161,-378.68 107.48,-102.79 253.55,-154.18 437.34,-154.18 326.14,0 535.7,131.85 629.07,395.96zm685.9 -370.69l0 1685.79 -388.39 0 0 -1685.79 388.39 0zm1480.09 370.69l-331.13 112.05c-44.81,-133.11 -139.43,-199.66 -283.82,-199.66 -154.36,0 -231.55,50.53 -231.55,151.63 0,40.46 14.54,74.57 43.16,102.38 29.04,27.79 93.79,52.22 195.44,73.7 169.31,35.39 293.37,70.77 372.2,106.15 78.84,34.97 145.23,91.84 199.6,170.6 53.93,78.36 80.91,165.98 80.91,262.85 0,152.07 -57.67,283.5 -173.46,394.28 -115.75,110.79 -287.14,166.39 -514.09,166.39 -170.54,0 -315.37,-39.16 -435.28,-117.94 -119.51,-78.78 -198.34,-195.47 -236.53,-350.48l361.01 -82.55c40.67,156.7 153.1,235.04 337.75,235.04 89.22,0 155.61,-17.25 199.18,-52.22 43.57,-34.97 65.56,-76.67 65.56,-125.11 0,-49.72 -19.92,-87.63 -59.73,-115 -39.42,-26.95 -116.21,-52.24 -229.48,-76.25 -211.62,-44.23 -362.24,-104.46 -452.29,-181.55 -90.03,-76.67 -134.85,-189.14 -134.85,-337.41 0,-149.55 53.53,-275.91 160.99,-378.68 107.48,-102.79 253.53,-154.18 437.34,-154.18 326.15,0 535.7,131.85 629.07,395.96zm1360.19 -370.69l0 333.61 -410.79 0 0 1352.18 -393.37 0 0 -1352.18 -413.28 0 0 -333.61 1217.44 0zm1352.71 320.99l-789.22 0 0 346.26 619.92 0 0 315.92 -619.92 0 0 369 789.22 0 0 333.62 -1185.08 0 0 -1685.79 1185.08 0 0 320.99zm964.32 1364.8l-404.58 -1374.92 0 1374.92 -326.15 0 0 -1685.79 605.81 0 289.21 1008.86 305.83 -1008.86 606.64 0 0 1685.79 -390.88 0 0 -1374.92 -416.59 1374.92 -269.29 0zm2227.81 -1685.79l516.6 1685.79 -417.84 0 -102.5 -348.78 -535.26 0 -104.97 348.78 -340.68 0 531.53 -1685.79 453.12 0zm-446.05 1026.13l351.03 0 -173.85 -590.56 -177.18 590.56zm2289.24 -655.44l-331.15 112.05c-44.79,-133.11 -139.41,-199.66 -283.8,-199.66 -154.36,0 -231.54,50.53 -231.54,151.63 0,40.46 14.53,74.57 43.15,102.38 29.04,27.79 93.77,52.22 195.45,73.7 169.28,35.39 293.36,70.77 372.2,106.15 78.81,34.97 145.23,91.84 199.57,170.6 53.95,78.36 80.91,165.98 80.91,262.85 0,152.07 -57.67,283.5 -173.44,394.28 -115.77,110.79 -287.14,166.39 -514.11,166.39 -170.54,0 -315.35,-39.16 -435.28,-117.94 -119.48,-78.78 -198.32,-195.47 -236.51,-350.48l360.99 -82.55c40.67,156.7 153.12,235.04 337.77,235.04 89.22,0 155.61,-17.25 199.18,-52.22 43.56,-34.97 65.56,-76.67 65.56,-125.11 0,-49.72 -19.92,-87.63 -59.75,-115 -39.42,-26.95 -116.19,-52.24 -229.48,-76.25 -211.6,-44.23 -362.22,-104.46 -452.29,-181.55 -90.02,-76.67 -134.85,-189.14 -134.85,-337.41 0,-149.55 53.55,-275.91 161.01,-378.68 107.49,-102.79 253.53,-154.18 437.35,-154.18 326.14,0 535.69,131.85 629.06,395.96z"/>
   <path class="fil1" d="M12330.83 15248.87l0 1685.8 -388.36 0 0 -1685.8 388.36 0zm1607.08 0l0 1685.8 -336.94 0 -641.49 -1138.61c0.82,28.65 1.65,47.61 2.49,56.87 3.32,28.65 4.97,53.08 4.97,72.88l0 1008.86 -303.72 0 0 -1685.8 420.74 0 560.17 994.13c-4.97,-49.29 -7.48,-86.78 -7.48,-112.47l0 -881.66 301.26 0zm1514.94 333.62l-776.78 0 0 376.59 614.95 0 0 315.93 -614.95 0 0 659.66 -403.31 0 0 -1685.8 1180.09 0 0 333.62zm800.02 1377.44c-223.25,0 -396.25,-85.08 -518.68,-255.25 -122.41,-170.6 -183.4,-376.6 -183.4,-618.38 0,-246.01 61.84,-451.15 185.9,-615.84 124.06,-164.71 300.42,-246.85 529.88,-246.85 231.54,0 406.23,87.62 524.07,263.27 117.83,175.66 176.77,377.01 176.77,603.2 0,244.32 -60.59,450.3 -182.16,617.96 -121.58,168.07 -298.77,251.89 -532.38,251.89zm11.21 -1415.35c-203.31,0 -304.99,181.99 -304.99,546.36 0,365.2 101.68,548.02 304.99,548.02 196.68,0 295.01,-182.4 295.01,-546.77 0,-365.21 -98.33,-547.61 -295.01,-547.61zm1348.54 725.38l0 664.71 -390.84 0 0 -1685.8 729.87 0c134.43,0 242.73,16.03 324.05,47.61 81.76,32.01 149.39,90.15 202.92,175.23 53.53,85.1 80.09,179.88 80.09,283.92 0,203.04 -96.27,348.78 -288.79,437.24l306.22 741.8 -428.65 0 -255.6 -664.71 -279.27 0zm0 -717.78l0 429.64 239.02 0c78,0 134.85,-5.46 170.14,-16.83 35.68,-10.96 66.79,-35.82 94.6,-73.73 27.81,-38.33 41.48,-82.14 41.48,-131.83 0,-46.78 -13.67,-88.9 -41.48,-125.95 -27.81,-36.66 -57.67,-59.84 -90.03,-68.24 -32.78,-8.85 -93.79,-13.06 -183,-13.06l-230.73 0zm1975.96 1382.49l-404.56 -1374.92 0 1374.92 -326.15 0 0 -1685.8 605.81 0 289.21 1008.86 305.81 -1008.86 606.64 0 0 1685.8 -390.86 0 0 -1374.92 -416.59 1374.92 -269.31 0zm2227.83 -1685.8l516.6 1685.8 -417.84 0 -102.49 -348.79 -535.28 0 -104.98 348.79 -340.68 0 531.55 -1685.8 453.12 0zm-446.06 1026.14l351.05 0 -173.88 -590.56 -177.17 590.56zm522 -1604.91l92.11 206.83 -534.44 230.41 -60.59 -137.74 502.92 -299.5zm1670.13 578.77l0 333.62 -410.79 0 0 1352.18 -393.37 0 0 -1352.18 -413.26 0 0 -333.62 1217.42 0zm556.01 0l0 1685.8 -388.38 0 0 -1685.8 388.38 0zm1669.32 628.49l-408.3 26.12c-5.82,-239.27 -96.71,-358.9 -273.47,-358.9 -202.89,0 -304.15,183.24 -304.15,550.13 0,211.88 27.41,355.54 82.57,430.94 55.2,75.4 131.97,113.31 230.71,113.31 160.59,0 258.52,-106.15 294.22,-318.45l378.42 23.58c-24.49,200.92 -98.36,354.27 -221.58,458.73 -123.65,104.89 -275.12,157.11 -453.94,157.11 -219.52,0 -397.95,-77.06 -535.29,-230.82 -137.33,-153.76 -205.81,-366.48 -205.81,-638.17 0,-254.01 66.41,-462.11 199.18,-624.28 132.78,-162.19 314.51,-243.05 544.4,-243.05 398.34,0 622.81,217.76 673.04,653.75zm847.71 1082.57c-223.26,0 -396.28,-85.08 -518.69,-255.25 -122.41,-170.6 -183.39,-376.6 -183.39,-618.38 0,-246.01 61.84,-451.15 185.9,-615.84 124.06,-164.71 300.42,-246.85 529.87,-246.85 231.54,0 406.23,87.62 524.07,263.27 117.84,175.66 176.78,377.01 176.78,603.2 0,244.32 -60.59,450.3 -182.16,617.96 -121.58,168.07 -298.77,251.89 -532.38,251.89zm11.21 -1415.35c-203.32,0 -304.99,181.99 -304.99,546.36 0,365.2 101.67,548.02 304.99,548.02 196.67,0 295.01,-182.4 295.01,-546.77 0,-365.21 -98.34,-547.61 -295.01,-547.61zm2105.42 74.98l-331.15 112.06c-44.79,-133.11 -139.41,-199.66 -283.8,-199.66 -154.36,0 -231.54,50.53 -231.54,151.63 0,40.45 14.53,74.56 43.15,102.37 29.04,27.79 93.77,52.22 195.45,73.71 169.28,35.39 293.36,70.77 372.2,106.15 78.81,34.97 145.23,91.84 199.57,170.6 53.95,78.36 80.91,165.98 80.91,262.85 0,152.07 -57.67,283.5 -173.44,394.28 -115.77,110.78 -287.14,166.38 -514.11,166.38 -170.54,0 -315.35,-39.16 -435.28,-117.93 -119.48,-78.78 -198.32,-195.47 -236.51,-350.48l360.99 -82.55c40.67,156.7 153.12,235.04 337.77,235.04 89.22,0 155.61,-17.26 199.18,-52.22 43.56,-34.97 65.56,-76.67 65.56,-125.12 0,-49.71 -19.92,-87.62 -59.75,-114.99 -39.42,-26.96 -116.19,-52.24 -229.48,-76.25 -211.6,-44.23 -362.22,-104.46 -452.29,-181.55 -90.02,-76.67 -134.85,-189.14 -134.85,-337.42 0,-149.54 53.55,-275.91 161.01,-378.68 107.49,-102.79 253.53,-154.17 437.35,-154.17 326.14,0 535.69,131.85 629.06,395.95z"/>
   <g>
    <path class="fil2" d="M6486.43 11796.66c-135.15,-82.05 -374.06,-546.39 -472.56,-710.08 -310.94,-516.67 -492.02,-1049.56 -492.02,-1719.9 0,-1447.34 1191.34,-2664.51 2629.01,-2664.51 797.34,0 1173.53,399.54 1819.35,596.89 85.48,27.94 159.09,40.63 225.57,40.63 161.45,0 297.83,-423.29 354.82,-677.2 52.23,0 104.47,0 156.7,0 9.72,1085.95 19.43,2171.89 29.15,3257.84 -149.67,9.76 -211.95,-111.61 -234.81,-292.08 -125.84,-472.28 -284.68,-790.86 -376.22,-1042.6 -560.37,-1541.06 -3128.63,-2046.27 -3310.32,-166.96 0,830.31 536.03,1445.43 1369.12,1876.88 326.86,169.27 653.72,338.55 980.58,507.82 520.01,269.3 862.85,690.95 1183.43,993.27 135.16,82.04 374.06,546.39 472.56,710.07 310.94,516.67 492.02,1049.56 492.02,1719.9 0,1447.34 -1272.85,3063.57 -3118.06,2881.87 -797.34,0 -990.14,-345.2 -1635.96,-542.56 -85.48,-27.93 -159.09,-40.62 -225.57,-40.62 -464.73,-13.59 -753.16,932.05 -777.69,473.56 -9.72,-1085.95 -18.17,-2239.95 -27.89,-3325.9 121.78,-357.01 674.16,1146.56 740.1,1327.89 544.22,1831.73 3448.14,2421.33 3649.93,180.54 0,-830.3 -434.14,-1452.22 -1267.23,-1883.67 -326.86,-169.27 -599.37,-426.85 -926.24,-596.12 -520,-269.3 -842.47,-602.65 -1237.77,-904.96z"/>
    <path class="fil3" d="M3650.12 4253.94c-228.82,0 -132.75,-3.41 -390.27,-0.67 -563.01,5.97 -835.88,9.79 -1111.2,161.79 -275.32,152 -453.45,343.86 -631.47,714.51 -164.25,341.99 -324.16,621.43 -411.59,1204.51l-255.58 -8.54 97.41 -2611.72 3684.91 0 3684.92 0 97.4 2611.72 -255.58 8.54c-87.43,-583.08 -247.33,-862.52 -411.59,-1204.51 -178.02,-370.65 -356.14,-562.51 -631.47,-714.51 -275.32,-152 -548.19,-155.82 -1111.2,-161.79 -257.52,-2.74 -161.45,0.67 -390.26,0.67l0 7104.32c0,503.34 1,926.75 -4.68,1166.95 -6.12,258.14 61.67,649.31 325.38,777.27 128.34,62.28 238.37,115.75 448.59,130.7l13.58 252.76 -1765.09 0 -1765.09 0 13.59 -252.76c210.21,-14.95 320.24,-68.42 448.58,-130.7 263.71,-127.96 331.5,-519.13 325.39,-777.27 -5.69,-240.2 -4.68,-663.61 -4.68,-1166.95l0 -7104.32z"/>
    <g>
     <path class="fil4" d="M3717.27 10589.92c404.78,-70.49 856.77,-120.67 1252.81,-17.9 386.39,100.25 557.35,323.04 537.55,793.71 -381.7,14.15 -1510.87,-32.75 -1778.04,111.84l-51.85 1.21c-402.3,122.19 -728.01,290.08 -885.62,567.98 -173.13,75.31 -304.36,685.18 -316.83,950.58 -19.31,410.97 36.47,737.11 201.56,1064.91 342.1,679.29 1204.98,954.58 1744.09,756.11 404.7,-64.97 638.08,-263.9 881.89,-530.64 64.25,-70.29 126.9,-182.17 206.21,-258.28l-7.27 681.06 5.95 5.3 1447.11 0.05 0.38 -2002.49c-4.35,-349.96 11.15,-697.44 5.8,-1046.84 -2.57,-167.73 -12.62,-331.95 -32.32,-493 -17.28,-141.23 -62.92,-306.22 -73.02,-428.13 -205.28,-580.26 -326,-803.25 -768.97,-1076.72 -717.06,-328.09 -1576.99,-380.54 -2427.94,-199.39l-324.6 50.36 -427.49 120.2c-44.96,53.45 -15.45,-5.86 -37.64,71.54 -9.59,33.45 -10.05,44.11 -12.46,79.1l1.6 1155.53c301.05,-123.72 451.41,-240.89 826.45,-345.34l32.65 -10.75zm1026.57 1799.18l752.25 6.76c58.97,298.52 -27.03,644.8 -162.13,862.57 -137.69,221.92 -272.62,372.92 -599.67,451.64 -274.81,71.59 -580.15,-66.81 -680.19,-210.19 -125.29,-179.54 -180.02,-507.03 -65.29,-741.86 123.45,-252.67 419.36,-342.75 755.03,-368.92z"/>
     <path class="fil4" d="M8404.32 9507.76l-670.85 -1.87 -11.12 1220.14 701.87 5.04 6.9 3982.44 1433.33 -9.59 7.64 -3287.26 -10.33 -682.64 1208.13 -0.16 10.72 -1239.28 -312.59 -14.05 -295.52 5.1 -598.66 6.84 6.15 -502.76 11.64 -78.07 62.99 -173.31 39.01 -24.57c5.45,-3.08 30.38,-18.29 37.9,-21.94 59.98,-29.19 29.37,-22.04 100.34,-32.61 101.25,-82.19 356.65,-48.42 483.53,-50.02 174.49,-2.21 404.14,0.83 572.85,-16.36l-7.86 -1111.38 -434.91 -1.73c-541.08,3.34 -1018.28,-41.66 -1490.28,141.71 -273.54,75.85 -531.15,328.61 -622.99,567.25 -91,65.99 -154.48,378.03 -170.75,519.57l-20.48 171.21c-0.4,128.87 21.7,553.6 -36.66,628.3z"/>
    </g>
    <path class="fil5" d="M1623.56 7641.13c47.78,0 89.98,-5.82 127.3,-17.21 36.95,-11.14 68.34,-27.34 93.8,-48.09 25.8,-20.73 45.32,-46.04 58.94,-75.66 13.6,-29.59 20.22,-62.75 20.22,-99.19l0 -587.32 267.8 0 0 587.32c0,59.22 -13.22,113.88 -39.38,163.72 -26.16,49.85 -63.83,93.13 -113.01,129.31 -48.82,36.43 -108.46,64.78 -178.53,85.04 -70.09,20.23 -149.26,30.35 -237.14,30.35 -87.85,0 -167.02,-10.12 -237.47,-30.35 -70.43,-20.26 -130.42,-48.61 -179.24,-85.04 -49.18,-36.18 -86.81,-79.46 -112.97,-129.31 -26.16,-49.84 -39.42,-104.5 -39.42,-163.72l0 -587.32 268.85 0 0 587.32c0,36.44 6.64,69.6 20.22,99.19 13.62,29.62 33.16,54.93 58.96,75.66 25.44,20.75 56.85,36.95 93.8,48.09 37.32,11.39 79.5,17.21 127.27,17.21z"/>
    <path class="fil5" d="M1342.06 8866.6l0 362.66 -304.42 0 0 -942.6 461.56 0c101.99,0 189.81,6.78 263.05,20.35 72.87,13.56 132.72,32.22 179.18,56.44 46.47,23.99 80.76,53.05 102.03,86.49 21.65,33.67 32.29,70.48 32.29,110.7 0,30.77 -6.7,60.09 -20.5,87.7 -13.77,27.61 -34.25,53.06 -60.63,76.08 -26.77,22.76 -59.06,43.11 -97.68,60.8 -38.21,17.91 -82.69,32.21 -132.73,43.12 19.33,6.54 37.43,14.53 54.37,23.73 16.94,9.21 32.7,20.36 47.27,33.68l342.6 343.51 -273.32 0c-48.43,0 -85.82,-12.6 -111.84,-37.55l-279.21 -293.86c-11.43,-11.37 -24.43,-19.38 -38.58,-24.21 -14.17,-4.61 -34.67,-7.04 -60.65,-7.04l-102.79 0zm0 -132.74l154.75 0c49.26,0 91.78,-4.12 127.22,-12.11 35.84,-8.01 65.38,-19.14 88.62,-33.19 22.84,-14.3 40.15,-31.25 51.19,-50.87 11.01,-19.62 16.53,-40.95 16.53,-64.21 0,-45.78 -22.84,-81.14 -68.91,-106.11 -46.1,-24.95 -116.97,-37.29 -212.26,-37.29l-157.14 0 0 303.78z"/>
    <path class="fil5" d="M2225.27 10278.5c0,83.51 -20.57,159.16 -61.7,227.24 -41.15,67.81 -99.04,124.5 -173.34,170.04l348.37 286.21 -220.37 0c-32.09,0 -60.69,-3.04 -85.44,-8.87 -24.77,-6.06 -48.11,-17.71 -70.09,-34.92l-187.97 -157.89c-65.2,14.41 -134.26,21.5 -207.13,21.5 -99.06,0 -188.67,-12.66 -269.91,-37.71 -80.92,-25.3 -150.66,-60.46 -208.54,-105.25 -57.89,-45.04 -102.51,-98.44 -134.26,-159.94 -31.72,-61.48 -47.43,-128.3 -47.43,-200.41 0,-71.6 15.71,-138.42 47.43,-199.9 31.75,-61.5 76.37,-114.64 134.26,-159.42 57.88,-44.55 127.62,-79.71 208.54,-105.28 81.24,-25.3 170.85,-38.2 269.91,-38.2 98.67,0 188.64,12.9 269.57,38.2 80.88,25.57 150.28,60.73 207.82,105.77 57.53,44.81 102.18,97.94 133.23,159.43 31.37,61.24 47.05,127.8 47.05,199.4zm-273.74 0c0,-52.38 -8.71,-99.45 -26.48,-140.94 -17.79,-41.51 -43.26,-76.93 -76.04,-106.03 -33.13,-29.1 -73.25,-51.37 -120.66,-67.05 -47.43,-15.45 -101.14,-23.3 -160.75,-23.3 -59.99,0 -114.04,7.85 -161.45,23.3 -47.77,15.68 -88.24,37.95 -121.36,67.05 -32.8,29.1 -58.24,64.52 -76.01,106.03 -17.81,41.49 -26.52,88.56 -26.52,140.94 0,52.89 8.71,100.2 26.52,141.97 17.77,41.74 43.21,76.93 76.01,106.03 33.12,28.84 73.59,50.85 121.36,66.29 47.41,15.19 101.46,23.02 161.45,23.02 59.61,0 113.32,-7.83 160.75,-23.02 47.41,-15.44 87.53,-37.45 120.66,-66.29 32.78,-29.1 58.25,-64.29 76.04,-106.03 17.77,-41.77 26.48,-89.08 26.48,-141.97z"/>
    <path class="fil5" d="M2220.04 14289.79l0 68.38c0,20.16 -10.65,38.64 -32.5,55.44l-746.73 663.08 758.32 0 0 146.88 -1173.11 0 0 -71.76c0,-18.71 9.82,-35.52 29.85,-50.63l746.73 -664.29 -719.1 0 0 -147.1 1136.54 0z"/>
    <path class="fil5" d="M2329.07 16758.49l-230.86 0c-26.5,0 -47.97,-3.96 -63.95,-11.85 -15.96,-8.15 -27.67,-18.03 -35.5,-30.14l-95.92 -188.92 -558.81 0 -94.76 188.19c-5.85,10.61 -17.55,20.49 -34.71,29.38 -17.13,8.88 -38.21,13.34 -63.57,13.34l-233.97 0 552.98 -960.92 306.1 0 552.97 960.92zm-917.58 -364.01l422.74 0 -154.06 -303.78c-9.34,-15.05 -18.71,-32.34 -28.47,-52.6 -10.13,-20 -19.88,-41.73 -30.01,-65.44 -8.97,23.71 -18.73,45.68 -28.47,65.94 -9.76,20.25 -19.1,37.78 -27.29,52.85l-154.44 303.03z"/>
    <path class="fil5" d="M1623.56 12124.11c47.78,0 89.98,-5.82 127.3,-17.21 36.95,-11.13 68.34,-27.33 93.8,-48.09 25.8,-20.73 45.32,-46.04 58.94,-75.65 13.6,-29.6 20.22,-62.76 20.22,-99.2l0 -587.32 267.8 0 0 587.32c0,59.22 -13.22,113.89 -39.38,163.72 -26.16,49.86 -63.83,93.13 -113.01,129.31 -48.82,36.44 -108.46,64.78 -178.53,85.04 -70.09,20.23 -149.26,30.35 -237.14,30.35 -87.85,0 -167.02,-10.12 -237.47,-30.35 -70.43,-20.26 -130.42,-48.6 -179.24,-85.04 -49.18,-36.18 -86.81,-79.45 -112.97,-129.31 -26.16,-49.83 -39.42,-104.5 -39.42,-163.72l0 -587.32 268.85 0 0 587.32c0,36.44 6.64,69.6 20.22,99.2 13.62,29.61 33.16,54.92 58.96,75.65 25.44,20.76 56.85,36.96 93.8,48.09 37.32,11.39 79.5,17.21 127.27,17.21z"/>
    <polygon class="fil6" points="1444.77,12778.31 1801.37,12778.31 1801.37,13732.64 1444.77,13732.64 "/>
   </g>
  </g>
 </g>
</svg>
