<?xml version="1.0" encoding="UTF-8"?>
<!DOCTYPE svg PUBLIC "-//W3C//DTD SVG 1.1//EN" "http://www.w3.org/Graphics/SVG/1.1/DTD/svg11.dtd">
<!-- Creator: CorelDRAW 2018 -->
<svg xmlns="http://www.w3.org/2000/svg" xml:space="preserve" width="297mm" height="210mm" version="1.1" style="shape-rendering:geometricPrecision; text-rendering:geometricPrecision; image-rendering:optimizeQuality; fill-rule:evenodd; clip-rule:evenodd"
viewBox="0 0 29700 21000"
 xmlns:xlink="http://www.w3.org/1999/xlink">
 <defs>
  <style type="text/css">
   <![CDATA[
    .fil2 {fill:#3323A8}
    .fil4 {fill:#616161}
    .fil0 {fill:#B3B3B3}
    .fil3 {fill:#616161;fill-rule:nonzero}
    .fil1 {fill:#B3B3B3;fill-rule:nonzero}
   ]]>
  </style>
 </defs>
 <g id="Layer_x0020_1">
  <metadata id="CorelCorpID_0Corel-Layer"/>
  <g id="_808678240">
   <path class="fil0" d="M15439.4 12262.36c-196.69,-119.39 -544.35,-795.12 -687.69,-1033.32 -452.48,-751.87 -716,-1527.34 -716,-2502.84 0,-2106.21 1733.67,-3877.48 3825.8,-3877.48 1160.32,0 1707.77,581.43 2647.58,868.62 124.39,40.65 231.5,59.12 328.25,59.12 234.94,0 433.42,-615.98 516.34,-985.48 76.01,0 152.03,0 228.04,0 14.14,1580.3 28.28,3160.6 42.42,4740.9 -217.81,14.2 -308.43,-162.42 -341.71,-425.04 -183.12,-687.28 -414.27,-1150.88 -547.49,-1517.22 -815.46,-2242.6 -4552.85,-2977.79 -4817.26,-242.96 0,1208.28 780.05,2103.43 1992.38,2731.27 475.66,246.34 951.31,492.68 1426.97,739.01 756.73,391.88 1255.64,1005.48 1722.16,1445.42 196.68,119.39 544.34,795.12 687.69,1033.32 452.48,751.87 715.99,1527.34 715.99,2502.84 0,2106.21 -1852.29,4458.2 -4537.48,4193.78 -1160.32,0 -1440.89,-502.35 -2380.7,-789.54 -124.39,-40.65 -231.5,-59.12 -328.25,-59.12 -676.28,-19.77 -1096.02,1356.35 -1131.72,689.14 -14.14,-1580.3 -26.43,-3259.64 -40.58,-4839.94 177.22,-519.53 981.05,1668.5 1077.01,1932.38 791.97,2665.59 5017.83,3523.59 5311.48,262.73 0,-1208.28 -631.77,-2113.32 -1844.11,-2741.16 -475.66,-246.34 -872.23,-621.17 -1347.89,-867.5 -756.72,-391.89 -1225.98,-876.99 -1801.23,-1316.93z"/>
   <path class="fil1" d="M11311.91 1285.99c-332.97,0 -193.17,-4.96 -567.92,-0.98 -819.31,8.7 -1216.39,14.26 -1617.05,235.45 -400.66,221.19 -659.87,500.4 -918.93,1039.77 -239.03,497.68 -471.73,904.33 -598.96,1752.85l-371.92 -12.43 141.74 -3800.65 5362.39 0 5362.39 0 141.74 3800.65 -371.92 12.43c-127.23,-848.52 -359.93,-1255.17 -598.96,-1752.85 -259.06,-539.37 -518.27,-818.58 -918.93,-1039.77 -400.66,-221.19 -797.74,-226.75 -1617.05,-235.45 -374.75,-3.98 -234.94,0.98 -567.92,0.98l0 10338.41c0,732.46 1.46,1348.63 -6.82,1698.18 -8.89,375.64 89.75,944.88 473.51,1131.1 186.77,90.63 346.89,168.44 652.8,190.19l19.77 367.82 -2568.61 0 -2568.61 0 19.77 -367.82c305.91,-21.75 466.04,-99.56 652.8,-190.19 383.76,-186.22 482.41,-755.46 473.51,-1131.1 -8.27,-349.55 -6.82,-965.72 -6.82,-1698.18l0 -10338.41z"/>
   <g>
    <path class="fil2" d="M11409.64 10506.29c589.04,-102.58 1246.79,-175.6 1823.12,-26.06 562.28,145.89 811.07,470.1 782.25,1155.03 -555.46,20.59 -2198.64,-47.65 -2587.45,162.76l-75.45 1.76c-585.43,177.82 -1059.41,422.13 -1288.78,826.54 -251.94,109.59 -442.91,997.09 -461.05,1383.31 -28.1,598.05 53.07,1072.66 293.31,1549.69 497.83,988.52 1753.53,1389.13 2538.04,1100.31 588.94,-94.54 928.56,-384.04 1283.36,-772.2 93.5,-102.29 184.67,-265.1 300.07,-375.87l-10.56 991.1 8.65 7.72 2105.88 0.07 0.55 -2914.07c-6.33,-509.28 16.23,-1014.94 8.44,-1523.39 -3.75,-244.09 -18.37,-483.06 -47.04,-717.44 -25.15,-205.52 -91.57,-445.61 -106.26,-623.03 -298.73,-844.4 -474.4,-1168.9 -1119.02,-1566.86 -1043.48,-477.45 -2294.88,-553.78 -3533.21,-290.15l-472.37 73.27 -622.09 174.93c-65.43,77.77 -22.48,-8.54 -54.77,104.1 -13.96,48.68 -14.62,64.19 -18.13,115.11l2.32 1681.55c438.1,-180.03 656.91,-350.54 1202.67,-502.55l47.52 -15.63zm1493.9 2618.21l1094.68 9.84c85.82,434.41 -39.32,938.33 -235.94,1255.23 -200.37,322.95 -396.71,542.68 -872.65,657.25 -399.9,104.17 -844.25,-97.23 -989.83,-305.88 -182.32,-261.27 -261.97,-737.85 -95.01,-1079.58 179.65,-367.69 610.26,-498.77 1098.75,-536.86z"/>
    <path class="fil2" d="M18230.35 8931.5l-976.22 -2.72 -16.2 1775.58 1021.38 7.33 10.04 5795.35 2085.82 -13.95 11.12 -4783.71 -15.03 -993.4 1758.1 -0.22 15.61 -1803.45 -454.89 -20.44 -430.06 7.42 -871.17 9.96 8.94 -731.64 16.95 -113.6 91.66 -252.22 56.76 -35.74c7.93,-4.48 44.21,-26.61 55.15,-31.94 87.3,-42.47 42.75,-32.06 146.03,-47.45 147.34,-119.61 519,-70.45 703.64,-72.78 253.93,-3.22 588.12,1.21 833.63,-23.82l-11.44 -1617.3 -632.89 -2.52c-787.4,4.86 -1481.84,-60.63 -2168.69,206.22 -398.07,110.38 -772.96,478.2 -906.59,825.48 -132.43,96.03 -224.82,550.12 -248.49,756.09l-29.8 249.14c-0.58,187.54 31.57,805.62 -53.36,914.33z"/>
   </g>
   <path class="fil3" d="M8362.83 6215.11c69.51,0 130.94,-8.45 185.26,-25.02 53.77,-16.2 99.45,-39.78 136.48,-69.98 37.57,-30.2 65.97,-67.02 85.77,-110.11 19.8,-43.09 29.4,-91.31 29.4,-144.34l0 -854.69 389.77 0 0 854.69c0,86.17 -19.28,165.71 -57.37,238.25 -38.03,72.55 -92.83,135.52 -164.37,188.18 -71.08,53.02 -157.86,94.25 -259.83,123.71 -102.03,29.49 -217.23,44.2 -345.11,44.2 -127.86,0 -243.06,-14.71 -345.6,-44.2 -102.49,-29.46 -189.77,-70.69 -260.8,-123.71 -71.57,-52.66 -126.4,-115.63 -164.43,-188.18 -38.09,-72.54 -57.37,-152.08 -57.37,-238.25l0 -854.69 391.26 0 0 854.69c0,53.03 9.65,101.25 29.45,144.34 19.8,43.09 48.2,79.91 85.75,110.11 37.05,30.2 82.74,53.78 136.51,69.98 54.31,16.57 115.71,25.02 185.23,25.02z"/>
   <path class="fil3" d="M7953.17 7998.49l0 527.74 -443.03 0 0 -1371.72 671.69 0c148.43,0 276.23,9.89 382.83,29.63 106.03,19.75 193.11,46.89 260.74,82.15 67.63,34.88 117.51,77.2 148.46,125.85 31.51,49 47,102.57 47,161.09 0,44.77 -9.77,87.43 -29.83,127.63 -20.06,40.17 -49.83,77.2 -88.26,110.68 -38.97,33.15 -85.97,62.77 -142.11,88.49 -55.6,26.08 -120.35,46.88 -193.15,62.77 28.12,9.51 54.46,21.14 79.12,34.54 24.6,13.4 47.57,29.6 68.74,49l498.6 499.89 -397.71 0c-70.52,0 -124.95,-18.34 -162.77,-54.63l-406.32 -427.63c-16.63,-16.57 -35.51,-28.2 -56.14,-35.26 -20.69,-6.71 -50.46,-10.22 -88.32,-10.22l-149.54 0zm0 -193.2l225.23 0c71.6,0 133.51,-5.98 185.09,-17.63 52.14,-11.63 95.17,-27.83 128.97,-48.29 33.23,-20.8 58.43,-45.48 74.51,-74.03 16.03,-28.54 24.06,-59.57 24.06,-93.43 0,-66.62 -33.26,-118.08 -100.29,-154.4 -67.05,-36.31 -170.23,-54.28 -308.91,-54.28l-228.66 0 0 442.06z"/>
   <path class="fil3" d="M9238.49 10053.09c0,121.51 -29.98,231.62 -89.86,330.68 -59.86,98.69 -144.12,181.17 -252.2,247.46l506.94 416.48 -320.68 0c-46.72,0 -88.32,-4.42 -124.35,-12.88 -36.03,-8.83 -70.03,-25.77 -102,-50.83l-273.51 -229.77c-94.89,21 -195.37,31.28 -301.46,31.28 -144.08,0 -274.54,-18.4 -392.77,-54.85 -117.74,-36.83 -219.26,-88 -303.46,-153.2 -84.25,-65.55 -149.2,-143.23 -195.37,-232.72 -46.2,-89.48 -69.03,-186.71 -69.03,-291.65 0,-104.2 22.83,-201.43 69.03,-290.92 46.17,-89.48 111.12,-166.8 195.37,-231.97 84.2,-64.83 185.72,-116 303.46,-153.2 118.23,-36.83 248.69,-55.6 392.77,-55.6 143.6,0 274.57,18.77 392.29,55.6 117.74,37.2 218.71,88.37 302.43,153.91 83.74,65.2 148.71,142.52 193.88,232 45.66,89.12 68.52,185.98 68.52,290.18zm-398.4 0c0,-76.23 -12.66,-144.72 -38.55,-205.12 -25.91,-60.37 -62.91,-111.94 -110.63,-154.28 -48.2,-42.35 -106.6,-74.75 -175.57,-97.58 -69.03,-22.48 -147.17,-33.88 -233.97,-33.88 -87.28,0 -165.94,11.4 -234.94,33.88 -69.52,22.83 -128.4,55.23 -176.63,97.58 -47.69,42.34 -84.71,93.91 -110.6,154.28 -25.91,60.4 -38.57,128.89 -38.57,205.12 0,76.97 12.66,145.82 38.57,206.6 25.89,60.74 62.91,111.94 110.6,154.28 48.23,41.97 107.11,74.03 176.63,96.49 69,22.08 147.66,33.51 234.94,33.51 86.8,0 164.94,-11.43 233.97,-33.51 68.97,-22.46 127.37,-54.52 175.57,-96.49 47.72,-42.34 84.72,-93.54 110.63,-154.28 25.89,-60.78 38.55,-129.63 38.55,-206.6z"/>
   <path class="fil3" d="M9230.89 15890.43l0 99.54c0,29.32 -15.55,56.23 -47.32,80.66l-1086.68 964.94 1103.51 0 0 213.74 -1707.14 0 0 -104.42c0,-27.23 14.25,-51.69 43.43,-73.69l1086.71 -966.69 -1046.51 0 0 -214.08 1654 0z"/>
   <path class="fil3" d="M9389.51 19482.97l-335.97 0c-38.57,0 -69.8,-5.74 -93.05,-17.26 -23.26,-11.85 -40.29,-26.22 -51.63,-43.82l-139.63 -274.95 -813.2 0 -137.89 273.86c-8.51,15.46 -25.51,29.83 -50.51,42.77 -24.94,12.94 -55.6,19.4 -92.49,19.4l-340.48 0 804.65 -1398.37 445.49 0 804.71 1398.37zm-1335.31 -529.74l615.2 0 -224.2 -442.03c-13.6,-21.94 -27.23,-47.09 -41.4,-76.54 -14.77,-29.12 -28.97,-60.75 -43.71,-95.26 -13.06,34.51 -27.2,66.49 -41.43,95.97 -14.17,29.46 -27.8,54.97 -39.69,76.89l-224.77 440.97z"/>
   <path class="fil3" d="M8362.83 12738.86c69.51,0 130.94,-8.46 185.26,-25.03 53.77,-16.2 99.45,-39.77 136.48,-69.97 37.57,-30.2 65.97,-67.03 85.77,-110.12 19.8,-43.08 29.4,-91.31 29.4,-144.34l0 -854.69 389.77 0 0 854.69c0,86.17 -19.28,165.71 -57.37,238.26 -38.03,72.54 -92.83,135.51 -164.37,188.17 -71.08,53.03 -157.86,94.26 -259.83,123.71 -102.03,29.49 -217.23,44.2 -345.11,44.2 -127.86,0 -243.06,-14.71 -345.6,-44.2 -102.49,-29.45 -189.77,-70.68 -260.8,-123.71 -71.57,-52.66 -126.4,-115.63 -164.43,-188.17 -38.09,-72.55 -57.37,-152.09 -57.37,-238.26l0 -854.69 391.26 0 0 854.69c0,53.03 9.65,101.26 29.45,144.34 19.8,43.09 48.2,79.92 85.75,110.12 37.05,30.2 82.74,53.77 136.51,69.97 54.31,16.57 115.71,25.03 185.23,25.03z"/>
   <polygon class="fil4" points="8102.63,13690.89 8621.57,13690.89 8621.57,15079.66 8102.63,15079.66 "/>
  </g>
 </g>
</svg>
