<?xml version="1.0" encoding="UTF-8"?>
<!DOCTYPE svg PUBLIC "-//W3C//DTD SVG 1.1//EN" "http://www.w3.org/Graphics/SVG/1.1/DTD/svg11.dtd">
<!-- Creator: CorelDRAW 2018 -->
<svg xmlns="http://www.w3.org/2000/svg" xml:space="preserve" width="297mm" height="210mm" version="1.1" style="shape-rendering:geometricPrecision; text-rendering:geometricPrecision; image-rendering:optimizeQuality; fill-rule:evenodd; clip-rule:evenodd"
viewBox="0 0 29700 21000"
 xmlns:xlink="http://www.w3.org/1999/xlink">
 <defs>
  <style type="text/css">
   <![CDATA[
    .str0 {stroke:#F31414;stroke-width:20;stroke-miterlimit:22.9256}
    .str1 {stroke:#F31414;stroke-width:7.62;stroke-miterlimit:22.9256}
    .fil5 {fill:#616161}
    .fil2 {fill:#B3B3B3}
    .fil7 {fill:#F31414}
    .fil6 {fill:#FEFEFE}
    .fil0 {fill:#1C1B17;fill-rule:nonzero}
    .fil4 {fill:#616161;fill-rule:nonzero}
    .fil3 {fill:#B3B3B3;fill-rule:nonzero}
    .fil1 {fill:#E80303;fill-rule:nonzero}
   ]]>
  </style>
 </defs>
 <g id="Layer_x0020_1">
  <metadata id="CorelCorpID_0Corel-Layer"/>
  <g id="_674608408">
   <path class="fil0" d="M11202.59 4029.08l0 257.76 -289.44 0 0 1044.79 -277.17 0 0 -1044.79 -291.19 0 0 -257.76 857.8 0zm953.12 248.01l-556.09 0 0 267.54 436.79 0 0 244.1 -436.79 0 0 285.11 556.09 0 0 257.79 -835 0 0 -1302.55 835 0 0 248.01zm-198.23 -691.31l64.91 159.81 -376.57 178.03 -42.69 -106.44 354.35 -231.4zm1304.84 928.9l-287.7 20.18c-4.07,-184.88 -68.11,-277.31 -192.67,-277.31 -142.95,0 -214.29,141.59 -214.29,425.09 0,163.71 19.3,274.69 58.17,332.95 38.89,58.25 92.98,87.55 162.56,87.55 113.14,0 182.16,-82.01 207.29,-246.06l266.64 18.23c-17.25,155.26 -69.3,273.72 -156.13,354.45 -87.12,81.05 -193.83,121.39 -319.83,121.39 -154.66,0 -280.38,-59.55 -377.17,-178.35 -96.76,-118.8 -145.01,-283.17 -145.01,-493.09 0,-196.27 46.77,-357.07 140.34,-482.37 93.56,-125.3 221.61,-187.81 383.59,-187.81 280.66,0 438.85,168.28 474.21,505.15zm1056.89 -485.6l0 1302.55 -237.4 0 -452 -879.76c0.6,22.12 1.18,36.78 1.76,43.94 2.35,22.14 3.51,41 3.51,56.3l0 779.52 -214.01 0 0 -1302.55 296.46 0 394.69 768.11c-3.51,-38.07 -5.26,-67.05 -5.26,-86.89l0 -681.22 212.25 0zm509.59 0l0 1302.55 -273.64 0 0 -1302.55 273.64 0zm1176.19 485.6l-287.68 20.18c-4.09,-184.88 -68.11,-277.31 -192.67,-277.31 -142.95,0 -214.29,141.59 -214.29,425.09 0,163.71 19.28,274.69 58.17,332.95 38.89,58.25 92.98,87.55 162.54,87.55 113.16,0 182.16,-82.01 207.29,-246.06l266.64 18.23c-17.25,155.26 -69.28,273.72 -156.11,354.45 -87.12,81.05 -193.83,121.39 -319.85,121.39 -154.66,0 -280.39,-59.55 -377.15,-178.35 -96.78,-118.8 -145.03,-283.17 -145.03,-493.09 0,-196.27 46.79,-357.07 140.34,-482.37 93.56,-125.3 221.63,-187.81 383.59,-187.81 280.66,0 438.85,168.28 474.21,505.15zm597.3 836.47c-157.27,0 -279.21,-65.73 -365.44,-197.24 -86.25,-131.8 -129.23,-290.97 -129.23,-477.79 0,-190.08 43.55,-348.59 130.99,-475.85 87.39,-127.26 211.65,-190.74 373.35,-190.74 163.12,0 286.21,67.71 369.25,203.44 83.02,135.72 124.55,291.29 124.55,466.08 0,188.78 -42.68,347.93 -128.36,477.48 -85.65,129.85 -210.5,194.62 -375.11,194.62zm7.92 -1093.6c-143.27,0 -214.91,140.62 -214.91,422.16 0,282.17 71.64,423.43 214.91,423.43 138.56,0 207.85,-140.92 207.85,-422.46 0,-282.19 -69.29,-423.13 -207.85,-423.13zm1921.98 57.93l-233.29 86.6c-31.57,-102.87 -98.24,-154.28 -199.97,-154.28 -108.77,0 -163.16,39.04 -163.16,117.16 0,31.25 10.23,57.62 30.42,79.1 20.46,21.48 66.07,40.36 137.7,56.95 119.28,27.35 206.71,54.69 262.24,82.03 55.56,27 102.33,70.94 140.64,131.81 38.01,60.54 57.01,128.23 57.01,203.1 0,117.5 -40.64,219.05 -122.21,304.65 -81.57,85.6 -202.32,128.55 -362.25,128.55 -120.15,0 -222.18,-30.27 -306.68,-91.12 -84.2,-60.86 -139.77,-151.03 -166.65,-270.81l254.38 -63.79c28.64,121.09 107.87,181.62 237.96,181.62 62.86,0 109.65,-13.34 140.34,-40.37 30.69,-27 46.19,-59.23 46.19,-96.66 0,-38.39 -14.02,-67.69 -42.1,-88.85 -27.76,-20.84 -81.85,-40.36 -161.68,-58.91 -149.1,-34.18 -255.23,-80.71 -318.67,-140.28 -63.44,-59.23 -95.03,-146.15 -95.03,-260.72 0,-115.53 37.73,-213.17 113.43,-292.59 75.73,-79.41 178.65,-119.14 308.17,-119.14 229.8,0 377.44,101.89 443.21,305.95zm1130.58 -286.4l0 810.75c0,131.17 -13.42,228.49 -40.34,292.29 -26.59,64.11 -76.3,116.51 -148.52,157.53 -72.21,41 -164.31,61.5 -276.87,61.5 -112.56,0 -202.02,-18.54 -268.4,-55.32 -66.65,-36.77 -116.34,-89.19 -149.39,-157.53 -33.03,-68.03 -49.7,-167.3 -49.7,-298.47l0 -810.75 296.46 0 0 811.41c0,69.98 5.26,121.73 15.79,154.6 10.53,33.2 31.87,59.57 63.44,79.09 31.57,19.21 70.76,28.96 116.95,28.96 51.45,0 93.27,-9.43 125.42,-28.64 32.15,-19.2 53.81,-44.25 64.34,-75.84 10.51,-31.57 15.77,-84.28 15.77,-158.17l0 -811.41 235.05 0zm497.03 818.25l0 484.3 -278.91 0 0 -1302.55 460.75 0c102.65,0 181.28,12.36 235.97,36.77 54.36,24.41 103.18,68.03 145.86,131.17 42.98,62.82 64.34,139.96 64.34,231.74 0,64.12 -11.41,126.6 -34.22,187.8 -22.8,60.85 -54.97,109.03 -96.77,143.86 -41.52,35.16 -81.86,58.25 -121.03,69.66 -38.89,11.38 -100.3,17.25 -183.6,17.25l-192.39 0zm-8.76 -236.31l177.74 0c67.82,0 115.19,-17.57 142.67,-52.39 27.2,-35.16 40.94,-75.19 40.94,-120.44 0,-52.73 -15.19,-94.71 -45.61,-125.96 -30.69,-31.23 -76.9,-46.86 -138.88,-46.86l-176.86 0 0 345.65zm1623.5 -333.93l-556.1 0 0 267.54 436.8 0 0 244.1 -436.8 0 0 285.11 556.1 0 0 257.79 -835 0 0 -1302.55 835 0 0 248.01zm440.01 540.94l0 513.6 -275.4 0 0 -1302.55 514.28 0c94.73,0 171.01,12.36 228.33,36.77 57.59,24.73 105.24,69.64 142.95,135.4 37.73,65.75 56.44,138.98 56.44,219.37 0,156.88 -67.83,269.5 -203.5,337.84l215.78 573.17 -302.02 0 -180.08 -513.6 -196.78 0zm0 -554.62l0 332 168.42 0c54.96,0 95.01,-4.23 119.86,-13.03 25.14,-8.45 47.08,-27.66 66.65,-56.96 19.58,-29.61 29.23,-63.45 29.23,-101.87 0,-36.13 -9.65,-68.68 -29.23,-97.32 -19.57,-28.32 -40.65,-46.21 -63.42,-52.73 -23.12,-6.84 -66.09,-10.09 -128.96,-10.09l-162.55 0zm1151.04 -234.33l0 1302.55 -273.64 0 0 -1302.55 273.64 0zm672.74 1322.07c-157.29,0 -279.22,-65.73 -365.46,-197.24 -86.25,-131.8 -129.23,-290.97 -129.23,-477.79 0,-190.08 43.56,-348.59 130.99,-475.85 87.41,-127.26 211.66,-190.74 373.36,-190.74 163.11,0 286.2,67.71 369.24,203.44 83.03,135.72 124.55,291.29 124.55,466.08 0,188.78 -42.68,347.93 -128.34,477.48 -85.67,129.85 -210.52,194.62 -375.11,194.62zm7.9 -1093.6c-143.27,0 -214.91,140.62 -214.91,422.16 0,282.17 71.64,423.43 214.91,423.43 138.57,0 207.85,-140.92 207.85,-422.46 0,-282.19 -69.28,-423.13 -207.85,-423.13zm950.17 560.48l0 513.6 -275.39 0 0 -1302.55 514.27 0c94.73,0 171.02,12.36 228.33,36.77 57.6,24.73 105.24,69.64 142.96,135.4 37.73,65.75 56.44,138.98 56.44,219.37 0,156.88 -67.83,269.5 -203.5,337.84l215.78 573.17 -302.02 0 -180.09 -513.6 -196.78 0zm0 -554.62l0 332 168.43 0c54.96,0 95,-4.23 119.85,-13.03 25.15,-8.45 47.09,-27.66 66.67,-56.96 19.57,-29.61 29.24,-63.45 29.24,-101.87 0,-36.13 -9.67,-68.68 -29.24,-97.32 -19.58,-28.32 -40.66,-46.21 -63.44,-52.73 -23.11,-6.84 -66.09,-10.09 -128.95,-10.09l-162.56 0zm2150.94 13.68l-556.08 0 0 267.54 436.78 0 0 244.1 -436.78 0 0 285.11 556.08 0 0 257.79 -835 0 0 -1302.55 835 0 0 248.01zm1062.75 -248.01l0 1302.55 -237.4 0 -451.99 -879.76c0.57,22.12 1.17,36.78 1.75,43.94 2.35,22.14 3.51,41 3.51,56.3l0 779.52 -214.01 0 0 -1302.55 296.46 0 394.69 768.11c-3.51,-38.07 -5.26,-67.05 -5.26,-86.89l0 -681.22 212.25 0z"/>
   <path class="fil1" d="M19665.96 6201.17l-245.78 124.95c-33.26,-148.42 -103.46,-222.63 -210.66,-222.63 -114.55,0 -171.85,56.36 -171.85,169.08 0,45.09 10.77,83.14 32.03,114.13 21.56,31 69.6,58.24 145.07,82.21 125.64,39.45 217.74,78.9 276.25,118.36 58.54,38.97 107.8,102.39 148.14,190.22 40.05,87.35 60.07,185.05 60.07,293.09 0,169.55 -42.82,316.1 -128.75,439.63 -85.92,123.52 -213.12,185.53 -381.58,185.53 -126.6,0 -234.07,-43.68 -323.08,-131.51 -88.68,-87.83 -147.22,-217.94 -175.56,-390.79l267.96 -92.05c30.17,174.72 113.64,262.07 250.71,262.07 66.19,0 115.49,-19.25 147.82,-58.23 32.32,-38.99 48.66,-85.48 48.66,-139.51 0,-55.42 -14.78,-97.68 -44.36,-128.21 -29.25,-30.08 -86.23,-58.26 -170.31,-85.02 -157.07,-49.32 -268.86,-116.49 -335.71,-202.44 -66.83,-85.48 -100.07,-210.88 -100.07,-376.23 0,-166.73 39.73,-307.65 119.5,-422.24 79.75,-114.61 188.16,-171.91 324.59,-171.91 242.1,0 397.61,147 466.91,441.5zm682.8 1494.57c-165.71,0 -294.12,-94.87 -384.96,-284.63 -90.86,-190.22 -136.14,-419.91 -136.14,-689.52 0,-274.3 45.87,-503.03 137.97,-686.68 92.08,-183.66 222.97,-275.24 393.28,-275.24 171.87,0 301.52,97.7 388.99,293.54 87.47,195.87 131.21,420.39 131.21,672.61 0,272.42 -44.97,502.11 -135.19,689.04 -90.25,187.4 -221.77,280.88 -395.16,280.88zm8.32 -1578.17c-150.91,0 -226.38,202.9 -226.38,609.19 0,407.22 75.47,611.08 226.38,611.08 145.98,0 218.97,-203.38 218.97,-609.67 0,-407.22 -72.99,-610.6 -218.97,-610.6zm1004.64 851.08l0 698.91 -293.83 0 0 -1879.71 485.38 0c108.11,0 190.96,17.85 248.55,53.07 57.3,35.24 108.71,98.16 153.68,189.28 45.28,90.66 67.75,201.98 67.75,334.43 0,92.53 -12,182.72 -36.02,271.01 -24.03,87.83 -57.91,157.35 -101.95,207.6 -43.73,50.74 -86.23,84.08 -127.51,100.52 -40.95,16.43 -105.62,24.89 -193.39,24.89l-202.66 0zm-9.26 -340.99l187.27 0c71.46,0 121.33,-25.37 150.29,-75.63 28.64,-50.71 43.12,-108.49 43.12,-173.78 0,-76.08 -16.02,-136.67 -48.05,-181.76 -32.34,-45.1 -80.98,-67.65 -146.28,-67.65l-186.35 0 0 498.82zm1292.62 1068.08c-165.71,0 -294.14,-94.87 -384.98,-284.63 -90.86,-190.22 -136.14,-419.91 -136.14,-689.52 0,-274.3 45.89,-503.03 137.99,-686.68 92.08,-183.66 222.97,-275.24 393.28,-275.24 171.87,0 301.52,97.7 388.99,293.54 87.46,195.87 131.21,420.39 131.21,672.61 0,272.42 -44.97,502.11 -135.21,689.04 -90.25,187.4 -221.75,280.88 -395.14,280.88zm8.32 -1578.17c-150.91,0 -226.38,202.9 -226.38,609.19 0,407.22 75.47,611.08 226.38,611.08 145.96,0 218.97,-203.38 218.97,-609.67 0,-407.22 -73.01,-610.6 -218.97,-610.6zm1000.93 808.82l0 741.17 -290.12 0 0 -1879.71 541.74 0c99.78,0 180.17,17.85 240.54,53.07 60.66,35.7 110.88,100.51 150.61,195.4 39.72,94.87 59.45,200.55 59.45,316.56 0,226.4 -71.46,388.91 -214.37,487.55l227.29 827.13 -318.15 0 -189.72 -741.17 -207.27 0zm0 -800.36l0 479.09 177.41 0c57.9,0 100.08,-6.12 126.26,-18.8 26.49,-12.21 49.6,-39.91 70.22,-82.19 20.64,-42.74 30.79,-91.6 30.79,-147.02 0,-52.13 -10.15,-99.1 -30.79,-140.44 -20.62,-40.87 -42.82,-66.69 -66.83,-76.08 -24.33,-9.88 -69.6,-14.56 -135.81,-14.56l-171.25 0zm1704.06 -338.18l0 372 -304.89 0 0 1507.71 -291.97 0 0 -1507.71 -306.74 0 0 -372 903.6 0zm1004.04 357.9l-585.79 0 0 386.08 460.13 0 0 352.28 -460.13 0 0 411.45 585.79 0 0 372 -879.59 0 0 -1879.71 879.59 0 0 357.9zm1398.54 -357.9l0 1879.71 -247.61 0 0 -217.94c-61.59,163.93 -145.69,246.12 -251.93,246.12 -101.03,0 -180.78,-62.47 -239,-187.41 -58.21,-125.4 -87.47,-298.73 -87.47,-520.42 0,-230.62 29.26,-411.45 87.47,-542.01 58.22,-130.59 142.6,-195.87 253.16,-195.87 97.33,0 172.15,58.72 224.82,175.66l0 -637.84 260.56 0zm-260.56 1073.24c0,-217.46 -43.73,-326.43 -131.5,-326.43 -104.4,0 -156.76,153.59 -156.76,460.77 0,273.36 48.97,410.03 146.91,410.03 37.57,0 70.54,-24.89 98.85,-74.21 28.34,-49.31 42.5,-119.77 42.5,-210.87l0 -259.29zm1300 178.02l-586.71 0c-0.62,24.89 -0.91,46.5 -0.91,64.81 0,99.58 17.25,174.72 52.03,225.46 34.5,50.72 76.08,76.08 124.42,76.08 89.65,0 143.53,-73.27 161.7,-219.81l243.93 27.72c-68.07,321.72 -206.04,482.37 -414.24,482.37 -90.86,0 -168.14,-27.7 -231.6,-83.15 -63.44,-55.42 -115.79,-136.19 -157.08,-242.35 -41.26,-106.61 -61.9,-233.91 -61.9,-382.33 0,-220.75 41.28,-398.76 124.13,-534.52 82.52,-135.73 188.78,-203.36 318.75,-203.36 117.34,0 217.74,62.92 301.52,188.35 84.06,125.4 125.96,325.95 125.96,600.73zm-587.62 -236.73l323.37 0c-8.31,-189.76 -59.75,-284.63 -154,-284.63 -101.01,0 -157.37,94.87 -169.37,284.63zm-15069.29 2180.79l0 1879.71 -288.26 0 0 -1879.71 288.26 0zm1192.82 0l0 1879.71 -250.08 0 -476.15 -1269.59c0.64,31.95 1.24,53.09 1.86,63.42 2.45,31.93 3.69,59.17 3.69,81.25l0 1124.92 -225.44 0 0 -1879.71 312.29 0 415.77 1108.46c-3.69,-54.94 -5.52,-96.74 -5.52,-125.4l0 -983.06 223.58 0zm1124.44 372l-576.54 0 0 419.91 456.42 0 0 352.25 -456.42 0 0 735.55 -299.36 0 0 -1879.71 875.9 0 0 372zm438.25 766.54l0 741.17 -290.11 0 0 -1879.71 541.76 0c99.77,0 180.14,17.85 240.53,53.07 60.67,35.7 110.87,100.51 150.59,195.4 39.73,94.87 59.45,200.55 59.45,316.56 0,226.4 -71.45,388.91 -214.37,487.55l227.3 827.13 -318.16 0 -189.72 -741.17 -207.27 0zm0 -800.36l0 479.09 177.42 0c57.89,0 100.09,-6.12 126.26,-18.8 26.48,-12.21 49.6,-39.91 70.22,-82.19 20.64,-42.74 30.81,-91.6 30.81,-147.02 0,-52.13 -10.17,-99.1 -30.81,-140.44 -20.62,-40.86 -42.8,-66.69 -66.83,-76.08 -24.33,-9.88 -69.6,-14.56 -135.82,-14.56l-171.25 0zm1531.3 -338.18l383.45 1879.71 -310.14 0 -76.08 -388.91 -397.29 0 -77.92 388.91 -252.86 0 394.52 -1879.71 336.32 0zm-331.08 1144.16l260.56 0 -129.05 -658.5 -131.51 658.5zm1726.87 -786.26l-585.8 0 0 386.08 460.13 0 0 352.28 -460.13 0 0 411.45 585.8 0 0 372 -879.6 0 0 -1879.71 879.6 0 0 357.9zm1025.26 55.42l-245.76 124.95c-33.27,-148.42 -103.49,-222.63 -210.66,-222.63 -114.58,0 -171.85,56.36 -171.85,169.08 0,45.09 10.77,83.14 32.02,114.14 21.56,30.99 69.61,58.23 145.05,82.2 125.66,39.45 217.76,78.9 276.28,118.36 58.51,38.97 107.79,102.39 148.13,190.22 40.05,87.35 60.05,185.06 60.05,293.09 0,169.56 -42.8,316.1 -128.73,439.63 -85.94,123.52 -213.11,185.53 -381.59,185.53 -126.58,0 -234.06,-43.68 -323.08,-131.51 -88.69,-87.83 -147.21,-217.94 -175.54,-390.78l267.95 -92.06c30.18,174.72 113.64,262.07 250.69,262.07 66.21,0 115.51,-19.24 147.82,-58.23 32.35,-38.99 48.68,-85.48 48.68,-139.51 0,-55.42 -14.8,-97.68 -44.35,-128.21 -29.26,-30.08 -86.24,-58.26 -170.32,-85.02 -157.07,-49.32 -268.87,-116.49 -335.7,-202.44 -66.83,-85.48 -100.1,-210.88 -100.1,-376.23 0,-166.73 39.73,-307.64 119.5,-422.24 79.77,-114.61 188.19,-171.91 324.62,-171.91 242.07,0 397.6,147 466.89,441.5zm1009.58 -413.32l0 372 -304.91 0 0 1507.71 -291.97 0 0 -1507.71 -306.74 0 0 -372 903.62 0zm414.54 1138.54l0 741.17 -290.11 0 0 -1879.71 541.73 0c99.78,0 180.15,17.85 240.54,53.07 60.67,35.7 110.86,100.51 150.59,195.4 39.73,94.87 59.45,200.55 59.45,316.56 0,226.4 -71.45,388.91 -214.37,487.55l227.29 827.13 -318.13 0 -189.72 -741.17 -207.27 0zm0 -800.36l0 479.09 177.4 0c57.89,0 100.09,-6.12 126.26,-18.8 26.48,-12.21 49.6,-39.91 70.24,-82.19 20.62,-42.74 30.79,-91.6 30.79,-147.02 0,-52.13 -10.17,-99.1 -30.79,-140.44 -20.64,-40.86 -42.82,-66.69 -66.85,-76.08 -24.33,-9.88 -69.6,-14.56 -135.82,-14.56l-171.23 0zm1876.22 -338.18l0 1170.01c0,189.28 -14.16,329.72 -42.5,421.78 -28.02,92.53 -80.37,168.14 -156.46,227.33 -76.08,59.17 -173.08,88.77 -291.66,88.77 -118.57,0 -212.82,-26.77 -282.72,-79.85 -70.22,-53.07 -122.57,-128.7 -157.39,-227.34 -34.78,-98.16 -52.33,-241.41 -52.33,-430.69l0 -1170.01 312.29 0 0 1170.95c0,100.97 5.54,175.66 16.63,223.1 11.07,47.9 33.57,85.96 66.81,114.14 33.27,27.7 74.55,41.8 123.21,41.8 54.21,0 98.24,-13.62 132.1,-41.35 33.89,-27.7 56.68,-63.87 67.77,-109.42 11.09,-45.57 16.63,-121.66 16.63,-228.27l0 -1170.95 247.62 0zm1222.08 700.79l-303.06 29.11c-4.31,-266.78 -71.75,-400.18 -202.94,-400.18 -150.61,0 -225.78,204.32 -225.78,613.41 0,236.27 20.34,396.44 61.31,480.5 40.94,84.08 97.92,126.36 171.23,126.36 119.18,0 191.87,-118.37 218.36,-355.09l280.88 26.3c-18.17,224.05 -72.99,395.02 -164.45,511.49 -91.78,116.96 -204.2,175.2 -336.94,175.2 -162.92,0 -295.36,-85.96 -397.31,-257.39 -101.93,-171.43 -152.75,-408.64 -152.75,-711.59 0,-283.22 49.28,-515.26 147.84,-696.08 98.54,-180.83 233.46,-271.01 404.07,-271.01 295.66,0 462.28,242.83 499.54,728.97zm947.04 -700.79l0 372 -304.91 0 0 1507.71 -291.97 0 0 -1507.71 -306.75 0 0 -372 903.63 0zm1094.56 0l0 1170.01c0,189.28 -14.16,329.72 -42.5,421.78 -28.02,92.53 -80.37,168.14 -156.45,227.33 -76.08,59.17 -173.09,88.77 -291.67,88.77 -118.56,0 -212.81,-26.77 -282.71,-79.85 -70.22,-53.07 -122.57,-128.7 -157.4,-227.34 -34.8,-98.16 -52.33,-241.41 -52.33,-430.69l0 -1170.01 312.29 0 0 1170.95c0,100.97 5.55,175.66 16.64,223.1 11.07,47.9 33.56,85.96 66.81,114.14 33.26,27.7 74.54,41.8 123.21,41.8 54.2,0 98.24,-13.62 132.1,-41.35 33.88,-27.7 56.68,-63.87 67.77,-109.42 11.08,-45.57 16.63,-121.66 16.63,-228.27l0 -1170.95 247.61 0zm519.88 1138.54l0 741.17 -290.11 0 0 -1879.71 541.74 0c99.77,0 180.16,17.85 240.53,53.07 60.67,35.7 110.87,100.51 150.59,195.4 39.75,94.87 59.45,200.55 59.45,316.56 0,226.4 -71.43,388.91 -214.35,487.55l227.3 827.13 -318.16 0 -189.72 -741.17 -207.27 0zm0 -800.36l0 479.09 177.4 0c57.91,0 100.09,-6.12 126.28,-18.8 26.48,-12.21 49.58,-39.91 70.22,-82.19 20.64,-42.74 30.79,-91.6 30.79,-147.02 0,-52.13 -10.15,-99.1 -30.79,-140.44 -20.64,-40.86 -42.82,-66.69 -66.83,-76.08 -24.35,-9.88 -69.62,-14.56 -135.81,-14.56l-171.26 0zm1531.3 -338.18l383.43 1879.71 -310.14 0 -76.06 -388.91 -397.31 0 -77.9 388.91 -252.86 0 394.52 -1879.71 336.32 0zm-331.07 1144.16l260.53 0 -129.03 -658.5 -131.5 658.5zm-11267.22 2051.16l0 1879.71 -247.61 0 0 -217.94c-61.59,163.93 -145.67,246.12 -251.93,246.12 -101.03,0 -180.78,-62.46 -238.99,-187.41 -58.2,-125.4 -87.48,-298.73 -87.48,-520.42 0,-230.62 29.28,-411.44 87.48,-542.01 58.21,-130.59 142.59,-195.86 253.15,-195.86 97.33,0 172.15,58.71 224.84,175.66l0 -637.85 260.54 0zm-260.54 1073.25c0,-217.47 -43.75,-326.43 -131.52,-326.43 -104.4,0 -156.75,153.58 -156.75,460.76 0,273.36 48.96,410.04 146.9,410.04 37.57,0 70.54,-24.89 98.88,-74.21 28.31,-49.32 42.49,-119.78 42.49,-210.88l0 -259.28zm1299.98 178.01l-586.71 0c-0.6,24.89 -0.91,46.51 -0.91,64.81 0,99.58 17.25,174.73 52.05,225.46 34.48,50.72 76.06,76.09 124.42,76.09 89.63,0 143.51,-73.28 161.68,-219.82l243.93 27.72c-68.07,321.73 -206.04,482.37 -414.24,482.37 -90.84,0 -168.14,-27.7 -231.6,-83.14 -63.44,-55.43 -115.79,-136.2 -157.08,-242.35 -41.26,-106.62 -61.9,-233.92 -61.9,-382.34 0,-220.75 41.28,-398.76 124.13,-534.51 82.54,-135.74 188.78,-203.36 318.75,-203.36 117.35,0 217.76,62.92 301.52,188.34 84.08,125.4 125.96,325.95 125.96,600.73zm-587.62 -236.73l323.37 0c-8.31,-189.76 -59.75,-284.63 -154,-284.63 -100.99,0 -157.37,94.87 -169.37,284.63zm2011.73 -1014.53l0 372 -304.92 0 0 1507.71 -291.96 0 0 -1507.71 -306.75 0 0 -372 903.63 0zm1004.02 357.9l-585.77 0 0 386.08 460.11 0 0 352.28 -460.11 0 0 411.45 585.77 0 0 372 -879.6 0 0 -1879.71 879.6 0 0 357.9zm1165.72 342.89l-303.06 29.11c-4.31,-266.78 -71.78,-400.18 -202.96,-400.18 -150.59,0 -225.76,204.32 -225.76,613.42 0,236.26 20.34,396.43 61.31,480.49 40.94,84.08 97.92,126.36 171.23,126.36 119.18,0 191.87,-118.37 218.36,-355.09l280.88 26.3c-18.17,224.05 -72.99,395.02 -164.47,511.49 -91.78,116.96 -204.2,175.2 -336.92,175.2 -162.94,0 -295.36,-85.96 -397.31,-257.39 -101.93,-171.43 -152.75,-408.63 -152.75,-711.59 0,-283.22 49.26,-515.25 147.84,-696.08 98.54,-180.82 233.44,-271.01 404.05,-271.01 295.68,0 462.28,242.83 499.56,728.97zm1113.35 -700.79l0 1879.71 -250.09 0 -476.14 -1269.59c0.63,31.95 1.23,53.09 1.85,63.42 2.47,31.93 3.69,59.18 3.69,81.25l0 1124.92 -225.44 0 0 -1879.71 312.29 0 415.78 1108.47c-3.69,-54.95 -5.53,-96.75 -5.53,-125.41l0 -983.06 223.59 0zm710.51 1907.89c-165.7,0 -294.14,-94.87 -384.98,-284.63 -90.86,-190.22 -136.13,-419.9 -136.13,-689.52 0,-274.3 45.89,-503.02 137.98,-686.68 92.08,-183.66 222.97,-275.24 393.28,-275.24 171.88,0 301.53,97.7 389,293.55 87.45,195.86 131.2,420.38 131.2,672.6 0,272.42 -44.97,502.11 -135.21,689.04 -90.24,187.4 -221.75,280.88 -395.14,280.88zm8.32 -1578.17c-150.91,0 -226.38,202.9 -226.38,609.19 0,407.22 75.47,611.08 226.38,611.08 145.96,0 218.98,-203.38 218.98,-609.67 0,-407.22 -73.02,-610.6 -218.98,-610.6zm1002.78 1177.99l489.69 0 0 372 -781.65 0 0 -1879.71 291.96 0 0 1507.71zm1082.24 400.18c-165.69,0 -294.12,-94.87 -384.96,-284.63 -90.86,-190.22 -136.13,-419.9 -136.13,-689.52 0,-274.3 45.89,-503.02 137.96,-686.68 92.1,-183.66 222.99,-275.24 393.3,-275.24 171.85,0 301.5,97.7 388.98,293.55 87.47,195.86 131.2,420.38 131.2,672.6 0,272.42 -44.97,502.11 -135.19,689.04 -90.25,187.4 -221.77,280.88 -395.16,280.88zm8.32 -1578.17c-150.91,0 -226.38,202.9 -226.38,609.19 0,407.22 75.47,611.08 226.38,611.08 145.98,0 218.97,-203.38 218.97,-609.67 0,-407.22 -72.99,-610.6 -218.97,-610.6zm1669.88 543.91l0 1006.08 -131.2 0c-9.56,-70.46 -23.42,-142.79 -41.57,-216.07 -87.79,163 -199.89,244.25 -336.02,244.25 -160.76,0 -285.8,-87.83 -375.13,-263.03 -89.6,-175.18 -134.26,-401.58 -134.26,-679.65 0,-299.18 47.73,-539.2 143.19,-720.96 95.19,-181.79 224.84,-272.43 388.38,-272.43 137.37,0 247.93,58.71 332.31,175.66 84.08,117.43 135.52,273.36 154.3,468.29l-273.5 54.94c-22.16,-227.31 -93.31,-340.99 -212.81,-340.99 -78.52,0 -137.65,54.01 -177.7,162.04 -40.34,108.03 -60.36,262.09 -60.36,462.66 0,193.03 21.85,340.51 65.29,442.44 43.44,101.93 105.32,153.13 185.41,153.13 52.03,0 98.24,-25.83 139.21,-77.04 40.64,-51.66 60.96,-133.86 60.96,-247.06l-232.84 0 0 -352.26 506.34 0zm515.87 -873.63l0 1879.71 -288.28 0 0 -1879.71 288.28 0zm75.77 -645.36l68.36 230.62 -396.67 256.93 -44.97 -153.6 373.28 -333.95zm777.96 645.36l383.43 1879.71 -310.14 0 -76.06 -388.91 -397.31 0 -77.9 388.91 -252.86 0 394.52 -1879.71 336.32 0zm-331.07 1144.16l260.53 0 -129.03 -658.5 -131.5 658.5zm-14663.65 2051.16l0 1879.71 -247.61 0 0 -217.94c-61.58,163.93 -145.69,246.12 -251.92,246.12 -101.03,0 -180.79,-62.46 -239,-187.41 -58.22,-125.4 -87.47,-298.73 -87.47,-520.41 0,-230.63 29.25,-411.45 87.47,-542.02 58.21,-130.59 142.59,-195.86 253.16,-195.86 97.32,0 172.15,58.71 224.84,175.66l0 -637.85 260.53 0zm-260.53 1073.25c0,-217.46 -43.76,-326.43 -131.53,-326.43 -104.4,0 -156.75,153.58 -156.75,460.76 0,273.37 48.96,410.04 146.9,410.04 37.57,0 70.54,-24.89 98.86,-74.21 28.34,-49.32 42.52,-119.78 42.52,-210.88l0 -259.28zm1299.97 178.01l-586.7 0c-0.62,24.89 -0.92,46.51 -0.92,64.82 0,99.57 17.25,174.72 52.03,225.45 34.5,50.72 76.08,76.09 124.45,76.09 89.62,0 143.51,-73.27 161.68,-219.82l243.92 27.72c-68.07,321.73 -206.03,482.37 -414.24,482.37 -90.84,0 -168.14,-27.7 -231.6,-83.14 -63.44,-55.43 -115.79,-136.2 -157.07,-242.35 -41.27,-106.62 -61.91,-233.92 -61.91,-382.33 0,-220.76 41.29,-398.77 124.13,-534.52 82.52,-135.74 188.78,-203.36 318.75,-203.36 117.35,0 217.74,62.92 301.52,188.34 84.06,125.4 125.96,325.95 125.96,600.73zm-587.62 -236.73l323.38 0c-8.32,-189.76 -59.75,-284.63 -154,-284.63 -101.02,0 -157.38,94.87 -169.38,284.63zm1218.99 865.18l0 -1879.71 269.79 0 0 1879.71 -269.79 0zm1284.58 0l-260.56 0c-8.62,-55.42 -12.92,-128.23 -12.92,-218.4 -45.59,99.1 -91.18,164.85 -136.45,197.74 -45.28,32.41 -97.01,48.84 -154.6,48.84 -85.3,0 -153.99,-35.22 -206.66,-105.68 -52.67,-70.92 -78.85,-165.33 -78.85,-284.63 0,-86.89 15.42,-167.22 45.89,-240.49 30.81,-73.28 80.09,-131.03 148.16,-172.37 67.74,-41.8 191.55,-72.8 371.42,-93l0 -79.85c0,-134.8 -44.06,-201.97 -132.42,-201.97 -94.26,0 -146.93,67.63 -157.72,202.91l-247.61 -35.7c16.33,-157.81 65.29,-269.59 147.22,-335.83 81.93,-66.23 174.62,-99.09 278.11,-99.09 62.22,0 120.42,10.79 175.24,32.86 54.82,22.08 97.62,54.97 128.43,99.12 30.8,44.14 51.44,90.64 62.23,139.48 10.77,49.32 16.31,134.34 16.31,256.45l0 629.87c0,120.72 4.93,207.61 14.78,259.74zm-284.57 -665.09c-188.48,28.18 -282.74,114.62 -282.74,258.81 0,48.38 9.86,90.18 29.88,125.4 19.7,35.24 48.04,52.61 84.7,52.61 47.72,0 87.77,-30.05 119.8,-89.7 32.34,-59.65 48.36,-133.4 48.36,-221.23l0 -125.89zm1253.79 -1214.62l0 1879.71 -288.26 0 0 -1879.71 288.26 0zm1192.82 0l0 1879.71 -250.09 0 -476.14 -1269.58c0.62,31.94 1.24,53.08 1.85,63.41 2.46,31.93 3.69,59.18 3.69,81.25l0 1124.92 -225.43 0 0 -1879.71 312.29 0 415.77 1108.47c-3.69,-54.95 -5.54,-96.75 -5.54,-125.41l0 -983.06 223.6 0zm1124.44 372l-576.54 0 0 419.91 456.42 0 0 352.25 -456.42 0 0 735.55 -299.37 0 0 -1879.71 875.91 0 0 372zm593.79 1535.89c-165.69,0 -294.12,-94.87 -384.97,-284.63 -90.86,-190.22 -136.13,-419.9 -136.13,-689.52 0,-274.3 45.89,-503.02 137.97,-686.68 92.1,-183.66 222.98,-275.24 393.3,-275.24 171.85,0 301.5,97.7 388.97,293.55 87.47,195.86 131.21,420.38 131.21,672.6 0,272.43 -44.97,502.11 -135.2,689.04 -90.24,187.41 -221.77,280.88 -395.15,280.88zm8.31 -1578.17c-150.91,0 -226.37,202.91 -226.37,609.19 0,407.22 75.46,611.08 226.37,611.08 145.99,0 218.98,-203.38 218.98,-609.66 0,-407.23 -72.99,-610.61 -218.98,-610.61zm1000.95 808.82l0 741.17 -290.11 0 0 -1879.71 541.74 0c99.77,0 180.16,17.85 240.53,53.07 60.67,35.7 110.87,100.52 150.59,195.41 39.73,94.86 59.45,200.54 59.45,316.55 0,226.4 -71.45,388.92 -214.35,487.56l227.28 827.12 -318.14 0 -189.72 -741.17 -207.27 0zm0 -800.36l0 479.1 177.4 0c57.89,0 100.09,-6.13 126.28,-18.81 26.46,-12.21 49.58,-39.91 70.22,-82.19 20.62,-42.74 30.79,-91.6 30.79,-147.02 0,-52.13 -10.17,-99.1 -30.79,-140.44 -20.64,-40.86 -42.82,-66.69 -66.85,-76.08 -24.33,-9.87 -69.6,-14.56 -135.81,-14.56l-171.24 0zm1466.63 1541.53l-300.31 -1533.07 0 1533.07 -242.05 0 0 -1879.71 449.64 0 214.67 1124.92 226.99 -1124.92 450.26 0 0 1879.71 -290.11 0 0 -1533.07 -309.22 1533.07 -199.87 0zm1653.55 -1879.71l383.43 1879.71 -310.14 0 -76.06 -388.91 -397.31 0 -77.92 388.91 -252.86 0 394.54 -1879.71 336.32 0zm-331.08 1144.16l260.54 0 -129.05 -658.5 -131.49 658.5zm1798.92 -443.37l-303.06 29.11c-4.33,-266.78 -71.77,-400.18 -202.96,-400.18 -150.61,0 -225.76,204.32 -225.76,613.42 0,236.26 20.32,396.43 61.29,480.49 40.96,84.08 97.94,126.36 171.25,126.36 119.18,0 191.85,-118.36 218.36,-355.09l280.88 26.31c-18.19,224.04 -72.99,395.01 -164.47,511.48 -91.78,116.97 -204.2,175.2 -336.94,175.2 -162.92,0 -295.34,-85.96 -397.29,-257.39 -101.95,-171.43 -152.77,-408.63 -152.77,-711.59 0,-283.21 49.28,-515.25 147.84,-696.08 98.56,-180.82 233.46,-271.01 404.07,-271.01 295.68,0 462.28,242.83 499.56,728.97zm455.48 -700.79l0 1879.71 -288.26 0 0 -1879.71 288.26 0zm708.68 1907.89c-165.71,0 -294.14,-94.87 -384.98,-284.63 -90.86,-190.22 -136.13,-419.9 -136.13,-689.52 0,-274.3 45.89,-503.02 137.98,-686.68 92.08,-183.66 222.97,-275.24 393.28,-275.24 171.87,0 301.52,97.7 389,293.55 87.45,195.86 131.2,420.38 131.2,672.6 0,272.43 -44.97,502.11 -135.21,689.04 -90.25,187.41 -221.75,280.88 -395.14,280.88zm8.32 -1578.17c-150.91,0 -226.38,202.91 -226.38,609.19 0,407.22 75.47,611.08 226.38,611.08 145.96,0 218.98,-203.38 218.98,-609.66 0,-407.23 -73.02,-610.61 -218.98,-610.61zm226.35 -975.08l68.39 230.62 -396.69 256.93 -44.97 -153.6 373.27 -333.95zm1430.59 645.36l0 1879.71 -250.09 0 -476.14 -1269.58c0.62,31.94 1.23,53.08 1.85,63.41 2.46,31.93 3.69,59.18 3.69,81.25l0 1124.92 -225.44 0 0 -1879.71 312.3 0 415.77 1108.47c-3.69,-54.95 -5.54,-96.75 -5.54,-125.41l0 -983.06 223.6 0z"/>
   <g>
    <g>
     <path class="fil2" d="M6505.56 11866.04c-135.61,-82.32 -375.33,-548.25 -474.16,-712.48 -312,-518.43 -493.69,-1053.13 -493.69,-1725.75 0,-1452.25 1195.38,-2673.57 2637.94,-2673.57 800.05,0 1177.52,400.9 1825.54,598.93 85.77,28.03 159.62,40.76 226.33,40.76 161.99,0 298.85,-424.72 356.02,-679.5 52.41,0 104.83,0 157.24,0 9.75,1089.64 19.5,2179.27 29.25,3268.91 -150.18,9.79 -212.67,-111.99 -235.61,-293.07 -126.27,-473.89 -285.65,-793.55 -377.5,-1046.15 -562.28,-1546.29 -3139.26,-2053.22 -3321.57,-167.52 0,833.12 537.85,1450.34 1373.77,1883.25 327.98,169.85 655.94,339.71 983.92,509.56 521.77,270.2 865.78,693.29 1187.45,996.63 135.61,82.33 375.33,548.25 474.17,712.49 311.99,518.42 493.69,1053.12 493.69,1725.74 0,1452.26 -1277.18,3073.98 -3128.66,2891.66 -800.05,0 -993.51,-346.37 -1641.52,-544.4 -85.77,-28.02 -159.63,-40.76 -226.33,-40.76 -466.31,-13.63 -755.73,935.22 -780.34,475.17 -9.75,-1089.64 -18.23,-2247.56 -27.98,-3337.2 122.19,-358.22 676.44,1150.45 742.61,1332.4 546.07,1837.96 3459.86,2429.56 3662.34,181.16 0,-833.13 -435.62,-1457.16 -1271.54,-1890.07 -327.97,-169.85 -601.41,-428.3 -929.39,-598.15 -521.77,-270.21 -845.33,-604.69 -1241.98,-908.04z"/>
     <path class="fil3" d="M3659.61 4297.69c-229.59,0 -133.2,-3.41 -391.59,-0.67 -564.92,6 -838.72,9.83 -1114.98,162.34 -276.26,152.52 -454.99,345.03 -633.61,716.94 -164.81,343.15 -325.27,623.55 -412.99,1208.61l-256.45 -8.57 97.74 -2620.6 3697.43 0 3697.44 0 97.74 2620.6 -256.45 8.57c-87.72,-585.06 -248.18,-865.46 -412.99,-1208.61 -178.62,-371.91 -357.35,-564.42 -633.61,-716.94 -276.26,-152.51 -550.06,-156.34 -1114.98,-162.34 -258.4,-2.74 -162,0.67 -391.59,0.67l0 7128.47c0,505.04 1,929.9 -4.7,1170.91 -6.14,259.01 61.88,651.52 326.49,779.91 128.78,62.5 239.18,116.14 450.11,131.14l13.64 253.62 -1771.1 0 -1771.09 0 13.64 -253.62c210.93,-15 321.33,-68.64 450.11,-131.14 264.61,-128.39 332.63,-520.9 326.49,-779.91 -5.7,-241.01 -4.7,-665.87 -4.7,-1170.91l0 -7128.47z"/>
     <path class="fil4" d="M1626.16 7696.39c47.92,0 90.28,-5.84 127.72,-17.27 37.07,-11.16 68.56,-27.42 94.13,-48.24 25.88,-20.82 45.49,-46.21 59.11,-75.9 13.66,-29.72 20.32,-62.98 20.32,-99.54l0 -589.3 268.7 0 0 589.3c0,59.41 -13.31,114.26 -39.53,164.27 -26.25,50.02 -64.02,93.44 -113.36,129.75 -49,36.56 -108.83,65 -179.17,85.3 -70.32,20.32 -149.75,30.47 -237.92,30.47 -88.17,0 -167.58,-10.15 -238.28,-30.47 -70.68,-20.3 -130.85,-48.74 -179.85,-85.3 -49.34,-36.31 -87.13,-79.73 -113.38,-129.75 -26.2,-50.01 -39.5,-104.86 -39.5,-164.27l0 -589.3 269.77 0 0 589.3c0,36.56 6.62,69.82 20.28,99.54 13.62,29.69 33.22,55.08 59.15,75.9 25.53,20.82 57.02,37.08 94.09,48.24 37.44,11.43 79.8,17.27 127.72,17.27z"/>
     <path class="fil4" d="M1343.68 8926.07l0 363.87 -305.43 0 0 -945.79 463.08 0c102.37,0 190.48,6.82 263.99,20.42 73.09,13.62 133.14,32.33 179.79,56.64 46.63,24.07 80.99,53.23 102.33,86.77 21.76,33.79 32.43,70.74 32.43,111.09 0,30.87 -6.74,60.29 -20.56,87.99 -13.84,27.72 -34.41,53.23 -60.85,76.32 -26.88,22.85 -59.27,43.28 -98.02,61.01 -38.31,17.98 -82.97,32.32 -133.14,43.27 19.34,6.56 37.53,14.58 54.52,23.81 16.99,9.24 32.79,20.43 47.41,33.79l343.78 344.68 -274.24 0c-48.6,0 -86.12,-12.65 -112.22,-37.68l-280.14 -294.84c-11.47,-11.42 -24.51,-19.44 -38.75,-24.31 -14.2,-4.62 -34.74,-7.04 -60.85,-7.04l-103.13 0zm0 -133.2l155.3 0c49.4,0 92.08,-4.15 127.64,-12.16 35.96,-8.02 65.59,-19.21 88.9,-33.31 22.92,-14.34 40.29,-31.35 51.38,-51.03 11.07,-19.69 16.61,-41.09 16.61,-64.42 0,-45.93 -22.93,-81.43 -69.16,-106.46 -46.23,-25.04 -117.37,-37.43 -213.02,-37.43l-157.65 0 0 304.81z"/>
     <path class="fil4" d="M2229.88 10342.74c0,83.78 -20.64,159.7 -61.9,227.99 -41.29,68.05 -99.4,124.92 -173.91,170.63l349.55 287.17 -221.13 0c-32.19,0 -60.89,-3.06 -85.72,-8.9 -24.85,-6.1 -48.3,-17.77 -70.34,-35.04l-188.58 -158.43c-65.46,14.48 -134.74,21.58 -207.87,21.58 -99.36,0 -189.28,-12.7 -270.81,-37.83 -81.17,-25.39 -151.13,-60.69 -209.24,-105.62 -58.08,-45.19 -102.87,-98.78 -134.7,-160.46 -31.85,-61.71 -47.6,-128.74 -47.6,-201.09 0,-71.86 15.75,-138.89 47.6,-200.59 31.83,-61.7 76.62,-115.01 134.7,-159.96 58.11,-44.68 128.07,-79.98 209.24,-105.62 81.53,-25.39 171.45,-38.33 270.81,-38.33 99.02,0 189.3,12.94 270.49,38.33 81.17,25.64 150.81,60.94 208.53,106.13 57.73,44.94 102.52,98.26 133.67,159.97 31.47,61.42 47.21,128.21 47.21,200.07zm-274.66 0c0,-52.57 -8.73,-99.8 -26.58,-141.44 -17.83,-41.62 -43.4,-77.18 -76.28,-106.38 -33.23,-29.19 -73.48,-51.53 -121.08,-67.28 -47.56,-15.48 -101.47,-23.36 -161.3,-23.36 -60.15,0 -114.41,7.88 -161.98,23.36 -47.94,15.75 -88.53,38.09 -121.77,67.28 -32.89,29.2 -58.44,64.76 -76.29,106.38 -17.82,41.64 -26.6,88.87 -26.6,141.44 0,53.07 8.78,100.53 26.6,142.43 17.85,41.9 43.4,77.18 76.29,106.38 33.24,28.96 73.83,51.04 121.77,66.53 47.57,15.24 101.83,23.1 161.98,23.1 59.83,0 113.74,-7.86 161.3,-23.1 47.6,-15.49 87.85,-37.57 121.08,-66.53 32.88,-29.2 58.45,-64.48 76.28,-106.38 17.85,-41.9 26.58,-89.36 26.58,-142.43z"/>
     <path class="fil4" d="M2224.67 14367.66l0 68.64c0,20.22 -10.72,38.75 -32.62,55.62l-749.27 665.33 760.89 0 0 147.36 -1177.08 0 0 -72c0,-18.78 9.85,-35.63 29.95,-50.81l749.27 -666.52 -721.55 0 0 -147.62 1140.41 0z"/>
     <path class="fil4" d="M2334.02 16844.74l-231.62 0c-26.62,0 -48.12,-3.96 -64.17,-11.88 -16.04,-8.18 -27.79,-18.09 -35.6,-30.24l-96.27 -189.56 -560.7 0 -95.07 188.83c-5.84,10.65 -17.59,20.56 -34.82,29.47 -17.19,8.92 -38.33,13.38 -63.78,13.38l-234.75 0 554.84 -964.15 307.12 0 554.82 964.15zm-920.65 -365.24l424.13 0 -154.56 -304.79c-9.4,-15.11 -18.77,-32.45 -28.56,-52.77 -10.17,-20.08 -19.94,-41.88 -30.12,-65.67 -8.99,23.79 -18.78,45.85 -28.55,66.17 -9.8,20.3 -19.19,37.91 -27.41,53.03l-154.93 304.03z"/>
     <path class="fil4" d="M1626.16 12194.61c47.92,0 90.28,-5.85 127.72,-17.28 37.07,-11.16 68.56,-27.42 94.13,-48.24 25.88,-20.82 45.49,-46.21 59.11,-75.9 13.66,-29.72 20.32,-62.98 20.32,-99.54l0 -589.3 268.7 0 0 589.3c0,59.41 -13.31,114.26 -39.53,164.27 -26.25,50.02 -64.02,93.44 -113.36,129.75 -49,36.56 -108.83,65 -179.17,85.3 -70.32,20.32 -149.75,30.47 -237.92,30.47 -88.17,0 -167.58,-10.15 -238.28,-30.47 -70.68,-20.3 -130.85,-48.74 -179.85,-85.3 -49.34,-36.31 -87.13,-79.73 -113.38,-129.75 -26.2,-50.01 -39.5,-104.86 -39.5,-164.27l0 -589.3 269.77 0 0 589.3c0,36.56 6.62,69.82 20.28,99.54 13.62,29.69 33.22,55.08 59.15,75.9 25.53,20.82 57.02,37.08 94.09,48.24 37.44,11.43 79.8,17.28 127.72,17.28z"/>
     <polygon class="fil5" points="1446.77,12851.04 1804.59,12851.04 1804.59,13808.61 1446.77,13808.61 "/>
    </g>
    <g>
     <path class="fil6" d="M7029.59 7930.71l174.36 -0.49 0.95 1534.42 9.13 100.84 1584.58 9.02c61.94,91.97 13.79,942.06 26.92,1206.93 264.74,110.78 617.61,418.62 885.53,569.91l28.3 -1777.54c109.18,-55.93 563.7,-15.91 729.34,-22.53 -85.04,-377.76 -166.77,-477.82 -211.45,-647.3 -169.68,-7.09 -453.36,25.39 -528.16,-43.01l-21.1 -819.68c-87.45,-59.93 -167.58,-179.55 -256.79,-262.03 -280.3,-259.11 -625.23,-473.95 -1050.48,-508.03 -496.53,-39.8 -804.99,-23.56 -1170.52,341.31 -69.65,69.53 -211.83,207.02 -200.61,318.18z"/>
     <path class="fil7" d="M5600.22 11413.64l6.9 2170.17c57.82,-62.24 2.98,-310.2 55.1,-407.43 4.07,147.95 0.24,389.13 39.8,534.49 37.91,139.21 24.25,-15.87 50.01,141.87 4.12,-5.19 8.49,-21.5 10.44,-16.92 0.1,0.25 -6.66,-62.65 176.66,-58.83l835.6 -19.97c24.61,-55.51 21.58,-85.51 40,-133.73 207.2,1.86 6.21,48.61 218.19,-11.67 37.37,74.35 78.29,159.22 144.96,196.75 -6.24,-137.63 -38.97,-150.92 -35.42,-309.8 2.2,-98.47 7.9,-225.28 15.92,-318.73l8.52 318.82c24.24,142.91 -24.31,53.57 47.58,100.15 -45.15,-413.75 -10.08,-907.74 -6.73,-1328.5 3.53,-444.47 -6.22,-890.26 0.18,-1334.48 -51.42,66.14 -31.81,18.35 -47,133.11 -1.72,12.98 -0.96,117.52 -1.21,139.33 -0.79,68.87 -0.25,159.72 -25.14,203.96l-8.2 -221.3c-157.95,20.71 -100.88,-18.34 -135.61,87.17l-47.63 -272c-95.27,42.31 -283.09,51.48 -395.53,29.15 -84.25,-16.72 -24.6,-5.83 -60.48,-20.53 -157.43,-64.54 -59,16.24 -286.19,66.24 -72.1,15.88 -120.99,1.64 -180.58,67.84 -24.27,26.98 -10.49,7.39 -28.87,53.71 -57.29,-103.6 26.06,-74.84 -81.38,-57.6 -128.19,20.56 -210.63,159.51 -215.95,278.23l-93.94 -9.5z"/>
     <path class="fil7 str0" d="M5600.22 11413.64l93.94 9.5c5.32,-118.72 87.76,-257.67 215.95,-278.23 107.44,-17.24 24.09,-46 81.38,57.6 18.38,-46.32 4.6,-26.73 28.87,-53.71 59.59,-66.2 108.48,-51.96 180.58,-67.84 227.19,-50 128.76,-130.78 286.19,-66.24 35.88,14.7 -23.77,3.81 60.48,20.53 112.44,22.33 300.26,13.16 395.53,-29.15l47.63 272c34.73,-105.51 -22.34,-66.46 135.61,-87.17l8.2 221.3c24.89,-44.24 24.35,-135.09 25.14,-203.96 0.25,-21.81 -0.51,-126.35 1.21,-139.33 15.19,-114.76 -4.42,-66.97 47,-133.11l1600.55 6.42 -5.93 -193.92 -220.18 -108.71c-51.54,-34.75 -125.44,-88.5 -174.68,-125.5l-550.76 -375.24c-118.93,-85.97 -526.02,-230.79 -656.56,-245.08 -265.17,-29.05 -933.45,-67.73 -1181.41,-1.18l-486.67 113.48c-140.42,59.63 -34.49,83.85 -190.5,109.03 -56.3,9.08 -217.71,9.18 -285.76,12.34 -1.65,27.87 -1.79,71.46 -7.13,97.07 -1.63,7.82 -4.05,16.03 -5.89,23.02l-28.36 63.95c-35.28,-53.82 -32.01,-142.85 -54.54,-190.65 -40.38,76.48 -33.82,359.93 -54.01,545.94 -5.72,52.73 -6.32,118.29 -3,139.25 -21.14,-109.42 9.12,-81.73 -38.68,-221.92l-26.99 -68.61c-29.1,-104.41 -13.55,-804.65 -13.55,-944.38l6.87 1362.66 768.52 11 0.95 468.84z"/>
     <path class="fil7 str0" d="M5602.24 9573.81l-778.36 -2.67c0,139.73 -15.55,839.97 13.55,944.38l26.99 68.61c47.8,140.19 17.54,112.5 38.68,221.92 -3.32,-20.96 -2.72,-86.52 3,-139.25 20.19,-186.01 13.63,-469.46 54.01,-545.94 22.53,47.8 19.26,136.83 54.54,190.65l28.36 -63.95c1.84,-6.99 4.26,-15.2 5.89,-23.02 5.34,-25.61 5.48,-69.2 7.13,-97.07 68.05,-3.16 229.46,-3.26 285.76,-12.34 156.01,-25.18 50.08,-49.4 190.5,-109.03l486.67 -113.48c247.96,-66.55 916.24,-27.87 1181.41,1.18 130.54,14.29 537.63,159.11 656.56,245.08l550.76 375.24c49.24,37 123.14,90.75 174.68,125.5l220.18 108.71 -3.94 -1173.83 -1584.58 -9.02 -9.13 -100.84c-70.49,10.09 -29.17,21.63 -66.18,-3.54l1.34 -199.44c-57.64,-89.97 -31.38,-134.83 -54.83,-239.31 -21.55,77.7 -18.78,99.8 -17.49,193.41 0.88,63.71 10.22,34.41 -1.22,107.76 -13.7,87.75 2.39,33.61 -32.77,85.14 -47.62,-154.45 -123.69,-295.07 -219.02,-417.69l-783.96 0.19c45.69,-68.86 35.46,51.1 -84.34,-17.69l-49.38 -38.1 -55.23 98.87c-93.52,104.74 4.64,-75.42 -44.4,58.33 -0.66,-0.58 -106.82,20.14 -54.69,-131.26 -72.36,153.18 -35.19,105.23 -47.77,311.01 -2.38,38.81 -13.43,133.91 -21.62,169.43 -26.55,115.17 6.87,100.84 -71.1,132.06z"/>
     <path class="fil7 str1" d="M5607.12 13583.81c13.64,286.33 83.27,890.57 213.77,1050.17 106.64,-23.08 83.77,38.18 172.59,176.75 142.4,222.13 243.93,171.1 357.59,291.06 68.3,-55.08 104.14,-123.61 207.12,-97.84 6.85,1.72 13.8,6.07 20.55,8.35 6.8,2.3 13.41,7.43 20.07,9.89 66.06,24.33 -2.68,86.79 137.9,-19.12 120.57,-90.84 102.13,-40.08 212.83,-53.03l790.38 -254.04c6.14,-2.43 13.25,-5.46 19.22,-8.07 88.41,-38.58 242.36,-91.08 262.21,-179.36 12.12,-53.86 -134.47,-40.23 153.3,-65.93 124.03,-11.09 -16.45,-55.09 112.85,2.43 41.7,-57.11 25.79,-22.01 29.07,-125.66 97.08,-11.93 92.55,9.26 154.18,-30.84 -29.02,-76.47 11.15,-9.61 -53.39,-45.97 -6.74,-3.79 -32.13,-14.74 -39.09,-17.97 -5.95,-2.76 -16.45,-6.74 -21.47,-8.93 -5.13,-2.25 -15.61,-4.33 -22.07,-8.95l145.57 -54.55c-90.24,-72.24 -469.21,-37.29 -601.8,-57.27l-91.02 -24.55c62.37,-66.55 -3.47,-18.88 91.78,-43.3l781.2 -11.08c-1.06,58.38 -720.37,16.32 -891.95,8.48 -311.61,-14.23 -568.44,-104.58 -554.03,-425.67l0 0c-71.89,-46.58 -23.34,42.76 -47.58,-100.15l-8.52 -318.82c-8.02,93.45 -13.72,220.26 -15.92,318.73 -3.55,158.88 29.18,172.17 35.42,309.8 -66.67,-37.53 -107.59,-122.4 -144.96,-196.75 -211.98,60.28 -10.99,13.53 -218.19,11.67 -18.42,48.22 -15.39,78.22 -40,133.73l-835.6 19.97c-183.32,-3.82 -176.56,59.08 -176.66,58.83 -1.95,-4.58 -6.32,11.73 -10.44,16.92 -25.76,-157.74 -12.1,-2.66 -50.01,-141.87 -39.56,-145.36 -35.73,-386.54 -39.8,-534.49 -52.12,97.23 2.72,345.19 -55.1,407.43z"/>
     <path class="fil7" d="M5820.89 14633.98c45.85,138.89 142.78,278.74 213.89,352.33 334.57,346.28 930.74,412.79 1379.96,413.16 416.04,0.34 835.07,-5.41 1250.69,0.62l4.84 -1384.12 -791.01 11.11c-89.29,9.08 -29.41,-23.25 -91.78,43.3l91.02 24.55c132.59,19.98 511.56,-14.97 601.8,57.27l-145.57 54.55c6.46,4.62 16.94,6.7 22.07,8.95 5.02,2.19 15.52,6.17 21.47,8.93 6.96,3.23 32.35,14.18 39.09,17.97 64.54,36.36 24.37,-30.5 53.39,45.97 -61.63,40.1 -57.1,18.91 -154.18,30.84 -3.28,103.65 12.63,68.55 -29.07,125.66 -129.3,-57.52 11.18,-13.52 -112.85,-2.43 -287.77,25.7 -141.18,12.07 -153.3,65.93 -19.85,88.28 -173.8,140.78 -262.21,179.36 -5.97,2.61 -13.08,5.64 -19.22,8.07l-790.38 254.04c-110.7,12.95 -92.26,-37.81 -212.83,53.03 -140.58,105.91 -71.84,43.45 -137.9,19.12 -6.66,-2.46 -13.27,-7.59 -20.07,-9.89 -6.75,-2.28 -13.7,-6.63 -20.55,-8.35 -102.98,-25.77 -138.82,42.76 -207.12,97.84 -113.66,-119.96 -215.19,-68.93 -357.59,-291.06 -88.82,-138.57 -65.95,-199.83 -172.59,-176.75z"/>
     <path class="fil7 str0" d="M5604.15 8833.68l-1.91 740.13c77.97,-31.22 44.55,-16.89 71.1,-132.06 8.19,-35.52 19.24,-130.62 21.62,-169.43 12.58,-205.78 -24.59,-157.83 47.77,-311.01 -52.13,151.4 54.03,130.68 54.69,131.26 49.04,-133.75 -49.12,46.41 44.4,-58.33l55.23 -98.87 49.38 38.1c119.8,68.79 130.03,-51.17 84.34,17.69l783.96 -0.19c95.33,122.62 171.4,263.24 219.02,417.69 35.16,-51.53 19.07,2.61 32.77,-85.14 11.44,-73.35 2.1,-44.05 1.22,-107.76 -1.29,-93.61 -4.06,-115.71 17.49,-193.41 23.45,104.48 -2.81,149.34 54.83,239.31l-56.59 -1180.49 -109.93 14.98c-0.53,6.45 -2.51,82.28 -4,86.13 -42.83,110.71 26.61,22.21 -71.23,105.92 -4.81,-98.64 -7.79,-62.75 -7.3,-135.38 0.26,-36.9 8.87,-55.61 5.67,-110.31 -227.13,1.09 -770,-32.69 -927.45,24.53 48.41,-104.3 67.35,36.39 77.9,57.66 -182.81,148.26 100.33,-30.19 -78.34,37.36 -198.52,75.05 -67.09,45.89 -163.19,173.27l-81.96 -133.41 -54.55 413.7c-25.58,85.21 47.82,104.07 -64.94,218.06z"/>
     <path class="fil7 str0" d="M5604.15 8833.68c112.76,-113.99 39.36,-132.85 64.94,-218.06l54.55 -413.7 81.96 133.41c96.1,-127.38 -35.33,-98.22 163.19,-173.27 178.67,-67.55 -104.47,110.9 78.34,-37.36 -10.55,-21.27 -29.49,-161.96 -77.9,-57.66 157.45,-57.22 700.32,-23.44 927.45,-24.53 3.2,54.7 -5.41,73.41 -5.67,110.31 -0.49,72.63 2.49,36.74 7.3,135.38 97.84,-83.71 28.4,4.79 71.23,-105.92 1.49,-3.85 3.47,-79.68 4,-86.13l109.93 -14.98 56.59 1180.49 -1.34 199.44c37.01,25.17 -4.31,13.63 66.18,3.54l-0.95 -1534.42 -174.36 0.49 -1425.99 4.08 0.55 898.89z"/>
     <polygon class="fil7" points="2401.21,9578.24 3993.9,9578.24 3993.9,15380.13 2401.21,15380.13 "/>
     <polygon class="fil7" points="2401.21,7314.52 3993.9,7314.52 3993.9,8880.2 2401.21,8880.2 "/>
     <polygon class="fil7" points="9708.42,9578.24 11301.11,9578.24 11301.11,15380.13 9708.42,15380.13 "/>
     <polygon class="fil7" points="9708.42,7314.52 11301.11,7314.52 11301.11,8880.2 9708.42,8880.2 "/>
    </g>
   </g>
  </g>
 </g>
</svg>
